<?xml version="1.0" encoding="UTF-8" standalone="no"?>
<!-- Created with Inkscape (http://www.inkscape.org/) -->

<svg
   version="1.1"
   width="100"
   height="87.563423"
   id="svg2"
   xml:space="preserve"
   xmlns="http://www.w3.org/2000/svg"
   xmlns:svg="http://www.w3.org/2000/svg"
   xmlns:rdf="http://www.w3.org/1999/02/22-rdf-syntax-ns#"
   xmlns:cc="http://creativecommons.org/ns#"
   xmlns:dc="http://purl.org/dc/elements/1.1/"><defs
     id="defs52" /><metadata
     id="metadata4"><rdf:RDF><cc:Work
         rdf:about=""><dc:format>image/svg+xml</dc:format><dc:type
           rdf:resource="http://purl.org/dc/dcmitype/StillImage" /></cc:Work></rdf:RDF></metadata><path
     style="fill:#cd1e00;fill-opacity:1;fill-rule:nonzero;stroke:none;stroke-width:0.313602"
     d="m 50,0 c 1.178314,3.889e-5 2.35633,0.58842779 3.047824,1.7738086 L 99.519798,82.310597 C 99.85888,82.847248 100,83.443872 100,84.064806 c 0,1.919241 -1.551158,3.498617 -3.49863,3.498617 H 3.4986264 C 1.5511578,87.563423 0,85.984047 0,84.064806 0,83.443872 0.14112069,82.847248 0.48020234,82.310597 L 46.952176,1.7738086 C 47.64367,0.58842779 48.821686,3.889e-5 50,0 Z"
     id="path11" /><path
     style="fill:#ffffff;fill-rule:nonzero;stroke:none;stroke-width:0.313602"
     d="M 50,17.539214 84.362574,77.035688 H 15.637583 Z"
     id="path13" /><path
     style="fill:#000000;fill-rule:nonzero;stroke:none;stroke-width:0.313602"
     d="m 55.269334,33.900058 c 0.119162,-0.237578 0.445715,-0.237578 0.564463,0 l 5.967101,8.4315 c 0,0.08865 0,0.08865 0,0.08865 0,0.237911 -0.118749,0.356245 -0.237497,0.356245 L 58.654069,42.21281 v 11.666604 c 0,4.097226 -3.265573,7.362392 -7.362802,7.362392 -1.276133,0 -2.582361,-0.237497 -3.621822,-0.920299 l -4.927639,-2.819861 c -0.118749,-0.118748 -0.32656,-0.118748 -0.564467,-0.118748 -0.712491,0 -1.305822,0.474583 -1.305822,1.306232 V 73.859221 H 34.577569 V 58.214137 c 0,-5.729604 6.08614,-9.232674 10.984505,-6.323756 l 4.897954,2.820682 c 0.118749,0 0.356659,0.118749 0.593742,0.118749 0.713312,0 1.276957,-0.594153 1.276957,-1.306643 V 42.21281 l -2.790997,0.563642 c -0.118748,0 -0.355831,-0.118334 -0.355831,-0.356245 0,0 0.119159,0 0.119159,-0.08865 z"
     id="path15" /></svg>
