<?xml version="1.0" encoding="UTF-8" standalone="no"?>
<!-- Created with Inkscape (http://www.inkscape.org/) -->

<svg
   version="1.1"
   width="100"
   height="87.563423"
   id="svg2"
   xml:space="preserve"
   xmlns="http://www.w3.org/2000/svg"
   xmlns:svg="http://www.w3.org/2000/svg"
   xmlns:rdf="http://www.w3.org/1999/02/22-rdf-syntax-ns#"
   xmlns:cc="http://creativecommons.org/ns#"
   xmlns:dc="http://purl.org/dc/elements/1.1/"><defs
     id="defs52" /><metadata
     id="metadata4"><rdf:RDF><cc:Work
         rdf:about=""><dc:format>image/svg+xml</dc:format><dc:type
           rdf:resource="http://purl.org/dc/dcmitype/StillImage" /></cc:Work></rdf:RDF></metadata><path
     style="fill:#cd1e00;fill-opacity:1;fill-rule:nonzero;stroke:none;stroke-width:0.313602"
     d="M 50,0 C 48.821686,3.889e-5 47.64367,0.58842779 46.952176,1.7738086 L 0.48020234,82.310597 C 0.14112069,82.847248 0,83.443872 0,84.064806 c 0,1.919241 1.5511578,3.498617 3.4986296,3.498617 H 96.501374 c 1.947468,0 3.498626,-1.579376 3.498626,-3.498617 0,-0.620934 -0.14112,-1.217558 -0.480202,-1.754209 L 53.047824,1.7738086 C 52.35633,0.58842779 51.178314,3.889e-5 50,0 Z"
     id="path11" /><path
     style="fill:#ffffff;fill-rule:nonzero;stroke:none;stroke-width:0.313602"
     d="M 50,17.539214 15.637426,77.035688 h 68.724991 z"
     id="path13" /><path
     style="fill:#000000;fill-rule:nonzero;stroke:none;stroke-width:0.313602"
     d="m 44.730666,33.900058 c -0.119162,-0.237578 -0.445715,-0.237578 -0.564463,0 l -5.967101,8.4315 c 0,0.08865 0,0.08865 0,0.08865 0,0.237911 0.118749,0.356245 0.237497,0.356245 l 2.909332,-0.563642 v 11.666604 c 0,4.097226 3.265573,7.362392 7.362802,7.362392 1.276133,0 2.582361,-0.237497 3.621822,-0.920299 l 4.927639,-2.819861 c 0.118749,-0.118748 0.32656,-0.118748 0.564467,-0.118748 0.712491,0 1.305822,0.474583 1.305822,1.306232 v 15.170091 h 6.293948 V 58.214137 c 0,-5.729604 -6.08614,-9.232674 -10.984505,-6.323756 l -4.897954,2.820682 c -0.118749,0 -0.356659,0.118749 -0.593742,0.118749 -0.713312,0 -1.276957,-0.594153 -1.276957,-1.306643 V 42.21281 l 2.790997,0.563642 c 0.118748,0 0.355831,-0.118334 0.355831,-0.356245 0,0 -0.119159,0 -0.119159,-0.08865 z"
     id="path15" /></svg>
