<?xml version="1.0" encoding="UTF-8" standalone="no"?>
<!-- Created with Inkscape (http://www.inkscape.org/) -->

<svg
   version="1.1"
   width="100"
   height="87.563423"
   id="svg2"
   xml:space="preserve"
   xmlns="http://www.w3.org/2000/svg"
   xmlns:svg="http://www.w3.org/2000/svg"
   xmlns:rdf="http://www.w3.org/1999/02/22-rdf-syntax-ns#"
   xmlns:cc="http://creativecommons.org/ns#"
   xmlns:dc="http://purl.org/dc/elements/1.1/"><defs
     id="defs52" /><metadata
     id="metadata4"><rdf:RDF><cc:Work
         rdf:about=""><dc:format>image/svg+xml</dc:format><dc:type
           rdf:resource="http://purl.org/dc/dcmitype/StillImage" /></cc:Work></rdf:RDF></metadata><path
     style="fill:#cd1e00;fill-opacity:1;fill-rule:nonzero;stroke:none;stroke-width:0.313602"
     d="M 50,0 C 48.821686,3.889e-5 47.64367,0.58842779 46.952176,1.7738086 L 0.48020234,82.310597 C 0.14112069,82.847248 0,83.443872 0,84.064806 c 0,1.919241 1.5511578,3.498617 3.4986296,3.498617 H 96.501374 c 1.947468,0 3.498626,-1.579376 3.498626,-3.498617 0,-0.620934 -0.14112,-1.217558 -0.480202,-1.754209 L 53.047824,1.7738086 C 52.35633,0.58842779 51.178314,3.889e-5 50,0 Z"
     id="path11" /><path
     style="fill:#ffffff;fill-rule:nonzero;stroke:none;stroke-width:0.313602"
     d="M 50,17.539214 15.637426,77.035688 h 68.724991 z"
     id="path13" /><path
     style="fill:#000000;fill-rule:nonzero;stroke:none;stroke-width:0.313602"
     d="m 63.257903,50.817807 c 0,-1.486274 -1.456968,-2.972554 -2.943248,-2.972554 -1.48628,0 -2.97256,1.48628 -2.97256,2.972554 0,1.48628 1.48628,2.972146 2.97256,2.972146 1.48628,0 2.943248,-1.485866 2.943248,-2.972146 z"
     id="path15" /><path
     style="fill:#000000;fill-rule:nonzero;stroke:none;stroke-width:0.313602"
     d="m 44.411464,61.578469 c 0,-1.48669 -1.486277,-2.942827 -2.94279,-2.942827 -1.486113,0 -2.9726,1.456137 -2.9726,2.942827 0,1.48628 1.486487,2.97256 2.9726,2.97256 1.456513,0 2.94279,-1.48628 2.94279,-2.97256 z"
     id="path17" /><path
     style="fill:#000000;fill-rule:nonzero;stroke:none;stroke-width:0.313602"
     d="M 34.423955,49.331533 47.294848,41.92986 c 0.475608,-0.505748 1.456554,-0.505748 1.961888,0 l 4.934448,2.942833 h 0.505334 c 0.505335,0 0.980946,0 0.980946,0 l 5.439782,-2.942833 c 0.505335,-0.505748 1.487105,-0.505748 1.991614,0.475611 l 1.961889,3.953088 c 0.505334,0 0.505334,0.505749 0.505334,1.011083 0,0.475611 -0.505334,0.980946 -0.980943,1.456143 l -1.010257,0.505748 c -0.980532,-0.980945 -1.962302,-1.961891 -3.448168,-1.961891 -1.961888,0 -3.448582,1.456143 -3.448582,3.953088 0,0.476022 0,0.981357 0.475611,1.486691 L 44.797899,59.70576 c -0.475611,-0.981359 -1.961891,-1.456557 -3.447757,-1.456557 -1.992109,0 -3.478223,1.456557 -3.478223,3.448582 0,0.504924 0,1.485866 0.505582,1.991204 l -2.467433,0.980942 c -0.505208,0.475611 -1.991322,0.475611 -1.991322,-0.505334 l -2.46743,-3.953502 c -0.475775,-0.505335 0,-1.486691 0.505169,-1.961892 l 0.980942,-0.505331 c 0,0 0.505171,-0.505334 0.505171,-0.980942 v -5.94512 c 0,-0.980942 0.476148,-1.486277 0.981357,-1.486277 z"
     id="path19" /><path
     style="fill:#ffffff;fill-rule:nonzero;stroke:none;stroke-width:0.313602"
     d="m 42.331088,46.864308 1.9912,3.953499 -6.925692,3.953505 v -4.934444 c 0,0 0,-0.505335 0.475323,-0.505335 z"
     id="path21" /><path
     style="fill:#ffffff;fill-rule:nonzero;stroke:none;stroke-width:0.313602"
     d="m 48.751402,43.386414 4.458836,2.496948 c 0,0 0,0 0,0.475197 l -7.40167,3.953914 -2.496538,-3.953914 4.963761,-2.972145 z"
     id="path23" /><path
     style="fill:#000000;fill-rule:nonzero;stroke:none;stroke-width:0.313602"
     d="M 24.525088,76.025107 68.073072,50.312473 82.906556,76.025107 Z"
     id="path29" /></svg>
