<?xml version="1.0" encoding="UTF-8" standalone="no"?>
<!-- Created with Inkscape (http://www.inkscape.org/) -->

<svg
   version="1.1"
   width="100"
   height="87.563423"
   id="svg2"
   xml:space="preserve"
   xmlns="http://www.w3.org/2000/svg"
   xmlns:svg="http://www.w3.org/2000/svg"
   xmlns:rdf="http://www.w3.org/1999/02/22-rdf-syntax-ns#"
   xmlns:cc="http://creativecommons.org/ns#"
   xmlns:dc="http://purl.org/dc/elements/1.1/"><defs
     id="defs52" /><metadata
     id="metadata4"><rdf:RDF><cc:Work
         rdf:about=""><dc:format>image/svg+xml</dc:format><dc:type
           rdf:resource="http://purl.org/dc/dcmitype/StillImage" /></cc:Work></rdf:RDF></metadata><path
     style="fill:#cd1e00;fill-opacity:1;fill-rule:nonzero;stroke:none;stroke-width:0.313602"
     d="M 50,0 C 48.821686,3.889e-5 47.64367,0.58842779 46.952176,1.7738086 L 0.48020234,82.310597 C 0.14112069,82.847248 0,83.443872 0,84.064806 c 0,1.919241 1.5511578,3.498617 3.4986296,3.498617 H 96.501374 c 1.947468,0 3.498626,-1.579376 3.498626,-3.498617 0,-0.620934 -0.14112,-1.217558 -0.480202,-1.754209 L 53.047824,1.7738086 C 52.35633,0.58842779 51.178314,3.889e-5 50,0 Z"
     id="path11" /><path
     style="fill:#ffffff;fill-rule:nonzero;stroke:none;stroke-width:0.313602"
     d="M 50,17.539214 15.637426,77.035688 h 68.724991 z"
     id="path13" /><path
     style="fill:#000000;fill-rule:nonzero;stroke:none;stroke-width:0.313602"
     d="m 60.428311,40.260111 -9.991345,-2.709674 c -0.02822,0 -0.02822,0 -0.05645,0 -0.140726,0 -0.254018,0.112934 -0.254018,0.253819 0,0.05665 0,0.08459 0.02822,0.112897 l 1.467658,2.511518 -7.507232,2.766358 c -5.729772,2.088586 -9.539912,7.564069 -9.539912,13.660482 V 73.90289 H 40.86898 V 56.826895 c 0,-3.414729 2.145034,-6.491159 5.362583,-7.676573 l 7.564068,-2.79419 0.508038,2.850638 c 0.02863,0.112897 0.141509,0.197569 0.254017,0.197569 0.08507,0 0.141513,-0.02822 0.197961,-0.112505 l 5.870229,-8.495857 c 0.02822,-0.05645 0.05645,-0.141121 0.05645,-0.197569 0,-0.169737 -0.1129,-0.310465 -0.254017,-0.338297 z"
     id="path15" /></svg>
