<?xml version="1.0" encoding="UTF-8" standalone="no"?>
<!-- Created with Inkscape (http://www.inkscape.org/) -->

<svg
   version="1.1"
   width="100"
   height="87.563423"
   id="svg2"
   xml:space="preserve"
   xmlns="http://www.w3.org/2000/svg"
   xmlns:svg="http://www.w3.org/2000/svg"
   xmlns:rdf="http://www.w3.org/1999/02/22-rdf-syntax-ns#"
   xmlns:cc="http://creativecommons.org/ns#"
   xmlns:dc="http://purl.org/dc/elements/1.1/"><defs
     id="defs52" /><metadata
     id="metadata4"><rdf:RDF><cc:Work
         rdf:about=""><dc:format>image/svg+xml</dc:format><dc:type
           rdf:resource="http://purl.org/dc/dcmitype/StillImage" /></cc:Work></rdf:RDF></metadata><path
     style="fill:#cd1e00;fill-opacity:1;fill-rule:nonzero;stroke:none;stroke-width:0.313602"
     d="M 50,0 C 48.821686,3.889e-5 47.64367,0.58842779 46.952176,1.7738086 L 0.48020234,82.310597 C 0.14112069,82.847248 0,83.443872 0,84.064806 c 0,1.919241 1.5511578,3.498617 3.4986296,3.498617 H 96.501374 c 1.947468,0 3.498626,-1.579376 3.498626,-3.498617 0,-0.620934 -0.14112,-1.217558 -0.480202,-1.754209 L 53.047824,1.7738086 C 52.35633,0.58842779 51.178314,3.889e-5 50,0 Z"
     id="path11" /><path
     style="fill:#ffffff;fill-rule:nonzero;stroke:none;stroke-width:0.313602"
     d="M 50,17.539214 15.637426,77.035688 h 68.724991 z"
     id="path13" /><path
     style="fill:#000000;fill-rule:nonzero;stroke:none;stroke-width:0.313602"
     d="m 17.151003,75.967053 c -0.118418,0 -0.118418,0 -0.118418,0 0,0.118331 0.118418,0.118331 0.118418,0.118331 H 82.611338 L 33.627187,47.467226 h -0.118792 z"
     id="path15" /><path
     style="fill:#000000;fill-rule:nonzero;stroke:none;stroke-width:0.313602"
     d="m 45.442733,48.387521 c 0,-1.632779 -1.306222,-2.908902 -2.939001,-2.908902 -1.632368,0 -2.909191,1.276123 -2.909191,2.908902 0,1.632778 1.276823,2.939415 2.909191,2.939415 1.632779,0 2.939001,-1.306637 2.939001,-2.939415 z"
     id="path17" /><path
     style="fill:#000000;fill-rule:nonzero;stroke:none;stroke-width:0.313602"
     d="m 63.789228,59.134585 c 0,-1.514855 -1.306222,-2.90973 -2.939001,-2.90973 -1.632779,0 -2.909313,1.394875 -2.909313,2.90973 0,1.662051 1.276534,3.057747 2.909313,3.057747 1.632779,0 2.939001,-1.395696 2.939001,-3.057747 z"
     id="path19" /><path
     style="fill:#000000;fill-rule:nonzero;stroke:none;stroke-width:0.313602"
     d="m 49.628583,35.889465 12.854423,7.599719 c 0.593735,0.356656 0.94998,0.94998 0.94998,1.51403 l -0.237493,5.848318 c 0,0.475404 0.356242,1.03904 0.831643,1.276537 l 5.254165,3.057335 c 0.474993,0.326971 0.682801,0.801961 0.682801,1.395696 0,0.237497 -0.118751,0.475405 -0.207808,0.712487 l -2.226521,3.830022 c -0.474576,0.830818 -1.51403,1.068726 -2.344848,0.593325 l -1.157792,-0.593325 c 0.326145,-0.564464 0.444891,-1.276951 0.444891,-1.870686 0,-1.959336 -1.632779,-3.621389 -3.6218,-3.621389 -1.276537,0 -2.433912,0.593325 -3.14681,1.751527 L 45.44273,50.257382 c 0.356242,-0.563639 0.56405,-1.157788 0.56405,-1.869861 0,-1.989021 -1.632779,-3.6218 -3.6218,-3.6218 -1.276493,0 -2.552907,0.712898 -3.146809,1.751524 l -2.34547,-1.276534 c -0.801258,-0.47499 -1.157622,-1.632779 -0.563683,-2.464014 l 2.226643,-3.829482 c 0.326183,-0.712694 1.276412,-0.950269 2.078121,-0.475116 l 0.712158,0.356326 c 0.118745,0.11879 0.356242,0.207768 0.593736,0.207768 0.118748,0 0.356245,-0.08898 0.445304,-0.207768 l 5.492076,-2.93896 c 0.593735,-0.237578 1.187477,-0.237578 1.751527,0 z"
     id="path21" /><path
     style="fill:#ffffff;fill-rule:nonzero;stroke:none;stroke-width:0.313602"
     d="m 61.681459,45.715701 v 4.779586 c 0,0.119159 -0.237493,0.119159 -0.356242,0.119159 l -7.124851,-4.215946 2.464011,-4.067105 4.779589,2.671819 c 0.118748,0.237497 0.237493,0.475405 0.237493,0.712487 z"
     id="path23" /><path
     style="fill:#ffffff;fill-rule:nonzero;stroke:none;stroke-width:0.313602"
     d="m 55.358155,41.500574 -2.434326,4.215127 -7.124854,-4.215127 4.423347,-2.464381 c 0.237496,-0.08898 0.593738,-0.08898 0.94998,0 z"
     id="path25" /></svg>
