<?xml version="1.0" encoding="UTF-8" standalone="no"?>
<!-- Created with Inkscape (http://www.inkscape.org/) -->

<svg
   version="1.0"
   width="100"
   height="100"
   id="svg2"
   xml:space="preserve"
   xmlns="http://www.w3.org/2000/svg"
   xmlns:svg="http://www.w3.org/2000/svg"><defs
     id="defs5"><clipPath
       id="clipPath19"><path
         d="M 0,0 L 2267.99,0 L 2267.99,2267.98 L 0,2267.98 L 0,0 z"
         id="path21" /></clipPath></defs><g
     transform="matrix(0.44091994,0,0,-0.4409221,9.1241735e-6,100.00002)"
     id="g11"><g
       transform="scale(0.1)"
       id="g13"><g
         id="g15"><g
           clip-path="url(#clipPath19)"
           id="g17"><path
             d="m 2266.91,1132.91 c 0,623.52 -510.48,1133.99 -1134,1133.99 C 511.551,2266.9 1.07031,1756.42 1.07031,1132.91 1.07031,511.543 511.551,1.07422 1132.91,1.07422 c 623.52,0 1134,510.46878 1134,1131.83578"
             id="path23"
             style="fill:#e23828;fill-opacity:1;fill-rule:nonzero;stroke:none" /><path
             d="m 2266.91,1132.91 c 0,623.52 -510.48,1133.99 -1134,1133.99 C 511.551,2266.9 1.07031,1756.42 1.07031,1132.91 1.07031,511.543 511.551,1.07422 1132.91,1.07422 c 623.52,0 1134,510.46878 1134,1131.83578 z"
             id="path25"
             style="fill:none;stroke:#e23828;stroke-width:2.15;stroke-linecap:butt;stroke-linejoin:miter;stroke-miterlimit:4;stroke-dasharray:none;stroke-opacity:1" /><path
             d="m 1781.63,582.113 c 131.04,156.239 201.6,349.199 201.6,550.797 0,470.16 -380.16,850.32 -850.32,850.32 -201.601,0 -394.551,-70.57 -550.801,-201.61 L 1781.63,582.102"
             id="path27"
             style="fill:#ffffff;fill-opacity:1;fill-rule:nonzero;stroke:none" /><path
             d="m 1781.63,582.113 c 131.04,156.239 201.6,349.199 201.6,550.797 0,470.16 -380.16,850.32 -850.32,850.32 -201.601,0 -394.551,-70.57 -550.801,-201.61 L 1781.63,582.102 Z"
             id="path29"
             style="fill:none;stroke:#e23828;stroke-width:2.15;stroke-linecap:butt;stroke-linejoin:miter;stroke-miterlimit:4;stroke-dasharray:none;stroke-opacity:1" /><path
             d="M 1682.99,483.473 483.469,1682.99 C 352.43,1529.62 281.871,1333.78 281.871,1132.91 c 0,-470.879 380.16,-851.039 851.039,-851.039 200.88,0 396.72,70.551 550.08,201.602"
             id="path31"
             style="fill:#ffffff;fill-opacity:1;fill-rule:nonzero;stroke:none" /><path
             d="M 1682.99,483.473 483.469,1682.99 C 352.43,1529.62 281.871,1333.78 281.871,1132.91 c 0,-470.879 380.16,-851.039 851.039,-851.039 200.88,0 396.72,70.551 550.08,201.602 z"
             id="path33"
             style="fill:none;stroke:#e23828;stroke-width:2.15;stroke-linecap:butt;stroke-linejoin:miter;stroke-miterlimit:4;stroke-dasharray:none;stroke-opacity:1" /><path
             d="m 1736.27,1016.27 h -192.24 c 33.84,-25.2 53.28,-65.528 53.28,-107.997 0,-2.882 0,-5.761 0,-7.921 h 138.96 v 115.918"
             id="path35"
             style="fill:#000000;fill-opacity:1;fill-rule:nonzero;stroke:none" /><path
             d="m 1736.27,1016.27 h -192.24 c 33.84,-25.2 53.28,-65.528 53.28,-107.997 0,-2.882 0,-5.761 0,-7.921 h 138.96 z"
             id="path37"
             style="fill:none;stroke:#000000;stroke-width:2.15;stroke-linecap:butt;stroke-linejoin:miter;stroke-miterlimit:4;stroke-dasharray:none;stroke-opacity:1" /><path
             d="m 916.91,1245.94 v -178.56 h 181.44 l -181.44,178.56"
             id="path39"
             style="fill:#000000;fill-opacity:1;fill-rule:nonzero;stroke:none" /><path
             d="m 916.91,1245.94 v -178.56 h 181.44 z"
             id="path41"
             style="fill:none;stroke:#000000;stroke-width:2.15;stroke-linecap:butt;stroke-linejoin:miter;stroke-miterlimit:4;stroke-dasharray:none;stroke-opacity:1" /><path
             d="m 811.789,911.141 c 0,59.761 -50.398,110.889 -113.039,110.889 -62.641,0 -113.762,-51.128 -113.762,-110.889 0,-59.028 51.133,-110.149 113.762,-110.149 62.641,0 113.039,51.121 113.039,110.149"
             id="path43"
             style="fill:#000000;fill-opacity:1;fill-rule:nonzero;stroke:none" /><path
             d="m 811.789,911.141 c 0,59.761 -50.398,110.889 -113.039,110.889 -62.641,0 -113.762,-51.128 -113.762,-110.889 0,-59.028 51.133,-110.149 113.762,-110.149 62.641,0 113.039,51.121 113.039,110.149 z"
             id="path45"
             style="fill:none;stroke:#000000;stroke-width:2.15;stroke-linecap:butt;stroke-linejoin:miter;stroke-miterlimit:4;stroke-dasharray:none;stroke-opacity:1" /><path
             d="M 1146.59,1016.27 H 916.91 V 900.352 h 349.2 l -119.52,115.918"
             id="path47"
             style="fill:#000000;fill-opacity:1;fill-rule:nonzero;stroke:none" /><path
             d="M 1146.59,1016.27 H 916.91 V 900.352 h 349.2 z"
             id="path49"
             style="fill:none;stroke:#000000;stroke-width:2.15;stroke-linecap:butt;stroke-linejoin:miter;stroke-miterlimit:4;stroke-dasharray:none;stroke-opacity:1" /><path
             d="m 857.148,1305.7 2.883,-405.356 H 829.07 c 0,2.16 0,5.039 0,7.918 0,74.152 -59.761,133.198 -133.199,133.198 -70.562,0 -130.32,-59.046 -130.32,-133.198 0,-2.879 0,-5.758 0,-7.918 H 474.84 l -11.52,5.039 -5.761,11.519 -2.879,11.512 v 218.156 l 59.761,218.89 5.758,10.8 11.52,8.65 10.801,5.75 h 232.558 l 82.082,-84.96"
             id="path51"
             style="fill:#000000;fill-opacity:1;fill-rule:nonzero;stroke:none" /><path
             d="m 857.148,1305.7 2.883,-405.356 H 829.07 c 0,2.16 0,5.039 0,7.918 0,74.152 -59.761,133.198 -133.199,133.198 -70.562,0 -130.32,-59.046 -130.32,-133.198 0,-2.879 0,-5.758 0,-7.918 h -90.723 l -11.519,5.039 -5.758,11.519 -2.879,11.512 v 218.156 l 59.758,218.89 5.761,10.8 11.52,8.65 10.801,5.75 H 775.07 Z"
             id="path53"
             style="fill:none;stroke:#000000;stroke-width:2.15;stroke-linecap:butt;stroke-linejoin:miter;stroke-miterlimit:4;stroke-dasharray:none;stroke-opacity:1" /><path
             d="m 1538.27,826.191 c 25.2,23.039 36.72,51.121 36.72,82.082 0,62.629 -48.24,113.757 -110.88,113.757 -30.96,0 -59.04,-14.4 -82.08,-39.608 l 156.24,-156.231"
             id="path55"
             style="fill:#000000;fill-opacity:1;fill-rule:nonzero;stroke:none" /><path
             d="m 1538.27,826.191 c 25.2,23.039 36.72,51.121 36.72,82.082 0,62.629 -48.24,113.757 -110.88,113.757 -30.96,0 -59.04,-14.4 -82.08,-39.608 z"
             id="path57"
             style="fill:none;stroke:#000000;stroke-width:2.15;stroke-linecap:butt;stroke-linejoin:miter;stroke-miterlimit:4;stroke-dasharray:none;stroke-opacity:1" /><path
             d="m 1367.63,998.992 c 5.76,5.758 14.4,14.398 23.04,20.158 h -42.48 l 19.44,-20.158"
             id="path59"
             style="fill:#000000;fill-opacity:1;fill-rule:nonzero;stroke:none" /><path
             d="m 1367.63,998.992 c 5.76,5.758 14.4,14.398 23.04,20.158 h -42.48 z"
             id="path61"
             style="fill:none;stroke:#000000;stroke-width:2.15;stroke-linecap:butt;stroke-linejoin:miter;stroke-miterlimit:4;stroke-dasharray:none;stroke-opacity:1" /><path
             d="m 1297.07,1067.38 h 439.2 v 476.64 l -2.16,13.68 -8.64,14.4 -8.64,5.76 -17.27,5.76 H 959.398 l -13.679,-2.88 -11.508,-5.76 -11.531,-8.64 -2.871,-11.52 -2.887,-19.44 v -87.84 l 380.158,-380.16"
             id="path63"
             style="fill:#000000;fill-opacity:1;fill-rule:nonzero;stroke:none" /><path
             d="m 1297.07,1067.38 h 439.2 v 476.64 l -2.16,13.68 -8.64,14.4 -8.64,5.76 -17.27,5.76 H 959.391 l -13.68,-2.88 -11.512,-5.76 -11.527,-8.64 -2.871,-11.52 -2.891,-19.44 v -87.84 z"
             id="path65"
             style="fill:none;stroke:#000000;stroke-width:2.15;stroke-linecap:butt;stroke-linejoin:miter;stroke-miterlimit:4;stroke-dasharray:none;stroke-opacity:1" /><path
             d="m 789.469,1178.26 h -249.84 l -7.918,5.05 -5.762,5.75 v 8.65 l 33.84,124.57 5.762,5.75 5.758,2.88 h 212.402 l 11.519,-2.88 5.758,-5.75 2.883,-2.89 v -130.32 l -2.883,-5.75 -11.519,-5.05"
             id="path67"
             style="fill:#ffffff;fill-opacity:1;fill-rule:nonzero;stroke:none" /><path
             d="m 789.469,1178.26 h -249.84 l -7.918,5.05 -5.762,5.75 v 8.65 l 33.84,124.57 5.762,5.75 5.758,2.88 h 212.402 l 11.519,-2.88 5.758,-5.75 2.883,-2.89 v -130.32 l -2.883,-5.75 -11.519,-5.05 z"
             id="path69"
             style="fill:none;stroke:#000000;stroke-width:2.15;stroke-linecap:butt;stroke-linejoin:miter;stroke-miterlimit:4;stroke-dasharray:none;stroke-opacity:1" /></g></g></g></g></svg>
