<?xml version="1.0" encoding="UTF-8" standalone="no"?>
<!-- Created with Inkscape (http://www.inkscape.org/) -->

<svg
   version="1.0"
   width="100"
   height="100"
   id="svg2"
   xml:space="preserve"
   xmlns="http://www.w3.org/2000/svg"
   xmlns:svg="http://www.w3.org/2000/svg"><defs
     id="defs5"><clipPath
       id="clipPath19"><path
         d="M 0.496094,0 L 2255.52,0 L 2255.52,2255.03 L 0.496094,2255.03 L 0.496094,0 z"
         id="path21" /></clipPath></defs><g
     transform="matrix(0.44345428,0,0,-0.44345428,-0.0219995,100.00027)"
     id="g11"><g
       transform="scale(0.1)"
       id="g13"><g
         id="g15"><g
           clip-path="url(#clipPath19)"
           id="g17"><path
             d="m 2254.45,1126.44 c 0,619.91 -507.6,1127.52 -1127.52,1127.52 C 509.164,2253.96 1.56641,1746.35 1.56641,1126.44 1.56641,508.672 509.168,1.07031 1126.93,1.07031 c 619.92,0 1127.52,507.60169 1127.52,1125.36969"
             id="path23"
             style="fill:#e23828;fill-opacity:1;fill-rule:nonzero;stroke:none" /><path
             d="m 2254.45,1126.44 c 0,619.91 -507.6,1127.52 -1127.52,1127.52 C 509.164,2253.96 1.56641,1746.35 1.56641,1126.44 1.56641,508.672 509.168,1.07031 1126.93,1.07031 c 619.92,0 1127.52,507.60169 1127.52,1125.36969 z"
             id="path25"
             style="fill:none;stroke:#e23828;stroke-width:2.15;stroke-linecap:butt;stroke-linejoin:miter;stroke-miterlimit:4;stroke-dasharray:none;stroke-opacity:1" /><path
             d="m 1972.21,1126.44 c 0,465.12 -380.16,845.27 -845.28,845.27 -462.965,0 -843.125,-380.15 -843.125,-845.27 0,-462.96 380.16,-843.12 843.125,-843.12 465.12,0 845.28,380.16 845.28,843.12"
             id="path27"
             style="fill:#ffffff;fill-opacity:1;fill-rule:nonzero;stroke:none" /><path
             d="m 1972.21,1126.44 c 0,465.12 -380.16,845.27 -845.28,845.27 -462.965,0 -843.125,-380.15 -843.125,-845.27 0,-462.96 380.16,-843.12 843.125,-843.12 465.12,0 845.28,380.16 845.28,843.12 z"
             id="path29"
             style="fill:none;stroke:#e23828;stroke-width:2.15;stroke-linecap:butt;stroke-linejoin:miter;stroke-miterlimit:4;stroke-dasharray:none;stroke-opacity:1" /><path
             d="m 700.688,1667.15 -64.801,-64.8 v -90 l 59.039,30.96 v -408.96 h 93.601 v 532.79 h -87.839"
             id="path31"
             style="fill:#000000;fill-opacity:1;fill-rule:nonzero;stroke:none" /><path
             d="m 700.688,1667.15 -64.801,-64.8 v -90 l 59.039,30.96 v -408.96 h 93.601 v 532.79 h -87.839 z"
             id="path33"
             style="fill:none;stroke:#000000;stroke-width:2.15;stroke-linecap:butt;stroke-linejoin:miter;stroke-miterlimit:4;stroke-dasharray:none;stroke-opacity:1" /><path
             d="m 965.656,1591.56 c -13.679,-23.05 -22.332,-48.25 -30.961,-73.45 -8.648,-39.6 -13.679,-79.2 -13.679,-118.8 0,-38.88 5.031,-78.48 13.679,-115.2 8.629,-28.08 17.27,-54.01 30.961,-76.33 30.961,-53.28 87.824,-84.23 149.764,-84.23 61.9,0 118.06,30.95 149.03,84.23 14.4,25.21 23.03,51.13 31.67,76.33 7.93,39.61 13.7,76.32 13.7,115.2 0,39.6 -5.77,79.2 -13.7,118.8 -8.64,25.2 -17.27,50.4 -31.67,73.45 -30.97,53.27 -87.13,87.11 -149.03,87.11 -61.94,0 -118.803,-33.84 -149.764,-87.11"
             id="path35"
             style="fill:#000000;fill-opacity:1;fill-rule:nonzero;stroke:none" /><path
             d="m 965.656,1591.56 c -13.679,-23.05 -22.332,-48.25 -30.961,-73.45 -8.648,-39.6 -13.679,-79.2 -13.679,-118.8 0,-38.88 5.031,-78.48 13.679,-115.2 8.629,-28.08 17.27,-54.01 30.961,-76.33 30.961,-53.28 87.824,-84.23 149.764,-84.23 61.9,0 118.06,30.95 149.03,84.23 14.4,25.21 23.03,51.13 31.67,76.33 7.93,39.61 13.7,76.32 13.7,115.2 0,39.6 -5.77,79.2 -13.7,118.8 -8.64,25.2 -17.27,50.4 -31.67,73.45 -30.97,53.27 -87.13,87.11 -149.03,87.11 -61.94,0 -118.803,-33.84 -149.764,-87.11 z"
             id="path37"
             style="fill:none;stroke:#000000;stroke-width:2.15;stroke-linecap:butt;stroke-linejoin:miter;stroke-miterlimit:4;stroke-dasharray:none;stroke-opacity:1" /><path
             d="m 1047.73,1551.95 c -8.64,-20.14 -17.28,-36.72 -22.31,-56.16 -5.78,-31.68 -11.53,-62.64 -11.53,-96.48 0,-30.96 5.75,-61.92 11.53,-92.88 5.03,-19.45 13.67,-39.6 22.31,-56.17 13.68,-25.2 39.59,-39.6 67.69,-42.48 28.06,2.88 53.27,17.28 67.67,42.48 8.64,16.57 16.55,36.72 22.33,56.17 5.75,30.96 11.51,61.92 11.51,92.88 0,30.96 -5.76,64.8 -11.51,96.48 -5.78,19.44 -13.69,36.01 -22.33,56.16 -14.4,22.32 -39.61,39.61 -67.67,39.61 -28.1,0 -54.01,-14.41 -67.69,-39.61"
             id="path39"
             style="fill:#ffffff;fill-opacity:1;fill-rule:nonzero;stroke:none" /><path
             d="m 1047.73,1551.95 c -8.64,-20.14 -17.28,-36.72 -22.31,-56.16 -5.78,-31.68 -11.53,-62.64 -11.53,-96.48 0,-30.96 5.75,-61.92 11.53,-92.88 5.03,-19.45 13.67,-39.6 22.31,-56.17 13.68,-25.2 39.59,-39.6 67.69,-42.48 28.06,2.88 53.27,17.28 67.67,42.48 8.64,16.57 16.55,36.72 22.33,56.17 5.75,30.96 11.51,61.92 11.51,92.88 0,30.96 -5.76,64.8 -11.51,96.48 -5.78,19.44 -13.69,36.01 -22.33,56.16 -14.4,22.32 -39.61,39.61 -67.67,39.61 -28.1,0 -54.01,-14.41 -67.69,-39.61 z"
             id="path41"
             style="fill:none;stroke:#000000;stroke-width:2.15;stroke-linecap:butt;stroke-linejoin:miter;stroke-miterlimit:4;stroke-dasharray:none;stroke-opacity:1" /><path
             d="m 1566.12,1416.59 h 70.57 v -56.16 h -70.57 v -155.51 c 0,-10.8 11.52,-22.33 25.93,-22.33 7.91,0 19.43,0 28.07,5.77 l 16.57,-54 c -13.68,-5.77 -30.96,-7.92 -44.64,-7.92 -45.36,0 -84.96,35.99 -84.96,84.23 v 149.76 h -39.61 v 56.16 h 39.61 v 61.92 l 59.03,51.12 v -113.04"
             id="path43"
             style="fill:#000000;fill-opacity:1;fill-rule:nonzero;stroke:none" /><path
             d="m 1566.12,1416.59 h 70.57 v -56.16 h -70.57 v -155.51 c 0,-10.8 11.52,-22.33 25.93,-22.33 v 0 c 7.91,0 19.43,0 28.07,5.77 l 16.57,-54 c -13.68,-5.77 -30.96,-7.92 -44.64,-7.92 -45.36,0 -84.96,35.99 -84.96,84.23 v 149.76 h -39.61 v 56.16 h 39.61 v 61.92 l 59.03,51.12 z"
             id="path45"
             style="fill:none;stroke:#000000;stroke-width:2.15;stroke-linecap:butt;stroke-linejoin:miter;stroke-miterlimit:4;stroke-dasharray:none;stroke-opacity:1" /><path
             d="m 875.656,928.43 c -135.371,0 -242.648,-109.442 -242.648,-244.801 v -2.879 h -42.481 c -2.16,157.68 127.438,290.16 285.129,290.16 0,0 0,0 2.871,0 h 498.953 c 157.7,-2.879 285.13,-129.601 285.13,-287.281 v -2.879 h -42.49 v 2.879 c 0,135.359 -107.27,244.801 -242.64,244.801 H 875.656"
             id="path47"
             style="fill:#000000;fill-opacity:1;fill-rule:nonzero;stroke:none" /><path
             d="m 875.656,928.43 v 0 c -135.371,0 -242.648,-109.442 -242.648,-244.801 v -2.879 h -42.481 c -2.16,157.68 127.438,290.16 285.129,290.16 0,0 0,0 2.871,0 h 498.953 c 157.7,-2.879 285.13,-129.601 285.13,-287.281 v -2.879 h -42.49 v 2.879 c 0,135.359 -107.27,244.801 -242.64,244.801 z"
             id="path49"
             style="fill:none;stroke:#000000;stroke-width:2.15;stroke-linecap:butt;stroke-linejoin:miter;stroke-miterlimit:4;stroke-dasharray:none;stroke-opacity:1" /><path
             d="m 1090.21,689.398 c 0,115.204 -96.483,210.961 -211.683,210.961 -115.922,0 -211.679,-95.757 -211.679,-210.961 0,-115.918 95.757,-211.679 211.679,-211.679 115.2,0 211.683,95.761 211.683,211.679"
             id="path51"
             style="fill:#000000;fill-opacity:1;fill-rule:nonzero;stroke:none" /><path
             d="m 1090.21,689.398 c 0,115.204 -96.483,210.961 -211.683,210.961 -115.922,0 -211.679,-95.757 -211.679,-210.961 0,-115.918 95.757,-211.679 211.679,-211.679 115.2,0 211.683,95.761 211.683,211.679 z"
             id="path53"
             style="fill:none;stroke:#000000;stroke-width:2.15;stroke-linecap:butt;stroke-linejoin:miter;stroke-miterlimit:4;stroke-dasharray:none;stroke-opacity:1" /><path
             d="m 1586.29,689.398 c 0,115.204 -92.88,210.961 -208.81,210.961 -115.19,0 -208.79,-95.757 -208.79,-210.961 0,-115.918 93.6,-211.679 208.79,-211.679 115.93,0 208.81,95.761 208.81,211.679"
             id="path55"
             style="fill:#000000;fill-opacity:1;fill-rule:nonzero;stroke:none" /><path
             d="m 1586.29,689.398 c 0,115.204 -92.88,210.961 -208.81,210.961 -115.19,0 -208.79,-95.757 -208.79,-210.961 0,-115.918 93.6,-211.679 208.79,-211.679 115.93,0 208.81,95.761 208.81,211.679 z"
             id="path57"
             style="fill:none;stroke:#000000;stroke-width:2.15;stroke-linecap:butt;stroke-linejoin:miter;stroke-miterlimit:4;stroke-dasharray:none;stroke-opacity:1" /><path
             d="m 974.285,689.398 c 0,50.403 -42.48,92.883 -95.758,92.883 -53.281,0 -95.761,-42.48 -95.761,-92.883 0,-51.117 42.48,-93.597 95.761,-93.597 53.278,0 95.758,42.48 95.758,93.597"
             id="path59"
             style="fill:#ffffff;fill-opacity:1;fill-rule:nonzero;stroke:none" /><path
             d="m 974.285,689.398 c 0,50.403 -42.48,92.883 -95.758,92.883 -53.281,0 -95.761,-42.48 -95.761,-92.883 0,-51.117 42.48,-93.597 95.761,-93.597 53.278,0 95.758,42.48 95.758,93.597 z"
             id="path61"
             style="fill:none;stroke:#000000;stroke-width:2.15;stroke-linecap:butt;stroke-linejoin:miter;stroke-miterlimit:4;stroke-dasharray:none;stroke-opacity:1" /><path
             d="m 1470.37,689.398 c 0,50.403 -41.76,92.883 -92.89,92.883 -50.39,0 -92.87,-42.48 -92.87,-92.883 0,-51.117 42.48,-93.597 92.87,-93.597 51.13,0 92.89,42.48 92.89,93.597"
             id="path63"
             style="fill:#ffffff;fill-opacity:1;fill-rule:nonzero;stroke:none" /><path
             d="m 1470.37,689.398 c 0,50.403 -41.76,92.883 -92.89,92.883 -50.39,0 -92.87,-42.48 -92.87,-92.883 0,-51.117 42.48,-93.597 92.87,-93.597 51.13,0 92.89,42.48 92.89,93.597 z"
             id="path65"
             style="fill:none;stroke:#000000;stroke-width:2.15;stroke-linecap:butt;stroke-linejoin:miter;stroke-miterlimit:4;stroke-dasharray:none;stroke-opacity:1" /></g></g></g></g></svg>
