<?xml version="1.0" encoding="UTF-8" standalone="no"?>
<!-- Created with Inkscape (http://www.inkscape.org/) -->

<svg
   version="1.0"
   width="100"
   height="100"
   id="svg2"
   xml:space="preserve"
   xmlns="http://www.w3.org/2000/svg"
   xmlns:svg="http://www.w3.org/2000/svg"><defs
     id="defs5"><clipPath
       id="clipPath19"><path
         d="M 0.492188,0 L 5953.0022,0 L 5953.0022,5952.75 L 0.492188,5952.75 L 0.492188,0 z"
         id="path21" /></clipPath></defs><g
     transform="matrix(0.16799628,0,0,-0.16798982,-0.00824474,100.0001)"
     id="g11"><g
       transform="scale(0.1)"
       id="g13"><g
         id="g15"><g
           clip-path="url(#clipPath19)"
           id="g17"><path
             d="m 5949.71,2976.37 c 0,1641.85 -1330.99,2972.84 -2972.84,2972.84 C 1335.02,5949.21 4.03125,4618.22 4.03125,2976.37 4.03125,1334.53 1335.02,3.53125 2976.87,3.53125 4618.72,3.53125 5949.71,1334.53 5949.71,2976.37"
             id="path23"
             style="fill:#e23828;fill-opacity:1;fill-rule:nonzero;stroke:none" /><path
             d="m 5949.71,2976.37 c 0,1641.85 -1330.99,2972.84 -2972.84,2972.84 C 1335.02,5949.21 4.03125,4618.22 4.03125,2976.37 4.03125,1334.53 1335.02,3.53125 2976.87,3.53125 4618.72,3.53125 5949.71,1334.53 5949.71,2976.37 Z"
             id="path25"
             style="fill:none;stroke:#e23828;stroke-width:7.07819;stroke-linecap:round;stroke-linejoin:round;stroke-miterlimit:500;stroke-dasharray:none;stroke-opacity:1" /><path
             d="M 4416.59,1273.89 1274.38,4416.09 C 525.762,3530.84 580.492,2219.58 1400.28,1399.79 2220.07,580 3531.33,525.262 4416.59,1273.89"
             id="path27"
             style="fill:#ffffff;fill-opacity:1;fill-rule:nonzero;stroke:none" /><path
             d="M 4416.59,1273.89 1274.38,4416.09 C 525.762,3530.84 580.492,2219.58 1400.28,1399.79 2220.07,580 3531.33,525.262 4416.59,1273.89 Z"
             id="path29"
             style="fill:none;stroke:#ffffff;stroke-width:7.07819;stroke-linecap:round;stroke-linejoin:round;stroke-miterlimit:500;stroke-dasharray:none;stroke-opacity:1" /><path
             d="m 4679.36,1536.66 c 748.61,885.25 693.88,2196.51 -125.9,3016.3 -819.8,819.79 -2131.06,874.52 -3016.31,125.89 L 4679.36,1536.66"
             id="path31"
             style="fill:#ffffff;fill-opacity:1;fill-rule:nonzero;stroke:none" /><path
             d="m 4679.36,1536.66 c 748.61,885.25 693.88,2196.51 -125.9,3016.3 -819.8,819.79 -2131.06,874.52 -3016.31,125.89 z"
             id="path33"
             style="fill:none;stroke:#ffffff;stroke-width:7.07819;stroke-linecap:round;stroke-linejoin:round;stroke-miterlimit:500;stroke-dasharray:none;stroke-opacity:1" /><path
             d="m 1954.04,3736.44 -51.87,-19.34 c -93.64,-34.94 -176.97,-92.92 -242.28,-168.59 -66.57,-77.12 -89,-182.96 -59.46,-280.47 16.67,-54.98 41.21,-107.26 72.88,-155.21 67.58,6 135.69,1.67 201.97,-12.83 l -24.04,-70.88 c -307.16,62.74 -610.18,-124.09 -692.06,-426.7 -81.88,-302.62 85.59,-616.76 382.47,-717.45 296.89,-100.7 620.91,46.74 740.02,336.73 119.11,289.99 -7.72,622.61 -289.67,759.67 l 24.04,70.88 c 195.82,-91.82 335.08,-272.74 373.72,-485.54 32.1,-176.72 186.01,-305.2 365.63,-305.2 h 673.57 L 1954.04,3736.44"
             id="path35"
             style="fill:#000000;fill-opacity:1;fill-rule:nonzero;stroke:none" /><path
             d="m 1954.04,3736.44 -51.87,-19.34 c -93.64,-34.94 -176.97,-92.92 -242.28,-168.59 -66.57,-77.12 -89,-182.96 -59.46,-280.47 16.67,-54.98 41.21,-107.26 72.88,-155.21 67.58,6 135.69,1.67 201.97,-12.83 l -24.04,-70.88 c -307.16,62.74 -610.18,-124.09 -692.06,-426.7 -81.88,-302.62 85.59,-616.76 382.47,-717.45 296.89,-100.7 620.91,46.74 740.02,336.73 119.11,289.99 -7.72,622.61 -289.67,759.67 l 24.04,70.88 c 195.82,-91.82 335.08,-272.74 373.72,-485.54 32.1,-176.72 186.01,-305.2 365.63,-305.2 h 673.57 z"
             id="path37"
             style="fill:none;stroke:#000000;stroke-width:7.07819;stroke-linecap:round;stroke-linejoin:round;stroke-miterlimit:500;stroke-dasharray:none;stroke-opacity:1" /><path
             d="m 4341.51,1874.51 c 268.77,73.45 450.35,323.9 436.55,602.2 -13.79,278.31 -219.24,509.58 -493.97,556.09 -274.74,46.51 -544.86,-104.27 -649.48,-362.51 h -79.46 c 94.44,266.81 346.78,445.17 629.83,445.17 h 366.97 l -119.38,222.95 h -596.09 c -8.63,45.42 -27.73,88.21 -55.79,124.95 l -539.58,706.54 c -87.2,114.18 -250.44,136.04 -364.61,48.86 l -498.53,-380.73 159.07,-159.06 327.12,249.81 450.85,-590.37 h -437.42 l 1076.9,-1076.9 H 4263 c 94.16,120 94.16,288.78 0,408.78 h -419.74 c 107.26,164.35 316.33,229.08 497.69,154.05 181.36,-75.03 283.59,-268.53 243.38,-460.63 -40.22,-192.1 -211.5,-328.34 -407.72,-324.31 l 164.9,-164.89"
             id="path39"
             style="fill:#000000;fill-opacity:1;fill-rule:nonzero;stroke:none" /><path
             d="m 4341.51,1874.51 c 268.77,73.45 450.35,323.9 436.55,602.2 -13.79,278.31 -219.24,509.58 -493.97,556.09 -274.74,46.51 -544.86,-104.27 -649.48,-362.51 h -79.46 c 94.44,266.81 346.78,445.17 629.83,445.17 h 366.97 l -119.38,222.95 h -596.09 v 0 c -8.63,45.42 -27.73,88.21 -55.79,124.95 l -539.58,706.54 c -87.2,114.18 -250.44,136.04 -364.61,48.86 l -498.53,-380.73 159.07,-159.06 327.12,249.81 450.85,-590.37 h -437.42 l 1076.9,-1076.9 H 4263 c 94.16,120 94.16,288.78 0,408.78 h -419.74 c 107.26,164.35 316.33,229.08 497.69,154.05 181.36,-75.03 283.59,-268.53 243.38,-460.63 -40.22,-192.1 -211.5,-328.34 -407.72,-324.31 z"
             id="path41"
             style="fill:none;stroke:#000000;stroke-width:7.07819;stroke-linecap:round;stroke-linejoin:round;stroke-miterlimit:500;stroke-dasharray:none;stroke-opacity:1" /><path
             d="m 2577.75,4529.55 238.71,35.51 v -178.62 l -222.96,-25.5 v -187.01 l 119.79,13.7 118.1,90.19 c 114.8,87.67 272.92,91.73 392.06,10.07 65.57,119.61 55.27,266.49 -26.33,375.78 -81.6,109.3 -219.49,160.91 -352.8,132.04 -133.31,-28.86 -237.5,-132.9 -266.57,-266.16"
             id="path43"
             style="fill:#000000;fill-opacity:1;fill-rule:nonzero;stroke:none" /><path
             d="m 2577.75,4529.55 238.71,35.51 v -178.62 l -222.96,-25.5 v -187.01 l 119.79,13.7 118.1,90.19 c 114.8,87.67 272.92,91.73 392.06,10.07 65.57,119.61 55.27,266.49 -26.33,375.78 -81.6,109.3 -219.49,160.91 -352.8,132.04 -133.31,-28.86 -237.5,-132.9 -266.57,-266.16 z"
             id="path45"
             style="fill:none;stroke:#000000;stroke-width:7.07819;stroke-linecap:round;stroke-linejoin:round;stroke-miterlimit:500;stroke-dasharray:none;stroke-opacity:1" /><path
             d="m 1662,2471.19 128.86,379.93 c -208.7,30.22 -406.05,-103.58 -455.24,-308.64 -49.18,-205.06 66,-413.81 265.71,-481.56 199.71,-67.73 418.12,27.88 503.84,220.55 85.72,192.69 10.48,418.93 -173.54,521.9 l -128.86,-379.92 c -13.19,-38.88 -55.39,-59.69 -94.26,-46.52 -38.87,13.19 -59.69,55.39 -46.51,94.26"
             id="path47"
             style="fill:#ffffff;fill-opacity:1;fill-rule:nonzero;stroke:none" /><path
             d="m 1662,2471.19 128.86,379.93 c -208.7,30.22 -406.05,-103.58 -455.24,-308.64 -49.18,-205.06 66,-413.81 265.71,-481.56 199.71,-67.73 418.12,27.88 503.84,220.55 85.72,192.69 10.48,418.93 -173.54,521.9 l -128.86,-379.92 c -13.19,-38.88 -55.39,-59.69 -94.26,-46.52 -38.87,13.19 -59.69,55.39 -46.51,94.26 z"
             id="path49"
             style="fill:none;stroke:#ffffff;stroke-width:7.07819;stroke-linecap:round;stroke-linejoin:round;stroke-miterlimit:500;stroke-dasharray:none;stroke-opacity:1" /></g></g></g></g></svg>
