<?xml version="1.0" encoding="UTF-8" standalone="no"?>
<!-- Created with Inkscape (http://www.inkscape.org/) -->

<svg
   version="1.1"
   width="100"
   height="100"
   id="svg2"
   xml:space="preserve"
   xmlns="http://www.w3.org/2000/svg"
   xmlns:svg="http://www.w3.org/2000/svg"
   xmlns:rdf="http://www.w3.org/1999/02/22-rdf-syntax-ns#"
   xmlns:cc="http://creativecommons.org/ns#"
   xmlns:dc="http://purl.org/dc/elements/1.1/"><defs
     id="defs52" /><metadata
     id="metadata4"><rdf:RDF><cc:Work
         rdf:about=""><dc:format>image/svg+xml</dc:format><dc:type
           rdf:resource="http://purl.org/dc/dcmitype/StillImage" /></cc:Work></rdf:RDF></metadata><path
     style="fill:#cd1e00;fill-opacity:1;fill-rule:nonzero;stroke:none;stroke-width:0.333333"
     d="M 100,50.063493 C 100,22.53973 77.460757,0 49.936507,0 22.539723,0 0,22.53973 0,50.063493 0,77.460317 22.539723,100 49.936507,100 77.460757,100 100,77.460317 100,50.063493 Z"
     id="path11-1" /><path
     style="fill:#ffffff;fill-rule:nonzero;stroke:none;stroke-width:0.333333"
     d="m 87.49214,50.06359 c 0,-20.666837 -16.88933,-37.555597 -37.55582,-37.555597 -20.53955,0 -37.428307,16.88876 -37.428307,37.555597 0,20.53964 16.888757,37.42853 37.428307,37.42853 20.66649,0 37.55582,-16.88889 37.55582,-37.428527 z"
     id="path13-7" /><path
     id="path3782"
     d="m 17.148997,21.568415 4.419418,-4.419418 61.282588,61.28259 -4.419416,4.419416 z"
     style="fill:#cd1e00;fill-opacity:1;stroke:none;stroke-width:0.333333" /><path
     style="fill:#000000;fill-rule:nonzero;stroke:none;stroke-width:0.333333"
     d="m 37.135957,62.805747 c 0,-4.315737 -3.498507,-7.814244 -7.814078,-7.814244 -4.31557,0 -7.814245,3.498507 -7.814245,7.814244 0,4.31574 3.498675,7.81391 7.814245,7.81391 4.315571,0 7.814078,-3.49817 7.814078,-7.81391 z"
     id="path17" /><path
     style="fill:#000000;fill-rule:nonzero;stroke:none;stroke-width:0.333333"
     d="m 51.68837,56.107777 c -0.131693,1.199693 -0.110333,2.41116 0.06374,3.605473 H 37.90189 c -1.6163,-4.460887 -6.378581,-6.942183 -10.960563,-5.710363 l -1.888094,-7.64488 c -0.08241,-0.69664 0.151539,-1.393617 0.637606,-1.89953 0.485899,-0.50608 1.172784,-0.767954 1.872116,-0.713964 h 11.762152 z"
     id="path19" /><path
     style="fill:#000000;fill-rule:nonzero;stroke:none;stroke-width:0.333333"
     d="M 66.196213,70.61562 52.90421,57.323783 c -0.101417,3.555187 1.266467,6.995334 3.78157,9.510437 2.514767,2.515103 5.95491,3.88265 9.510433,3.7814 z"
     id="path21" /><path
     style="fill:#000000;fill-rule:nonzero;stroke:none;stroke-width:0.333333"
     d="m 68.230127,63.810847 4.690466,4.690463 c 4.39344,-2.883437 6.604627,-8.139017 5.59347,-13.29587 -1.010816,-5.156853 -5.04282,-9.188857 -10.199673,-10.199843 -5.156853,-1.010987 -10.4126,1.2002 -13.295703,5.593643 l 4.694836,4.694837 c 1.09794,-2.795814 3.952114,-4.490994 6.93243,-4.117444 2.980484,0.373547 5.3279,2.721134 5.701617,5.701617 0.37355,2.980317 -1.32163,5.834657 -4.117443,6.932597 z"
     id="path23" /><path
     style="fill:#000000;fill-rule:nonzero;stroke:none;stroke-width:0.333333"
     d="m 46.548,42.128717 7.523277,7.52311 c 2.285356,-3.356387 5.895876,-5.576654 9.922496,-6.101574 4.026454,-0.524916 8.085537,0.695297 11.15516,3.35353 0.221,0.31384 0.59707,0.48018 0.97802,0.432917 0.246904,-0.03077 0.487414,-0.100743 0.71245,-0.207377 0.33167,-0.157256 0.55822,-0.475303 0.598417,-0.840443 0.0629,-0.571673 -0.174243,-1.135277 -0.626673,-1.490323 L 75.803357,44.008403 74.79523,43.344053 73.362427,42.52413 C 73.196087,42.419013 73.076503,42.254187 73.0284,42.06363 L 69.73559,29.007765 h 1.208947 c 0.717326,-0.0126 1.290346,-0.60094 1.283956,-1.318267 -0.0062,-0.71733 -0.589673,-1.295397 -1.307166,-1.295227 h -19.43411 c -0.574874,-0.02037 -1.08869,0.35555 -1.243424,0.9094 z"
     id="path25" /><path
     style="fill:#ffffff;fill-rule:nonzero;stroke:none;stroke-width:0.333333"
     d="M 61.169877,40.877727 V 29.422185 c 0.04171,-0.23412 0.245723,-0.40416 0.48371,-0.402984 h 4.777756 c 0.210574,0 0.395077,0.141784 0.449064,0.34546 l 2.8091,11.144562 c 0.0402,0.15961 -0.0054,0.328644 -0.120594,0.446037 -0.11504,0.117567 -0.28306,0.166677 -0.443513,0.129677 -2.474907,-0.477324 -5.023647,-0.414587 -7.471813,0.184333 -0.21175,0.0061 -0.400627,-0.13102 -0.46067,-0.333857 -0.0059,-0.01983 -0.01363,-0.03919 -0.02303,-0.05769 z"
     id="path27" /><path
     style="fill:#ffffff;fill-rule:nonzero;stroke:none;stroke-width:0.333333"
     d="m 52.304783,29.364661 -3.711266,14.809409 3.55031,3.550307 c 1.531533,-2.09934 3.524576,-3.81941 5.825406,-5.027514 0.04676,-0.019 0.08964,-0.04642 0.126477,-0.08073 0.257163,-0.237313 0.402983,-0.57117 0.402983,-0.921003 V 29.502745 c 0.0217,-0.116387 -0.0094,-0.236474 -0.0851,-0.3278 -0.07552,-0.09099 -0.18787,-0.14397 -0.306273,-0.144307 l -5.330594,-0.01143 c -0.2173,-0.0047 -0.41072,0.136906 -0.47194,0.34546 z"
     id="path29" /><path
     style="fill:#ffffff;fill-rule:nonzero;stroke:none;stroke-width:0.333333"
     d="m 33.255323,62.801543 c 0,-2.174686 -1.762793,-3.93765 -3.937649,-3.93765 -2.17452,0 -3.937481,1.762964 -3.937481,3.93765 0,2.17452 1.762961,3.937314 3.937481,3.937314 2.174856,0 3.937649,-1.762794 3.937649,-3.937314 z"
     id="path31" /></svg>
