<?xml version="1.0" encoding="UTF-8" standalone="no"?>
<!-- Created with Inkscape (http://www.inkscape.org/) -->

<svg
   version="1.0"
   width="100"
   height="100"
   id="svg2"
   xml:space="preserve"
   xmlns="http://www.w3.org/2000/svg"
   xmlns:svg="http://www.w3.org/2000/svg"><defs
     id="defs5"><clipPath
       id="clipPath19"><path
         d="M 0.492188,0 L 5953.0022,0 L 5953.0022,5952.75 L 0.492188,5952.75 L 0.492188,0 z"
         id="path21" /></clipPath></defs><g
     transform="matrix(0.16778528,0,0,-0.16764461,0.05683311,99.616822)"
     id="g11"><g
       transform="scale(0.1)"
       id="g13"><g
         id="g15"><g
           clip-path="url(#clipPath19)"
           id="g17"><path
             d="m 5949.71,2976.37 c 0,1641.85 -1330.99,2972.84 -2972.84,2972.84 C 1335.02,5949.21 4.03125,4618.22 4.03125,2976.37 4.03125,1334.53 1335.02,3.53125 2976.87,3.53125 4618.72,3.53125 5949.71,1334.53 5949.71,2976.37"
             id="path23"
             style="fill:#e23828;fill-opacity:1;fill-rule:nonzero;stroke:none" /><path
             d="m 5949.71,2976.37 c 0,1641.85 -1330.99,2972.84 -2972.84,2972.84 C 1335.02,5949.21 4.03125,4618.22 4.03125,2976.37 4.03125,1334.53 1335.02,3.53125 2976.87,3.53125 4618.72,3.53125 5949.71,1334.53 5949.71,2976.37 Z"
             id="path25"
             style="fill:none;stroke:#e23828;stroke-width:7.07819;stroke-linecap:round;stroke-linejoin:round;stroke-miterlimit:500;stroke-dasharray:none;stroke-opacity:1" /><path
             d="M 4416.59,1273.89 1274.38,4416.09 C 525.762,3530.84 580.492,2219.58 1400.28,1399.79 2220.07,580 3531.33,525.262 4416.59,1273.89"
             id="path27"
             style="fill:#ffffff;fill-opacity:1;fill-rule:nonzero;stroke:none" /><path
             d="M 4416.59,1273.89 1274.38,4416.09 C 525.762,3530.84 580.492,2219.58 1400.28,1399.79 2220.07,580 3531.33,525.262 4416.59,1273.89 Z"
             id="path29"
             style="fill:none;stroke:#ffffff;stroke-width:7.07819;stroke-linecap:round;stroke-linejoin:round;stroke-miterlimit:500;stroke-dasharray:none;stroke-opacity:1" /><path
             d="m 4679.36,1536.66 c 748.61,885.25 693.88,2196.51 -125.9,3016.3 -819.8,819.79 -2131.06,874.52 -3016.31,125.89 L 4679.36,1536.66"
             id="path31"
             style="fill:#ffffff;fill-opacity:1;fill-rule:nonzero;stroke:none" /><path
             d="m 4679.36,1536.66 c 748.61,885.25 693.88,2196.51 -125.9,3016.3 -819.8,819.79 -2131.06,874.52 -3016.31,125.89 z"
             id="path33"
             style="fill:none;stroke:#ffffff;stroke-width:7.07819;stroke-linecap:round;stroke-linejoin:round;stroke-miterlimit:500;stroke-dasharray:none;stroke-opacity:1" /><path
             d="m 1968.26,2768.37 -152.71,-503.34 c -217.25,45.78 -432.6,-85.49 -491.43,-299.58 -58.82,-214.1 59.22,-436.99 269.37,-508.63 210.15,-71.65 439.75,32.73 523.95,238.17 84.2,205.44 -6.11,440.92 -206.1,537.38 l 29.54,98.58 408.84,-467.91 c -4.18,-43.5 21.82,-84.25 63.03,-98.79 41.21,-14.54 87.03,0.87 111.07,37.37 l 62.52,0.04 c 21.74,-175.47 151.07,-318.54 323.47,-357.8 172.39,-39.25 350.91,33.68 446.49,182.44 95.57,148.76 87.71,341.45 -19.67,481.93 -107.36,140.48 -291.23,198.64 -459.86,145.47 l -137.77,299.48 29.34,96.24 61.42,0.78 c 25.34,5.05 43.2,27.85 42.03,53.67 -1.17,25.8 -21.03,46.9 -46.72,49.62 l -212.84,0.39 c -26.68,-0.11 -49.04,-20.23 -51.95,-46.77 -2.9,-26.54 14.58,-51.03 40.61,-56.91 l 61.82,-0.78 -79.94,-261.93 -569.13,182.52 32.87,109.16 c 1.37,13.03 12.31,22.97 25.43,23.07 l 103.68,0.78 c 25.24,5.24 42.9,28.07 41.63,53.82 -1.26,25.74 -21.09,46.73 -46.72,49.46 h -154.39 c -22.6,-0.65 -42.08,-16.09 -47.88,-37.93"
             id="path35"
             style="fill:#000000;fill-opacity:1;fill-rule:nonzero;stroke:none" /><path
             d="m 1968.26,2768.37 -152.71,-503.34 c -217.25,45.78 -432.6,-85.49 -491.43,-299.58 -58.82,-214.1 59.22,-436.99 269.37,-508.63 210.15,-71.65 439.75,32.73 523.95,238.17 84.2,205.44 -6.11,440.92 -206.1,537.38 l 29.54,98.58 408.84,-467.91 c -4.18,-43.5 21.82,-84.25 63.03,-98.79 41.21,-14.54 87.03,0.87 111.07,37.37 l 62.52,0.04 c 21.74,-175.47 151.07,-318.54 323.47,-357.8 172.39,-39.25 350.91,33.68 446.49,182.44 95.57,148.76 87.71,341.45 -19.67,481.93 -107.36,140.48 -291.23,198.64 -459.86,145.47 l -137.77,299.48 29.34,96.24 61.42,0.78 c 25.34,5.05 43.2,27.85 42.03,53.67 -1.17,25.8 -21.03,46.9 -46.72,49.62 l -212.84,0.39 c -26.68,-0.11 -49.04,-20.23 -51.95,-46.77 -2.9,-26.54 14.58,-51.03 40.61,-56.91 l 61.82,-0.78 -79.94,-261.93 -569.13,182.52 32.87,109.16 c 1.37,13.03 12.31,22.97 25.43,23.07 l 103.68,0.78 c 25.24,5.24 42.9,28.07 41.63,53.82 -1.26,25.74 -21.09,46.73 -46.72,49.46 h -154.39 c -22.6,-0.65 -42.08,-16.09 -47.88,-37.93 z"
             id="path37"
             style="fill:none;stroke:#000000;stroke-width:7.07819;stroke-linecap:round;stroke-linejoin:round;stroke-miterlimit:500;stroke-dasharray:none;stroke-opacity:1" /><path
             d="m 1836.59,1989.92 c -13.67,-46.63 -30.46,-92.29 -50.25,-136.66 -5.72,-12.41 -13.09,-24 -21.91,-34.44 -17.14,-17.37 -44.3,-19.92 -64.36,-6.02 -20.08,13.9 -27.26,40.2 -17.02,62.37 20.13,39.24 37.01,80.07 50.47,122.06 l 54.32,176.91 c -167.04,30.83 -329.7,-72.01 -373.51,-236.13 -43.81,-164.12 45.98,-334.32 206.17,-390.84 160.2,-56.52 336.91,19.67 405.78,174.95 68.87,155.28 6.74,337.42 -142.67,418.23 l -47.02,-150.43"
             id="path39"
             style="fill:#ffffff;fill-opacity:1;fill-rule:nonzero;stroke:none" /><path
             d="m 1836.59,1989.92 c -13.67,-46.63 -30.46,-92.29 -50.25,-136.66 -5.72,-12.41 -13.09,-24 -21.91,-34.44 -17.14,-17.37 -44.3,-19.92 -64.36,-6.02 -20.08,13.9 -27.26,40.2 -17.02,62.37 20.13,39.24 37.01,80.07 50.47,122.06 l 54.32,176.91 c -167.04,30.83 -329.7,-72.01 -373.51,-236.13 -43.81,-164.12 45.98,-334.32 206.17,-390.84 160.2,-56.52 336.91,19.67 405.78,174.95 68.87,155.28 6.74,337.42 -142.67,418.23 z"
             id="path41"
             style="fill:none;stroke:#ffffff;stroke-width:7.07819;stroke-linecap:round;stroke-linejoin:round;stroke-miterlimit:500;stroke-dasharray:none;stroke-opacity:1" /><path
             d="m 2551.87,2286.16 -103.56,-336.65 c -11.54,-0.03 -23,-1.75 -34.04,-5.09 l -437.79,502.34 6.65,21.91 568.74,-182.51"
             id="path43"
             style="fill:#ffffff;fill-opacity:1;fill-rule:nonzero;stroke:none" /><path
             d="m 2551.87,2286.16 -103.56,-336.65 c -11.54,-0.03 -23,-1.75 -34.04,-5.09 l -437.79,502.34 6.65,21.91 z"
             id="path45"
             style="fill:none;stroke:#ffffff;stroke-width:7.07819;stroke-linecap:round;stroke-linejoin:round;stroke-miterlimit:500;stroke-dasharray:none;stroke-opacity:1" /><path
             d="m 2784.52,2211.79 c -109.07,-66.47 -181.96,-179 -198.02,-305.72 l -45.47,0.01 153.37,502.34 90.12,-196.63"
             id="path47"
             style="fill:#ffffff;fill-opacity:1;fill-rule:nonzero;stroke:none" /><path
             d="m 2784.52,2211.79 c -109.07,-66.47 -181.96,-179 -198.02,-305.72 l -45.47,0.01 153.37,502.34 z"
             id="path49"
             style="fill:none;stroke:#ffffff;stroke-width:3.3818;stroke-linecap:round;stroke-linejoin:round;stroke-miterlimit:500;stroke-dasharray:none;stroke-opacity:1" /><path
             d="m 2824.44,2125.22 c -76.11,-49.86 -127.82,-129.35 -142.56,-219.14 h 243.35 l -100.79,219.14"
             id="path51"
             style="fill:#ffffff;fill-opacity:1;fill-rule:nonzero;stroke:none" /><path
             d="m 2824.44,2125.22 c -76.11,-49.86 -127.82,-129.35 -142.56,-219.14 h 243.35 z"
             id="path53"
             style="fill:none;stroke:#ffffff;stroke-width:3.37984;stroke-linecap:round;stroke-linejoin:round;stroke-miterlimit:500;stroke-dasharray:none;stroke-opacity:1" /><path
             d="m 3050.81,1874.39 c 7.36,-16.07 5.94,-34.8 -3.75,-49.58 -9.69,-14.77 -26.31,-23.53 -43.98,-23.19 -107.02,2.1 -214.08,1.94 -321.11,-0.49 21.72,-132.74 122.97,-238.36 254.67,-265.67 131.7,-27.29 266.6,29.4 339.28,142.57 72.67,113.18 68.08,259.43 -11.53,367.83 -79.61,108.4 -217.8,156.53 -347.53,121.04 l 133.95,-292.51"
             id="path55"
             style="fill:#ffffff;fill-opacity:1;fill-rule:nonzero;stroke:none" /><path
             d="m 3050.81,1874.39 c 7.36,-16.07 5.94,-34.8 -3.75,-49.58 -9.69,-14.77 -26.31,-23.53 -43.98,-23.19 -107.02,2.1 -214.08,1.94 -321.11,-0.49 21.72,-132.74 122.97,-238.36 254.67,-265.67 131.7,-27.29 266.6,29.4 339.28,142.57 72.67,113.18 68.08,259.43 -11.53,367.83 -79.61,108.4 -217.8,156.53 -347.53,121.04 z"
             id="path57"
             style="fill:none;stroke:#ffffff;stroke-width:7.07819;stroke-linecap:round;stroke-linejoin:round;stroke-miterlimit:500;stroke-dasharray:none;stroke-opacity:1" /><path
             d="m 3610.49,3926.69 v -171.27 l -225.2,-837.58 206.67,-55.57 197.99,736.37 v -275.9 l 268.17,-453.67 184.24,108.9 -244.1,412.94 v 754.99 l 59.2,-96.15 v -366.2 h 133.76 v 404.08 l -214.81,348.87 c -20.81,33.8 -49.96,61.68 -84.65,80.96 -60.87,33.83 -137,21.47 -184.03,-29.89 -62.54,-68.28 -97.24,-157.53 -97.24,-250.13 V 4130.6 l -274.2,-326.82 102.62,-84.78 171.58,207.69"
             id="path59"
             style="fill:#000000;fill-opacity:1;fill-rule:nonzero;stroke:none" /><path
             d="m 3610.49,3926.69 v -171.27 l -225.2,-837.58 206.67,-55.57 197.99,736.37 v -275.9 l 268.17,-453.67 184.24,108.9 -244.1,412.94 v 754.99 l 59.2,-96.15 v -366.2 h 133.76 v 404.08 l -214.81,348.87 c -20.81,33.8 -49.96,61.68 -84.65,80.96 -60.87,33.83 -137,21.47 -184.03,-29.89 -62.54,-68.28 -97.24,-157.53 -97.24,-250.13 V 4130.6 l -274.2,-326.82 102.62,-84.78 z"
             id="path61"
             style="fill:none;stroke:#000000;stroke-width:7.07819;stroke-linecap:round;stroke-linejoin:round;stroke-miterlimit:500;stroke-dasharray:none;stroke-opacity:1" /><path
             d="m 3945.85,4743.2 c 0,88.65 -71.85,160.51 -160.5,160.51 -88.65,0 -160.51,-71.86 -160.51,-160.51 0,-88.65 71.86,-160.5 160.51,-160.5 88.65,0 160.5,71.85 160.5,160.5"
             id="path63"
             style="fill:#000000;fill-opacity:1;fill-rule:nonzero;stroke:none" /><path
             d="m 3945.85,4743.2 c 0,88.65 -71.85,160.51 -160.5,160.51 -88.65,0 -160.51,-71.86 -160.51,-160.51 0,-88.65 71.86,-160.5 160.51,-160.5 88.65,0 160.5,71.85 160.5,160.5 z"
             id="path65"
             style="fill:none;stroke:#000000;stroke-width:7.07819;stroke-linecap:round;stroke-linejoin:round;stroke-miterlimit:500;stroke-dasharray:none;stroke-opacity:1" /></g></g></g></g></svg>
