<?xml version="1.0" encoding="UTF-8" standalone="no"?>
<!-- Created with Inkscape (http://www.inkscape.org/) -->

<svg
   version="1.0"
   width="100"
   height="100"
   id="svg2"
   xml:space="preserve"
   xmlns="http://www.w3.org/2000/svg"
   xmlns:svg="http://www.w3.org/2000/svg"><defs
     id="defs5" /><g
     transform="matrix(0.44147972,0,0,-0.44148167,2.071859e-4,99.999799)"
     id="g11"><g
       transform="scale(0.1)"
       id="g13"><path
         d="m 2264.03,1132.18 c 0,623.52 -508.32,1131.84 -1131.84,1131.84 C 509.391,2264.02 1.07031,1755.7 1.07031,1132.18 1.07031,509.391 509.391,1.07031 1132.19,1.07031 c 623.52,0 1131.84,508.32069 1131.84,1131.10969"
         id="path15"
         style="fill:#e23828;fill-opacity:1;fill-rule:nonzero;stroke:none" /><path
         d="m 2264.03,1132.18 c 0,623.52 -508.32,1131.84 -1131.84,1131.84 C 509.391,2264.02 1.07031,1755.7 1.07031,1132.18 1.07031,509.391 509.391,1.07031 1132.19,1.07031 c 623.52,0 1131.84,508.32069 1131.84,1131.10969 z"
         id="path17"
         style="fill:none;stroke:#e23828;stroke-width:2.15;stroke-linecap:butt;stroke-linejoin:miter;stroke-miterlimit:4;stroke-dasharray:none;stroke-opacity:1" /><path
         d="m 1981.07,1132.18 c 0,467.29 -380.88,848.89 -848.88,848.89 -467.28,0 -848.159,-381.61 -848.159,-848.89 0,-466.547 380.879,-848.149 848.159,-848.149 468,0 848.88,381.602 848.88,848.149"
         id="path19"
         style="fill:#ffffff;fill-opacity:1;fill-rule:nonzero;stroke:none" /><path
         d="m 1981.07,1132.18 c 0,467.29 -380.88,848.89 -848.88,848.89 -467.28,0 -848.159,-381.61 -848.159,-848.89 0,-466.547 380.879,-848.149 848.159,-848.149 468,0 848.88,381.602 848.88,848.149 z"
         id="path21"
         style="fill:none;stroke:#e23828;stroke-width:2.15;stroke-linecap:butt;stroke-linejoin:miter;stroke-miterlimit:4;stroke-dasharray:none;stroke-opacity:1" /><path
         d="M 1213.55,479.152 V 354.594 h 39.6 V 487.07 c 0,32.403 -26.64,59.762 -59.76,59.762 -20.16,0 -39.6,-9.359 -52.56,-24.48 -11.51,15.121 -29.52,24.48 -48.24,24.48 -15.12,0 -30.24,-6.48 -41.04,-16.559 v 10.797 h -39.6 V 354.594 h 39.6 v 124.558 c 0,41.039 61.2,41.039 61.2,0 V 354.594 h 39.6 v 124.558 c 0,41.039 61.2,41.039 61.2,0"
         id="path23"
         style="fill:#000000;fill-opacity:1;fill-rule:nonzero;stroke:none" /><path
         d="M 1213.55,479.152 V 354.594 h 39.6 V 487.07 c 0,32.403 -26.64,59.762 -59.76,59.762 v 0 c -20.16,0 -39.6,-9.359 -52.56,-24.48 -11.51,15.121 -29.52,24.48 -48.24,24.48 -15.12,0 -30.24,-6.48 -41.04,-16.559 v 10.797 h -39.6 V 354.594 h 39.6 v 124.558 c 0,41.039 61.2,41.039 61.2,0 V 354.594 h 39.6 v 124.558 c 0,41.039 61.2,41.039 61.2,0 z"
         id="path25"
         style="fill:none;stroke:#000000;stroke-width:2.15;stroke-linecap:butt;stroke-linejoin:miter;stroke-miterlimit:4;stroke-dasharray:none;stroke-opacity:1" /><path
         d="m 507.23,1243.79 c 0,-15.84 12.239,-28.08 28.079,-28.08 h 66.242 c 4.32,156.24 237.59,153.36 237.59,-2.89 0,-0.71 0,-0.71 0,-0.71 l 33.839,-0.72 v 417.6 c 0,15.84 -12.96,28.08 -28.082,28.8 l -245.519,3.6 h -0.719 c -19.441,0 -36.719,-12.96 -41.039,-32.4 l -50.402,-201.6 V 1243.8"
         id="path27"
         style="fill:#000000;fill-opacity:1;fill-rule:nonzero;stroke:none" /><path
         d="m 507.23,1243.79 v 0 c 0,-15.84 12.239,-28.08 28.079,-28.08 h 66.242 c 4.32,156.24 237.59,153.36 237.59,-2.89 0,-0.71 0,-0.71 0,-0.71 l 33.839,-0.72 v 417.6 c 0,15.84 -12.96,28.08 -28.082,28.8 l -245.519,3.6 h -0.719 c -19.441,0 -36.719,-12.96 -41.039,-32.4 l -50.402,-201.6 V 1243.8 Z"
         id="path29"
         style="fill:none;stroke:#000000;stroke-width:2.15;stroke-linecap:butt;stroke-linejoin:miter;stroke-miterlimit:4;stroke-dasharray:none;stroke-opacity:1" /><path
         d="m 813.949,1212.82 c 0,51.14 -41.758,92.88 -92.871,92.88 -51.84,0 -93.598,-41.75 -93.598,-92.88 0,-51.83 41.758,-93.59 93.598,-93.59 51.121,0 92.883,41.76 92.883,93.59"
         id="path31"
         style="fill:#000000;fill-opacity:1;fill-rule:nonzero;stroke:none" /><path
         d="m 813.949,1212.82 c 0,51.14 -41.758,92.88 -92.871,92.88 -51.84,0 -93.598,-41.75 -93.598,-92.88 0,-51.83 41.758,-93.59 93.598,-93.59 51.121,0 92.883,41.76 92.883,93.59 z"
         id="path33"
         style="fill:none;stroke:#000000;stroke-width:2.15;stroke-linecap:butt;stroke-linejoin:miter;stroke-miterlimit:4;stroke-dasharray:none;stroke-opacity:1" /><path
         d="M 680.75,700.191 505.789,813.223 c -9.359,6.488 -9.359,20.89 0,26.648 L 680.75,953.633 c 7.922,5.031 18.719,-0.719 18.719,-10.082 0,-1.438 -0.719,-2.16 -0.719,-2.879 l -18,-72.719 h 69.84 v -82.082 h -69.84 l 18,-72.719 c 0,-0.73 0.719,-2.16 0.719,-2.879 0,-6.48 -5.758,-12.25 -12.239,-12.25 -2.16,0 -4.32,0.731 -6.48,2.168"
         id="path35"
         style="fill:#000000;fill-opacity:1;fill-rule:nonzero;stroke:none" /><path
         d="M 680.75,700.191 505.789,813.223 c -9.359,6.488 -9.359,20.89 0,26.648 L 680.75,953.633 c 7.922,5.031 18.719,-0.719 18.719,-10.082 0,-1.438 -0.719,-2.16 -0.719,-2.879 l -18,-72.719 h 69.84 v -82.082 h -69.84 l 18,-72.719 c 0,-0.73 0.719,-2.16 0.719,-2.879 0,-6.48 -5.758,-12.25 -12.239,-12.25 -2.16,0 -4.32,0.731 -6.48,2.168 z"
         id="path37"
         style="fill:none;stroke:#000000;stroke-width:2.15;stroke-linecap:butt;stroke-linejoin:miter;stroke-miterlimit:4;stroke-dasharray:none;stroke-opacity:1" /><path
         d="m 594.352,1602.35 c 1.437,7.92 8.636,13.68 16.558,13.68 h 192.961 c 9.359,-0.72 16.559,-7.92 16.559,-17.28 v -107.28 c 0,-8.64 -7.2,-16.55 -16.559,-16.55 H 588.59 c -9.36,0 -17.281,7.91 -17.281,16.55 0,1.44 0.722,2.88 0.722,3.6 l 22.321,107.28"
         id="path39"
         style="fill:#ffffff;fill-opacity:1;fill-rule:nonzero;stroke:none" /><path
         d="m 594.352,1602.35 c 1.437,7.92 8.636,13.68 16.558,13.68 h 192.961 c 9.359,-0.72 16.559,-7.92 16.559,-17.28 v -107.28 c 0,-8.64 -7.2,-16.55 -16.559,-16.55 H 588.59 c -9.36,0 -17.281,7.91 -17.281,16.55 0,1.44 0.722,2.88 0.722,3.6 z"
         id="path41"
         style="fill:none;stroke:#000000;stroke-width:2.15;stroke-linecap:butt;stroke-linejoin:miter;stroke-miterlimit:4;stroke-dasharray:none;stroke-opacity:1" /><path
         d="m 1601.63,1212.82 c 0,51.14 -41.76,92.88 -92.88,92.88 -51.84,0 -93.59,-41.75 -93.59,-92.88 0,-51.83 41.75,-93.59 93.59,-93.59 51.12,0 92.88,41.76 92.88,93.59"
         id="path43"
         style="fill:#000000;fill-opacity:1;fill-rule:nonzero;stroke:none" /><path
         d="m 1601.63,1212.82 c 0,51.14 -41.76,92.88 -92.88,92.88 -51.84,0 -93.59,-41.75 -93.59,-92.88 0,-51.83 41.75,-93.59 93.59,-93.59 51.12,0 92.88,41.76 92.88,93.59 z"
         id="path45"
         style="fill:none;stroke:#000000;stroke-width:2.15;stroke-linecap:butt;stroke-linejoin:miter;stroke-miterlimit:4;stroke-dasharray:none;stroke-opacity:1" /><path
         d="m 1583.63,700.191 174.96,113.032 c 5.04,3.609 7.2,7.918 7.2,13.691 0,5.039 -2.16,10.066 -7.2,12.957 l -174.96,113.762 c -1.44,1.437 -3.59,1.437 -6.48,1.437 -6.48,0 -11.52,-5.039 -11.52,-11.519 0,-1.438 0,-2.16 0,-2.879 l 18.72,-72.719 h -69.84 v -82.082 h 69.84 l -18.72,-72.719 c 0,-0.73 0,-2.16 0,-2.879 0,-6.48 5.04,-12.25 11.52,-12.25 2.89,0 5.04,0.731 6.48,2.168"
         id="path47"
         style="fill:#000000;fill-opacity:1;fill-rule:nonzero;stroke:none" /><path
         d="m 1583.63,700.191 174.96,113.032 c 5.04,3.609 7.2,7.918 7.2,13.691 0,5.039 -2.16,10.066 -7.2,12.957 l -174.96,113.762 c -1.44,1.437 -3.59,1.437 -6.48,1.437 -6.48,0 -11.52,-5.039 -11.52,-11.519 0,-1.438 0,-2.16 0,-2.879 l 18.72,-72.719 h -69.84 v -82.082 h 69.84 l -18.72,-72.719 c 0,-0.73 0,-2.16 0,-2.879 0,-6.48 5.04,-12.25 11.52,-12.25 2.89,0 5.04,0.731 6.48,2.168 z"
         id="path49"
         style="fill:none;stroke:#000000;stroke-width:2.15;stroke-linecap:butt;stroke-linejoin:miter;stroke-miterlimit:4;stroke-dasharray:none;stroke-opacity:1" /><path
         d="m 1268.99,795.941 c 1.44,-8.629 2.16,-17.988 2.16,-27.347 0,-8.641 -0.72,-17.282 -2.16,-25.922 -6.48,-22.32 -25.92,-38.168 -48.95,-38.168 -25.21,0 -48.97,10.808 -65.53,30.25 l -41.76,-38.883 c 28.08,-30.238 66.96,-46.809 107.29,-46.809 51.11,0 95.03,35.29 107.99,84.25 1.44,12.239 2.88,23.758 2.88,35.282 0,12.238 -1.44,23.758 -2.88,36 -12.96,49.679 -56.88,84.238 -107.99,84.238 -12.25,0 -24.49,-2.891 -35.29,-8.641 v 61.2 h 138.24 v 55.441 h -198 V 833.391 l 51.84,-13.68 c 12.25,8.641 27.37,13.68 43.21,13.68 23.03,0 42.47,-15.84 48.95,-37.45"
         id="path51"
         style="fill:#000000;fill-opacity:1;fill-rule:nonzero;stroke:none" /><path
         d="m 1268.99,795.941 c 1.44,-8.629 2.16,-17.988 2.16,-27.347 0,-8.641 -0.72,-17.282 -2.16,-25.922 -6.48,-22.32 -25.92,-38.168 -48.95,-38.168 -25.21,0 -48.97,10.808 -65.53,30.25 l -41.76,-38.883 c 28.08,-30.238 66.96,-46.809 107.29,-46.809 v 0 c 51.11,0 95.03,35.29 107.99,84.25 1.44,12.239 2.88,23.758 2.88,35.282 0,12.238 -1.44,23.758 -2.88,36 -12.96,49.679 -56.88,84.238 -107.99,84.238 v 0 c -12.25,0 -24.49,-2.891 -35.29,-8.641 v 61.2 h 138.24 v 55.441 h -198 V 833.391 l 51.84,-13.68 c 12.25,8.641 27.37,13.68 43.21,13.68 23.03,0 42.47,-15.84 48.95,-37.45 z"
         id="path53"
         style="fill:none;stroke:#000000;stroke-width:2.15;stroke-linecap:butt;stroke-linejoin:miter;stroke-miterlimit:4;stroke-dasharray:none;stroke-opacity:1" /><path
         d="m 1038.59,996.832 h -55.442 l -41.039,-41.039 v -58.32 l 36.719,21.589 V 656.98 h 59.762 v 339.852"
         id="path55"
         style="fill:#000000;fill-opacity:1;fill-rule:nonzero;stroke:none" /><path
         d="m 1038.59,996.832 h -55.442 l -41.039,-41.039 v -58.32 l 36.719,21.589 V 656.98 h 59.762 z"
         id="path57"
         style="fill:none;stroke:#000000;stroke-width:2.15;stroke-linecap:butt;stroke-linejoin:miter;stroke-miterlimit:4;stroke-dasharray:none;stroke-opacity:1" /><path
         d="m 959.391,1654.9 c -18.719,0 -33.84,-15.12 -33.84,-33.83 V 1359.7 h 825.119 v 252.71 c 0,23.04 -18.72,42.48 -42.48,42.48 H 959.391"
         id="path59"
         style="fill:#000000;fill-opacity:1;fill-rule:nonzero;stroke:none" /><path
         d="m 959.391,1654.9 v 0 c -18.719,0 -33.84,-15.12 -33.84,-33.83 V 1359.7 h 825.119 v 252.71 c 0,23.04 -18.72,42.48 -42.48,42.48 H 959.391 Z"
         id="path61"
         style="fill:none;stroke:#000000;stroke-width:2.15;stroke-linecap:butt;stroke-linejoin:miter;stroke-miterlimit:4;stroke-dasharray:none;stroke-opacity:1" /><path
         d="m 1627.55,1211.39 c 0,0.72 0,0.72 0,1.43 0,41.77 -22.32,80.66 -58.32,102.24 h 181.44 v -103.68 h -123.12"
         id="path63"
         style="fill:#000000;fill-opacity:1;fill-rule:nonzero;stroke:none" /><path
         d="m 1627.55,1211.39 c 0,0.72 0,0.72 0,1.43 0,41.77 -22.32,80.66 -58.32,102.24 h 181.44 v -103.68 h -123.12 z"
         id="path65"
         style="fill:none;stroke:#000000;stroke-width:2.15;stroke-linecap:butt;stroke-linejoin:miter;stroke-miterlimit:4;stroke-dasharray:none;stroke-opacity:1" /><path
         d="m 925.551,1211.39 v 103.68 h 522.719 c -36.72,-21.59 -58.32,-60.47 -58.32,-102.24 0,-0.71 0,-0.71 0,-1.43 H 925.551"
         id="path67"
         style="fill:#000000;fill-opacity:1;fill-rule:nonzero;stroke:none" /><path
         d="m 925.551,1211.39 v 103.68 h 522.719 c -36.72,-21.59 -58.32,-60.47 -58.32,-102.24 0,-0.71 0,-0.71 0,-1.43 H 925.551 Z"
         id="path69"
         style="fill:none;stroke:#000000;stroke-width:2.15;stroke-linecap:butt;stroke-linejoin:miter;stroke-miterlimit:4;stroke-dasharray:none;stroke-opacity:1" /></g></g></svg>
