<?xml version="1.0" encoding="UTF-8" standalone="no"?>
<!-- Created with Inkscape (http://www.inkscape.org/) -->

<svg
   version="1.0"
   width="100"
   height="100"
   id="svg2"
   xml:space="preserve"
   xmlns="http://www.w3.org/2000/svg"
   xmlns:svg="http://www.w3.org/2000/svg"><defs
     id="defs5"><clipPath
       id="clipPath19"><path
         d="M 0.492188,0 L 5953.0022,0 L 5953.0022,5952.75 L 0.492188,5952.75 L 0.492188,0 z"
         id="path21" /></clipPath></defs><g
     transform="matrix(0.16799636,0,0,-0.16798961,-0.00826978,100)"
     id="g11"><g
       transform="scale(0.1)"
       id="g13"><g
         id="g15"><g
           clip-path="url(#clipPath19)"
           id="g17"><path
             d="m 5949.71,2976.37 c 0,1641.85 -1330.99,2972.84 -2972.84,2972.84 C 1335.02,5949.21 4.03125,4618.22 4.03125,2976.37 4.03125,1334.53 1335.02,3.53125 2976.87,3.53125 4618.72,3.53125 5949.71,1334.53 5949.71,2976.37"
             id="path23"
             style="fill:#e23828;fill-opacity:1;fill-rule:nonzero;stroke:none" /><path
             d="m 5949.71,2976.37 c 0,1641.85 -1330.99,2972.84 -2972.84,2972.84 C 1335.02,5949.21 4.03125,4618.22 4.03125,2976.37 4.03125,1334.53 1335.02,3.53125 2976.87,3.53125 4618.72,3.53125 5949.71,1334.53 5949.71,2976.37 Z"
             id="path25"
             style="fill:none;stroke:#e23828;stroke-width:7.07819;stroke-linecap:round;stroke-linejoin:round;stroke-miterlimit:500;stroke-dasharray:none;stroke-opacity:1" /><path
             d="M 4416.59,1273.89 1274.38,4416.09 C 525.762,3530.84 580.492,2219.58 1400.28,1399.79 2220.07,580 3531.33,525.262 4416.59,1273.89"
             id="path27"
             style="fill:#ffffff;fill-opacity:1;fill-rule:nonzero;stroke:none" /><path
             d="M 4416.59,1273.89 1274.38,4416.09 C 525.762,3530.84 580.492,2219.58 1400.28,1399.79 2220.07,580 3531.33,525.262 4416.59,1273.89 Z"
             id="path29"
             style="fill:none;stroke:#ffffff;stroke-width:7.07819;stroke-linecap:round;stroke-linejoin:round;stroke-miterlimit:500;stroke-dasharray:none;stroke-opacity:1" /><path
             d="m 4679.36,1536.66 c 748.61,885.25 693.88,2196.51 -125.9,3016.3 -819.8,819.79 -2131.06,874.52 -3016.31,125.89 L 4679.36,1536.66"
             id="path31"
             style="fill:#ffffff;fill-opacity:1;fill-rule:nonzero;stroke:none" /><path
             d="m 4679.36,1536.66 c 748.61,885.25 693.88,2196.51 -125.9,3016.3 -819.8,819.79 -2131.06,874.52 -3016.31,125.89 z"
             id="path33"
             style="fill:none;stroke:#ffffff;stroke-width:7.07819;stroke-linecap:round;stroke-linejoin:round;stroke-miterlimit:500;stroke-dasharray:none;stroke-opacity:1" /><path
             d="m 1750.76,2151.05 v -682.74 c 36.54,-44.47 91.07,-70.24 148.62,-70.24 57.56,0 112.09,25.77 148.62,70.24 v 682.74 c -36.29,44.85 -90.91,70.92 -148.62,70.92 -57.7,0 -112.33,-26.07 -148.62,-70.92"
             id="path35"
             style="fill:#000000;fill-opacity:1;fill-rule:nonzero;stroke:none" /><path
             d="m 1750.76,2151.05 v -682.74 c 36.54,-44.47 91.07,-70.24 148.62,-70.24 57.56,0 112.09,25.77 148.62,70.24 v 682.74 c -36.29,44.85 -90.91,70.92 -148.62,70.92 -57.7,0 -112.33,-26.07 -148.62,-70.92 z"
             id="path37"
             style="fill:none;stroke:#000000;stroke-width:4.12831;stroke-linecap:round;stroke-linejoin:round;stroke-miterlimit:500;stroke-dasharray:none;stroke-opacity:1" /><path
             d="m 3536.56,2153.92 c -0.8,-0.95 -1.59,-1.9 -2.37,-2.87 v -224.06 h -313.42 c -41.14,0 -80.21,18.04 -106.9,49.34 -34.19,40.13 -84.27,63.26 -137,63.26 -52.73,0 -102.81,-23.13 -137,-63.26 -26.69,-31.3 -65.76,-49.34 -106.9,-49.34 h -313.42 v 224.06 c -36.3,44.85 -90.92,70.92 -148.63,70.92 -57.7,0 -112.31,-26.07 -148.61,-70.92 v -682.74 c 36.53,-44.47 91.06,-70.24 148.61,-70.24 57.56,0 112.09,25.77 148.63,70.24 v 237.98 h 316.5 c 41.14,0 80.21,-18.04 106.9,-49.35 34.2,-40.13 84.27,-63.24 137,-63.24 52.73,0 102.81,23.11 137,63.24 26.69,31.31 65.77,49.35 106.91,49.35 h 310.33 v -237.98 c 36.54,-44.47 91.07,-70.24 148.62,-70.24 57.55,0 112.08,25.77 148.62,70.24 v 390.74 l -294.87,294.87"
             id="path39"
             style="fill:#000000;fill-opacity:1;fill-rule:nonzero;stroke:none" /><path
             d="m 3536.56,2153.92 c -0.8,-0.95 -1.59,-1.9 -2.37,-2.87 v -224.06 h -313.42 c -41.14,0 -80.21,18.04 -106.9,49.34 -34.19,40.13 -84.27,63.26 -137,63.26 -52.73,0 -102.81,-23.13 -137,-63.26 -26.69,-31.3 -65.76,-49.34 -106.9,-49.34 h -313.42 v 224.06 c -36.3,44.85 -90.92,70.92 -148.63,70.92 -57.7,0 -112.31,-26.07 -148.61,-70.92 v -682.74 c 36.53,-44.47 91.06,-70.24 148.61,-70.24 57.56,0 112.09,25.77 148.63,70.24 v 237.98 h 316.5 c 41.14,0 80.21,-18.04 106.9,-49.35 34.2,-40.13 84.27,-63.24 137,-63.24 52.73,0 102.81,23.11 137,63.24 26.69,31.31 65.77,49.35 106.91,49.35 h 310.33 v -237.98 c 36.54,-44.47 91.07,-70.24 148.62,-70.24 57.55,0 112.08,25.77 148.62,70.24 v 390.74 z"
             id="path41"
             style="fill:none;stroke:#000000;stroke-width:7.07819;stroke-linecap:round;stroke-linejoin:round;stroke-miterlimit:500;stroke-dasharray:none;stroke-opacity:1" /><path
             d="m 3905.74,1784.74 v -316.43 c 36.53,-44.47 91.07,-70.24 148.62,-70.24 57.56,0 112.08,25.77 148.62,70.24 v 19.19 l -297.24,297.24"
             id="path43"
             style="fill:#000000;fill-opacity:1;fill-rule:nonzero;stroke:none" /><path
             d="m 3905.74,1784.74 v -316.43 c 36.53,-44.47 91.07,-70.24 148.62,-70.24 57.56,0 112.08,25.77 148.62,70.24 v 19.19 z"
             id="path45"
             style="fill:none;stroke:#000000;stroke-width:4.12831;stroke-linecap:round;stroke-linejoin:round;stroke-miterlimit:500;stroke-dasharray:none;stroke-opacity:1" /><path
             d="m 4202.98,2013.03 v 138.02 c -48.31,59.72 -127.68,84.72 -201.49,63.47 l 201.49,-201.49"
             id="path47"
             style="fill:#000000;fill-opacity:1;fill-rule:nonzero;stroke:none" /><path
             d="m 4202.98,2013.03 v 138.02 c -48.31,59.72 -127.68,84.72 -201.49,63.47 z"
             id="path49"
             style="fill:none;stroke:#000000;stroke-width:2.79847;stroke-linecap:round;stroke-linejoin:round;stroke-miterlimit:500;stroke-dasharray:none;stroke-opacity:1" /><path
             d="m 3290.55,2925.46 h 540.88 V 4074.12 H 2141.89 l -411.66,411.66 c 26.66,22.1 60.21,34.2 94.84,34.2 h 2303.6 c 39.42,0 77.21,-15.66 105.09,-43.53 27.86,-27.87 43.53,-65.67 43.53,-105.09 V 2405.29 H 3810.7 l -520.15,520.17"
             id="path51"
             style="fill:#000000;fill-opacity:1;fill-rule:nonzero;stroke:none" /><path
             d="m 3290.55,2925.46 h 540.88 V 4074.12 H 2141.89 l -411.66,411.66 c 26.66,22.1 60.21,34.2 94.84,34.2 h 2303.6 c 39.42,0 77.21,-15.66 105.09,-43.53 27.86,-27.87 43.53,-65.67 43.53,-105.09 V 2405.29 H 3810.7 Z"
             id="path53"
             style="fill:none;stroke:#000000;stroke-width:7.07819;stroke-linecap:round;stroke-linejoin:round;stroke-miterlimit:500;stroke-dasharray:none;stroke-opacity:1" /><path
             d="m 2765.02,2925.46 520.16,-520.17 H 1676.45 v 1608.74 l 445.86,-445.86 v -642.71 h 642.71"
             id="path55"
             style="fill:#000000;fill-opacity:1;fill-rule:nonzero;stroke:none" /><path
             d="m 2765.02,2925.46 520.16,-520.17 H 1676.45 v 1608.74 l 445.86,-445.86 v -642.71 z"
             id="path57"
             style="fill:none;stroke:#000000;stroke-width:7.07819;stroke-linecap:round;stroke-linejoin:round;stroke-miterlimit:500;stroke-dasharray:none;stroke-opacity:1" /><path
             d="m 2765.02,2925.46 -642.71,642.71 v -642.71 h 642.71"
             id="path59"
             style="fill:#fe7900;fill-opacity:1;fill-rule:nonzero;stroke:none" /><path
             d="m 2765.02,2925.46 -642.71,642.71 v -642.71 z"
             id="path61"
             style="fill:none;stroke:#fe7900;stroke-width:7.07819;stroke-linecap:round;stroke-linejoin:round;stroke-miterlimit:500;stroke-dasharray:none;stroke-opacity:1" /><path
             d="M 2141.89,4074.12 3290.55,2925.46 h 540.88 V 4074.12 H 2141.89"
             id="path63"
             style="fill:#fe7900;fill-opacity:1;fill-rule:nonzero;stroke:none" /><path
             d="M 2141.89,4074.12 3290.55,2925.46 h 540.88 v 1148.66 z"
             id="path65"
             style="fill:none;stroke:#fe7900;stroke-width:7.07819;stroke-linecap:round;stroke-linejoin:round;stroke-miterlimit:500;stroke-dasharray:none;stroke-opacity:1" /></g></g></g></g></svg>
