<?xml version="1.0" encoding="UTF-8" standalone="no"?>
<!-- Created with Inkscape (http://www.inkscape.org/) -->

<svg
   version="1.0"
   width="100"
   height="100"
   id="svg2"
   xml:space="preserve"
   xmlns="http://www.w3.org/2000/svg"
   xmlns:svg="http://www.w3.org/2000/svg"><defs
     id="defs5"><clipPath
       id="clipPath19"><path
         d="M 0,0 L 2267.99,0 L 2267.99,2267.98 L 0,2267.98 L 0,0 z"
         id="path21" /></clipPath></defs><g
     transform="matrix(0.44092002,0,0,-0.44092002,0,99.999564)"
     id="g11"><g
       transform="scale(0.1)"
       id="g13"><g
         id="g15"><g
           clip-path="url(#clipPath19)"
           id="g17"><path
             d="m 2266.91,1132.91 c 0,623.52 -510.48,1133.99 -1134,1133.99 C 511.551,2266.9 1.07031,1756.42 1.07031,1132.91 1.07031,511.543 511.551,1.07422 1132.91,1.07422 c 623.52,0 1134,510.46878 1134,1131.83578"
             id="path23"
             style="fill:#e23828;fill-opacity:1;fill-rule:nonzero;stroke:none" /><path
             d="m 2266.91,1132.91 c 0,623.52 -510.48,1133.99 -1134,1133.99 C 511.551,2266.9 1.07031,1756.42 1.07031,1132.91 1.07031,511.543 511.551,1.07422 1132.91,1.07422 c 623.52,0 1134,510.46878 1134,1131.83578 z"
             id="path25"
             style="fill:none;stroke:#e23828;stroke-width:2.15;stroke-linecap:butt;stroke-linejoin:miter;stroke-miterlimit:4;stroke-dasharray:none;stroke-opacity:1" /><path
             d="m 1983.23,1132.91 c 0,467.27 -383.04,850.32 -850.32,850.32 -465.121,0 -848.16,-383.05 -848.16,-850.32 0,-465.129 383.039,-848.156 848.16,-848.156 467.28,0 850.32,383.027 850.32,848.156"
             id="path27"
             style="fill:#ffffff;fill-opacity:1;fill-rule:nonzero;stroke:none" /><path
             d="m 1983.23,1132.91 c 0,467.27 -383.04,850.32 -850.32,850.32 -465.121,0 -848.16,-383.05 -848.16,-850.32 0,-465.129 383.039,-848.156 848.16,-848.156 467.28,0 850.32,383.027 850.32,848.156 z"
             id="path29"
             style="fill:none;stroke:#e23828;stroke-width:2.15;stroke-linecap:butt;stroke-linejoin:miter;stroke-miterlimit:4;stroke-dasharray:none;stroke-opacity:1" /><path
             d="m 1132.91,1713.96 232.56,238.32 c -77.04,19.43 -153.36,30.96 -232.56,30.96 -79.92,0 -156.238,-11.53 -232.558,-30.96 l 232.558,-238.32"
             id="path31"
             style="fill:#000000;fill-opacity:1;fill-rule:nonzero;stroke:none" /><path
             d="m 1132.91,1713.96 232.56,238.32 c -77.04,19.43 -153.36,30.96 -232.56,30.96 -79.92,0 -156.238,-11.53 -232.558,-30.96 z"
             id="path33"
             style="fill:none;stroke:#000000;stroke-width:2.15;stroke-linecap:butt;stroke-linejoin:miter;stroke-miterlimit:4;stroke-dasharray:none;stroke-opacity:1" /><path
             d="M 1365.47,312.82 1132.91,551.141 900.352,312.82 c 76.32,-19.429 152.638,-30.949 232.558,-30.949 79.2,0 155.52,11.52 232.56,30.949"
             id="path35"
             style="fill:#000000;fill-opacity:1;fill-rule:nonzero;stroke:none" /><path
             d="M 1365.47,312.82 1132.91,551.141 900.352,312.82 c 76.32,-19.429 152.638,-30.949 232.558,-30.949 79.2,0 155.52,11.52 232.56,30.949 z"
             id="path37"
             style="fill:none;stroke:#000000;stroke-width:2.15;stroke-linecap:butt;stroke-linejoin:miter;stroke-miterlimit:4;stroke-dasharray:none;stroke-opacity:1" /><path
             d="m 871.551,888.82 c 0,-14.386 11.519,-28.789 28.801,-28.789 7.918,0 13.679,2.883 19.449,5.762 2.871,-2.879 5.75,-8.641 5.75,-13.68 0,-17.281 -14.403,-31.679 -30.961,-31.679 0,0 0,0 -2.871,0 V 795.23 c 48.23,0 84.961,36.711 84.961,82.082 0,14.399 -5.758,30.961 -11.508,42.481 -11.531,14.398 -25.211,23.027 -42.492,23.027 -28.078,0 -51.121,-23.027 -51.121,-51.109 v -2.891"
             id="path39"
             style="fill:#000000;fill-opacity:1;fill-rule:nonzero;stroke:none" /><path
             d="m 871.551,888.82 c 0,-14.386 11.519,-28.789 28.801,-28.789 7.918,0 13.679,2.883 19.449,5.762 2.871,-2.879 5.75,-8.641 5.75,-13.68 0,-17.281 -14.403,-31.679 -30.961,-31.679 0,0 0,0 -2.871,0 V 795.23 c 48.23,0 84.961,36.711 84.961,82.082 0,14.399 -5.758,30.961 -11.508,42.481 -11.531,14.398 -25.211,23.027 -42.492,23.027 -28.078,0 -51.121,-23.027 -51.121,-51.109 v -2.891 z"
             id="path41"
             style="fill:none;stroke:#000000;stroke-width:2.15;stroke-linecap:butt;stroke-linejoin:miter;stroke-miterlimit:4;stroke-dasharray:none;stroke-opacity:1" /><path
             d="m 656.27,843.473 c 102.242,0 187.199,84.949 187.199,187.197 0,56.88 -28.797,107.28 -77.039,138.96 40.32,30.96 62.64,76.31 62.64,124.57 0,96.47 -76.32,172.79 -172.8,172.79 h -20.161 c -73.437,0 -141.839,-48.23 -164.16,-118.8 l 99.36,-33.84 c 7.921,30.96 36.722,53.28 70.562,56.16 h 5.758 c 42.48,0 76.32,-33.84 76.32,-76.31 0,-42.49 -33.84,-76.33 -76.32,-76.33 H 622.43 v -96.48 h 25.199 c 51.121,0 90.723,-39.61 90.723,-90.72 0,-48.248 -39.614,-90.717 -90.723,-90.717 -39.598,0 -76.32,25.199 -87.84,61.917 l -102.23,-33.847 c 28.8,-73.429 96.48,-124.55 175.679,-124.55 h 23.043"
             id="path43"
             style="fill:#000000;fill-opacity:1;fill-rule:nonzero;stroke:none" /><path
             d="m 656.27,843.473 v 0 c 102.242,0 187.199,84.949 187.199,187.197 0,56.88 -28.797,107.28 -77.039,138.96 40.32,30.96 62.64,76.31 62.64,124.57 0,96.47 -76.32,172.79 -172.8,172.79 h -20.161 v 0 c -73.437,0 -141.839,-48.23 -164.16,-118.8 l 99.36,-33.84 c 7.921,30.96 36.722,53.28 70.562,56.16 h 5.758 c 42.48,0 76.32,-33.84 76.32,-76.31 0,-42.49 -33.84,-76.33 -76.32,-76.33 H 622.43 v -96.48 h 25.199 c 51.121,0 90.723,-39.61 90.723,-90.72 0,-48.248 -39.614,-90.717 -90.723,-90.717 -39.598,0 -76.32,25.199 -87.84,61.917 l -102.23,-33.847 c 28.8,-73.429 96.48,-124.55 175.679,-124.55 h 23.043 z"
             id="path45"
             style="fill:none;stroke:#000000;stroke-width:2.15;stroke-linecap:butt;stroke-linejoin:miter;stroke-miterlimit:4;stroke-dasharray:none;stroke-opacity:1" /><path
             d="m 1234.44,1047.23 c 2.87,-10.8 2.87,-22.33 2.87,-36.73 0,-11.508 0,-22.309 -2.87,-36.707 -7.93,-28.09 -36.73,-51.121 -67.69,-51.121 -33.84,0 -68.4,14.398 -90.72,39.601 l -56.88,-51.132 c 36.73,-42.477 90.72,-64.797 147.6,-64.797 70.56,0 130.32,48.25 147.6,115.929 2.88,17.278 5.04,33.829 5.04,48.227 0,17.28 -2.16,33.85 -5.04,51.13 -17.28,68.4 -77.04,116.63 -147.6,116.63 -17.28,0 -33.84,-5.74 -48.24,-14.39 v 84.95 h 190.08 v 76.34 h -272.16 v -223.93 l 70.56,-19.45 c 17.28,10.8 36.72,19.45 59.76,19.45 30.96,0 59.76,-22.32 67.69,-54"
             id="path47"
             style="fill:#000000;fill-opacity:1;fill-rule:nonzero;stroke:none" /><path
             d="m 1234.44,1047.23 c 2.87,-10.8 2.87,-22.33 2.87,-36.73 0,-11.508 0,-22.309 -2.87,-36.707 -7.93,-28.09 -36.73,-51.121 -67.69,-51.121 -33.84,0 -68.4,14.398 -90.72,39.601 l -56.88,-51.132 c 36.73,-42.477 90.72,-64.797 147.6,-64.797 70.56,0 130.32,48.25 147.6,115.929 2.88,17.278 5.04,33.829 5.04,48.227 0,17.28 -2.16,33.85 -5.04,51.13 -17.28,68.4 -77.04,116.63 -147.6,116.63 v 0 c -17.28,0 -33.84,-5.74 -48.24,-14.39 v 84.95 h 190.08 v 76.34 h -272.16 v -223.93 l 70.56,-19.45 c 17.28,10.8 36.72,19.45 59.76,19.45 30.96,0 59.76,-22.32 67.69,-54 z"
             id="path49"
             style="fill:none;stroke:#000000;stroke-width:2.15;stroke-linecap:butt;stroke-linejoin:miter;stroke-miterlimit:4;stroke-dasharray:none;stroke-opacity:1" /><path
             d="M 1742.03,1047.23 V 857.152 h 59.76 v 201.598 c 0,51.11 -39.6,90.71 -87.84,90.71 h -2.88 c -28.08,0 -59.76,-14.4 -79.2,-36.71 -17.28,22.31 -42.48,36.71 -71.28,36.71 -25.2,0 -48.24,-8.63 -61.92,-25.2 v 16.57 h -59.76 V 857.152 h 59.76 v 190.078 c 0,62.63 90.72,62.63 90.72,0 V 857.152 h 59.04 v 190.078 c 0,62.63 93.6,62.63 93.6,0"
             id="path51"
             style="fill:#000000;fill-opacity:1;fill-rule:nonzero;stroke:none" /><path
             d="M 1742.03,1047.23 V 857.152 h 59.76 v 201.598 c 0,51.11 -39.6,90.71 -87.84,90.71 h -2.88 c -28.08,0 -59.76,-14.4 -79.2,-36.71 -17.28,22.31 -42.48,36.71 -71.28,36.71 -25.2,0 -48.24,-8.63 -61.92,-25.2 v 16.57 h -59.76 V 857.152 h 59.76 v 190.078 c 0,62.63 90.72,62.63 90.72,0 V 857.152 h 59.04 v 190.078 c 0,62.63 93.6,62.63 93.6,0 z"
             id="path53"
             style="fill:none;stroke:#000000;stroke-width:2.15;stroke-linecap:butt;stroke-linejoin:miter;stroke-miterlimit:4;stroke-dasharray:none;stroke-opacity:1" /></g></g></g></g></svg>
