<?xml version="1.0" encoding="UTF-8" standalone="no"?>
<!-- Created with Inkscape (http://www.inkscape.org/) -->

<svg
   version="1.0"
   width="100"
   height="100"
   id="svg2"
   xml:space="preserve"
   xmlns="http://www.w3.org/2000/svg"
   xmlns:svg="http://www.w3.org/2000/svg"><defs
     id="defs5"><clipPath
       id="clipPath19"><path
         d="M 0.492188,0 L 5953.0022,0 L 5953.0022,5952.75 L 0.492188,5952.75 L 0.492188,0 z"
         id="path21" /></clipPath></defs><g
     transform="matrix(0.16799628,0,0,-0.16798982,-0.00824474,100.0001)"
     id="g11"><g
       transform="scale(0.1)"
       id="g13"><g
         id="g15"><g
           clip-path="url(#clipPath19)"
           id="g17"><path
             d="m 5949.71,2976.37 c 0,1641.85 -1330.99,2972.84 -2972.84,2972.84 C 1335.02,5949.21 4.03125,4618.22 4.03125,2976.37 4.03125,1334.53 1335.02,3.53125 2976.87,3.53125 4618.72,3.53125 5949.71,1334.53 5949.71,2976.37"
             id="path23"
             style="fill:#e23828;fill-opacity:1;fill-rule:nonzero;stroke:none" /><path
             d="m 5949.71,2976.37 c 0,1641.85 -1330.99,2972.84 -2972.84,2972.84 C 1335.02,5949.21 4.03125,4618.22 4.03125,2976.37 4.03125,1334.53 1335.02,3.53125 2976.87,3.53125 4618.72,3.53125 5949.71,1334.53 5949.71,2976.37 Z"
             id="path25"
             style="fill:none;stroke:#e23828;stroke-width:7.07819;stroke-linecap:round;stroke-linejoin:round;stroke-miterlimit:500;stroke-dasharray:none;stroke-opacity:1" /><path
             d="m 4679.36,1536.66 c 748.61,885.25 693.88,2196.51 -125.9,3016.3 -819.8,819.79 -2131.06,874.52 -3016.31,125.89 L 4679.36,1536.66"
             id="path27"
             style="fill:#ffffff;fill-opacity:1;fill-rule:nonzero;stroke:none" /><path
             d="m 4679.36,1536.66 c 748.61,885.25 693.88,2196.51 -125.9,3016.3 -819.8,819.79 -2131.06,874.52 -3016.31,125.89 z"
             id="path29"
             style="fill:none;stroke:#ffffff;stroke-width:7.07819;stroke-linecap:round;stroke-linejoin:round;stroke-miterlimit:500;stroke-dasharray:none;stroke-opacity:1" /><path
             d="M 4416.59,1273.89 1274.38,4416.09 C 525.762,3530.84 580.492,2219.58 1400.28,1399.79 2220.07,580 3531.33,525.262 4416.59,1273.89"
             id="path31"
             style="fill:#ffffff;fill-opacity:1;fill-rule:nonzero;stroke:none" /><path
             d="M 4416.59,1273.89 1274.38,4416.09 C 525.762,3530.84 580.492,2219.58 1400.28,1399.79 2220.07,580 3531.33,525.262 4416.59,1273.89 Z"
             id="path33"
             style="fill:none;stroke:#ffffff;stroke-width:7.07819;stroke-linecap:round;stroke-linejoin:round;stroke-miterlimit:500;stroke-dasharray:none;stroke-opacity:1" /><path
             d="m 3190.88,4134.13 c -39.75,64.55 -95.42,117.8 -161.68,154.63 -116.26,64.6 -261.66,40.99 -351.5,-57.09 -119.46,-130.43 -185.73,-300.88 -185.73,-477.75 v -29.89 l 740.65,-740.65 v 595.7 L 3345.7,3395.42 V 2870.3 l 174.34,-174.33 h 81.14 v 771.8 l -410.3,666.36"
             id="path35"
             style="fill:#000000;fill-opacity:1;fill-rule:nonzero;stroke:none" /><path
             d="m 3190.88,4134.13 c -39.75,64.55 -95.42,117.8 -161.68,154.63 -116.26,64.6 -261.66,40.99 -351.5,-57.09 -119.46,-130.43 -185.73,-300.88 -185.73,-477.75 v -29.89 l 740.65,-740.65 v 595.7 L 3345.7,3395.42 V 2870.3 l 174.34,-174.33 h 81.14 v 771.8 z"
             id="path37"
             style="fill:none;stroke:#000000;stroke-width:7.07819;stroke-linecap:round;stroke-linejoin:round;stroke-miterlimit:500;stroke-dasharray:none;stroke-opacity:1" /><path
             d="m 2331.69,3358.79 -363.43,-433.19 195.99,-161.91 327.72,396.68 v -327.13 l -430.12,-1599.78 394.74,-106.13 378.16,1406.46 v -526.98 l 512.2,-866.51 351.89,208.01 -466.22,788.71 v 320.84 l -900.93,900.93"
             id="path39"
             style="fill:#000000;fill-opacity:1;fill-rule:nonzero;stroke:none" /><path
             d="m 2331.69,3358.79 -363.43,-433.19 195.99,-161.91 327.72,396.68 v -327.13 l -430.12,-1599.78 394.74,-106.13 378.16,1406.46 v -526.98 l 512.2,-866.51 351.89,208.01 -466.22,788.71 v 320.84 z"
             id="path41"
             style="fill:none;stroke:#000000;stroke-width:7.07819;stroke-linecap:round;stroke-linejoin:round;stroke-miterlimit:500;stroke-dasharray:none;stroke-opacity:1" /><path
             d="m 3132.52,4719.93 c 0,169.31 -137.24,306.57 -306.57,306.57 -169.31,0 -306.57,-137.26 -306.57,-306.57 0,-169.32 137.26,-306.58 306.57,-306.58 169.33,0 306.57,137.26 306.57,306.58"
             id="path43"
             style="fill:#000000;fill-opacity:1;fill-rule:nonzero;stroke:none" /><path
             d="m 3132.52,4719.93 c 0,169.31 -137.24,306.57 -306.57,306.57 -169.31,0 -306.57,-137.26 -306.57,-306.57 0,-169.32 137.26,-306.58 306.57,-306.58 169.33,0 306.57,137.26 306.57,306.58 z"
             id="path45"
             style="fill:none;stroke:#000000;stroke-width:7.07819;stroke-linecap:round;stroke-linejoin:round;stroke-miterlimit:500;stroke-dasharray:none;stroke-opacity:1" /></g></g></g></g></svg>
