<?xml version="1.0" encoding="UTF-8" standalone="no"?>
<!-- Created with Inkscape (http://www.inkscape.org/) -->

<svg
   version="1.0"
   width="100"
   height="144.53781"
   id="svg2"
   xml:space="preserve"
   xmlns="http://www.w3.org/2000/svg"
   xmlns:svg="http://www.w3.org/2000/svg"><defs
     id="defs5" /><rect
     style="fill:#ffffff;fill-opacity:1;stroke-width:0;stroke-linecap:square;stroke-miterlimit:4;stroke-dasharray:none;stroke:none"
     id="rect3552"
     width="100"
     height="144.53781"
     x="0"
     y="0" /><path
     id="path43"
     style="stroke-width:10.00166257;stroke-miterlimit:4;stroke-dasharray:none;fill:#a8a29a;fill-opacity:1;fill-rule:nonzero;stroke:none"
     d="m 1541.2683,2524.9037 c -53.1162,0 -106.5282,-31.6752 -123.8657,-95.0362 -12.6093,-44.7627 -12.6093,-94.5691 0,-139.3317 14.5004,-54.8499 66.8086,-94.5563 124.1804,-94.5563 52.3281,0 98.9971,30.2459 124.2155,76.8998 l -54.8687,27.736 c -15.1311,-27.7402 -39.7152,-42.2382 -69.3468,-42.2382 -27.7402,0 -49.7911,17.0199 -59.8696,42.2382 -5.0524,14.5006 -7.5886,29.6342 -7.5886,47.2783 h 199.2274 v 11.9994 c 0,25.2184 -2.5061,47.278 -10.0716,69.9745 -16.0767,63.361 -68.8961,95.0362 -122.0123,95.0362 z m 0.3147,-60.3748 c 24.5879,0 49.8222,-17.6313 56.7573,-44.7411 2.5218,-5.0437 5.0358,-12.628 5.0358,-20.1935 h -126.7335 c 2.5219,7.5655 5.0708,15.1498 5.0708,20.1935 v 2.5028 c 10.0785,24.5879 32.1294,42.2383 59.8696,42.2383 z"
     transform="matrix(0.0489048,0,0,-0.04988363,-0.05253451,141.56296)" /><path
     id="path51"
     style="stroke-width:10.00166257;stroke-miterlimit:4;stroke-dasharray:none;fill:#a8a29a;fill-opacity:1;fill-rule:nonzero;stroke:none"
     d="m 873.67407,2523.8066 c -59.2631,0 -111.56661,-42.2377 -126.0689,-98.9789 -5.04192,-22.6966 -7.58861,-42.2294 -7.58861,-64.9347 0,-19.5442 2.54669,-42.2362 7.58861,-61.7804 14.50229,-59.8936 66.8058,-102.1331 126.0689,-102.1331 62.41629,0 114.74183,42.2395 129.25123,102.1331 5.0349,19.5442 7.5536,42.2362 7.5536,61.7804 0,22.7053 -2.5187,42.2381 -7.5536,64.9347 -14.5094,56.7412 -66.83494,98.9789 -129.25123,98.9789 z m 0,-59.2777 c 30.26378,0 54.85609,-20.1684 62.42248,-47.2781 7.5655,-20.1747 10.1065,-37.1832 10.1065,-57.3578 0,-17.0224 -2.541,-37.2155 -10.1065,-54.2379 -7.56639,-30.2619 -32.1587,-47.278 -62.42248,-47.278 -27.10708,0 -51.67068,17.0161 -61.75802,47.278 -5.04543,17.0224 -7.5886,34.6937 -7.5886,54.2379 0,20.1746 2.54317,37.1831 7.5886,57.3578 10.08734,27.1097 34.65094,47.2781 61.75802,47.2781 z"
     transform="matrix(0.0489048,0,0,-0.04988363,-0.05253451,141.56296)" /><path
     d="m 600.32134,2206.0537 c -80.06912,-22.0661 -166.44284,-5.0437 -228.85563,47.2844 l 42.23899,52.3281 c 32.15251,-25.2183 74.39499,-39.7189 116.63485,-39.7189 12.61093,0 27.73931,0 39.72153,5.0437 25.21572,4.4132 44.75995,27.1097 44.75995,54.2195 0,22.6964 -14.49969,42.2406 -34.67348,52.328 -12.61093,5.0523 -24.58964,7.5655 -37.19707,10.0874 l -42.24248,11.9786 c -20.17381,5.0437 -39.71891,12.6092 -57.37174,25.2183 -76.91596,47.2845 -71.87055,161.3975 10.08733,203.6383 10.08647,2.5218 20.17731,7.5655 29.63156,10.0873 54.8499,17.0224 114.74612,11.9786 163.92189,-15.1311 12.60742,-5.0349 22.69476,-12.6091 32.77422,-19.5442 l -44.76344,-54.8499 c -12.60743,10.0874 -27.73931,17.0312 -42.24248,22.0661 -15.12838,5.0437 -30.25064,7.5655 -44.75995,7.5655 -17.65284,0 -34.67697,-2.5218 -52.32982,-10.0874 -19.54422,-5.0436 -34.6726,-24.5878 -34.6726,-47.2843 0,-17.0224 12.60742,-34.6665 27.1071,-41.6104 10.08646,-5.0436 20.1773,-10.0872 30.26377,-12.6091 l 42.23897,-10.0873 c 19.5451,-5.0524 37.19794,-12.6092 54.2212,-19.5443 44.77045,-20.1746 71.87055,-64.9372 71.87055,-112.2215 0,-54.2195 -34.6726,-104.0258 -86.37285,-119.1568"
     id="path59"
     style="stroke-width:10.00166257;stroke-miterlimit:4;stroke-dasharray:none;fill:#a8a29a;fill-opacity:1;fill-rule:nonzero;stroke:none"
     transform="matrix(0.0489048,0,0,-0.04988363,-0.05253451,141.56296)" /><path
     d="m 1345.5235,2206.0537 v 208.6819 c 0,62.4153 -47.2756,109.0693 -109.6998,109.0693 -27.1098,0 -54.2195,-9.4569 -76.9159,-27.1097 v 20.1747 h -64.3069 v -310.8162 h 64.3069 v 196.0726 c 0,81.9596 121.6785,81.9596 121.6785,0 v -196.0726 h 64.9372"
     id="path63"
     style="stroke-width:10.00166257;stroke-miterlimit:4;stroke-dasharray:none;fill:#a8a29a;fill-opacity:1;fill-rule:nonzero;stroke:none"
     transform="matrix(0.0489048,0,0,-0.04988363,-0.05253451,141.56296)" /><path
     d="m 1278.6127,396.34698 c -51.2683,0 -95.1722,-30.82389 -113.5835,-74.42162 H 1021.138 l -130.29541,155.50784 64.58113,233.26175 -29.17477,36.65544 -3.68228,19.43847 -0.28327,27.76929 36.25616,126.35009 c 0.56648,1.11075 2.54924,4.99844 1.41622,9.99695 -0.84974,4.44306 -3.68224,6.94232 -4.53206,8.05309 L 842.40679,963.9506 c -9.63055,-1.38848 -17.27833,-8.33076 -18.97782,-17.21695 -1.41628,-8.05308 1.98276,-16.66157 9.34727,-21.38235 l 44.47035,-9.71924 19.26102,-5.55382 c 3.39905,-1.38845 8.49753,-4.16542 11.6133,-9.44158 1.41623,-2.77692 1.98277,-5.27612 2.83252,-8.33076 0.56647,-3.3323 1.41621,-8.33074 0.84969,-14.44002 0,0 -13.87923,-60.81467 -19.26103,-70.53393 -1.6995,-3.33229 -3.96553,-6.38687 -6.2315,-9.16384 l -1.13302,1.38848 -16.99498,-6.10922 -100.83727,-397.10039 c -0.2832,0 -0.56646,0 -1.13294,0 -67.98016,0 -122.93079,-53.87239 -122.93079,-120.51857 0,-66.64622 54.95063,-120.51859 122.93079,-120.51859 67.98009,0 122.93072,53.87237 122.93072,120.51859 0,49.98463 -30.87427,92.74932 -75.06141,111.07702 l 15.57878,52.76158 15.01229,7.22001 109.05148,-125.79472 -30.30777,-1.38849 0.28322,-17.77232 54.1009,-57.20467 h 182.13011 c 14.1626,-51.09544 61.7487,-88.86162 118.3989,-88.86162 67.9801,0 122.9308,53.87236 122.9308,120.5186 0,66.64618 -54.6675,119.96318 -122.6477,119.96318 z M 837.87478,275.82841 c 0,-38.877 -32.29061,-70.53391 -71.94567,-70.53391 -39.65513,0 -71.94563,31.65691 -71.94563,70.53391 0,36.09998 27.47528,65.53541 63.16483,69.97854 l -0.84975,-42.76469 c -9.34727,-4.44307 -15.86204,-13.88464 -15.86204,-24.71465 0,-15.27307 12.46306,-27.49156 28.04182,-27.49156 15.57878,0 28.04182,12.21849 28.04182,27.49156 0,7.77542 -3.39904,14.71774 -8.49752,19.7162 l 13.87928,38.87695 c 21.52705,-12.21849 35.97286,-34.98927 35.97286,-61.09235 z M 1278.6127,205.2945 c -32.0072,0 -58.916,20.54924 -68.2634,48.59619 l 66.5639,9.44158 0.8498,30.54614 -65.9974,6.94232 c 10.4803,26.3808 36.5394,45.26389 67.1305,45.26389 39.655,0 71.9455,-31.65698 71.9455,-70.53393 0,-38.87695 -32.5737,-70.25619 -72.2289,-70.25619 z"
     id="path4"
     style="stroke-width:10.00166257;stroke-miterlimit:4;stroke-dasharray:none;fill:#a8a29a;fill-opacity:1"
     transform="matrix(0.0489048,0,0,-0.04988363,-0.05253451,141.56296)" /><polygon
     class="st0"
     points="235.7,348.9 235.6,365.2 252.6,360.1 246.3,355.5 263.7,333.2 243.6,334.7 256.7,318 243.8,315.8 231,343 247.9,342.6 242.2,353.1 "
     id="polygon6"
     style="stroke-width:3.56619147;stroke-miterlimit:4;stroke-dasharray:none;fill:#ffffff"
     transform="matrix(0.13852313,0,0,0.13852313,7.622597,67.781566)" /><g
     style="fill-rule:evenodd;fill:#a8a29a;fill-opacity:1"
     id="g933"
     transform="matrix(0.5,0,0,0.5,24.933711,36.100977)"><path
       id="circle2"
       style="stroke-width:0.0833335;fill:#a8a29a;fill-opacity:1"
       d="M 49.933594 36.101562 A 25 25 0 0 0 24.933594 61.101562 A 25 25 0 0 0 49.933594 86.101562 A 25 25 0 0 0 74.933594 61.101562 A 25 25 0 0 0 49.933594 36.101562 z M 49.933594 42.351562 A 18.75 18.75 0 0 1 68.683594 61.101562 A 18.75 18.75 0 0 1 64.197266 73.183594 L 37.851562 46.837891 A 18.75 18.75 0 0 1 49.933594 42.351562 z M 35.671875 49.019531 L 62.015625 75.363281 A 18.75 18.75 0 0 1 49.933594 79.851562 A 18.75 18.75 0 0 1 31.183594 61.101562 A 18.75 18.75 0 0 1 35.671875 49.019531 z "
       transform="matrix(2,0,0,2,-49.867422,-72.201954)" /></g><path
     id="path5369"
     style="fill:#000000;fill-opacity:1;stroke:#000000;stroke-width:0.494;stroke-linecap:butt;stroke-linejoin:miter;stroke-miterlimit:4;stroke-dasharray:none;stroke-opacity:0.997951"
     d="m 5.5644531,1.1484375 c -2.5004582,0 -4.4375,1.9753395 -4.4375,4.5253906 -0.1253894,43.6633709 -0.011011,90.7929889 0,132.9687519 0,2.5501 1.9374281,4.52539 4.4375,4.52539 H 94.332031 c 2.500013,0 4.435547,-1.97529 4.435547,-4.52539 0.167209,-44.33168 0,-89.159726 0,-132.9687519 0,-2.5500511 -1.935534,-4.5253906 -4.435547,-4.5253906 z M 5.5625,3.4121094 H 80.351562 L 3.3457031,120.76172 V 5.6738281 c 0,-1.2929836 0.9492922,-2.2617187 2.2167969,-2.2617187 z m 77.898438,0 H 89.59375 L 3.3457031,133.43164 V 125.5 L 3.7070312,124.94922 82.910156,4.2519531 Z m 9.251953,0 h 1.617187 c 1.267612,0 2.21875,0.9687351 2.21875,2.2617187 V 6.6933594 L 96.447266,6.625 95.728516,7.7089844 7.6269531,140.52148 7.3710938,140.90625 H 5.5625 c -1.2680818,0 -2.2167969,-0.97079 -2.2167969,-2.26367 v -0.50781 L 3.9511719,137.2207 92.052734,4.4082031 Z m 3.835937,7.7617186 v 7.947266 l -0.277344,0.423828 -79.205078,120.695308 -0.435547,0.66602 h -6.138671 z m 0,12.6875 V 138.64258 c 0,1.29288 -0.951138,2.26367 -2.21875,2.26367 H 19.740234 Z" /></svg>
