<?xml version="1.0" encoding="UTF-8" standalone="no"?>
<!-- Created with Inkscape (http://www.inkscape.org/) -->

<svg
   version="1.0"
   width="100"
   height="100"
   id="svg2"
   xml:space="preserve"
   xmlns="http://www.w3.org/2000/svg"
   xmlns:svg="http://www.w3.org/2000/svg"><defs
     id="defs5"><clipPath
       id="clipPath19"><path
         d="M 0.492188,0 L 5953.0022,0 L 5953.0022,5952.75 L 0.492188,5952.75 L 0.492188,0 z"
         id="path21" /></clipPath></defs><g
     transform="matrix(0.16799643,0,0,-0.16798967,-0.00831172,100)"
     id="g11"><g
       transform="scale(0.1)"
       id="g13"><g
         id="g15"><g
           clip-path="url(#clipPath19)"
           id="g17"><path
             d="m 5949.71,2976.37 c 0,1641.85 -1330.99,2972.84 -2972.84,2972.84 C 1335.02,5949.21 4.03125,4618.22 4.03125,2976.37 4.03125,1334.53 1335.02,3.53125 2976.87,3.53125 4618.72,3.53125 5949.71,1334.53 5949.71,2976.37"
             id="path23"
             style="fill:#e23828;fill-opacity:1;fill-rule:nonzero;stroke:none" /><path
             d="m 5949.71,2976.37 c 0,1641.85 -1330.99,2972.84 -2972.84,2972.84 C 1335.02,5949.21 4.03125,4618.22 4.03125,2976.37 4.03125,1334.53 1335.02,3.53125 2976.87,3.53125 4618.72,3.53125 5949.71,1334.53 5949.71,2976.37 Z"
             id="path25"
             style="fill:none;stroke:#e23828;stroke-width:7.07819;stroke-linecap:round;stroke-linejoin:round;stroke-miterlimit:500;stroke-dasharray:none;stroke-opacity:1" /><path
             d="M 5206.5,2976.37 C 5206.5,4207.76 4208.26,5206 2976.87,5206 1745.48,5206 747.254,4207.76 747.254,2976.37 c 0,-1231.39 998.226,-2229.628 2229.626,-2229.628 1231.39,0 2229.63,998.238 2229.63,2229.628"
             id="path27"
             style="fill:#ffffff;fill-opacity:1;fill-rule:nonzero;stroke:none" /><path
             d="M 5206.5,2976.37 C 5206.5,4207.76 4208.26,5206 2976.87,5206 1745.48,5206 747.254,4207.76 747.254,2976.37 c 0,-1231.39 998.226,-2229.628 2229.626,-2229.628 1231.39,0 2229.63,998.238 2229.63,2229.628 z"
             id="path29"
             style="fill:none;stroke:#ffffff;stroke-width:7.07819;stroke-linecap:round;stroke-linejoin:round;stroke-miterlimit:500;stroke-dasharray:none;stroke-opacity:1" /><path
             d="m 1936.83,1426.94 c 61.57,0 111.48,49.91 111.48,111.49 v 408.76 h 1858.03 v -408.76 c 0,-61.58 49.91,-111.49 111.47,-111.49 h 185.81 c 29.57,0 57.91,11.75 78.83,32.66 20.9,20.9 32.65,49.25 32.65,78.83 v 408.76 h 148.64 v 1337.78 c 0,82.09 -66.54,148.64 -148.64,148.64 l -75.91,980.52 c -7.49,96.75 -88.19,171.45 -185.24,171.45 H 1900.7 c -97.05,0 -177.75,-74.7 -185.24,-171.45 l -75.92,-980.52 c -39.42,0 -77.22,-15.66 -105.1,-43.54 -27.88,-27.87 -43.53,-65.68 -43.53,-105.1 V 1947.19 h 148.63 v -408.76 c 0,-29.58 11.75,-57.93 32.66,-78.83 20.9,-20.91 49.26,-32.66 78.83,-32.66 h 185.8"
             id="path31"
             style="fill:#000000;fill-opacity:1;fill-rule:nonzero;stroke:none" /><path
             d="m 1936.83,1426.94 c 61.57,0 111.48,49.91 111.48,111.49 v 408.76 h 1858.03 v -408.76 c 0,-61.58 49.91,-111.49 111.47,-111.49 h 185.81 c 29.57,0 57.91,11.75 78.83,32.66 20.9,20.9 32.65,49.25 32.65,78.83 v 408.76 h 148.64 v 1337.78 c 0,82.09 -66.54,148.64 -148.64,148.64 l -75.91,980.52 c -7.49,96.75 -88.19,171.45 -185.24,171.45 H 1900.7 c -97.05,0 -177.75,-74.7 -185.24,-171.45 l -75.92,-980.52 c -39.42,0 -77.22,-15.66 -105.1,-43.54 -27.88,-27.87 -43.53,-65.68 -43.53,-105.1 V 1947.19 h 148.63 v -408.76 c 0,-29.58 11.75,-57.93 32.66,-78.83 20.9,-20.91 49.26,-32.66 78.83,-32.66 z"
             id="path33"
             style="fill:none;stroke:#000000;stroke-width:7.07819;stroke-linecap:round;stroke-linejoin:round;stroke-miterlimit:500;stroke-dasharray:none;stroke-opacity:1" /><path
             d="m 3405.33,2745.74 c 9.53,-51.2 9.53,-103.72 0,-154.92 -17.93,-63.65 -75.63,-107.88 -141.75,-108.65 -72.58,0 -141.63,31.3 -189.48,85.88 l -119.74,-112.19 c 80.1,-85.51 192.05,-134.03 309.22,-134.03 147.31,0.1 275.73,100.28 311.65,243.14 12.05,68.35 12.05,138.28 0,206.61 -35.98,142.84 -164.36,242.99 -311.65,243.15 -35.88,0 -71.23,-8.65 -103.07,-25.21 v 176.55 h 400.85 v 160.34 h -572.65 v -472.4 l 148.89,-39.89 c 36.79,26.19 80.83,40.27 125.98,40.27 66.12,-0.77 123.82,-45 141.75,-108.65"
             id="path35"
             style="fill:#ffffff;fill-opacity:1;fill-rule:nonzero;stroke:none" /><path
             d="m 3405.33,2745.74 c 9.53,-51.2 9.53,-103.72 0,-154.92 -17.93,-63.65 -75.63,-107.88 -141.75,-108.65 -72.58,0 -141.63,31.3 -189.48,85.88 l -119.74,-112.19 c 80.1,-85.51 192.05,-134.03 309.22,-134.03 147.31,0.1 275.73,100.28 311.65,243.14 12.05,68.35 12.05,138.28 0,206.61 -35.98,142.84 -164.36,242.99 -311.65,243.15 -35.88,0 -71.23,-8.65 -103.07,-25.21 v 176.55 h 400.85 v 160.34 h -572.65 v -472.4 l 148.89,-39.89 c 36.79,26.19 80.83,40.27 125.98,40.27 66.12,-0.77 123.82,-45 141.75,-108.65 z"
             id="path37"
             style="fill:none;stroke:#ffffff;stroke-width:7.07819;stroke-linecap:round;stroke-linejoin:round;stroke-miterlimit:500;stroke-dasharray:none;stroke-opacity:1" /><path
             d="m 4023.09,2951.3 h 146.6 v -117.28 h -146.6 v -330.33 c 0,-13.32 5.29,-26.12 14.71,-35.55 9.43,-9.42 22.21,-14.72 35.54,-14.72 20.68,0 41.22,3.24 60.9,9.56 l 35.96,-111.64 c -31.31,-10.07 -63.99,-15.21 -96.86,-15.21 -46.66,0 -91.4,18.54 -124.39,51.53 -33,33 -51.54,77.76 -51.54,124.41 v 321.95 h -83.78 v 117.28 h 83.78 v 129.86 l 125.68,109.51 V 2951.3"
             id="path39"
             style="fill:#ffffff;fill-opacity:1;fill-rule:nonzero;stroke:none" /><path
             d="m 4023.09,2951.3 h 146.6 v -117.28 h -146.6 v -330.33 c 0,-13.32 5.29,-26.12 14.71,-35.55 9.43,-9.42 22.21,-14.72 35.54,-14.72 20.68,0 41.22,3.24 60.9,9.56 l 35.96,-111.64 c -31.31,-10.07 -63.99,-15.21 -96.86,-15.21 -46.66,0 -91.4,18.54 -124.39,51.53 -33,33 -51.54,77.76 -51.54,124.41 v 321.95 h -83.78 v 117.28 h 83.78 v 129.86 l 125.68,109.51 z"
             id="path41"
             style="fill:none;stroke:#ffffff;stroke-width:4.95214;stroke-linecap:round;stroke-linejoin:round;stroke-miterlimit:500;stroke-dasharray:none;stroke-opacity:1" /><path
             d="m 2243.77,2312.77 c 103.44,-0.27 202.74,40.62 275.98,113.67 73.24,73.05 114.41,172.24 114.41,275.68 0,118.45 -60.26,228.76 -159.92,292.77 82.26,59.82 130.92,155.39 130.92,257.1 0,199.6 -161.8,361.4 -361.39,361.4 h -39.35 c -155.95,0 -294.32,-100.03 -343.19,-248.13 l 207.55,-68.5 c 19,64.59 76.69,110.16 143.92,113.67 h 16.57 c 87.5,0 158.44,-70.94 158.44,-158.44 0,-87.5 -70.94,-158.43 -158.44,-158.43 h -57.99 v -202.97 h 57.99 c 66.96,0 128.84,-35.72 162.32,-93.71 33.48,-58 33.48,-129.44 0,-187.43 -33.48,-57.99 -95.36,-93.72 -162.32,-93.72 -85.24,-4.68 -162.86,48.83 -188.82,130.14 l -208.22,-73.76 c 55.08,-155.44 202.1,-259.34 367.01,-259.34 h 44.53"
             id="path43"
             style="fill:#ffffff;fill-opacity:1;fill-rule:nonzero;stroke:none" /><path
             d="m 2243.77,2312.77 c 103.44,-0.27 202.74,40.62 275.98,113.67 73.24,73.05 114.41,172.24 114.41,275.68 0,118.45 -60.26,228.76 -159.92,292.77 82.26,59.82 130.92,155.39 130.92,257.1 0,199.6 -161.8,361.4 -361.39,361.4 h -39.35 c -155.95,0 -294.32,-100.03 -343.19,-248.13 l 207.55,-68.5 c 19,64.59 76.69,110.16 143.92,113.67 h 16.57 c 87.5,0 158.44,-70.94 158.44,-158.44 0,-87.5 -70.94,-158.43 -158.44,-158.43 h -57.99 v -202.97 h 57.99 c 66.96,0 128.84,-35.72 162.32,-93.71 33.48,-58 33.48,-129.44 0,-187.43 -33.48,-57.99 -95.36,-93.72 -162.32,-93.72 -85.24,-4.68 -162.86,48.83 -188.82,130.14 l -208.22,-73.76 c 55.08,-155.44 202.1,-259.34 367.01,-259.34 z"
             id="path45"
             style="fill:none;stroke:#ffffff;stroke-width:7.07819;stroke-linecap:round;stroke-linejoin:round;stroke-miterlimit:500;stroke-dasharray:none;stroke-opacity:1" /><path
             d="m 2674.09,2395.91 c 0.03,-24.11 14.07,-46 35.96,-56.11 21.9,-10.1 47.67,-6.56 66.03,9.06 11.57,-19.71 11.45,-44.17 -0.3,-63.77 -11.76,-19.61 -33.28,-31.23 -56.12,-30.3 v -56.27 c 62.08,0 119.33,33.53 149.69,87.67 30.37,54.15 29.14,120.47 -3.23,173.44 -27.42,36.89 -75.41,52.02 -119.04,37.54 -43.62,-14.48 -73.05,-55.3 -72.99,-101.26"
             id="path47"
             style="fill:#ffffff;fill-opacity:1;fill-rule:nonzero;stroke:none" /><path
             d="m 2674.09,2395.91 c 0.03,-24.11 14.07,-46 35.96,-56.11 21.9,-10.1 47.67,-6.56 66.03,9.06 11.57,-19.71 11.45,-44.17 -0.3,-63.77 -11.76,-19.61 -33.28,-31.23 -56.12,-30.3 v -56.27 c 62.08,0 119.33,33.53 149.69,87.67 30.37,54.15 29.14,120.47 -3.23,173.44 -27.42,36.89 -75.41,52.02 -119.04,37.54 -43.62,-14.48 -73.05,-55.3 -72.99,-101.26 z"
             id="path49"
             style="fill:none;stroke:#ffffff;stroke-width:3.1346;stroke-linecap:round;stroke-linejoin:round;stroke-miterlimit:500;stroke-dasharray:none;stroke-opacity:1" /></g></g></g></g></svg>
