<?xml version="1.0" encoding="UTF-8" standalone="no"?>
<!-- Created with Inkscape (http://www.inkscape.org/) -->

<svg
   version="1.0"
   width="100"
   height="138.83774"
   id="svg2"
   xml:space="preserve"
   xmlns="http://www.w3.org/2000/svg"
   xmlns:svg="http://www.w3.org/2000/svg"><defs
     id="defs5"><clipPath
       id="clipPath19"><path
         d="M 0,0 H 2044.79 V 2838.94 H 0 Z"
         id="path21" /></clipPath></defs><g
     transform="matrix(0.48904797,0,0,-0.48904797,0,138.83775)"
     id="g11"><g
       transform="scale(0.1)"
       id="g13"><g
         id="g15"><g
           clip-path="url(#clipPath19)"
           id="g17"><path
             d="M 1.07422,1.07422 H 2043.7142 V 2837.8642 H 1.07422 Z"
             id="path23"
             style="fill:#ffffff;fill-opacity:1;fill-rule:nonzero;stroke:none" /><path
             d="M 1.07422,1.07422 H 2043.7142 V 2837.8642 H 1.07422 Z"
             id="path25"
             style="fill:none;stroke:#000000;stroke-width:2.15;stroke-linecap:butt;stroke-linejoin:miter;stroke-miterlimit:4;stroke-dasharray:none;stroke-opacity:1" /><path
             d="M 1.07422,1.07422 H 2043.7142 V 2837.8642 H 1.07422 Z"
             id="path27"
             style="fill:#ffffff;fill-opacity:1;fill-rule:nonzero;stroke:none" /><path
             d="M 1.07422,1.07422 H 2043.7142 V 2837.8642 H 1.07422 Z"
             id="path29"
             style="fill:none;stroke:#000000;stroke-width:2.15;stroke-linecap:butt;stroke-linejoin:miter;stroke-miterlimit:4;stroke-dasharray:none;stroke-opacity:1" /><path
             d="M 2020.67,2724.11 V 114.832 c 0,-51.1211 -39.6,-90.7187 -90.72,-90.7187 H 114.84 c -51.1212,0 -90.7306,39.5976 -90.7306,90.7187 V 2724.11 c 0,51.12 39.6015,90.72 90.7306,90.72 h 1815.11 c 51.12,0 90.72,-39.6 90.72,-90.72"
             id="path31"
             style="fill:#000000;fill-opacity:1;fill-rule:nonzero;stroke:none" /><path
             d="M 2020.67,2724.11 V 114.832 c 0,-51.1211 -39.6,-90.7187 -90.72,-90.7187 H 114.84 c -51.1212,0 -90.7306,39.5976 -90.7306,90.7187 V 2724.11 c 0,51.12 39.6015,90.72 90.7306,90.72 h 1815.11 c 51.12,0 90.72,-39.6 90.72,-90.72 z"
             id="path33"
             style="fill:none;stroke:#000000;stroke-width:2.15;stroke-linecap:butt;stroke-linejoin:miter;stroke-miterlimit:4;stroke-dasharray:none;stroke-opacity:1" /><path
             d="m 69.4688,2724.11 c 0,25.92 19.4414,45.36 45.3592,45.36 H 1929.94 c 25.92,0 45.36,-19.44 45.36,-45.36 V 114.832 c 0,-25.9179 -19.44,-45.3711 -45.36,-45.3711 H 114.828 c -25.9296,0 -45.3592,19.4532 -45.3592,45.3711 V 2724.11"
             id="path35"
             style="fill:#ffffff;fill-opacity:1;fill-rule:nonzero;stroke:none" /><path
             d="m 69.4688,2724.11 c 0,25.92 19.4414,45.36 45.3592,45.36 H 1929.94 c 25.92,0 45.36,-19.44 45.36,-45.36 V 114.832 c 0,-25.9179 -19.44,-45.3711 -45.36,-45.3711 H 114.828 c -25.9296,0 -45.3592,19.4532 -45.3592,45.3711 z"
             id="path37"
             style="fill:none;stroke:#000000;stroke-width:2.15;stroke-linecap:butt;stroke-linejoin:miter;stroke-miterlimit:4;stroke-dasharray:none;stroke-opacity:1" /><path
             d="m 1873.07,1036.43 c 0,465.12 -382.32,848.16 -851.04,848.16 -465.12,0 -848.159,-383.04 -848.159,-848.16 0,-468.008 383.039,-851.039 848.159,-851.039 468.72,0 851.04,383.031 851.04,851.039"
             id="path39"
             style="fill:#e23828;fill-opacity:1;fill-rule:nonzero;stroke:none" /><path
             d="m 1873.07,1036.43 c 0,465.12 -382.32,848.16 -851.04,848.16 -465.12,0 -848.159,-383.04 -848.159,-848.16 0,-468.008 383.039,-851.039 848.159,-851.039 468.72,0 851.04,383.031 851.04,851.039 z"
             id="path41"
             style="fill:none;stroke:#e23828;stroke-width:2.15;stroke-linecap:butt;stroke-linejoin:miter;stroke-miterlimit:4;stroke-dasharray:none;stroke-opacity:1" /><path
             d="m 1618.19,2159.63 c -65.52,0 -125.28,45.36 -141.84,108 -14.4,51.12 -14.4,108 0,159.12 39.6,144.72 244.08,144.72 280.8,0 8.64,-25.92 11.52,-51.12 11.52,-79.92 0,-5.03 0,-7.92 0,-13.68 h -227.52 c 0,-20.15 2.88,-37.44 8.65,-54 11.51,-28.8 36.71,-48.24 68.39,-48.24 33.84,0 61.92,16.56 79.2,48.24 l 62.64,-31.68 c -28.8,-53.28 -82.08,-87.84 -141.84,-87.84"
             id="path43"
             style="fill:#000000;fill-opacity:1;fill-rule:nonzero;stroke:none" /><path
             d="m 1618.19,2159.63 c -65.52,0 -125.28,45.36 -141.84,108 -14.4,51.12 -14.4,108 0,159.12 39.6,144.72 244.08,144.72 280.8,0 8.64,-25.92 11.52,-51.12 11.52,-79.92 0,-5.03 0,-7.92 0,-13.68 h -227.52 c 0,-20.15 2.88,-37.44 8.65,-54 11.51,-28.8 36.71,-48.24 68.39,-48.24 33.84,0 61.92,16.56 79.2,48.24 l 62.64,-31.68 c -28.8,-53.28 -82.08,-87.84 -141.84,-87.84 z"
             id="path45"
             style="fill:none;stroke:#000000;stroke-width:2.15;stroke-linecap:butt;stroke-linejoin:miter;stroke-miterlimit:4;stroke-dasharray:none;stroke-opacity:1" /><path
             d="m 1549.8,2415.23 c 0,-5.76 -2.89,-14.4 -5.77,-23.04 h 144.72 c 0,8.64 -2.88,17.28 -5.76,23.04 -7.92,30.96 -36.72,51.12 -64.8,51.12 -31.68,0 -56.88,-20.16 -68.39,-48.24 v -2.88"
             id="path47"
             style="fill:#ffffff;fill-opacity:1;fill-rule:nonzero;stroke:none" /><path
             d="m 1549.8,2415.23 c 0,-5.76 -2.89,-14.4 -5.77,-23.04 h 144.72 c 0,8.64 -2.88,17.28 -5.76,23.04 -7.92,30.96 -36.72,51.12 -64.8,51.12 -31.68,0 -56.88,-20.16 -68.39,-48.24 z"
             id="path49"
             style="fill:none;stroke:#000000;stroke-width:2.15;stroke-linecap:butt;stroke-linejoin:miter;stroke-miterlimit:4;stroke-dasharray:none;stroke-opacity:1" /><path
             d="m 733.309,2420.99 c -5.758,-25.92 -8.637,-48.23 -8.637,-74.16 0,-22.32 2.879,-48.24 8.637,-70.56 16.562,-68.4 76.32,-116.64 144,-116.64 71.281,0 131.041,48.24 147.611,116.64 5.75,22.32 8.63,48.24 8.63,70.56 0,25.93 -2.88,48.24 -8.63,74.16 -16.57,64.8 -76.33,113.04 -147.611,113.04 -67.68,0 -127.438,-48.24 -144,-113.04"
             id="path51"
             style="fill:#000000;fill-opacity:1;fill-rule:nonzero;stroke:none" /><path
             d="m 733.309,2420.99 c -5.758,-25.92 -8.637,-48.23 -8.637,-74.16 0,-22.32 2.879,-48.24 8.637,-70.56 16.562,-68.4 76.32,-116.64 144,-116.64 71.281,0 131.041,48.24 147.611,116.64 5.75,22.32 8.63,48.24 8.63,70.56 0,25.93 -2.88,48.24 -8.63,74.16 -16.57,64.8 -76.33,113.04 -147.611,113.04 -67.68,0 -127.438,-48.24 -144,-113.04 z"
             id="path53"
             style="fill:none;stroke:#000000;stroke-width:2.15;stroke-linecap:butt;stroke-linejoin:miter;stroke-miterlimit:4;stroke-dasharray:none;stroke-opacity:1" /><path
             d="m 806.75,2412.35 c -5.762,-23.04 -8.641,-42.48 -8.641,-65.52 0,-22.32 2.879,-42.48 8.641,-61.92 11.52,-34.56 39.602,-54 70.559,-54 34.562,0 62.64,19.44 71.281,54 8.64,19.44 11.519,42.48 11.519,61.92 0,23.04 -2.879,42.48 -11.519,65.52 -8.641,30.96 -36.719,54 -71.281,54 -30.957,0 -59.039,-23.04 -70.559,-54"
             id="path55"
             style="fill:#ffffff;fill-opacity:1;fill-rule:nonzero;stroke:none" /><path
             d="m 806.75,2412.35 c -5.762,-23.04 -8.641,-42.48 -8.641,-65.52 0,-22.32 2.879,-42.48 8.641,-61.92 11.52,-34.56 39.602,-54 70.559,-54 34.562,0 62.64,19.44 71.281,54 8.64,19.44 11.519,42.48 11.519,61.92 0,23.04 -2.879,42.48 -11.519,65.52 -8.641,30.96 -36.719,54 -71.281,54 -30.957,0 -59.039,-23.04 -70.559,-54 z"
             id="path57"
             style="fill:none;stroke:#000000;stroke-width:2.15;stroke-linecap:butt;stroke-linejoin:miter;stroke-miterlimit:4;stroke-dasharray:none;stroke-opacity:1" /><path
             d="m 543.23,2171.15 c -91.441,-25.2 -190.082,-5.76 -261.359,54 l 48.238,59.76 c 36.719,-28.8 84.961,-45.36 133.2,-45.36 14.402,0 31.679,0 45.363,5.76 28.797,5.04 51.117,30.96 51.117,61.92 0,25.92 -16.559,48.24 -39.598,59.76 -14.402,5.77 -28.082,8.64 -42.48,11.52 l -48.242,13.68 c -23.039,5.76 -45.36,14.4 -65.52,28.8 -87.84,54 -82.078,184.32 11.52,232.56 11.519,2.88 23.043,8.64 33.84,11.52 62.64,19.44 131.043,13.68 187.203,-17.28 14.398,-5.75 25.918,-14.4 37.429,-22.32 l -51.121,-62.64 c -14.398,11.52 -31.679,19.45 -48.242,25.2 -17.277,5.76 -34.547,8.64 -51.117,8.64 -20.16,0 -39.602,-2.88 -59.762,-11.52 -22.32,-5.76 -39.597,-28.08 -39.597,-54 0,-19.44 14.398,-39.59 30.957,-47.52 11.519,-5.76 23.043,-11.52 34.562,-14.4 l 48.238,-11.52 c 22.321,-5.77 42.481,-14.4 61.922,-22.32 51.129,-23.04 82.078,-74.16 82.078,-128.16 0,-61.92 -39.597,-118.8 -98.64,-136.08"
             id="path59"
             style="fill:#000000;fill-opacity:1;fill-rule:nonzero;stroke:none" /><path
             d="m 543.23,2171.15 c -91.441,-25.2 -190.082,-5.76 -261.359,54 l 48.238,59.76 c 36.719,-28.8 84.961,-45.36 133.2,-45.36 14.402,0 31.679,0 45.363,5.76 28.797,5.04 51.117,30.96 51.117,61.92 0,25.92 -16.559,48.24 -39.598,59.76 -14.402,5.77 -28.082,8.64 -42.48,11.52 l -48.242,13.68 c -23.039,5.76 -45.36,14.4 -65.52,28.8 -87.84,54 -82.078,184.32 11.52,232.56 11.519,2.88 23.043,8.64 33.84,11.52 62.64,19.44 131.043,13.68 187.203,-17.28 14.398,-5.75 25.918,-14.4 37.429,-22.32 l -51.121,-62.64 c -14.398,11.52 -31.679,19.45 -48.242,25.2 -17.277,5.76 -34.547,8.64 -51.117,8.64 -20.16,0 -39.602,-2.88 -59.762,-11.52 -22.32,-5.76 -39.597,-28.08 -39.597,-54 0,-19.44 14.398,-39.59 30.957,-47.52 11.519,-5.76 23.043,-11.52 34.562,-14.4 l 48.238,-11.52 c 22.321,-5.77 42.481,-14.4 61.922,-22.32 51.129,-23.04 82.078,-74.16 82.078,-128.16 0,-61.92 -39.597,-118.8 -98.64,-136.08 z"
             id="path61"
             style="fill:none;stroke:#000000;stroke-width:2.15;stroke-linecap:butt;stroke-linejoin:miter;stroke-miterlimit:4;stroke-dasharray:none;stroke-opacity:1" /><path
             d="m 1394.27,2171.15 v 238.32 c 0,71.28 -53.99,124.56 -125.28,124.56 -30.96,0 -61.92,-10.8 -87.84,-30.96 v 23.04 h -73.44 v -354.96 h 73.44 v 223.92 c 0,93.6 138.96,93.6 138.96,0 v -223.92 h 74.16"
             id="path63"
             style="fill:#000000;fill-opacity:1;fill-rule:nonzero;stroke:none" /><path
             d="m 1394.27,2171.15 v 238.32 c 0,71.28 -53.99,124.56 -125.28,124.56 v 0 c -30.96,0 -61.92,-10.8 -87.84,-30.96 v 23.04 h -73.44 v -354.96 h 73.44 v 223.92 c 0,93.6 138.96,93.6 138.96,0 v -223.92 z"
             id="path65"
             style="fill:none;stroke:#000000;stroke-width:2.15;stroke-linecap:butt;stroke-linejoin:miter;stroke-miterlimit:4;stroke-dasharray:none;stroke-opacity:1" /><path
             d="m 1660.67,1036.43 c 0,352.08 -286.56,635.75 -638.64,635.75 -348.479,0 -635.042,-283.67 -635.042,-635.75 0,-351.36 286.563,-637.918 635.042,-637.918 352.08,0 638.64,286.558 638.64,637.918"
             id="path67"
             style="fill:#ffffff;fill-opacity:1;fill-rule:nonzero;stroke:none" /><path
             d="m 1660.67,1036.43 c 0,352.08 -286.56,635.75 -638.64,635.75 -348.479,0 -635.042,-283.67 -635.042,-635.75 0,-351.36 286.563,-637.918 635.042,-637.918 352.08,0 638.64,286.558 638.64,637.918 z"
             id="path69"
             style="fill:none;stroke:#ffffff;stroke-width:2.15;stroke-linecap:butt;stroke-linejoin:miter;stroke-miterlimit:4;stroke-dasharray:none;stroke-opacity:1" /><path
             d="m 1308.59,644.754 c 34.56,0 65.52,8.637 93.6,25.918 31.68,16.558 59.76,39.601 82.8,67.68 16.56,25.91 30.96,48.23 42.48,77.039 8.64,16.562 13.68,36.722 16.56,56.882 11.52,51.118 17.28,101.52 17.28,152.627 0,34.56 -2.88,65.53 -8.64,99.36 -2.87,42.49 -11.52,82.81 -25.2,122.41 -11.52,28.08 -25.92,56.15 -45.36,82.08 -23.03,30.96 -51.12,56.88 -85.68,76.32 -25.2,14.39 -56.15,23.04 -87.84,25.92 -30.96,-2.88 -59.03,-11.53 -87.83,-25.92 -33.85,-16.56 -61.93,-45.36 -84.97,-76.32 -17.28,-25.93 -30.96,-54 -42.48,-82.08 -14.4,-39.6 -23.03,-79.92 -28.08,-119.52 -2.88,-33.84 -5.76,-67.69 -5.76,-102.25 0,-51.107 5.76,-104.396 13.68,-152.627 2.88,-20.16 11.53,-40.32 20.16,-56.882 11.52,-28.809 25.2,-54 42.48,-77.039 23.04,-28.079 48.24,-51.122 79.2,-67.68 28.8,-17.281 62.64,-25.918 93.6,-25.918"
             id="path71"
             style="fill:#000000;fill-opacity:1;fill-rule:nonzero;stroke:none" /><path
             d="m 1308.59,644.754 c 34.56,0 65.52,8.637 93.6,25.918 31.68,16.558 59.76,39.601 82.8,67.68 16.56,25.91 30.96,48.23 42.48,77.039 8.64,16.562 13.68,36.722 16.56,56.882 11.52,51.118 17.28,101.52 17.28,152.627 0,34.56 -2.88,65.53 -8.64,99.36 -2.87,42.49 -11.52,82.81 -25.2,122.41 -11.52,28.08 -25.92,56.15 -45.36,82.08 -23.03,30.96 -51.12,56.88 -85.68,76.32 -25.2,14.39 -56.15,23.04 -87.84,25.92 -30.96,-2.88 -59.03,-11.53 -87.83,-25.92 -33.85,-16.56 -61.93,-45.36 -84.97,-76.32 -17.28,-25.93 -30.96,-54 -42.48,-82.08 -14.4,-39.6 -23.03,-79.92 -28.08,-119.52 -2.88,-33.84 -5.76,-67.69 -5.76,-102.25 0,-51.107 5.76,-104.396 13.68,-152.627 2.88,-20.16 11.53,-40.32 20.16,-56.882 11.52,-28.809 25.2,-54 42.48,-77.039 23.04,-28.079 48.24,-51.122 79.2,-67.68 28.8,-17.281 62.64,-25.918 93.6,-25.918 z"
             id="path73"
             style="fill:none;stroke:#000000;stroke-width:2.15;stroke-linecap:butt;stroke-linejoin:miter;stroke-miterlimit:4;stroke-dasharray:none;stroke-opacity:1" /><path
             d="m 755.629,778.664 h -5.758 c -48.242,7.918 -87.84,48.25 -90.723,98.648 L 500.039,863.633 c 5.762,-59.77 34.551,-113.762 77.039,-153.36 48.242,-36.722 102.242,-56.882 158.402,-62.64 h 28.801 c 5.758,0 8.641,0 14.399,0 82.082,0 161.281,42.469 203.761,113.758 20.159,30.961 28.799,67.671 28.799,105.121 0,84.961 -51.119,158.388 -131.041,190.068 68.403,30.97 110.879,102.25 110.879,175.7 0,17.27 -2.879,33.83 -8.637,51.11 -8.64,30.96 -25.203,59.76 -48.23,82.08 -39.609,36.71 -87.852,59.76 -138.973,65.52 -16.558,2.88 -30.957,2.88 -48.238,2.88 -54,0 -105.121,-17.29 -150.48,-48.24 -48.25,-31.67 -79.2,-82.81 -84.961,-141.84 l 144.722,-14.4 c 8.641,45.36 45.36,79.2 90.719,79.2 8.641,0 20.16,0 31.68,-2.88 42.48,-10.8 67.679,-51.12 67.679,-93.6 0,-48.24 -33.839,-87.85 -82.078,-96.48 -11.519,-2.88 -25.922,-2.88 -36.722,-5.04 V 999.711 H 747 c 8.641,0 20.16,-2.879 28.801,-5.758 19.437,-5.762 36.719,-17.281 53.277,-28.082 11.524,-11.519 23.043,-25.918 31.684,-40.32 8.636,-13.68 11.519,-28.078 11.519,-42.481 0,-16.558 -5.75,-30.957 -11.519,-45.359 -5.774,-10.797 -14.403,-19.438 -23.043,-28.078 -5.758,-8.641 -10.797,-14.403 -19.438,-17.281 -11.519,-8.641 -25.91,-10.809 -36.711,-10.809 -8.64,-2.879 -17.281,-2.879 -25.929,-2.879"
             id="path75"
             style="fill:#000000;fill-opacity:1;fill-rule:nonzero;stroke:none" /><path
             d="m 755.629,778.664 h -5.758 c -48.242,7.918 -87.84,48.25 -90.723,98.648 L 500.039,863.633 c 5.762,-59.77 34.551,-113.762 77.039,-153.36 48.242,-36.722 102.242,-56.882 158.402,-62.64 h 28.801 c 5.758,0 8.641,0 14.399,0 82.082,0 161.281,42.469 203.761,113.758 20.159,30.961 28.799,67.671 28.799,105.121 0,84.961 -51.119,158.388 -131.041,190.068 68.403,30.97 110.879,102.25 110.879,175.7 0,17.27 -2.879,33.83 -8.637,51.11 -8.64,30.96 -25.203,59.76 -48.23,82.08 -39.609,36.71 -87.852,59.76 -138.973,65.52 -16.558,2.88 -30.957,2.88 -48.238,2.88 -54,0 -105.121,-17.29 -150.48,-48.24 -48.25,-31.67 -79.2,-82.81 -84.961,-141.84 l 144.722,-14.4 c 8.641,45.36 45.36,79.2 90.719,79.2 8.641,0 20.16,0 31.68,-2.88 42.48,-10.8 67.679,-51.12 67.679,-93.6 0,-48.24 -33.839,-87.85 -82.078,-96.48 -11.519,-2.88 -25.922,-2.88 -36.722,-5.04 V 999.711 H 747 c 8.641,0 20.16,-2.879 28.801,-5.758 19.437,-5.762 36.719,-17.281 53.277,-28.082 11.524,-11.519 23.043,-25.918 31.684,-40.32 8.636,-13.68 11.519,-28.078 11.519,-42.481 0,-16.558 -5.75,-30.957 -11.519,-45.359 -5.774,-10.797 -14.403,-19.438 -23.043,-28.078 -5.758,-8.641 -10.797,-14.403 -19.438,-17.281 -11.519,-8.641 -25.91,-10.809 -36.711,-10.809 -8.64,-2.879 -17.281,-2.879 -25.929,-2.879 z"
             id="path77"
             style="fill:none;stroke:#000000;stroke-width:2.15;stroke-linecap:butt;stroke-linejoin:miter;stroke-miterlimit:4;stroke-dasharray:none;stroke-opacity:1" /><path
             d="m 1353.95,1266.11 5.76,-5.77 5.76,-7.92 5.76,-8.63 2.88,-8.63 5.76,-11.53 2.88,-8.64 5.76,-10.79 2.88,-8.65 2.88,-11.52 2.16,-11.51 2.89,-8.65 2.87,-10.8 v -8.64 l 2.88,-11.52 2.88,-8.65 v -16.55 l 2.88,-8.65 v -28.79 l 2.88,-7.92 v -74.159 l -2.88,-5.769 v -28.07 l -2.88,-5.758 v -20.172 l -2.88,-2.871 v -13.68 l -2.88,-5.758 v -2.89 l -2.87,-5.75 v -8.641 l -2.89,-5.762 v -5.758 l -2.16,-2.16 v -5.761 l -2.88,-5.758 -2.88,-2.891 v -5.75 l -2.88,-2.879 v -5.769 l -2.88,-2.871 v -2.879 l -2.88,-5.762 -2.88,-2.879 v -2.891 l -2.88,-2.148 -2.88,-2.883 -2.88,-5.758 -2.88,-2.882 -2.88,-2.879 -2.88,-2.879 -2.88,-2.879 -2.88,-5.762 -2.88,-2.879 -2.16,-2.883 -2.88,-2.878 h -5.75 l -2.89,-2.891 -2.88,-2.879 h -2.88 l -2.88,-2.871 h -5.76 l -2.88,-2.168 h -22.32 l -2.87,2.168 h -5.77 l -2.88,2.871 h -2.88 l -2.87,2.879 -2.89,2.891 h -2.88 l -5.76,2.878 -2.88,2.883 -2.88,2.879 -2.88,5.762 -2.88,2.879 -2.88,2.879 -2.16,2.879 -2.87,2.882 -2.89,5.758 -2.88,2.883 -2.88,2.148 v 2.891 l -2.88,2.879 v 5.762 l -2.87,2.879 -2.89,2.871 v 5.769 l -2.88,2.879 v 5.75 l -2.88,2.891 v 5.758 l -2.88,5.761 v 2.16 l -2.87,5.758 v 5.762 l -2.89,2.879 v 5.762 l -2.88,5.75 v 8.648 l -2.88,5.762 v 10.789 l -2.88,2.89 v 23.04 l -2.16,2.878 v 36.723 l -2.87,2.879 v 53.998 l 2.87,5.75 v 42.48 l 2.16,8.65 v 7.92 l 2.88,8.63 v 8.65 l 2.88,11.52 v 8.64 l 2.88,10.8 2.89,8.65 2.87,11.51 2.88,11.52 2.88,8.65 5.77,10.79 2.87,8.64 5.76,11.53 5.77,8.63 2.87,8.63 5.04,7.92 5.76,5.77 5.76,5.76 5.76,5.76 5.77,5.76 5.75,2.88 5.76,2.88 5.76,2.89 h 5.04 l 5.76,2.87 5.76,-2.87 h 5.76 l 5.76,-2.89 5.76,-2.88 5.76,-2.88 5.76,-5.76 5.76,-5.76 5.04,-5.76"
             id="path79"
             style="fill:#ffffff;fill-opacity:1;fill-rule:nonzero;stroke:none" /><path
             d="m 1353.95,1266.11 5.76,-5.77 5.76,-7.92 5.76,-8.63 2.88,-8.63 5.76,-11.53 2.88,-8.64 5.76,-10.79 2.88,-8.65 2.88,-11.52 2.16,-11.51 2.89,-8.65 2.87,-10.8 v -8.64 l 2.88,-11.52 2.88,-8.65 v -16.55 l 2.88,-8.65 v -28.79 l 2.88,-7.92 v -74.159 l -2.88,-5.769 v -28.07 l -2.88,-5.758 v -20.172 l -2.88,-2.871 v -13.68 l -2.88,-5.758 v -2.89 l -2.87,-5.75 v -8.641 l -2.89,-5.762 v -5.758 l -2.16,-2.16 v -5.761 l -2.88,-5.758 -2.88,-2.891 v -5.75 l -2.88,-2.879 v -5.769 l -2.88,-2.871 v -2.879 l -2.88,-5.762 -2.88,-2.879 v -2.891 l -2.88,-2.148 -2.88,-2.883 -2.88,-5.758 -2.88,-2.882 -2.88,-2.879 -2.88,-2.879 -2.88,-2.879 -2.88,-5.762 -2.88,-2.879 -2.16,-2.883 -2.88,-2.878 h -5.75 l -2.89,-2.891 -2.88,-2.879 h -2.88 l -2.88,-2.871 h -5.76 l -2.88,-2.168 h -2.88 -2.88 -2.88 -2.88 -2.88 -2.88 -2.16 -2.88 l -2.87,2.168 h -5.77 l -2.88,2.871 h -2.88 l -2.87,2.879 -2.89,2.891 h -2.88 l -5.76,2.878 -2.88,2.883 -2.88,2.879 -2.88,5.762 -2.88,2.879 -2.88,2.879 -2.16,2.879 -2.87,2.882 -2.89,5.758 -2.88,2.883 -2.88,2.148 v 2.891 l -2.88,2.879 v 5.762 l -2.87,2.879 -2.89,2.871 v 5.769 l -2.88,2.879 v 5.75 l -2.88,2.891 v 5.758 l -2.88,5.761 v 2.16 l -2.87,5.758 v 5.762 l -2.89,2.879 v 5.762 l -2.88,5.75 v 8.648 l -2.88,5.762 v 10.789 l -2.88,2.89 v 23.04 l -2.16,2.878 v 36.723 l -2.87,2.879 v 53.998 l 2.87,5.75 v 42.48 l 2.16,8.65 v 7.92 l 2.88,8.63 v 8.65 l 2.88,11.52 v 8.64 l 2.88,10.8 2.89,8.65 2.87,11.51 2.88,11.52 2.88,8.65 5.77,10.79 2.87,8.64 5.76,11.53 5.77,8.63 2.87,8.63 5.04,7.92 5.76,5.77 5.76,5.76 5.76,5.76 5.77,5.76 5.75,2.88 5.76,2.88 5.76,2.89 h 5.04 l 5.76,2.87 5.76,-2.87 h 5.76 l 5.76,-2.89 5.76,-2.88 5.76,-2.88 5.76,-5.76 5.76,-5.76 z"
             id="path81"
             style="fill:none;stroke:#000000;stroke-width:2.15;stroke-linecap:butt;stroke-linejoin:miter;stroke-miterlimit:4;stroke-dasharray:none;stroke-opacity:1" /></g></g></g></g></svg>
