<?xml version="1.0" encoding="UTF-8" standalone="no"?>
<!-- Created with Inkscape (http://www.inkscape.org/) -->

<svg
   version="1.0"
   width="100"
   height="100"
   id="svg2"
   xml:space="preserve"
   xmlns="http://www.w3.org/2000/svg"
   xmlns:svg="http://www.w3.org/2000/svg"><defs
     id="defs5"><clipPath
       id="clipPath19"><path
         d="M 0.492188,0 L 5953.0022,0 L 5953.0022,5952.75 L 0.492188,5952.75 L 0.492188,0 z"
         id="path21" /></clipPath></defs><g
     transform="matrix(0.16799636,0,0,-0.16798961,-0.00826978,100)"
     id="g11"><g
       transform="scale(0.1)"
       id="g13"><g
         id="g15"><g
           clip-path="url(#clipPath19)"
           id="g17"><path
             d="m 5949.71,2976.37 c 0,1641.85 -1330.99,2972.84 -2972.84,2972.84 C 1335.02,5949.21 4.03125,4618.22 4.03125,2976.37 4.03125,1334.53 1335.02,3.53125 2976.87,3.53125 4618.72,3.53125 5949.71,1334.53 5949.71,2976.37"
             id="path23"
             style="fill:#e23828;fill-opacity:1;fill-rule:nonzero;stroke:none" /><path
             d="m 5949.71,2976.37 c 0,1641.85 -1330.99,2972.84 -2972.84,2972.84 C 1335.02,5949.21 4.03125,4618.22 4.03125,2976.37 4.03125,1334.53 1335.02,3.53125 2976.87,3.53125 4618.72,3.53125 5949.71,1334.53 5949.71,2976.37 Z"
             id="path25"
             style="fill:none;stroke:#e23828;stroke-width:7.07819;stroke-linecap:round;stroke-linejoin:round;stroke-miterlimit:500;stroke-dasharray:none;stroke-opacity:1" /><path
             d="M 4416.59,1273.89 1274.38,4416.09 C 525.762,3530.84 580.492,2219.58 1400.28,1399.79 2220.07,580 3531.33,525.262 4416.59,1273.89"
             id="path27"
             style="fill:#ffffff;fill-opacity:1;fill-rule:nonzero;stroke:none" /><path
             d="M 4416.59,1273.89 1274.38,4416.09 C 525.762,3530.84 580.492,2219.58 1400.28,1399.79 2220.07,580 3531.33,525.262 4416.59,1273.89 Z"
             id="path29"
             style="fill:none;stroke:#ffffff;stroke-width:7.07819;stroke-linecap:round;stroke-linejoin:round;stroke-miterlimit:500;stroke-dasharray:none;stroke-opacity:1" /><path
             d="m 4679.36,1536.66 c 748.61,885.25 693.88,2196.51 -125.9,3016.3 -819.8,819.79 -2131.06,874.52 -3016.31,125.89 L 4679.36,1536.66"
             id="path31"
             style="fill:#ffffff;fill-opacity:1;fill-rule:nonzero;stroke:none" /><path
             d="m 4679.36,1536.66 c 748.61,885.25 693.88,2196.51 -125.9,3016.3 -819.8,819.79 -2131.06,874.52 -3016.31,125.89 z"
             id="path33"
             style="fill:none;stroke:#ffffff;stroke-width:7.07819;stroke-linecap:round;stroke-linejoin:round;stroke-miterlimit:500;stroke-dasharray:none;stroke-opacity:1" /><path
             d="m 2219.58,3996.43 46.5,153.26 c 10.21,38.48 44.5,65.66 84.28,66.81 h 271.77 c 45.12,-4.81 80.02,-41.76 82.25,-87.08 2.23,-45.31 -28.87,-85.52 -73.29,-94.74 l -182.51,-1.37 c -23.09,-0.17 -42.36,-17.67 -44.76,-40.63 l -41.77,-138.72 -142.47,142.47"
             id="path35"
             style="fill:#000000;fill-opacity:1;fill-rule:nonzero;stroke:none" /><path
             d="m 2219.58,3996.43 46.5,153.26 c 10.21,38.48 44.5,65.66 84.28,66.81 h 271.77 c 45.12,-4.81 80.02,-41.76 82.25,-87.08 2.23,-45.31 -28.87,-85.52 -73.29,-94.74 l -182.51,-1.37 c -23.09,-0.17 -42.36,-17.67 -44.76,-40.63 l -41.77,-138.72 z"
             id="path37"
             style="fill:none;stroke:#000000;stroke-width:6.76435;stroke-linecap:round;stroke-linejoin:round;stroke-miterlimit:500;stroke-dasharray:none;stroke-opacity:1" /><path
             d="m 3935.88,3090.95 c 197.94,54.14 409.72,-1.93 554.92,-146.94 145.23,-145 201.59,-356.7 147.74,-554.72 -53.87,-198.01 -209.71,-351.99 -408.37,-403.45 l 132.85,-132.86 c 368.6,148.02 554.29,560.92 420.46,934.91 -133.84,373.98 -539.34,575.31 -918.17,455.85 l -242.52,527.18 51.66,169.42 108.12,1.37 c 44.61,8.89 76.05,49.02 73.97,94.46 -2.06,45.44 -37.01,82.56 -82.23,87.36 l -374.65,0.69 c -46.99,-0.2 -86.34,-35.64 -91.45,-82.34 -5.11,-46.71 25.65,-89.81 71.48,-100.17 l 108.81,-1.37 -139.58,-460.87 -901.48,289.09 286.43,-286.43 559.51,-179.55 -89.19,-290.77 142.6,-142.6 197.5,646.89 158.64,-346.13 C 3566.79,3087 3461.13,2962.23 3401.72,2814.28 l 131.34,-131.33 c 35.71,137.5 121.32,256.78 240.14,334.64 l 177.41,-385.77 h -366.44 l 181.44,-181.42 c 107.35,0.47 214.71,-0.35 322.05,-2.44 31.11,-0.62 60.35,14.8 77.41,40.82 17.07,26.01 19.56,58.98 6.6,87.26 l -236.21,515.83 0.42,-0.92"
             id="path39"
             style="fill:#000000;fill-opacity:1;fill-rule:nonzero;stroke:none" /><path
             d="m 3935.88,3090.95 c 197.94,54.14 409.72,-1.93 554.92,-146.94 145.23,-145 201.59,-356.7 147.74,-554.72 -53.87,-198.01 -209.71,-351.99 -408.37,-403.45 l 132.85,-132.86 c 368.6,148.02 554.29,560.92 420.46,934.91 -133.84,373.98 -539.34,575.31 -918.17,455.85 l -242.52,527.18 51.66,169.42 108.12,1.37 c 44.61,8.89 76.05,49.02 73.97,94.46 -2.06,45.44 -37.01,82.56 -82.23,87.36 l -374.65,0.69 c -46.99,-0.2 -86.34,-35.64 -91.45,-82.34 -5.11,-46.71 25.65,-89.81 71.48,-100.17 l 108.81,-1.37 -139.58,-460.87 -901.48,289.09 286.43,-286.43 559.51,-179.55 -89.19,-290.77 142.6,-142.6 197.5,646.89 158.64,-346.13 C 3566.79,3087 3461.13,2962.23 3401.72,2814.28 l 131.34,-131.33 c 35.71,137.5 121.32,256.78 240.14,334.64 l 177.41,-385.77 h -366.44 l 181.44,-181.42 c 107.35,0.47 214.71,-0.35 322.05,-2.44 31.11,-0.62 60.35,14.8 77.41,40.82 17.07,26.01 19.56,58.98 6.6,87.26 l -236.21,515.83 z"
             id="path41"
             style="fill:none;stroke:#000000;stroke-width:7.07819;stroke-linecap:round;stroke-linejoin:round;stroke-miterlimit:500;stroke-dasharray:none;stroke-opacity:1" /><path
             d="m 3386.95,2303.53 c 73.69,-219.41 245.9,-391.63 465.32,-465.32 l -465.32,465.32"
             id="path43"
             style="fill:#000000;fill-opacity:1;fill-rule:nonzero;stroke:none" /><path
             d="m 3386.95,2303.53 c 73.69,-219.41 245.9,-391.63 465.32,-465.32 z"
             id="path45"
             style="fill:none;stroke:#000000;stroke-width:6.4628;stroke-linecap:round;stroke-linejoin:round;stroke-miterlimit:500;stroke-dasharray:none;stroke-opacity:1" /><path
             d="m 3243.43,2447.06 c -42.63,-63.79 -123.15,-90.46 -195.44,-64.7 -72.27,25.76 -117.77,97.34 -110.44,173.72 l -719.68,823.66 -51.98,-173.54 c 352.03,-169.79 511.01,-584.31 362.79,-945.95 -148.22,-361.64 -552.39,-545.36 -922.32,-419.24 -369.92,126.11 -577.71,518.46 -474.16,895.32 103.55,376.87 482.63,607.96 865.07,527.35 l 99.98,329.55 1146.18,-1146.17"
             id="path47"
             style="fill:#000000;fill-opacity:1;fill-rule:nonzero;stroke:none" /><path
             d="m 3243.43,2447.06 c -42.63,-63.79 -123.15,-90.46 -195.44,-64.7 -72.27,25.76 -117.77,97.34 -110.44,173.72 l -719.68,823.66 -51.98,-173.54 c 352.03,-169.79 511.01,-584.31 362.79,-945.95 -148.22,-361.64 -552.39,-545.36 -922.32,-419.24 -369.92,126.11 -577.71,518.46 -474.16,895.32 103.55,376.87 482.63,607.96 865.07,527.35 l 99.98,329.55 z"
             id="path49"
             style="fill:none;stroke:#000000;stroke-width:7.07819;stroke-linecap:round;stroke-linejoin:round;stroke-miterlimit:500;stroke-dasharray:none;stroke-opacity:1" /><path
             d="m 2034.3,2779.41 c -24.07,-82.07 -53.62,-162.44 -88.46,-240.55 -10.07,-21.85 -23.04,-42.23 -38.57,-60.61 -30.17,-30.59 -77.97,-35.07 -113.3,-10.62 -35.33,24.47 -47.96,70.78 -29.94,109.79 35.42,69.09 65.13,140.95 88.83,214.87 l 95.63,311.41 c -294.05,54.26 -580.39,-126.75 -657.5,-415.66 -77.11,-288.89 80.95,-588.51 362.93,-688 281.98,-99.48 593.05,34.64 714.29,307.98 121.24,273.33 11.87,593.95 -251.14,736.2 l -82.77,-264.81"
             id="path51"
             style="fill:#ffffff;fill-opacity:1;fill-rule:nonzero;stroke:none" /><path
             d="m 2034.3,2779.41 c -24.07,-82.07 -53.62,-162.44 -88.46,-240.55 -10.07,-21.85 -23.04,-42.23 -38.57,-60.61 -30.17,-30.59 -77.97,-35.07 -113.3,-10.62 -35.33,24.47 -47.96,70.78 -29.94,109.79 35.42,69.09 65.13,140.95 88.83,214.87 l 95.63,311.41 c -294.05,54.26 -580.39,-126.75 -657.5,-415.66 -77.11,-288.89 80.95,-588.51 362.93,-688 281.98,-99.48 593.05,34.64 714.29,307.98 121.24,273.33 11.87,593.95 -251.14,736.2 z"
             id="path53"
             style="fill:none;stroke:#ffffff;stroke-width:7.07819;stroke-linecap:round;stroke-linejoin:round;stroke-miterlimit:500;stroke-dasharray:none;stroke-opacity:1" /></g></g></g></g></svg>
