<?xml version="1.0" encoding="UTF-8" standalone="no"?>
<!-- Created with Inkscape (http://www.inkscape.org/) -->

<svg
   version="1.0"
   width="100.00001"
   height="144.242"
   id="svg2"
   xml:space="preserve"
   xmlns="http://www.w3.org/2000/svg"
   xmlns:svg="http://www.w3.org/2000/svg"><defs
     id="defs5" /><path
     d="M 0,144.242 H 100.00001 V 0 H 0 Z"
     id="path25"
     style="fill:#ffffff;fill-opacity:1;stroke:none;stroke-width:0.49393;stroke-linecap:butt;stroke-linejoin:miter;stroke-miterlimit:4;stroke-dasharray:none;stroke-opacity:1" /><path
     id="path5369"
     style="fill:#000000;fill-opacity:1;stroke:#000000;stroke-width:0.494;stroke-linecap:butt;stroke-linejoin:miter;stroke-miterlimit:4;stroke-dasharray:none;stroke-opacity:0.997951"
     d="m 5.5644531,1.1484403 c -2.5004582,0 -4.4375,1.9753395 -4.4375,4.5253906 V 138.64258 c 0,2.5501 1.9374281,4.52539 4.4375,4.52539 H 94.332031 c 2.500013,0 4.435547,-1.97529 4.435547,-4.52539 V 5.6738309 c 0,-2.5500511 -1.935534,-4.5253906 -4.435547,-4.5253906 z M 5.5625,3.4121122 h 88.767578 c 1.267612,0 2.21875,0.9687351 2.21875,2.2617187 V 138.64258 c 0,1.29288 -0.951138,2.26367 -2.21875,2.26367 H 5.5625 c -1.2680818,0 -2.2167969,-0.97079 -2.2167969,-2.26367 V 5.6738309 c 0,-1.2929836 0.9492922,-2.2617187 2.2167969,-2.2617187 z" /><path
     id="path43"
     style="fill:#000000;fill-opacity:1;fill-rule:nonzero;stroke:none;stroke-width:0.494002;stroke-miterlimit:4;stroke-dasharray:none"
     d="m 75.322883,15.611601 c -2.597637,0 -5.20974,1.580074 -6.057627,4.74075 -0.616655,2.232926 -0.616655,4.71745 0,6.950371 0.709139,2.736113 3.267261,4.716812 6.073018,4.716812 2.559095,0 4.841433,-1.508775 6.074734,-3.836041 L 78.729665,26.79992 c -0.739983,1.383782 -1.942264,2.106995 -3.391391,2.106995 -1.356629,0 -2.435024,-0.849014 -2.927911,-2.106995 -0.247087,-0.723342 -0.371119,-1.478261 -0.371119,-2.358413 h 9.743176 v -0.598573 c 0,-1.257986 -0.12256,-2.358399 -0.492549,-3.490583 -0.786228,-3.160676 -3.36935,-4.74075 -5.966988,-4.74075 z m 0.01539,3.011714 c 1.202466,0 2.436545,0.879513 2.775704,2.231848 0.123328,0.251599 0.246275,0.629931 0.246275,1.007326 h -6.197876 c 0.123333,-0.377395 0.247986,-0.755727 0.247986,-1.007326 v -0.124848 c 0.492887,-1.226534 1.571282,-2.107 2.927911,-2.107 z" /><path
     id="path51"
     style="fill:#000000;fill-opacity:1;fill-rule:nonzero;stroke:none;stroke-width:0.494002;stroke-miterlimit:4;stroke-dasharray:none"
     d="m 42.674321,15.666328 c -2.89825,0 -5.456143,2.10697 -6.165374,4.937427 -0.246574,1.132189 -0.37112,2.106556 -0.37112,3.239179 0,0.974935 0.124546,2.106894 0.37112,3.08183 0.709231,2.98771 3.267124,5.09477 6.165374,5.09477 3.052456,0 5.611426,-2.10706 6.321006,-5.09477 0.24623,-0.974936 0.369407,-2.106895 0.369407,-3.08183 0,-1.132623 -0.123177,-2.10699 -0.369407,-3.239179 -0.70958,-2.830457 -3.26855,-4.937427 -6.321006,-4.937427 z m 0,2.956987 c 1.480044,0 2.682726,1.006073 3.052759,2.358403 0.369989,1.006388 0.494256,1.854833 0.494256,2.861216 0,0.849139 -0.124267,1.856444 -0.494256,2.705583 -0.370033,1.509573 -1.572715,2.358398 -3.052759,2.358398 -1.325666,0 -2.526944,-0.848825 -3.020263,-2.358398 -0.246746,-0.849139 -0.371119,-1.730648 -0.371119,-2.705583 0,-1.006383 0.124373,-1.854828 0.371119,-2.861216 0.493319,-1.35233 1.694597,-2.358403 3.020263,-2.358403 z" /><path
     d="m 29.306061,31.516996 c -3.915765,1.100737 -8.139854,0.251598 -11.192139,-2.358717 l 2.065689,-2.610316 c 1.572412,1.25798 3.638272,1.981323 5.704004,1.981323 0.616735,0 1.356586,0 1.942574,-0.251598 1.233169,-0.220146 2.188976,-1.35233 2.188976,-2.704665 0,-1.132179 -0.709104,-2.107115 -1.6957,-2.610311 C 27.70273,22.710685 27.116914,22.585317 26.50035,22.459516 L 24.43449,21.86198 c -0.986596,-0.251598 -1.942445,-0.628993 -2.805753,-1.257981 -3.76156,-2.358722 -3.514815,-8.051093 0.493318,-10.158217 0.493277,-0.125797 0.986768,-0.377395 1.449126,-0.5031914 2.682423,-0.8491391 5.611636,-0.597536 8.016567,0.7547944 0.616564,0.251159 1.109883,0.628988 1.602817,0.974935 l -2.189147,2.736113 c -0.616564,-0.503197 -1.356586,-0.849578 -2.06586,-1.100738 -0.739851,-0.251598 -1.479402,-0.377394 -2.188977,-0.377394 -0.863308,0 -1.69587,0.125796 -2.559179,0.503196 -0.955806,0.251593 -1.695657,1.226529 -1.695657,2.358712 0,0.84914 0.616564,1.729291 1.325668,2.075678 0.493276,0.251593 0.986767,0.503186 1.480043,0.628988 l 2.065689,0.503191 c 0.955849,0.252032 1.819158,0.628993 2.651677,0.974941 2.18949,1.006382 3.514815,3.239303 3.514815,5.598016 0,2.704665 -1.695657,5.189184 -4.224047,5.943973"
     id="path59"
     style="fill:#000000;fill-opacity:1;fill-rule:nonzero;stroke:none;stroke-width:0.494002;stroke-miterlimit:4;stroke-dasharray:none" /><path
     d="m 65.750023,31.516996 v -10.40981 c 0,-3.113502 -2.312004,-5.440773 -5.364847,-5.440773 -1.325799,0 -2.651593,0.471744 -3.761556,1.35233 v -1.006387 h -3.144916 v 15.50464 h 3.144916 v -9.780813 c 0,-4.088442 5.950662,-4.088442 5.950662,0 v 9.780813 h 3.175741"
     id="path63"
     style="fill:#000000;fill-opacity:1;fill-rule:nonzero;stroke:none;stroke-width:0.494002;stroke-miterlimit:4;stroke-dasharray:none" /><path
     d="m 62.477764,121.79174 c -2.507266,0 -4.654378,1.5376 -5.554778,3.71242 h -7.036971 l -6.372071,-7.7573 3.158327,-11.63594 -1.426786,-1.82851 -0.180081,-0.96966 -0.01385,-1.38523 1.7731,-6.302803 c 0.0277,-0.05541 0.12467,-0.24934 0.06926,-0.498684 -0.04156,-0.221636 -0.180079,-0.346308 -0.22164,-0.401718 l -5.52707,-1.246707 c -0.47098,0.06926 -0.844993,0.415568 -0.928106,0.858844 -0.06926,0.401717 0.09697,0.831139 0.457126,1.066629 l 2.174814,0.484831 0.941956,0.277045 c 0.16623,0.06926 0.41557,0.207786 0.567946,0.47098 0.06926,0.138523 0.09697,0.263192 0.138524,0.415568 0.0277,0.166228 0.06926,0.415568 0.04155,0.720321 0,0 -0.678761,3.033654 -0.941957,3.518484 -0.08311,0.16623 -0.193934,0.3186 -0.30475,0.45713 l -0.05541,-0.0693 -0.831137,0.30475 -4.931426,19.80881 c -0.01385,0 -0.0277,0 -0.05541,0 -3.324556,0 -6.011906,2.68735 -6.011906,6.0119 0,3.32456 2.68735,6.01191 6.011906,6.01191 3.324552,0 6.011902,-2.68735 6.011902,-6.01191 0,-2.49341 -1.5099,-4.62667 -3.670863,-5.54092 l 0.761877,-2.63194 0.734173,-0.36016 5.333141,6.27509 -1.482196,0.0693 0.01385,0.88654 2.645794,2.85358 h 8.907036 c 0.69262,2.54883 3.019808,4.43274 5.790275,4.43274 3.324553,0 6.011906,-2.68735 6.011906,-6.0119 0,-3.32456 -2.673503,-5.9842 -5.998061,-5.9842 z m -21.5542,6.0119 c 0,1.93933 -1.579166,3.51849 -3.518489,3.51849 -1.939326,0 -3.518486,-1.57916 -3.518486,-3.51849 0,-1.8008 1.343673,-3.26914 3.089063,-3.49078 l -0.04156,2.13325 c -0.457126,0.22164 -0.77573,0.69262 -0.77573,1.23286 0,0.76188 0.609504,1.37138 1.37138,1.37138 0.761877,0 1.37138,-0.6095 1.37138,-1.37138 0,-0.38786 -0.16623,-0.73417 -0.41557,-0.98351 l 0.678764,-1.93933 c 1.052776,0.6095 1.759245,1.74539 1.759245,3.04751 z m 21.5542,3.51849 c -1.565306,0 -2.881275,-1.02507 -3.338408,-2.42416 l 3.255294,-0.47098 0.04156,-1.52375 -3.227589,-0.34631 c 0.512537,-1.31597 1.786952,-2.25792 3.283003,-2.25792 1.93932,0 3.518481,1.57916 3.518481,3.51848 0,1.93933 -1.593011,3.50464 -3.532341,3.50464 z"
     id="path4"
     style="stroke-width:0.494002;stroke-miterlimit:4;stroke-dasharray:none" /><polygon
     class="st0"
     points="252.6,360.1 246.3,355.5 263.7,333.2 243.6,334.7 256.7,318 243.8,315.8 231,343 247.9,342.6 242.2,353.1 235.7,348.9 235.6,365.2 "
     id="polygon6"
     style="fill:#ffffff;stroke-width:3.56619;stroke-miterlimit:4;stroke-dasharray:none"
     transform="matrix(0.13852313,0,0,0.13852313,7.622597,67.781569)" /><g
     style="fill-rule:evenodd"
     id="g933"
     transform="matrix(0.5,0,0,0.5,24.933711,36.100977)"><circle
       cx="50"
       cy="50"
       fill="#e23828"
       stroke="none"
       id="circle2"
       style="stroke-width:0.166667"
       r="50" /><circle
       cx="50"
       cy="50"
       fill="#0047b6"
       stroke="none"
       id="circle4"
       style="stroke-width:0.166667"
       r="37.5" /><path
       fill="none"
       stroke="#e23828"
       stroke-width="6.16667"
       d="M 15.823165,15.823167 84.176831,84.176833"
       id="path6" /></g></svg>
