<?xml version="1.0" encoding="UTF-8" standalone="no"?>
<!-- Created with Inkscape (http://www.inkscape.org/) -->

<svg
   version="1.1"
   width="100"
   height="100"
   id="svg2"
   xml:space="preserve"
   xmlns="http://www.w3.org/2000/svg"
   xmlns:svg="http://www.w3.org/2000/svg"
   xmlns:rdf="http://www.w3.org/1999/02/22-rdf-syntax-ns#"
   xmlns:cc="http://creativecommons.org/ns#"
   xmlns:dc="http://purl.org/dc/elements/1.1/"><defs
     id="defs52" /><metadata
     id="metadata4"><rdf:RDF><cc:Work
         rdf:about=""><dc:format>image/svg+xml</dc:format><dc:type
           rdf:resource="http://purl.org/dc/dcmitype/StillImage" /></cc:Work></rdf:RDF></metadata><path
     style="fill:#cd1e00;fill-opacity:1;fill-rule:nonzero;stroke:none;stroke-width:0.333333"
     d="M 100,50.063494 C 100,22.53973 77.460757,0 49.936508,0 22.539724,0 0,22.53973 0,50.063494 0,77.460318 22.539724,100 49.936508,100 77.460757,100 100,77.460318 100,50.063494 Z"
     id="path11-1" /><path
     style="fill:#ffffff;fill-rule:nonzero;stroke:none;stroke-width:0.333333"
     d="m 87.492141,50.06359 c 0,-20.666837 -16.88933,-37.555597 -37.55582,-37.555597 -20.539551,0 -37.428308,16.88876 -37.428308,37.555597 0,20.539641 16.888757,37.428531 37.428308,37.428531 20.66649,0 37.55582,-16.88889 37.55582,-37.428527 z"
     id="path13-7" /><path
     id="path3782"
     d="m 17.148997,21.568416 4.419419,-4.419419 61.282589,61.28259 -4.419418,4.419418 z"
     style="fill:#cd1e00;fill-opacity:1;stroke:none;stroke-width:0.333333" /><path
     style="fill:#000000;fill-rule:nonzero;stroke:none;stroke-width:0.333333"
     d="m 62.42583,66.845234 h -3.98054 c -0.08796,-0.463193 -0.282892,-0.899647 -0.568983,-1.274203 l -5.503156,-7.205737 c -0.889217,-1.164543 -2.554124,-1.38756 -3.718498,-0.498177 l -7.035023,5.372474 c -0.02137,-0.464037 0.01834,-0.92908 0.118237,-1.382853 l -3.01984,1.126533 c -0.955147,0.356223 -1.804839,0.947577 -2.47087,1.719229 -0.67898,0.786454 -0.907887,1.865894 -0.60649,2.860397 0.16987,0.560743 0.420307,1.093734 0.74323,1.582997 0.68924,-0.06138 1.38386,-0.01717 2.059813,0.130853 l -0.24522,0.722877 c -3.132526,-0.63996 -6.222837,1.265457 -7.057897,4.351731 -0.835061,3.086276 0.872734,6.289946 3.900648,7.316909 3.027742,1.026964 6.33233,-0.476649 7.546993,-3.43409 1.214829,-2.95761 -0.07855,-6.34982 -2.954247,-7.74781 l 0.245221,-0.72271 c 1.997079,0.936481 3.417269,2.781683 3.811506,4.951831 0.327297,1.802316 1.897006,3.112679 3.728926,3.112679 h 8.827754 c 0.91865,2.78858 3.70538,4.51639 6.61186,4.099617 2.90631,-0.416944 5.09496,-2.85821 5.192843,-5.792946 0.09788,-2.9344 -1.923413,-5.516274 -4.79558,-6.125791 -2.872003,-0.609687 -5.767716,0.928907 -6.870199,3.650214 H 55.57615 c 0.963221,-2.721138 3.536517,-4.540274 6.423151,-4.540274 h 2.700447 z"
     id="path17" /><path
     style="fill:#000000;fill-rule:nonzero;stroke:none;stroke-width:0.333333"
     d="m 47.743237,52.162807 c -1.086336,0.440657 -1.885573,1.389077 -2.135333,2.534447 l 2.43454,-0.362114 v 1.821661 l -2.27392,0.26002 v 1.907267 l 1.22173,-0.139764 1.204404,-0.91966 c 1.170763,-0.894263 2.783363,-0.93547 3.998532,-0.102596 0.06609,-0.120761 0.125134,-0.245051 0.176768,-0.372707 z"
     id="path19" /><path
     style="fill:#000000;fill-rule:nonzero;stroke:none;stroke-width:0.333333"
     d="m 39.914527,44.333931 v 0.321913 l -0.41913,1.3842 c -1.192123,0.6371 -2.623416,0.6371 -3.815543,0 l -0.419127,-1.3842 V 41.52029 h 1.84016 z"
     id="path21" /><path
     style="fill:#000000;fill-rule:nonzero;stroke:none;stroke-width:0.333333"
     d="M 37.100887,41.52029 34.35099,38.770393 h -1.009639 l -0.140607,0.136404 v 2.47726 l 0.140607,0.136233 z"
     id="path23" /><path
     style="fill:#000000;fill-rule:nonzero;stroke:none;stroke-width:0.333333"
     d="m 43.189677,38.770393 2.750063,2.749897 h 21.694914 l 0.140437,-0.136233 v -2.47726 l -0.140437,-0.136404 z"
     id="path25" /><path
     style="fill:#000000;fill-rule:nonzero;stroke:none;stroke-width:0.333333"
     d="M 65.715278,44.655844 V 41.52029 h -4.653801 v 3.135554 l 0.419127,1.3842 c 1.19196,0.6371 2.623587,0.6371 3.815543,0 z"
     id="path27" /><path
     style="fill:#000000;fill-rule:nonzero;stroke:none;stroke-width:0.333333"
     d="m 39.141361,34.721977 2.990573,2.990743 h 25.676964 v -5.426696 c -0.293153,-1.3144 -1.125021,-2.445137 -2.29242,-3.116213 L 61.711528,17.090116 C 54.213984,16.035973 46.59551,16.196274 39.148761,17.56441 L 35.4935,29.169811 c -0.394066,0.226553 -0.75399,0.507763 -1.068843,0.835396 l 1.650276,1.650443 c 0.545941,-0.556706 1.348711,-0.777203 2.102534,-0.5779 0.753657,0.199303 1.34232,0.787967 1.541624,1.541624 0.199303,0.753893 -0.0212,1.55666 -0.57773,2.102603 z"
     id="path29" /><path
     style="fill:#ffffff;fill-rule:nonzero;stroke:none;stroke-width:0.333333"
     d="m 65.521354,33.173894 c 0,-1.197507 -0.97079,-2.168127 -2.168466,-2.168127 -1.197341,0 -2.168127,0.97062 -2.168127,2.168127 0,1.197509 0.970786,2.168297 2.168127,2.168297 1.197676,0 2.168466,-0.970788 2.168466,-2.168297 z"
     id="path31" /><path
     style="fill:#ffffff;fill-rule:nonzero;stroke:none;stroke-width:0.333333"
     d="M 58.543347,35.383904 V 32.15164 c -5.27072,-1.375453 -10.806166,-1.375453 -16.076883,0 v 3.232264 z"
     id="path33" /><path
     style="fill:#ffffff;fill-rule:nonzero;stroke:none;stroke-width:0.333333"
     d="m 60.115244,20.536653 2.0657,7.811554 C 54.676504,25.490164 46.399234,25.399681 38.834247,28.0934 l 2.266687,-7.318423 c 6.305586,-0.842293 12.689717,-0.922183 19.01431,-0.238324 z"
     id="path35" /><path
     style="fill:#ffffff;fill-rule:nonzero;stroke:none;stroke-width:0.333333"
     d="m 47.081581,66.845234 c -0.607333,0 -1.155967,0.36228 -1.39429,0.921004 l -0.150364,0.352189 C 44.158447,67.74639 42.988017,66.8343 42.290371,65.588521 l 6.238476,-4.764297 4.59796,6.02101 z"
     id="path37" /><path
     style="fill:#ffffff;fill-rule:nonzero;stroke:none;stroke-width:0.333333"
     d="m 36.268518,75.689638 1.314232,-3.874577 c -2.128436,-0.308293 -4.14116,1.056227 -4.642699,3.147663 -0.501709,2.091267 0.673092,4.220207 2.709699,4.911127 2.036774,0.690586 4.26427,-0.28424 5.13852,-2.249363 0.87408,-1.964957 0.1068,-4.272513 -1.769856,-5.322687 l -1.31423,3.874743 c -0.134554,0.396423 -0.56478,0.608846 -0.961374,0.474297 -0.396419,-0.134384 -0.608676,-0.56478 -0.474292,-0.961203 z"
     id="path39" /><path
     style="fill:#ffffff;fill-rule:nonzero;stroke:none;stroke-width:0.333333"
     d="m 62.795174,77.828164 h -4.50041 c 0.856923,1.675503 2.73173,2.566907 4.572394,2.17452 1.840326,-0.392383 3.188533,-1.971176 3.287429,-3.850526 0.09906,-1.879181 -1.075402,-3.591177 -2.864433,-4.174964 -1.78903,-0.583616 -3.74726,0.105961 -4.775737,1.682064 h 4.280757 c 0.960023,1.223577 0.960023,2.944993 0,4.168906 z"
     id="path41" /></svg>
