<?xml version="1.0" encoding="UTF-8" standalone="no"?>
<!-- Created with Inkscape (http://www.inkscape.org/) -->

<svg
   version="1.0"
   width="100"
   height="100"
   id="svg2"
   xml:space="preserve"
   xmlns="http://www.w3.org/2000/svg"
   xmlns:svg="http://www.w3.org/2000/svg"><defs
     id="defs5"><clipPath
       id="clipPath19"><path
         d="M 0.496094,0 L 2255.52,0 L 2255.52,2255.03 L 0.496094,2255.03 L 0.496094,0 z"
         id="path21" /></clipPath></defs><g
     transform="matrix(0.4434572,0,0,-0.44345014,-0.02232938,99.999673)"
     id="g11"><g
       transform="scale(0.1)"
       id="g13"><g
         id="g15"><g
           clip-path="url(#clipPath19)"
           id="g17"><path
             d="m 2254.45,1126.44 c 0,619.91 -507.6,1127.52 -1127.52,1127.52 C 509.164,2253.96 1.56641,1746.35 1.56641,1126.44 1.56641,508.672 509.168,1.07031 1126.93,1.07031 c 619.92,0 1127.52,507.60169 1127.52,1125.36969"
             id="path23"
             style="fill:#e23828;fill-opacity:1;fill-rule:nonzero;stroke:none" /><path
             d="m 2254.45,1126.44 c 0,619.91 -507.6,1127.52 -1127.52,1127.52 C 509.164,2253.96 1.56641,1746.35 1.56641,1126.44 1.56641,508.672 509.168,1.07031 1126.93,1.07031 c 619.92,0 1127.52,507.60169 1127.52,1125.36969 z"
             id="path25"
             style="fill:none;stroke:#e23828;stroke-width:2.15;stroke-linecap:butt;stroke-linejoin:miter;stroke-miterlimit:4;stroke-dasharray:none;stroke-opacity:1" /><path
             d="m 1972.21,1126.44 c 0,465.12 -380.16,845.27 -845.28,845.27 -462.965,0 -843.125,-380.15 -843.125,-845.27 0,-462.96 380.16,-843.12 843.125,-843.12 465.12,0 845.28,380.16 845.28,843.12"
             id="path27"
             style="fill:#ffffff;fill-opacity:1;fill-rule:nonzero;stroke:none" /><path
             d="m 1972.21,1126.44 c 0,465.12 -380.16,845.27 -845.28,845.27 -462.965,0 -843.125,-380.15 -843.125,-845.27 0,-462.96 380.16,-843.12 843.125,-843.12 465.12,0 845.28,380.16 845.28,843.12 z"
             id="path29"
             style="fill:none;stroke:#e23828;stroke-width:2.15;stroke-linecap:butt;stroke-linejoin:miter;stroke-miterlimit:4;stroke-dasharray:none;stroke-opacity:1" /><path
             d="M 1247.89,694.43 V 505.801 h 59.04 v 200.148 c 0,51.129 -39.61,90 -87.11,90 -30.97,0 -61.93,-13.668 -82.09,-36.719 -16.56,23.051 -42.48,36.719 -70.56,36.719 -25.21,0 -44.64,-7.918 -61.92,-25.199 v 17.281 h -59.043 v -282.23 h 59.043 V 694.43 c 0,62.648 92.87,62.648 92.87,0 V 505.801 h 59.77 V 694.43 c 0,62.648 90,62.648 90,0"
             id="path31"
             style="fill:#000000;fill-opacity:1;fill-rule:nonzero;stroke:none" /><path
             d="M 1247.89,694.43 V 505.801 h 59.04 v 200.148 c 0,51.129 -39.61,90 -87.11,90 -30.97,0 -61.93,-13.668 -82.09,-36.719 -16.56,23.051 -42.48,36.719 -70.56,36.719 -25.21,0 -44.64,-7.918 -61.92,-25.199 v 17.281 h -59.043 v -282.23 h 59.043 V 694.43 c 0,62.648 92.87,62.648 92.87,0 V 505.801 h 59.77 V 694.43 c 0,62.648 90,62.648 90,0 z"
             id="path33"
             style="fill:none;stroke:#000000;stroke-width:2.15;stroke-linecap:butt;stroke-linejoin:miter;stroke-miterlimit:4;stroke-dasharray:none;stroke-opacity:1" /><path
             d="m 1941.25,894.602 -236.88,231.838 236.88,231.11 c 20.16,-76.32 30.96,-152.63 30.96,-231.11 0,-79.2 -10.8,-155.53 -30.96,-231.838"
             id="path35"
             style="fill:#000000;fill-opacity:1;fill-rule:nonzero;stroke:none" /><path
             d="m 1941.25,894.602 -236.88,231.838 236.88,231.11 c 20.16,-76.32 30.96,-152.63 30.96,-231.11 0,-79.2 -10.8,-155.53 -30.96,-231.838 z"
             id="path37"
             style="fill:none;stroke:#000000;stroke-width:2.15;stroke-linecap:butt;stroke-linejoin:miter;stroke-miterlimit:4;stroke-dasharray:none;stroke-opacity:1" /><path
             d="M 311.887,1357.55 548.766,1126.44 311.887,894.602 c -42.481,152.638 -42.481,310.318 0,462.948"
             id="path39"
             style="fill:#000000;fill-opacity:1;fill-rule:nonzero;stroke:none" /><path
             d="M 311.887,1357.55 548.766,1126.44 311.887,894.602 c -42.481,152.638 -42.481,310.318 0,462.948 z"
             id="path41"
             style="fill:none;stroke:#000000;stroke-width:2.15;stroke-linecap:butt;stroke-linejoin:miter;stroke-miterlimit:4;stroke-dasharray:none;stroke-opacity:1" /><path
             d="m 1473.25,1041.48 c 84.96,2.88 146.87,64.8 146.87,146.88 0,44.64 -22.32,84.23 -61.91,109.43 30.96,23.04 50.4,56.89 50.4,96.48 0,72.72 -61.92,135.36 -135.36,135.36 h -13.68 c -59.75,0 -110.16,-36.71 -129.61,-93.6 l 78.49,-25.2 c 5.76,22.32 28.08,39.6 54,42.48 h 5.03 c 33.84,0 59.77,-28.08 59.77,-59.04 0,-33.84 -25.93,-59.76 -59.77,-59.76 h -22.3 v -75.59 h 22.3 c 39.61,0 70.57,-30.97 70.57,-70.56 0,-39.6 -30.96,-70.57 -70.57,-70.57 -30.95,-2.88 -61.91,19.45 -70.55,47.52 l -78.48,-25.2 c 22.33,-59.04 78.48,-98.63 141.12,-98.63 h 13.68"
             id="path43"
             style="fill:#000000;fill-opacity:1;fill-rule:nonzero;stroke:none" /><path
             d="m 1473.25,1041.48 c 84.96,2.88 146.87,64.8 146.87,146.88 0,44.64 -22.32,84.23 -61.91,109.43 30.96,23.04 50.4,56.89 50.4,96.48 0,72.72 -61.92,135.36 -135.36,135.36 h -13.68 c -59.75,0 -110.16,-36.71 -129.61,-93.6 l 78.49,-25.2 c 5.76,22.32 28.08,39.6 54,42.48 h 5.03 c 33.84,0 59.77,-28.08 59.77,-59.04 0,-33.84 -25.93,-59.76 -59.77,-59.76 h -22.3 v -75.59 h 22.3 c 39.61,0 70.57,-30.97 70.57,-70.56 0,-39.6 -30.96,-70.57 -70.57,-70.57 -30.95,-2.88 -61.91,19.45 -70.55,47.52 l -78.48,-25.2 c 22.33,-59.04 78.48,-98.63 141.12,-98.63 z"
             id="path45"
             style="fill:none;stroke:#000000;stroke-width:2.15;stroke-linecap:butt;stroke-linejoin:miter;stroke-miterlimit:4;stroke-dasharray:none;stroke-opacity:1" /><path
             d="m 1098.12,1097.64 c 0,-22.33 17.3,-38.88 39.61,-38.88 8.65,0 17.28,2.15 23.05,7.92 2.15,-5.77 5.02,-10.81 5.02,-19.44 0,-20.16 -16.55,-36.73 -36.71,-36.73 -2.16,0 -2.16,0 -2.16,0 v -33.83 c 59.03,0 103.68,45.36 103.68,104.39 0,19.44 -5.04,39.6 -13.68,53.29 -11.51,17.28 -30.97,28.07 -54,28.07 -36,0 -64.81,-30.95 -64.81,-64.79"
             id="path47"
             style="fill:#000000;fill-opacity:1;fill-rule:nonzero;stroke:none" /><path
             d="m 1098.12,1097.64 c 0,-22.33 17.3,-38.88 39.61,-38.88 8.65,0 17.28,2.15 23.05,7.92 2.15,-5.77 5.02,-10.81 5.02,-19.44 0,-20.16 -16.55,-36.73 -36.71,-36.73 -2.16,0 -2.16,0 -2.16,0 v -33.83 c 59.03,0 103.68,45.36 103.68,104.39 0,19.44 -5.04,39.6 -13.68,53.29 -11.51,17.28 -30.97,28.07 -54,28.07 -36,0 -64.81,-30.95 -64.81,-64.79 z"
             id="path49"
             style="fill:none;stroke:#000000;stroke-width:2.15;stroke-linecap:butt;stroke-linejoin:miter;stroke-miterlimit:4;stroke-dasharray:none;stroke-opacity:1" /><path
             d="m 731.645,1484.27 c 14.402,107.29 172.082,98.64 172.082,-11.51 v -2.89 c -2.879,-36.72 -16.559,-70.56 -42.481,-98.64 L 641.645,1145.87 v -90 h 366.475 v 95.77 H 793.566 l 141.129,146.15 c 30.961,31.68 51.11,70.56 64.789,113.04 5.766,17.28 8.636,39.6 8.636,59.04 0,107.28 -84.225,192.24 -191.515,192.24 -92.878,0 -172.078,-64.8 -189.359,-158.39 l 104.399,-19.45"
             id="path51"
             style="fill:#000000;fill-opacity:1;fill-rule:nonzero;stroke:none" /><path
             d="m 731.645,1484.27 c 14.402,107.29 172.082,98.64 172.082,-11.51 v -2.89 c -2.879,-36.72 -16.559,-70.56 -42.481,-98.64 L 641.645,1145.87 v -90 h 366.475 v 95.77 H 793.566 l 141.129,146.15 c 30.961,31.68 51.11,70.56 64.789,113.04 5.766,17.28 8.636,39.6 8.636,59.04 0,107.28 -84.225,192.24 -191.515,192.24 -92.878,0 -172.078,-64.8 -189.359,-158.39 z"
             id="path53"
             style="fill:none;stroke:#000000;stroke-width:2.15;stroke-linecap:butt;stroke-linejoin:miter;stroke-miterlimit:4;stroke-dasharray:none;stroke-opacity:1" /></g></g></g></g></svg>
