<?xml version="1.0" encoding="UTF-8" standalone="no"?>
<!-- Created with Inkscape (http://www.inkscape.org/) -->

<svg
   version="1.0"
   width="100"
   height="100"
   id="svg2"
   xml:space="preserve"
   xmlns="http://www.w3.org/2000/svg"
   xmlns:svg="http://www.w3.org/2000/svg"><defs
     id="defs5"><clipPath
       id="clipPath19"><path
         d="M 0.492188,0 L 5953.0022,0 L 5953.0022,5952.75 L 0.492188,5952.75 L 0.492188,0 z"
         id="path21" /></clipPath></defs><g
     transform="matrix(0.16799636,0,0,-0.16798961,-0.00826978,100)"
     id="g11"><g
       transform="scale(0.1)"
       id="g13"><g
         id="g15"><g
           clip-path="url(#clipPath19)"
           id="g17"><path
             d="m 5949.71,2976.37 c 0,1641.85 -1330.99,2972.84 -2972.84,2972.84 C 1335.02,5949.21 4.03125,4618.22 4.03125,2976.37 4.03125,1334.53 1335.02,3.53125 2976.87,3.53125 4618.72,3.53125 5949.71,1334.53 5949.71,2976.37"
             id="path23"
             style="fill:#e23828;fill-opacity:1;fill-rule:nonzero;stroke:none" /><path
             d="m 5949.71,2976.37 c 0,1641.85 -1330.99,2972.84 -2972.84,2972.84 C 1335.02,5949.21 4.03125,4618.22 4.03125,2976.37 4.03125,1334.53 1335.02,3.53125 2976.87,3.53125 4618.72,3.53125 5949.71,1334.53 5949.71,2976.37 Z"
             id="path25"
             style="fill:none;stroke:#e23828;stroke-width:7.07819;stroke-linecap:round;stroke-linejoin:round;stroke-miterlimit:500;stroke-dasharray:none;stroke-opacity:1" /><path
             d="M 4416.59,1273.89 1274.38,4416.09 C 525.762,3530.84 580.492,2219.58 1400.28,1399.79 2220.07,580 3531.33,525.262 4416.59,1273.89"
             id="path27"
             style="fill:#ffffff;fill-opacity:1;fill-rule:nonzero;stroke:none" /><path
             d="M 4416.59,1273.89 1274.38,4416.09 C 525.762,3530.84 580.492,2219.58 1400.28,1399.79 2220.07,580 3531.33,525.262 4416.59,1273.89 Z"
             id="path29"
             style="fill:none;stroke:#ffffff;stroke-width:7.07819;stroke-linecap:round;stroke-linejoin:round;stroke-miterlimit:500;stroke-dasharray:none;stroke-opacity:1" /><path
             d="m 4679.36,1536.66 c 748.61,885.25 693.88,2196.51 -125.9,3016.3 -819.8,819.79 -2131.06,874.52 -3016.31,125.89 L 4679.36,1536.66"
             id="path31"
             style="fill:#ffffff;fill-opacity:1;fill-rule:nonzero;stroke:none" /><path
             d="m 4679.36,1536.66 c 748.61,885.25 693.88,2196.51 -125.9,3016.3 -819.8,819.79 -2131.06,874.52 -3016.31,125.89 z"
             id="path33"
             style="fill:none;stroke:#ffffff;stroke-width:7.07819;stroke-linecap:round;stroke-linejoin:round;stroke-miterlimit:500;stroke-dasharray:none;stroke-opacity:1" /><path
             d="m 3690.23,2000.25 -91.93,-74.58 19.49,-90.1 c 4.63,-21.46 2.97,-43.81 -4.82,-64.34 -7.36,-19.4 -16.02,-38.29 -25.87,-56.55 -14.77,-27.32 -38.03,-49.1 -66.25,-62.07 -26.15,-12.02 -52.29,-24.09 -78.41,-36.22 l -71.83,334.86 c -4.24,19.75 -3.69,40.22 1.59,59.72 4.86,17.95 15.75,33.68 30.84,44.56 l 126.91,104.99 160.28,-160.27"
             id="path35"
             style="fill:#000000;fill-opacity:1;fill-rule:nonzero;stroke:none" /><path
             d="m 3690.23,2000.25 -91.93,-74.58 19.49,-90.1 c 4.63,-21.46 2.97,-43.81 -4.82,-64.34 -7.36,-19.4 -16.02,-38.29 -25.87,-56.55 -14.77,-27.32 -38.03,-49.1 -66.25,-62.07 -26.15,-12.02 -52.29,-24.09 -78.41,-36.22 l -71.83,334.86 c -4.24,19.75 -3.69,40.22 1.59,59.72 4.86,17.95 15.75,33.68 30.84,44.56 l 126.91,104.99 z"
             id="path37"
             style="fill:none;stroke:#000000;stroke-width:4.49799;stroke-linecap:round;stroke-linejoin:round;stroke-miterlimit:500;stroke-dasharray:none;stroke-opacity:1" /><path
             d="m 3086.46,2604.02 -1095.33,1095.33 121.65,-352.67 c 1.55,-91.69 8.87,-183.2 21.91,-273.97 14.32,-108.42 60.51,-210.13 132.72,-292.25 l -325.87,-39.16 c -26.59,-2.87 -52.22,-11.53 -75.1,-25.38 -17.96,-10.88 -33.76,-24.98 -46.6,-41.6 -16.13,-20.86 -24.88,-46.47 -24.88,-72.85 v -485.84 c -5.73,-53.67 18.63,-106.12 63.32,-136.38 l 241.1,-163.16 32.7,65.21 c 8.4,21.66 11.2,45.07 8.14,68.1 -2.84,21.31 -8.28,42.19 -16.21,62.18 -9.88,24.91 -25.39,47.19 -45.33,65.09 l -59.66,53.57 v 381.12 h 534.54 l 298.33,-775.63 -113.25,-213.09 150.8,2.32 c 16.31,1.95 32.14,6.79 46.74,14.32 25.79,13.27 49.46,30.31 70.25,50.53 24.61,23.97 42.66,53.85 52.47,86.78 10.53,35.35 12.71,72.67 6.38,109.03 -6.65,38.24 -16.95,75.76 -30.75,112.05 l -265.44,697.72 c 105.82,-7.05 212.08,-4.17 317.37,8.63"
             id="path39"
             style="fill:#000000;fill-opacity:1;fill-rule:nonzero;stroke:none" /><path
             d="m 3086.46,2604.02 -1095.33,1095.33 121.65,-352.67 c 1.55,-91.69 8.87,-183.2 21.91,-273.97 14.32,-108.42 60.51,-210.13 132.72,-292.25 l -325.87,-39.16 c -26.59,-2.87 -52.22,-11.53 -75.1,-25.38 -17.96,-10.88 -33.76,-24.98 -46.6,-41.6 -16.13,-20.86 -24.88,-46.47 -24.88,-72.85 v -485.84 c -5.73,-53.67 18.63,-106.12 63.32,-136.38 l 241.1,-163.16 32.7,65.21 c 8.4,21.66 11.2,45.07 8.14,68.1 -2.84,21.31 -8.28,42.19 -16.21,62.18 -9.88,24.91 -25.39,47.19 -45.33,65.09 l -59.66,53.57 v 381.12 h 534.54 l 298.33,-775.63 -113.25,-213.09 150.8,2.32 c 16.31,1.95 32.14,6.79 46.74,14.32 25.79,13.27 49.46,30.31 70.25,50.53 24.61,23.97 42.66,53.85 52.47,86.78 10.53,35.35 12.71,72.67 6.38,109.03 -6.65,38.24 -16.95,75.76 -30.75,112.05 l -265.44,697.72 c 105.82,-7.05 212.08,-4.17 317.37,8.63 z"
             id="path41"
             style="fill:none;stroke:#000000;stroke-width:7.07819;stroke-linecap:round;stroke-linejoin:round;stroke-miterlimit:500;stroke-dasharray:none;stroke-opacity:1" /><path
             d="m 1947.19,3743.29 -351.13,351.13 -115.25,-543.18 c -13.51,-63.69 18.32,-128.36 77.03,-156.5 51.26,-24.57 111.62,-20.62 159.24,10.41 48.83,31.82 73.39,90.14 62.06,147.31 l 168.05,190.83"
             id="path43"
             style="fill:#000000;fill-opacity:1;fill-rule:nonzero;stroke:none" /><path
             d="m 1947.19,3743.29 -351.13,351.13 -115.25,-543.18 c -13.51,-63.69 18.32,-128.36 77.03,-156.5 51.26,-24.57 111.62,-20.62 159.24,10.41 48.83,31.82 73.39,90.14 62.06,147.31 z"
             id="path45"
             style="fill:none;stroke:#000000;stroke-width:6.66519;stroke-linecap:round;stroke-linejoin:round;stroke-miterlimit:500;stroke-dasharray:none;stroke-opacity:1" /><path
             d="m 3524.57,2691.42 34.99,6.28 76.5,6.06 69.97,-193.79 274.33,-274.32 5.16,4.18 c 5.5,5.89 11.06,11.74 16.68,17.51 8.3,8.53 13.56,19.55 15,31.36 2.81,23.18 1.15,46.69 -4.89,69.25 l -68.19,254.49 360.42,-359.22 93.51,-435.26 194.41,-194.42 c 9.6,13.38 17.82,27.7 24.49,42.74 13.94,31.32 21.45,65.12 22.09,99.4 0.61,32.42 -2.11,64.82 -8.17,96.68 l -91.32,427.39 c -7.35,34.38 -18.37,67.85 -32.87,99.86 l -160.74,235 v 638.05 l 70.63,-1.22 c 29.57,-0.51 57.18,-14.93 74.5,-38.91 15.4,-21.32 26.22,-45.59 31.8,-71.28 7.3,-33.58 9.86,-68.01 7.65,-102.3 -3.54,-54.48 -8.86,-108.83 -15.95,-162.96 -5.63,-42.98 -7.87,-86.34 -6.72,-129.68 2.14,-79.14 25.72,-156.23 68.23,-223.03 33.46,-52.57 89.02,-87.07 150.99,-93.75 v 585.69 c 0,73.43 -16.58,145.91 -48.5,212.04 -29.54,61.17 -80.82,109.12 -143.83,134.48 -65.23,26.25 -136.02,35.64 -205.84,27.3 -98.32,82.01 -215.81,137.79 -341.52,162.13 -130.25,25.45 -264.33,24.04 -394.02,-4.12 l -218.21,-35.05 26.65,24.18 c 48.05,50.79 66.29,122.89 48.15,190.42 l -143,678.71 c -29.32,94.54 -123.78,153.05 -221.49,137.21 -97.7,-15.85 -168.82,-101.23 -166.77,-200.19 l 57.8,-278.59 -356.35,-189.22 c -91.77,145.81 -214.32,269.79 -359.05,363.26 -118.39,66.78 -252.8,99.9 -388.66,95.8 L 3524.57,2691.42"
             id="path47"
             style="fill:#000000;fill-opacity:1;fill-rule:nonzero;stroke:none" /><path
             d="m 3524.57,2691.42 34.99,6.28 76.5,6.06 69.97,-193.79 274.33,-274.32 5.16,4.18 c 5.5,5.89 11.06,11.74 16.68,17.51 8.3,8.53 13.56,19.55 15,31.36 2.81,23.18 1.15,46.69 -4.89,69.25 l -68.19,254.49 360.42,-359.22 93.51,-435.26 194.41,-194.42 c 9.6,13.38 17.82,27.7 24.49,42.74 13.94,31.32 21.45,65.12 22.09,99.4 0.61,32.42 -2.11,64.82 -8.17,96.68 l -91.32,427.39 c -7.35,34.38 -18.37,67.85 -32.87,99.86 l -160.74,235 v 638.05 l 70.63,-1.22 c 29.57,-0.51 57.18,-14.93 74.5,-38.91 15.4,-21.32 26.22,-45.59 31.8,-71.28 7.3,-33.58 9.86,-68.01 7.65,-102.3 -3.54,-54.48 -8.86,-108.83 -15.95,-162.96 -5.63,-42.98 -7.87,-86.34 -6.72,-129.68 2.14,-79.14 25.72,-156.23 68.23,-223.03 33.46,-52.57 89.02,-87.07 150.99,-93.75 v 585.69 c 0,73.43 -16.58,145.91 -48.5,212.04 -29.54,61.17 -80.82,109.12 -143.83,134.48 -65.23,26.25 -136.02,35.64 -205.84,27.3 -98.32,82.01 -215.81,137.79 -341.52,162.13 -130.25,25.45 -264.33,24.04 -394.02,-4.12 l -218.21,-35.05 26.65,24.18 c 48.05,50.79 66.29,122.89 48.15,190.42 l -143,678.71 c -29.32,94.54 -123.78,153.05 -221.49,137.21 -97.7,-15.85 -168.82,-101.23 -166.77,-200.19 l 57.8,-278.59 -356.35,-189.22 c -91.77,145.81 -214.32,269.79 -359.05,363.26 -118.39,66.78 -252.8,99.9 -388.66,95.8 z"
             id="path49"
             style="fill:none;stroke:#000000;stroke-width:7.07819;stroke-linecap:round;stroke-linejoin:round;stroke-miterlimit:500;stroke-dasharray:none;stroke-opacity:1" /><path
             d="m 3237.45,4807.99 c 0,115.52 -93.64,209.16 -209.15,209.16 -115.52,0 -209.16,-93.64 -209.16,-209.16 0,-115.51 93.64,-209.16 209.16,-209.16 115.51,0 209.15,93.65 209.15,209.16"
             id="path51"
             style="fill:#000000;fill-opacity:1;fill-rule:nonzero;stroke:none" /><path
             d="m 3237.45,4807.99 c 0,115.52 -93.64,209.16 -209.15,209.16 -115.52,0 -209.16,-93.64 -209.16,-209.16 0,-115.51 93.64,-209.16 209.16,-209.16 115.51,0 209.15,93.65 209.15,209.16 z"
             id="path53"
             style="fill:none;stroke:#000000;stroke-width:7.07819;stroke-linecap:round;stroke-linejoin:round;stroke-miterlimit:500;stroke-dasharray:none;stroke-opacity:1" /><path
             d="m 2901.11,3605.82 153.19,92.25 -42.24,196.35 -287.11,-152.14 c 51.51,-54.1 110.9,-100.1 176.16,-136.46"
             id="path55"
             style="fill:#ffffff;fill-opacity:1;fill-rule:nonzero;stroke:none" /><path
             d="m 2901.11,3605.82 153.19,92.25 -42.24,196.35 -287.11,-152.14 c 51.51,-54.1 110.9,-100.1 176.16,-136.46 z"
             id="path57"
             style="fill:none;stroke:#ffffff;stroke-width:4.57425;stroke-linecap:round;stroke-linejoin:round;stroke-miterlimit:500;stroke-dasharray:none;stroke-opacity:1" /></g></g></g></g></svg>
