<?xml version="1.0" encoding="UTF-8" standalone="no"?>
<!-- Created with Inkscape (http://www.inkscape.org/) -->

<svg
   version="1.0"
   width="100"
   height="100"
   id="svg2"
   xml:space="preserve"
   xmlns="http://www.w3.org/2000/svg"
   xmlns:svg="http://www.w3.org/2000/svg"><defs
     id="defs5"><clipPath
       id="clipPath19"><path
         d="M 0.496094,0 L 2272.8,0 L 2272.8,2272.31 L 0.496094,2272.31 L 0.496094,0 z"
         id="path21" /></clipPath></defs><g
     transform="matrix(0.44008198,0,0,-0.44008198,-0.0218322,100.00005)"
     id="g11"><g
       transform="scale(0.1)"
       id="g13"><g
         id="g15"><g
           clip-path="url(#clipPath19)"
           id="g17"><path
             d="m 2271.73,1135.07 c 0,624.96 -511.2,1136.16 -1136.16,1136.16 C 512.766,2271.23 1.56641,1760.03 1.56641,1135.07 1.56641,512.281 512.766,1.07031 1135.57,1.07031 c 624.96,0 1136.16,511.21069 1136.16,1133.99969"
             id="path23"
             style="fill:#e23828;fill-opacity:1;fill-rule:nonzero;stroke:none" /><path
             d="m 2271.73,1135.07 c 0,624.96 -511.2,1136.16 -1136.16,1136.16 C 512.766,2271.23 1.56641,1760.03 1.56641,1135.07 1.56641,512.281 512.766,1.07031 1135.57,1.07031 c 624.96,0 1136.16,511.21069 1136.16,1133.99969 z"
             id="path25"
             style="fill:none;stroke:#e23828;stroke-width:2.15;stroke-linecap:butt;stroke-linejoin:miter;stroke-miterlimit:4;stroke-dasharray:none;stroke-opacity:1" /><path
             d="m 1987.32,1135.07 c 0,468.72 -383.03,851.77 -851.75,851.77 -466.562,0 -849.605,-383.04 -849.605,-851.77 0,-466.55 383.043,-849.601 849.605,-849.601 468.72,0 851.75,383.051 851.75,849.601"
             id="path27"
             style="fill:#ffffff;fill-opacity:1;fill-rule:nonzero;stroke:none" /><path
             d="m 1987.32,1135.07 c 0,468.72 -383.03,851.77 -851.75,851.77 -466.562,0 -849.605,-383.04 -849.605,-851.77 0,-466.55 383.043,-849.601 849.605,-849.601 468.72,0 851.75,383.051 851.75,849.601 z"
             id="path29"
             style="fill:none;stroke:#e23828;stroke-width:2.15;stroke-linecap:butt;stroke-linejoin:miter;stroke-miterlimit:4;stroke-dasharray:none;stroke-opacity:1" /><path
             d="m 748.926,1472.77 c 33.84,20.15 71.281,25.91 108,20.15 28.082,-8.64 54,-17.28 76.32,-28.8 l 79.924,142.56 c -62.635,39.6 -136.795,59.04 -213.123,59.04 -14.402,0 -28.801,0 -45.359,0 -59.762,-2.16 -119.52,-28.08 -167.77,-67.68 -68.402,-62.64 -116.641,-145.44 -136.801,-236.16 -7.922,-48.24 -16.562,-96.46 -22.32,-141.84 -2.879,-36.71 -5.762,-71.27 -5.762,-107.99 0,-45.36 2.883,-90.73 8.641,-136.089 8.64,-65.52 28.082,-131.039 59.762,-187.922 45.359,-82.078 118.796,-138.961 207.359,-161.988 25.199,-5.77 48.238,-8.653 73.437,-8.653 34.563,0 71.282,5.762 102.243,17.282 82.8,23.05 151.213,79.199 190.803,156.242 28.08,65.527 42.48,136.078 42.48,204.488 0,2.879 0,2.879 0,5.75 -8.64,65.53 -30.96,128.17 -65.51,185.05 -22.33,36.72 -51.133,64.8 -87.855,87.84 -39.598,22.32 -84.957,36.72 -131.04,36.72 -5.039,0 -7.917,0 -13.679,0 -37.442,0 -74.16,-8.64 -108,-22.32 -25.918,-11.52 -48.238,-25.91 -65.52,-46.08 5.762,46.08 17.282,88.56 30.961,131.04 14.41,42.48 43.199,79.2 82.801,99.37"
             id="path31"
             style="fill:#000000;fill-opacity:1;fill-rule:nonzero;stroke:none" /><path
             d="m 748.926,1472.77 c 33.84,20.15 71.281,25.91 108,20.15 28.082,-8.64 54,-17.28 76.32,-28.8 l 79.924,142.56 c -62.635,39.6 -136.795,59.04 -213.123,59.04 -14.402,0 -28.801,0 -45.359,0 -59.762,-2.16 -119.52,-28.08 -167.77,-67.68 -68.402,-62.64 -116.641,-145.44 -136.801,-236.16 -7.922,-48.24 -16.562,-96.46 -22.32,-141.84 -2.879,-36.71 -5.762,-71.27 -5.762,-107.99 0,-45.36 2.883,-90.73 8.641,-136.089 8.64,-65.52 28.082,-131.039 59.762,-187.922 45.359,-82.078 118.796,-138.961 207.359,-161.988 25.199,-5.77 48.238,-8.653 73.437,-8.653 34.563,0 71.282,5.762 102.243,17.282 82.8,23.05 151.213,79.199 190.803,156.242 28.08,65.527 42.48,136.078 42.48,204.488 0,2.879 0,2.879 0,5.75 -8.64,65.53 -30.96,128.17 -65.51,185.05 -22.33,36.72 -51.133,64.8 -87.855,87.84 -39.598,22.32 -84.957,36.72 -131.04,36.72 -5.039,0 -7.917,0 -13.679,0 -37.442,0 -74.16,-8.64 -108,-22.32 -25.918,-11.52 -48.238,-25.91 -65.52,-46.08 5.762,46.08 17.282,88.56 30.961,131.04 14.41,42.48 43.199,79.2 82.801,99.37 z"
             id="path33"
             style="fill:none;stroke:#000000;stroke-width:2.15;stroke-linecap:butt;stroke-linejoin:miter;stroke-miterlimit:4;stroke-dasharray:none;stroke-opacity:1" /><path
             d="m 1512.85,614.512 c 46.08,0 88.56,11.527 125.27,34.558 42.49,22.328 79.2,56.879 110.89,93.61 22.31,30.949 39.6,65.511 56.88,99.359 11.52,25.91 19.43,51.109 22.32,77.031 14.4,67.68 23.04,136.09 23.04,204.49 0,45.36 -2.88,90.71 -11.52,136.07 -2.88,54 -16.56,110.88 -33.84,162.01 -14.41,39.6 -36.72,77.04 -59.77,110.89 -30.94,42.47 -68.39,77.03 -113.75,105.11 -36.73,17.28 -76.32,28.08 -119.52,30.96 -39.6,-2.88 -79.21,-13.68 -115.92,-30.96 -46.08,-25.92 -85.68,-62.64 -116.63,-105.11 -23.05,-33.85 -42.5,-71.29 -59.76,-110.89 -17.29,-51.12 -28.81,-105.12 -33.85,-162.01 -5.76,-42.48 -8.64,-90.71 -8.64,-136.07 0,-68.4 5.75,-136.81 19.43,-204.49 2.89,-25.922 11.53,-51.121 25.93,-77.031 14.39,-33.848 33.84,-68.41 56.89,-99.359 28.07,-39.602 65.5,-71.282 107.99,-93.61 39.6,-23.031 82.08,-34.558 124.56,-34.558"
             id="path35"
             style="fill:#000000;fill-opacity:1;fill-rule:nonzero;stroke:none" /><path
             d="m 1512.85,614.512 c 46.08,0 88.56,11.527 125.27,34.558 42.49,22.328 79.2,56.879 110.89,93.61 22.31,30.949 39.6,65.511 56.88,99.359 11.52,25.91 19.43,51.109 22.32,77.031 14.4,67.68 23.04,136.09 23.04,204.49 0,45.36 -2.88,90.71 -11.52,136.07 -2.88,54 -16.56,110.88 -33.84,162.01 -14.41,39.6 -36.72,77.04 -59.77,110.89 -30.94,42.47 -68.39,77.03 -113.75,105.11 -36.73,17.28 -76.32,28.08 -119.52,30.96 -39.6,-2.88 -79.21,-13.68 -115.92,-30.96 -46.08,-25.92 -85.68,-62.64 -116.63,-105.11 -23.05,-33.85 -42.5,-71.29 -59.76,-110.89 -17.29,-51.12 -28.81,-105.12 -33.85,-162.01 -5.76,-42.48 -8.64,-90.71 -8.64,-136.07 0,-68.4 5.75,-136.81 19.43,-204.49 2.89,-25.922 11.53,-51.121 25.93,-77.031 14.39,-33.848 33.84,-68.41 56.89,-99.359 28.07,-39.602 65.5,-71.282 107.99,-93.61 39.6,-23.031 82.08,-34.558 124.56,-34.558 z"
             id="path37"
             style="fill:none;stroke:#000000;stroke-width:2.15;stroke-linecap:butt;stroke-linejoin:miter;stroke-miterlimit:4;stroke-dasharray:none;stroke-opacity:1" /><path
             d="m 669.008,862.191 c 20.16,-40.312 59.758,-65.511 102.238,-65.511 2.879,0 2.879,0 5.762,0 28.797,0 56.879,11.511 74.16,30.961 30.957,31.679 48.227,68.398 54.008,110.879 0,11.511 2.871,20.152 2.871,31.679 0,39.601 -14.402,82.081 -36.731,115.911 -20.148,28.8 -48.961,46.08 -79.91,51.13 -2.879,0 -5.761,0 -11.519,0 -30.961,0 -62.641,-13.68 -84.961,-36.73 -25.918,-28.08 -42.481,-65.51 -45.36,-105.112 0,-11.527 -2.878,-19.449 -2.878,-30.968 0,-34.559 8.636,-68.391 22.32,-102.239"
             id="path39"
             style="fill:#ffffff;fill-opacity:1;fill-rule:nonzero;stroke:none" /><path
             d="m 669.008,862.191 c 20.16,-40.312 59.758,-65.511 102.238,-65.511 2.879,0 2.879,0 5.762,0 28.797,0 56.879,11.511 74.16,30.961 30.957,31.679 48.227,68.398 54.008,110.879 0,11.511 2.871,20.152 2.871,31.679 0,39.601 -14.402,82.081 -36.731,115.911 -20.148,28.8 -48.961,46.08 -79.91,51.13 -2.879,0 -5.761,0 -11.519,0 -30.961,0 -62.641,-13.68 -84.961,-36.73 -25.918,-28.08 -42.481,-65.51 -45.36,-105.112 0,-11.527 -2.878,-19.449 -2.878,-30.968 0,-34.559 8.636,-68.391 22.32,-102.239 z"
             id="path41"
             style="fill:none;stroke:#000000;stroke-width:2.15;stroke-linecap:butt;stroke-linejoin:miter;stroke-miterlimit:4;stroke-dasharray:none;stroke-opacity:1" /><path
             d="m 1572.61,1450.43 8.64,-11.52 5.76,-8.64 8.63,-11.52 5.77,-14.4 5.76,-10.8 5.04,-14.4 5.75,-11.52 5.77,-14.39 2.88,-13.69 2.87,-14.39 5.77,-14.41 2.87,-14.4 2.89,-10.79 v -14.41 l 2.88,-11.52 2.88,-14.4 v -10.79 l 2.87,-11.52 v -28.8 l 2.89,-7.92 v -116.64 l -2.89,-5.77 V 1035 l -2.87,-5.04 v -23.05 l -2.88,-5.76 v -11.521 l -2.88,-5.758 v -10.793 l -2.89,-5.769 v -5.758 l -2.87,-5.75 v -8.653 l -2.88,-5.75 v -5.757 l -2.89,-5.77 -2.87,-7.922 -2.88,-5.75 v -5.769 l -2.88,-5.758 -2.89,-5.75 -2.87,-5.774 v -5.757 l -2.88,-5.75 -2.16,-5.77 -2.88,-2.883 -2.88,-5.039 v -5.758 l -2.88,-2.871 -2.88,-5.761 -5.76,-2.887 -2.88,-5.762 -2.88,-5.75 -5.76,-2.89 -2.88,-5.758 -5.76,-2.871 -2.88,-5.762 -5.77,-2.16 -2.87,-5.758 -5.04,-2.891 -5.75,-2.879 h -2.89 l -5.77,-2.882 -2.87,-2.879 h -2.88 l -5.77,-2.871 h -5.75 l -2.89,-2.879 h -16.54 l -2.89,2.879 h -8.64 l -2.87,2.871 h -2.9 l -5.75,2.879 -2.88,2.882 h -5.76 l -2.88,2.879 -5.76,2.891 -2.88,5.758 -5.77,2.16 -5.03,5.762 -2.88,2.871 -5.76,5.758 -2.88,2.89 -2.88,5.75 -5.75,5.762 -2.89,2.887 -2.88,5.761 -2.89,2.871 -2.87,5.758 v 5.039 l -2.88,2.883 -2.89,5.77 -2.87,5.75 -2.88,5.757 v 5.774 l -2.88,5.75 -2.89,5.758 -2.14,5.769 v 5.75 l -2.89,7.922 -2.88,5.77 v 5.757 l -2.88,5.75 v 8.653 l -2.88,5.75 v 5.758 l -2.87,5.769 v 5.043 l -2.89,5.75 v 11.527 l -2.89,5.752 v 23.04 l -2.87,5.77 v 25.2 l -2.88,8.63 v 130.33 l 2.88,8.64 v 20.16 l 2.87,11.52 v 10.79 l 2.89,14.4 v 11.52 l 2.89,14.41 2.87,10.79 2.88,14.4 2.88,14.41 5.77,14.39 2.14,13.69 5.77,14.39 5.75,11.52 5.77,14.4 5.76,10.8 5.77,14.4 5.75,11.52 8.65,8.64 5.75,11.52 7.92,7.92 8.63,5.76 5.77,5.76 8.64,5.76 8.65,5.76 5.75,2.88 h 30.96 l 8.64,-2.87 8.64,-5.76 8.64,-5.76 5.76,-5.76 7.92,-5.76 5.76,-7.92"
             id="path43"
             style="fill:#ffffff;fill-opacity:1;fill-rule:nonzero;stroke:none" /><path
             d="m 1572.61,1450.43 8.64,-11.52 5.76,-8.64 8.63,-11.52 5.77,-14.4 5.76,-10.8 5.04,-14.4 5.75,-11.52 5.77,-14.39 2.88,-13.69 2.87,-14.39 5.77,-14.41 2.87,-14.4 2.89,-10.79 v -14.41 l 2.88,-11.52 2.88,-14.4 v -10.79 l 2.87,-11.52 v -28.8 l 2.89,-7.92 v -116.64 l -2.89,-5.77 V 1035 l -2.87,-5.04 v -23.05 l -2.88,-5.76 v -11.521 l -2.88,-5.758 v -10.793 l -2.89,-5.769 v -5.758 l -2.87,-5.75 v -8.653 l -2.88,-5.75 v -5.757 l -2.89,-5.77 -2.87,-7.922 -2.88,-5.75 v -5.769 l -2.88,-5.758 -2.89,-5.75 -2.87,-5.774 v -5.757 l -2.88,-5.75 -2.16,-5.77 -2.88,-2.883 -2.88,-5.039 v -5.758 l -2.88,-2.871 -2.88,-5.761 -5.76,-2.887 -2.88,-5.762 -2.88,-5.75 -5.76,-2.89 -2.88,-5.758 -5.76,-2.871 -2.88,-5.762 -5.77,-2.16 -2.87,-5.758 -5.04,-2.891 -5.75,-2.879 h -2.89 l -5.77,-2.882 -2.87,-2.879 h -2.88 l -5.77,-2.871 h -5.75 v 0 l -2.89,-2.879 h -2.87 -5.76 -2.89 -2.87 -2.15 l -2.89,2.879 h -8.64 l -2.87,2.871 h -2.9 l -5.75,2.879 -2.88,2.882 h -5.76 l -2.88,2.879 -5.76,2.891 -2.88,5.758 -5.77,2.16 -5.03,5.762 -2.88,2.871 -5.76,5.758 -2.88,2.89 -2.88,5.75 -5.75,5.762 -2.89,2.887 -2.88,5.761 -2.89,2.871 -2.87,5.758 v 5.039 l -2.88,2.883 -2.89,5.77 -2.87,5.75 -2.88,5.757 v 5.774 l -2.88,5.75 -2.89,5.758 -2.14,5.769 v 5.75 l -2.89,7.922 -2.88,5.77 v 5.757 l -2.88,5.75 v 8.653 l -2.88,5.75 v 5.758 l -2.87,5.769 v 5.043 l -2.89,5.75 v 11.527 l -2.89,5.752 v 23.04 l -2.87,5.77 v 25.2 l -2.88,8.63 v 130.33 l 2.88,8.64 v 20.16 l 2.87,11.52 v 10.79 l 2.89,14.4 v 11.52 l 2.89,14.41 2.87,10.79 2.88,14.4 2.88,14.41 5.77,14.39 2.14,13.69 5.77,14.39 5.75,11.52 5.77,14.4 5.76,10.8 5.77,14.4 5.75,11.52 8.65,8.64 5.75,11.52 7.92,7.92 8.63,5.76 5.77,5.76 8.64,5.76 8.65,5.76 5.75,2.88 h 30.96 l 8.64,-2.87 8.64,-5.76 8.64,-5.76 5.76,-5.76 7.92,-5.76 5.76,-7.92 z"
             id="path45"
             style="fill:none;stroke:#000000;stroke-width:2.15;stroke-linecap:butt;stroke-linejoin:miter;stroke-miterlimit:4;stroke-dasharray:none;stroke-opacity:1" /></g></g></g></g></svg>
