<?xml version="1.0" encoding="UTF-8" standalone="no"?>
<!-- Created with Inkscape (http://www.inkscape.org/) -->

<svg
   version="1.0"
   width="100"
   height="100"
   id="svg2"
   xml:space="preserve"
   xmlns="http://www.w3.org/2000/svg"
   xmlns:svg="http://www.w3.org/2000/svg"><defs
     id="defs5" /><g
     transform="matrix(0.44147972,0,0,-0.44147972,2.0705609e-4,99.999351)"
     id="g11"><g
       transform="scale(0.1)"
       id="g13"><path
         d="m 2264.03,1132.18 c 0,623.52 -508.32,1131.84 -1131.84,1131.84 C 509.391,2264.02 1.07031,1755.7 1.07031,1132.18 1.07031,509.391 509.391,1.07031 1132.19,1.07031 c 623.52,0 1131.84,508.32069 1131.84,1131.10969"
         id="path15"
         style="fill:#e23828;fill-opacity:1;fill-rule:nonzero;stroke:none" /><path
         d="m 2264.03,1132.18 c 0,623.52 -508.32,1131.84 -1131.84,1131.84 C 509.391,2264.02 1.07031,1755.7 1.07031,1132.18 1.07031,509.391 509.391,1.07031 1132.19,1.07031 c 623.52,0 1131.84,508.32069 1131.84,1131.10969 z"
         id="path17"
         style="fill:none;stroke:#e23828;stroke-width:2.15;stroke-linecap:butt;stroke-linejoin:miter;stroke-miterlimit:4;stroke-dasharray:none;stroke-opacity:1" /><path
         d="m 1981.07,1132.18 c 0,467.29 -380.88,848.89 -848.88,848.89 -467.28,0 -848.159,-381.61 -848.159,-848.89 0,-466.547 380.879,-848.149 848.159,-848.149 468,0 848.88,381.602 848.88,848.149"
         id="path19"
         style="fill:#ffffff;fill-opacity:1;fill-rule:nonzero;stroke:none" /><path
         d="m 1981.07,1132.18 c 0,467.29 -380.88,848.89 -848.88,848.89 -467.28,0 -848.159,-381.61 -848.159,-848.89 0,-466.547 380.879,-848.149 848.159,-848.149 468,0 848.88,381.602 848.88,848.149 z"
         id="path21"
         style="fill:none;stroke:#e23828;stroke-width:2.15;stroke-linecap:butt;stroke-linejoin:miter;stroke-miterlimit:4;stroke-dasharray:none;stroke-opacity:1" /><path
         d="m 1655.63,1339.55 c -0.72,22.32 -12.24,42.49 -30.24,54 l 46.08,0.71 v -54.71 h -15.84"
         id="path23"
         style="fill:#000000;fill-opacity:1;fill-rule:nonzero;stroke:none" /><path
         d="m 1655.63,1339.55 c -0.72,22.32 -12.24,42.49 -30.24,54 l 46.08,0.71 v -54.71 z"
         id="path25"
         style="fill:none;stroke:#000000;stroke-width:2.15;stroke-linecap:butt;stroke-linejoin:miter;stroke-miterlimit:4;stroke-dasharray:none;stroke-opacity:1" /><path
         d="m 1256.03,1339.55 c 0.72,22.32 11.52,42.49 28.08,54 l -42.48,0.71 v -54.71 h 14.4"
         id="path27"
         style="fill:#000000;fill-opacity:1;fill-rule:nonzero;stroke:none" /><path
         d="m 1256.03,1339.55 c 0.72,22.32 11.52,42.49 28.08,54 l -42.48,0.71 v -54.71 z"
         id="path29"
         style="fill:none;stroke:#000000;stroke-width:2.15;stroke-linecap:butt;stroke-linejoin:miter;stroke-miterlimit:4;stroke-dasharray:none;stroke-opacity:1" /><path
         d="m 1519.56,1339.55 h -130.33 c -1.44,22.32 -12.24,42.49 -30.96,54 l 192.24,0.71 c -18.72,-12.23 -29.52,-32.39 -30.95,-54.71"
         id="path31"
         style="fill:#000000;fill-opacity:1;fill-rule:nonzero;stroke:none" /><path
         d="m 1519.56,1339.55 h -130.33 c -1.44,22.32 -12.24,42.49 -30.96,54 l 192.24,0.71 c -18.72,-12.23 -29.52,-32.39 -30.95,-54.71 z"
         id="path33"
         style="fill:none;stroke:#000000;stroke-width:2.15;stroke-linecap:butt;stroke-linejoin:miter;stroke-miterlimit:4;stroke-dasharray:none;stroke-opacity:1" /><path
         d="m 1091.15,1339.55 c -0.72,22.32 -12.24,42.49 -30.24,54 l 105.12,0.71 v -54.71 h -74.88"
         id="path35"
         style="fill:#000000;fill-opacity:1;fill-rule:nonzero;stroke:none" /><path
         d="m 1091.15,1339.55 c -0.72,22.32 -12.24,42.49 -30.24,54 l 105.12,0.71 v -54.71 z"
         id="path37"
         style="fill:none;stroke:#000000;stroke-width:2.15;stroke-linecap:butt;stroke-linejoin:miter;stroke-miterlimit:4;stroke-dasharray:none;stroke-opacity:1" /><path
         d="M 955.07,1339.55 H 747.711 v 54.71 h 238.32 c -18.722,-12.23 -30.242,-32.39 -30.961,-54.71"
         id="path39"
         style="fill:#000000;fill-opacity:1;fill-rule:nonzero;stroke:none" /><path
         d="M 955.07,1339.55 H 747.711 v 54.71 h 238.32 c -18.722,-12.23 -30.242,-32.39 -30.961,-54.71 z"
         id="path41"
         style="fill:none;stroke:#000000;stroke-width:2.15;stroke-linecap:butt;stroke-linejoin:miter;stroke-miterlimit:4;stroke-dasharray:none;stroke-opacity:1" /><path
         d="m 718.91,1350.35 c 0,-5.76 -4.32,-10.8 -10.082,-10.8 h -7.918 c -1.441,36.72 -31.68,65.52 -68.398,65.52 -36,0 -66.242,-28.8 -67.684,-65.52 h -18.719 c -19.437,0 -34.558,15.85 -34.558,35.28 v 86.4 l 29.519,95.76 c 5.039,14.4 18.711,23.76 33.84,23.76 h 109.442 c 19.437,0 34.558,-15.12 34.558,-34.55 v -195.84"
         id="path43"
         style="fill:#000000;fill-opacity:1;fill-rule:nonzero;stroke:none" /><path
         d="m 718.91,1350.35 c 0,-5.76 -4.32,-10.8 -10.082,-10.8 h -7.918 c -1.441,36.72 -31.68,65.52 -68.398,65.52 -36,0 -66.242,-28.8 -67.684,-65.52 h -18.719 c -19.437,0 -34.558,15.85 -34.558,35.28 v 86.4 l 29.519,95.76 c 5.039,14.4 18.711,23.76 33.84,23.76 h 109.442 c 19.437,0 34.558,-15.12 34.558,-34.55 v -195.84 z"
         id="path45"
         style="fill:none;stroke:#000000;stroke-width:2.15;stroke-linecap:butt;stroke-linejoin:miter;stroke-miterlimit:4;stroke-dasharray:none;stroke-opacity:1" /><path
         d="m 1242.35,1420.19 v 216 c 0,19.44 15.84,35.28 35.28,35.28 h 358.56 c 19.44,0 35.28,-15.84 35.28,-35.28 v -216 h -429.12"
         id="path47"
         style="fill:#000000;fill-opacity:1;fill-rule:nonzero;stroke:none" /><path
         d="m 1242.35,1420.19 v 216 c 0,19.44 15.84,35.28 35.28,35.28 h 358.56 c 19.44,0 35.28,-15.84 35.28,-35.28 v -216 z"
         id="path49"
         style="fill:none;stroke:#000000;stroke-width:2.15;stroke-linecap:butt;stroke-linejoin:miter;stroke-miterlimit:4;stroke-dasharray:none;stroke-opacity:1" /><path
         d="M 1166.03,1420.19 H 747.711 v 216 c 0,19.44 15.117,35.28 34.559,35.28 h 348.49 c 19.43,0 35.27,-15.84 35.27,-35.28 v -216"
         id="path51"
         style="fill:#000000;fill-opacity:1;fill-rule:nonzero;stroke:none" /><path
         d="M 1166.03,1420.19 H 747.711 v 216 c 0,19.44 15.117,35.28 34.559,35.28 h 348.49 c 19.43,0 35.27,-15.84 35.27,-35.28 z"
         id="path53"
         style="fill:none;stroke:#000000;stroke-width:2.15;stroke-linecap:butt;stroke-linejoin:miter;stroke-miterlimit:4;stroke-dasharray:none;stroke-opacity:1" /><path
         d="m 1638.35,1337.38 c 0,27.36 -23.04,50.4 -50.4,50.4 -28.08,0 -51.12,-23.04 -51.12,-50.4 0,-28.07 23.04,-51.12 51.12,-51.12 27.36,0 50.4,23.04 50.4,51.12"
         id="path55"
         style="fill:#000000;fill-opacity:1;fill-rule:nonzero;stroke:none" /><path
         d="m 1638.35,1337.38 c 0,27.36 -23.04,50.4 -50.4,50.4 -28.08,0 -51.12,-23.04 -51.12,-50.4 0,-28.07 23.04,-51.12 51.12,-51.12 27.36,0 50.4,23.04 50.4,51.12 z"
         id="path57"
         style="fill:none;stroke:#000000;stroke-width:2.15;stroke-linecap:butt;stroke-linejoin:miter;stroke-miterlimit:4;stroke-dasharray:none;stroke-opacity:1" /><path
         d="m 1371.95,1337.38 c 0,27.36 -23.04,50.4 -51.12,50.4 -28.08,0 -50.4,-23.04 -50.4,-50.4 0,-28.07 22.32,-51.12 50.4,-51.12 28.08,0 51.12,23.04 51.12,51.12"
         id="path59"
         style="fill:#000000;fill-opacity:1;fill-rule:nonzero;stroke:none" /><path
         d="m 1371.95,1337.38 c 0,27.36 -23.04,50.4 -51.12,50.4 -28.08,0 -50.4,-23.04 -50.4,-50.4 0,-28.07 22.32,-51.12 50.4,-51.12 28.08,0 51.12,23.04 51.12,51.12 z"
         id="path61"
         style="fill:none;stroke:#000000;stroke-width:2.15;stroke-linecap:butt;stroke-linejoin:miter;stroke-miterlimit:4;stroke-dasharray:none;stroke-opacity:1" /><path
         d="m 683.629,1337.38 c 0,27.36 -23.039,50.4 -50.399,50.4 -28.082,0 -50.402,-23.04 -50.402,-50.4 0,-28.07 22.32,-51.12 50.402,-51.12 27.36,0 50.399,23.04 50.399,51.12"
         id="path63"
         style="fill:#000000;fill-opacity:1;fill-rule:nonzero;stroke:none" /><path
         d="m 683.629,1337.38 c 0,27.36 -23.039,50.4 -50.399,50.4 -28.082,0 -50.402,-23.04 -50.402,-50.4 0,-28.07 22.32,-51.12 50.402,-51.12 27.36,0 50.399,23.04 50.399,51.12 z"
         id="path65"
         style="fill:none;stroke:#000000;stroke-width:2.15;stroke-linecap:butt;stroke-linejoin:miter;stroke-miterlimit:4;stroke-dasharray:none;stroke-opacity:1" /><path
         d="m 1073.87,1337.38 c 0,27.36 -23.04,50.4 -50.4,50.4 -27.349,0 -50.4,-23.04 -50.4,-50.4 0,-28.07 23.051,-51.12 50.4,-51.12 27.36,0 50.4,23.04 50.4,51.12"
         id="path67"
         style="fill:#000000;fill-opacity:1;fill-rule:nonzero;stroke:none" /><path
         d="m 1073.87,1337.38 c 0,27.36 -23.04,50.4 -50.4,50.4 -27.349,0 -50.4,-23.04 -50.4,-50.4 0,-28.07 23.051,-51.12 50.4,-51.12 27.36,0 50.4,23.04 50.4,51.12 z"
         id="path69"
         style="fill:none;stroke:#000000;stroke-width:2.15;stroke-linecap:butt;stroke-linejoin:miter;stroke-miterlimit:4;stroke-dasharray:none;stroke-opacity:1" /><path
         d="m 705.23,608.754 c 92.879,0 167.758,74.879 167.758,167.039 0,51.121 -25.918,98.641 -69.117,125.988 35.277,25.93 56.16,66.973 56.16,110.169 0,85.68 -69.121,155.52 -154.801,155.52 h -17.281 c 0.723,0 0,0 0,0 -66.961,0 -126,-43.2 -146.879,-106.56 l 88.559,-29.52 c 8.641,28.08 33.121,47.52 61.922,48.96 h 7.199 c 37.441,0 67.68,-30.96 67.68,-68.4 0,-37.446 -30.239,-67.677 -67.68,-67.677 h -25.199 v -87.121 h 25.199 c 44.641,0 80.641,-36.011 80.641,-80.64 0,-44.641 -36,-80.641 -80.641,-80.641 -36,-1.437 -69.84,20.883 -80.641,56.16 l -90,-31.679 c 23.762,-66.961 87.129,-111.598 157.68,-111.598 h 19.441"
         id="path71"
         style="fill:#000000;fill-opacity:1;fill-rule:nonzero;stroke:none" /><path
         d="m 705.23,608.754 v 0 c 92.879,0 167.758,74.879 167.758,167.039 0,51.121 -25.918,98.641 -69.117,125.988 35.277,25.93 56.16,66.973 56.16,110.169 0,85.68 -69.121,155.52 -154.801,155.52 h -17.281 c 0.723,0 0,0 0,0 -66.961,0 -126,-43.2 -146.879,-106.56 l 88.559,-29.52 c 8.641,28.08 33.121,47.52 61.922,48.96 h 7.199 c 37.441,0 67.68,-30.96 67.68,-68.4 0,-37.446 -30.239,-67.677 -67.68,-67.677 h -25.199 v -87.121 h 25.199 c 44.641,0 80.641,-36.011 80.641,-80.64 0,-44.641 -36,-80.641 -80.641,-80.641 -36,-1.437 -69.84,20.883 -80.641,56.16 l -90,-31.679 c 23.762,-66.961 87.129,-111.598 157.68,-111.598 z"
         id="path73"
         style="fill:none;stroke:#000000;stroke-width:2.15;stroke-linecap:butt;stroke-linejoin:miter;stroke-miterlimit:4;stroke-dasharray:none;stroke-opacity:1" /><path
         d="m 1037.15,1081.07 c -13.68,-23.76 -23.76,-48.96 -30.24,-75.6 -10.082,-38.158 -14.398,-77.759 -14.398,-117.357 0,-39.601 4.316,-79.199 14.398,-117.371 6.48,-26.629 16.56,-51.828 30.24,-75.59 31.68,-53.281 87.84,-85.679 149.76,-86.398 61.92,0.719 118.08,33.84 149.04,87.117 13.68,23.762 24.48,48.961 30.96,75.602 9.36,38.16 14.4,77.039 14.4,116.64 0,39.598 -5.04,78.469 -14.4,116.637 -6.48,26.64 -17.28,51.83 -30.96,75.6 -30.96,53.28 -87.12,86.4 -149.04,87.12 -61.92,-0.72 -118.08,-33.12 -149.76,-86.4"
         id="path75"
         style="fill:#000000;fill-opacity:1;fill-rule:nonzero;stroke:none" /><path
         d="m 1037.15,1081.07 c -13.68,-23.76 -23.76,-48.96 -30.24,-75.6 -10.082,-38.158 -14.398,-77.759 -14.398,-117.357 0,-39.601 4.316,-79.199 14.398,-117.371 6.48,-26.629 16.56,-51.828 30.24,-75.59 31.68,-53.281 87.84,-85.679 149.76,-86.398 61.92,0.719 118.08,33.84 149.04,87.117 13.68,23.762 24.48,48.961 30.96,75.602 9.36,38.16 14.4,77.039 14.4,116.64 0,39.598 -5.04,78.469 -14.4,116.637 -6.48,26.64 -17.28,51.83 -30.96,75.6 -30.96,53.28 -87.12,86.4 -149.04,87.12 -61.92,-0.72 -118.08,-33.12 -149.76,-86.4 z"
         id="path77"
         style="fill:none;stroke:#000000;stroke-width:2.15;stroke-linecap:butt;stroke-linejoin:miter;stroke-miterlimit:4;stroke-dasharray:none;stroke-opacity:1" /><path
         d="m 1119.23,1039.31 c -9.36,-18 -17.28,-36.72 -22.32,-56.888 -7.2,-30.238 -11.51,-62.629 -11.51,-94.309 0,-31.679 4.31,-63.359 12.23,-95.043 4.32,-19.437 12.24,-38.168 21.6,-56.156 13.68,-25.203 38.88,-40.332 67.68,-41.043 28.08,0.711 54,16.551 66.96,41.043 10.08,17.988 17.28,37.438 22.32,56.879 7.92,30.961 11.52,62.641 11.52,94.32 0,31.68 -3.6,63.36 -11.52,94.309 -5.04,19.448 -12.24,38.888 -22.32,56.888 -12.96,25.19 -38.88,40.32 -66.96,41.04 -28.8,-0.72 -54,-15.85 -67.68,-41.04"
         id="path79"
         style="fill:#ffffff;fill-opacity:1;fill-rule:nonzero;stroke:none" /><path
         d="m 1119.23,1039.31 c -9.36,-18 -17.28,-36.72 -22.32,-56.888 -7.2,-30.238 -11.51,-62.629 -11.51,-94.309 0,-31.679 4.31,-63.359 12.23,-95.043 4.32,-19.437 12.24,-38.168 21.6,-56.156 13.68,-25.203 38.88,-40.332 67.68,-41.043 28.08,0.711 54,16.551 66.96,41.043 10.08,17.988 17.28,37.438 22.32,56.879 7.92,30.961 11.52,62.641 11.52,94.32 0,31.68 -3.6,63.36 -11.52,94.309 -5.04,19.448 -12.24,38.888 -22.32,56.888 -12.96,25.19 -38.88,40.32 -66.96,41.04 -28.8,-0.72 -54,-15.85 -67.68,-41.04 z"
         id="path81"
         style="fill:none;stroke:#000000;stroke-width:2.15;stroke-linecap:butt;stroke-linejoin:miter;stroke-miterlimit:4;stroke-dasharray:none;stroke-opacity:1" /><path
         d="m 1630.43,906.113 h 69.13 v -55.441 h -69.13 V 694.434 c 0,-12.961 10.8,-23.762 23.77,-23.762 10.07,0 19.43,1.441 28.79,4.32 l 16.57,-52.57 c -14.41,-4.309 -29.53,-7.192 -45.36,-7.192 -46.09,0 -83.53,36.723 -83.53,82.793 v 152.649 h -39.6 v 55.441 h 39.6 v 61.199 l 59.76,51.838 V 906.113"
         id="path83"
         style="fill:#000000;fill-opacity:1;fill-rule:nonzero;stroke:none" /><path
         d="m 1630.43,906.113 h 69.13 v -55.441 h -69.13 V 694.434 c 0,-12.961 10.8,-23.762 23.77,-23.762 10.07,0 19.43,1.441 28.79,4.32 l 16.57,-52.57 c -14.41,-4.309 -29.53,-7.192 -45.36,-7.192 -46.09,0 -83.53,36.723 -83.53,82.793 v 152.649 h -39.6 v 55.441 h 39.6 v 61.199 l 59.76,51.838 z"
         id="path85"
         style="fill:none;stroke:#000000;stroke-width:2.15;stroke-linecap:butt;stroke-linejoin:miter;stroke-miterlimit:4;stroke-dasharray:none;stroke-opacity:1" /><path
         d="m 551.871,1471.31 25.918,74.15 h 110.16 v -74.15 H 551.871"
         id="path87"
         style="fill:#ffffff;fill-opacity:1;fill-rule:nonzero;stroke:none" /><path
         d="m 551.871,1471.31 25.918,74.15 h 110.16 v -74.15 z"
         id="path89"
         style="fill:none;stroke:#000000;stroke-width:2.15;stroke-linecap:butt;stroke-linejoin:miter;stroke-miterlimit:4;stroke-dasharray:none;stroke-opacity:1" /></g></g></svg>
