<?xml version="1.0" encoding="UTF-8" standalone="no"?>
<!-- Created with Inkscape (http://www.inkscape.org/) -->

<svg
   version="1.0"
   width="100"
   height="100"
   id="svg2"
   xml:space="preserve"
   xmlns="http://www.w3.org/2000/svg"
   xmlns:svg="http://www.w3.org/2000/svg"><defs
     id="defs5"><clipPath
       id="clipPath19"><path
         d="M 0.492188,0 L 5953.0022,0 L 5953.0022,5952.75 L 0.492188,5952.75 L 0.492188,0 z"
         id="path21" /></clipPath></defs><g
     transform="matrix(0.16799636,0,0,-0.16798961,-0.00826858,100)"
     id="g11"><g
       transform="scale(0.1)"
       id="g13"><g
         id="g15"><g
           clip-path="url(#clipPath19)"
           id="g17"><path
             d="m 5949.71,2976.37 c 0,1641.85 -1330.99,2972.84 -2972.84,2972.84 C 1335.02,5949.21 4.03125,4618.22 4.03125,2976.37 4.03125,1334.53 1335.02,3.53125 2976.87,3.53125 4618.72,3.53125 5949.71,1334.53 5949.71,2976.37"
             id="path23"
             style="fill:#e23828;fill-opacity:1;fill-rule:nonzero;stroke:none" /><path
             d="m 5949.71,2976.37 c 0,1641.85 -1330.99,2972.84 -2972.84,2972.84 C 1335.02,5949.21 4.03125,4618.22 4.03125,2976.37 4.03125,1334.53 1335.02,3.53125 2976.87,3.53125 4618.72,3.53125 5949.71,1334.53 5949.71,2976.37 Z"
             id="path25"
             style="fill:none;stroke:#e23828;stroke-width:7.07819;stroke-linecap:round;stroke-linejoin:round;stroke-miterlimit:500;stroke-dasharray:none;stroke-opacity:1" /><path
             d="M 5206.5,2976.37 C 5206.5,4207.76 4208.26,5206 2976.87,5206 1745.48,5206 747.254,4207.76 747.254,2976.37 c 0,-1231.39 998.226,-2229.628 2229.626,-2229.628 1231.39,0 2229.63,998.238 2229.63,2229.628"
             id="path27"
             style="fill:#ffffff;fill-opacity:1;fill-rule:nonzero;stroke:none" /><path
             d="M 5206.5,2976.37 C 5206.5,4207.76 4208.26,5206 2976.87,5206 1745.48,5206 747.254,4207.76 747.254,2976.37 c 0,-1231.39 998.226,-2229.628 2229.626,-2229.628 1231.39,0 2229.63,998.238 2229.63,2229.628 z"
             id="path29"
             style="fill:none;stroke:#ffffff;stroke-width:7.07819;stroke-linecap:round;stroke-linejoin:round;stroke-miterlimit:500;stroke-dasharray:none;stroke-opacity:1" /><path
             d="m 1713.99,2543.49 c -42.67,-8.33 -76.03,-41.7 -84.36,-84.37 v -752.84 c 8.33,-42.68 41.69,-76.04 84.36,-84.37 h 240.04 c 42.68,8.3 76.06,41.68 84.36,84.37 v 752.84 c -8.3,42.69 -41.68,76.07 -84.36,84.37 h -240.04"
             id="path31"
             style="fill:#000000;fill-opacity:1;fill-rule:nonzero;stroke:none" /><path
             d="m 1713.99,2543.49 c -42.67,-8.33 -76.03,-41.7 -84.36,-84.37 v -752.84 c 8.33,-42.68 41.69,-76.04 84.36,-84.37 h 240.04 c 42.68,8.3 76.06,41.68 84.36,84.37 v 752.84 c -8.3,42.69 -41.68,76.07 -84.36,84.37 z"
             id="path33"
             style="fill:none;stroke:#000000;stroke-width:5.6773;stroke-linecap:round;stroke-linejoin:round;stroke-miterlimit:500;stroke-dasharray:none;stroke-opacity:1" /><path
             d="m 4239.75,2543.49 c 42.66,-8.33 76.03,-41.7 84.36,-84.37 v -752.84 c -8.33,-42.68 -41.7,-76.04 -84.36,-84.37 h -240.04 c -42.68,8.3 -76.06,41.68 -84.36,84.37 v 752.84 c 8.3,42.69 41.68,76.07 84.36,84.37 h 240.04"
             id="path35"
             style="fill:#000000;fill-opacity:1;fill-rule:nonzero;stroke:none" /><path
             d="m 4239.75,2543.49 c 42.66,-8.33 76.03,-41.7 84.36,-84.37 v -752.84 c -8.33,-42.68 -41.7,-76.04 -84.36,-84.37 h -240.04 c -42.68,8.3 -76.06,41.68 -84.36,84.37 v 752.84 c 8.3,42.69 41.68,76.07 84.36,84.37 z"
             id="path37"
             style="fill:none;stroke:#000000;stroke-width:5.6773;stroke-linecap:round;stroke-linejoin:round;stroke-miterlimit:500;stroke-dasharray:none;stroke-opacity:1" /><path
             d="m 3855.89,2184.11 h -494.77 c -55.93,0 -108.33,27.36 -140.29,73.26 -55.57,79.82 -146.7,127.4 -243.96,127.4 -97.27,0 -188.39,-47.58 -243.97,-127.4 -31.96,-45.9 -84.35,-73.26 -140.28,-73.26 h -494.77 v -193.24 h 494.77 c 55.93,0 108.32,-27.35 140.28,-73.26 55.58,-79.82 146.7,-127.4 243.97,-127.4 97.26,0 188.39,47.58 243.96,127.4 31.96,45.91 84.36,73.26 140.29,73.26 h 494.77 v 193.24"
             id="path39"
             style="fill:#000000;fill-opacity:1;fill-rule:nonzero;stroke:none" /><path
             d="m 3855.89,2184.11 h -494.77 c -55.93,0 -108.33,27.36 -140.29,73.26 -55.57,79.82 -146.7,127.4 -243.96,127.4 -97.27,0 -188.39,-47.58 -243.97,-127.4 -31.96,-45.9 -84.35,-73.26 -140.28,-73.26 h -494.77 v -193.24 h 494.77 c 55.93,0 108.32,-27.35 140.28,-73.26 55.58,-79.82 146.7,-127.4 243.97,-127.4 97.26,0 188.39,47.58 243.96,127.4 31.96,45.91 84.36,73.26 140.29,73.26 h 494.77 z"
             id="path41"
             style="fill:none;stroke:#000000;stroke-width:7.07819;stroke-linecap:round;stroke-linejoin:round;stroke-miterlimit:500;stroke-dasharray:none;stroke-opacity:1" /><path
             d="m 2562.26,2919.3 c 130.05,-0.34 254.88,51.08 346.96,142.91 92.07,91.83 143.82,216.53 143.82,346.57 0,148.9 -75.75,287.57 -201.04,368.03 103.41,75.21 164.59,195.36 164.59,323.22 0,250.91 -203.4,454.33 -454.32,454.33 h -49.47 c -196.05,0 -369.98,-125.76 -431.43,-311.93 l 260.92,-86.12 c 23.88,81.19 96.4,138.48 180.92,142.9 h 20.83 c 110,0 199.17,-89.18 199.17,-199.18 0,-110 -89.17,-199.17 -199.17,-199.17 h -72.9 V 3645.7 h 72.9 c 84.18,0 161.97,-44.91 204.06,-117.81 42.09,-72.9 42.09,-162.72 0,-235.62 -42.09,-72.9 -119.88,-117.82 -204.06,-117.82 -107.14,-5.87 -204.73,61.38 -237.37,163.6 l -261.76,-92.73 c 69.24,-195.41 254.07,-326.02 461.38,-326.02 h 55.97"
             id="path43"
             style="fill:#000000;fill-opacity:1;fill-rule:nonzero;stroke:none" /><path
             d="m 2562.26,2919.3 c 130.05,-0.34 254.88,51.08 346.96,142.91 92.07,91.83 143.82,216.53 143.82,346.57 0,148.9 -75.75,287.57 -201.04,368.03 103.41,75.21 164.59,195.36 164.59,323.22 0,250.91 -203.4,454.33 -454.32,454.33 h -49.47 c -196.05,0 -369.98,-125.76 -431.43,-311.93 l 260.92,-86.12 c 23.88,81.19 96.4,138.48 180.92,142.9 h 20.83 c 110,0 199.17,-89.18 199.17,-199.18 0,-110 -89.17,-199.17 -199.17,-199.17 h -72.9 V 3645.7 h 72.9 c 84.18,0 161.97,-44.91 204.06,-117.81 42.09,-72.9 42.09,-162.72 0,-235.62 -42.09,-72.9 -119.88,-117.82 -204.06,-117.82 -107.14,-5.87 -204.73,61.38 -237.37,163.6 l -261.76,-92.73 c 69.24,-195.41 254.07,-326.02 461.38,-326.02 z"
             id="path45"
             style="fill:none;stroke:#000000;stroke-width:7.07819;stroke-linecap:round;stroke-linejoin:round;stroke-miterlimit:500;stroke-dasharray:none;stroke-opacity:1" /><path
             d="m 3718.62,3681.72 h 181.69 v -145.37 h -181.69 v -409.38 c 0,-16.52 6.56,-32.37 18.24,-44.05 11.68,-11.68 27.53,-18.25 44.05,-18.25 25.62,0 51.08,4 75.47,11.85 l 44.55,-138.37 c -38.78,-12.49 -79.28,-18.85 -120.02,-18.85 -57.83,0 -113.29,22.97 -154.18,63.87 -40.89,40.89 -63.87,96.35 -63.87,154.18 v 399 h -103.83 v 145.37 h 103.83 v 160.94 l 155.76,135.71 v -296.65"
             id="path47"
             style="fill:#000000;fill-opacity:1;fill-rule:nonzero;stroke:none" /><path
             d="m 3718.62,3681.72 h 181.69 v -145.37 h -181.69 v -409.38 c 0,-16.52 6.56,-32.37 18.24,-44.05 11.68,-11.68 27.53,-18.25 44.05,-18.25 25.62,0 51.08,4 75.47,11.85 l 44.55,-138.37 c -38.78,-12.49 -79.28,-18.85 -120.02,-18.85 -57.83,0 -113.29,22.97 -154.18,63.87 -40.89,40.89 -63.87,96.35 -63.87,154.18 v 399 h -103.83 v 145.37 h 103.83 v 160.94 l 155.76,135.71 z"
             id="path49"
             style="fill:none;stroke:#000000;stroke-width:6.13748;stroke-linecap:round;stroke-linejoin:round;stroke-miterlimit:500;stroke-dasharray:none;stroke-opacity:1" /></g></g></g></g></svg>
