<?xml version="1.0" encoding="UTF-8" standalone="no"?>
<!-- Created with Inkscape (http://www.inkscape.org/) -->

<svg
   version="1.0"
   width="100"
   height="138.86627"
   id="svg2"
   xml:space="preserve"
   xmlns="http://www.w3.org/2000/svg"
   xmlns:svg="http://www.w3.org/2000/svg"><defs
     id="defs5"><clipPath
       id="clipPath19"><path
         d="M 0,0 H 2043.34 V 2837.51 H 0 Z"
         id="path21" /></clipPath></defs><g
     transform="matrix(0.48939481,0,0,-0.48939481,0,138.86627)"
     id="g11"><g
       transform="scale(0.1)"
       id="g13"><g
         id="g15"><g
           clip-path="url(#clipPath19)"
           id="g17"><path
             d="M 1.07422,1.07031 H 2042.2742 V 2836.4403 H 1.07422 Z"
             id="path23"
             style="fill:#ffffff;fill-opacity:1;fill-rule:nonzero;stroke:none" /><path
             d="M 1.07422,1.07031 H 2042.2742 V 2836.4403 H 1.07422 Z"
             id="path25"
             style="fill:none;stroke:#000000;stroke-width:2.15;stroke-linecap:butt;stroke-linejoin:miter;stroke-miterlimit:4;stroke-dasharray:none;stroke-opacity:1" /><path
             d="M 1.07422,1.07031 H 2042.2742 V 2836.4403 H 1.07422 Z"
             id="path27"
             style="fill:#ffffff;fill-opacity:1;fill-rule:nonzero;stroke:none" /><path
             d="M 1.07422,1.07031 H 2042.2742 V 2836.4403 H 1.07422 Z"
             id="path29"
             style="fill:none;stroke:#000000;stroke-width:2.15;stroke-linecap:butt;stroke-linejoin:miter;stroke-miterlimit:4;stroke-dasharray:none;stroke-opacity:1" /><path
             d="M 2019.95,2722.68 V 114.828 c 0,-51.1092 -39.6,-90.7069 -90.72,-90.7069 H 114.84 c -51.1212,0 -90.7306,39.5977 -90.7306,90.7069 V 2722.68 c 0,51.12 39.6015,90.72 90.7306,90.72 h 1814.39 c 51.12,0 90.72,-39.6 90.72,-90.72"
             id="path31"
             style="fill:#000000;fill-opacity:1;fill-rule:nonzero;stroke:none" /><path
             d="M 2019.95,2722.68 V 114.828 c 0,-51.1092 -39.6,-90.7069 -90.72,-90.7069 H 114.84 c -51.1212,0 -90.7306,39.5977 -90.7306,90.7069 V 2722.68 c 0,51.12 39.6015,90.72 90.7306,90.72 h 1814.39 c 51.12,0 90.72,-39.6 90.72,-90.72 z"
             id="path33"
             style="fill:none;stroke:#000000;stroke-width:2.15;stroke-linecap:butt;stroke-linejoin:miter;stroke-miterlimit:4;stroke-dasharray:none;stroke-opacity:1" /><path
             d="m 69.4688,2722.68 c 0,25.92 19.4414,45.36 45.3592,45.36 H 1929.22 c 25.2,0 45.36,-19.44 45.36,-45.36 V 114.828 c 0,-25.91 -20.16,-45.3592 -45.36,-45.3592 H 114.828 c -25.9296,0 -45.3592,19.4492 -45.3592,45.3592 V 2722.68"
             id="path35"
             style="fill:#ffffff;fill-opacity:1;fill-rule:nonzero;stroke:none" /><path
             d="m 69.4688,2722.68 c 0,25.92 19.4414,45.36 45.3592,45.36 H 1929.22 c 25.2,0 45.36,-19.44 45.36,-45.36 V 114.828 c 0,-25.91 -20.16,-45.3592 -45.36,-45.3592 H 114.828 c -25.9296,0 -45.3592,19.4492 -45.3592,45.3592 z"
             id="path37"
             style="fill:none;stroke:#000000;stroke-width:2.15;stroke-linecap:butt;stroke-linejoin:miter;stroke-miterlimit:4;stroke-dasharray:none;stroke-opacity:1" /><path
             d="m 1727.63,2768.04 h 201.6"
             id="path39"
             style="fill:#ffffff;fill-opacity:1;fill-rule:nonzero;stroke:none" /><path
             d="m 1727.63,2768.04 h 201.6"
             id="path41"
             style="fill:none;stroke:#000000;stroke-width:2.15;stroke-linecap:butt;stroke-linejoin:miter;stroke-miterlimit:4;stroke-dasharray:none;stroke-opacity:1" /><path
             d="m 1872.35,1035.71 c 0,465.13 -383.03,848.17 -850.32,848.17 -465.12,0 -848.159,-383.04 -848.159,-848.17 0,-467.28 383.039,-850.312 848.159,-850.312 467.29,0 850.32,383.032 850.32,850.312"
             id="path43"
             style="fill:#a8a29a;fill-opacity:1;fill-rule:nonzero;stroke:none" /><path
             d="m 1872.35,1035.71 c 0,465.13 -383.03,848.17 -850.32,848.17 -465.12,0 -848.159,-383.04 -848.159,-848.17 0,-467.28 383.039,-850.312 848.159,-850.312 467.29,0 850.32,383.032 850.32,850.312 z"
             id="path45"
             style="fill:none;stroke:#a8a29a;stroke-width:2.15;stroke-linecap:butt;stroke-linejoin:miter;stroke-miterlimit:4;stroke-dasharray:none;stroke-opacity:1" /><path
             d="m 1393.55,2170.43 v 237.6 c 0,71.28 -53.99,125.28 -125.28,125.28 -30.96,0 -61.92,-11.51 -87.84,-31.68 v 23.04 h -73.44 v -354.24 h 73.44 v 223.92 c 0,93.6 138.96,93.6 138.96,0 v -223.92 h 74.16"
             id="path47"
             style="fill:#a8a29a;fill-opacity:1;fill-rule:nonzero;stroke:none" /><path
             d="m 1393.55,2170.43 v 237.6 c 0,71.28 -53.99,125.28 -125.28,125.28 v 0 c -30.96,0 -61.92,-11.51 -87.84,-31.68 v 23.04 h -73.44 v -354.24 h 73.44 v 223.92 c 0,93.6 138.96,93.6 138.96,0 v -223.92 z"
             id="path49"
             style="fill:none;stroke:#a8a29a;stroke-width:2.15;stroke-linecap:butt;stroke-linejoin:miter;stroke-miterlimit:4;stroke-dasharray:none;stroke-opacity:1" /><path
             d="m 542.512,2170.43 c -90.723,-25.92 -190.082,-5.76 -260.641,53.29 l 48.238,59.76 c 36.719,-28.09 84.961,-45.37 133.2,-45.37 14.402,0 30.961,0 45.363,5.76 28.078,5.76 51.117,30.96 51.117,62.64 0,25.2 -17.277,48.24 -39.598,59.04 -14.402,5.77 -28.8,8.64 -42.48,11.52 l -48.242,14.4 c -23.039,5.76 -45.36,13.68 -65.52,28.08 -87.84,54 -82.078,184.32 11.52,232.56 11.519,2.88 22.32,8.64 33.84,11.52 62.64,19.44 130.32,13.68 187.203,-17.28 14.398,-5.76 25.199,-14.4 36.707,-22.32 l -51.117,-62.64 c -13.68,11.52 -30.961,20.17 -48.243,25.2 -16.558,5.76 -33.839,8.64 -51.121,8.64 -19.437,0 -39.597,-2.88 -59.039,-10.8 -23.039,-5.76 -39.597,-28.8 -39.597,-54 0,-20.16 13.679,-39.6 30.957,-48.24 11.519,-5.76 22.32,-11.52 33.839,-14.4 l 48.243,-11.52 c 23.039,-5.76 42.48,-13.68 62.64,-22.32 51.129,-23.04 82.078,-74.16 82.078,-127.44 0,-62.64 -39.597,-119.52 -99.359,-136.08"
             id="path51"
             style="fill:#a8a29a;fill-opacity:1;fill-rule:nonzero;stroke:none" /><path
             d="m 542.512,2170.43 c -90.723,-25.92 -190.082,-5.76 -260.641,53.29 l 48.238,59.76 c 36.719,-28.09 84.961,-45.37 133.2,-45.37 14.402,0 30.961,0 45.363,5.76 28.078,5.76 51.117,30.96 51.117,62.64 0,25.2 -17.277,48.24 -39.598,59.04 -14.402,5.77 -28.8,8.64 -42.48,11.52 l -48.242,14.4 c -23.039,5.76 -45.36,13.68 -65.52,28.08 -87.84,54 -82.078,184.32 11.52,232.56 11.519,2.88 22.32,8.64 33.84,11.52 62.64,19.44 130.32,13.68 187.203,-17.28 14.398,-5.76 25.199,-14.4 36.707,-22.32 l -51.117,-62.64 c -13.68,11.52 -30.961,20.17 -48.243,25.2 -16.558,5.76 -33.839,8.64 -51.121,8.64 -19.437,0 -39.597,-2.88 -59.039,-10.8 -23.039,-5.76 -39.597,-28.8 -39.597,-54 0,-20.16 13.679,-39.6 30.957,-48.24 11.519,-5.76 22.32,-11.52 33.839,-14.4 l 48.243,-11.52 c 23.039,-5.76 42.48,-13.68 62.64,-22.32 51.129,-23.04 82.078,-74.16 82.078,-127.44 0,-62.64 -39.597,-119.52 -99.359,-136.08 z"
             id="path53"
             style="fill:none;stroke:#a8a29a;stroke-width:2.15;stroke-linecap:butt;stroke-linejoin:miter;stroke-miterlimit:4;stroke-dasharray:none;stroke-opacity:1" /><path
             d="m 732.59,2419.55 c -5.762,-25.2 -8.641,-48.23 -8.641,-73.44 0,-23.04 2.879,-48.24 8.641,-71.28 17.281,-67.68 76.32,-115.92 144.719,-115.92 70.562,0 130.321,48.23 147.611,115.92 5.03,23.04 7.91,48.24 7.91,71.28 0,25.21 -2.88,48.24 -7.91,73.44 -17.29,65.52 -77.049,113.76 -147.611,113.76 -68.399,0 -127.438,-48.24 -144.719,-113.76"
             id="path55"
             style="fill:#a8a29a;fill-opacity:1;fill-rule:nonzero;stroke:none" /><path
             d="m 732.59,2419.55 c -5.762,-25.2 -8.641,-48.23 -8.641,-73.44 0,-23.04 2.879,-48.24 8.641,-71.28 17.281,-67.68 76.32,-115.92 144.719,-115.92 70.562,0 130.321,48.23 147.611,115.92 5.03,23.04 7.91,48.24 7.91,71.28 0,25.21 -2.88,48.24 -7.91,73.44 -17.29,65.52 -77.049,113.76 -147.611,113.76 -68.399,0 -127.438,-48.24 -144.719,-113.76 z"
             id="path57"
             style="fill:none;stroke:#a8a29a;stroke-width:2.15;stroke-linecap:butt;stroke-linejoin:miter;stroke-miterlimit:4;stroke-dasharray:none;stroke-opacity:1" /><path
             d="m 1617.47,2158.92 c -65.52,0 -125.28,45.36 -141.84,107.28 -14.4,51.12 -14.4,108 0,159.12 39.6,144.72 243.36,144.72 280.8,0 7.92,-25.2 10.8,-51.12 10.8,-79.2 0,-5.76 0,-8.64 0,-14.4 h -226.8 c 0,-20.15 2.88,-36.72 8.65,-54 11.51,-28.08 36.71,-48.24 68.39,-48.24 33.84,0 61.92,17.28 79.2,48.24 l 62.65,-30.96 c -28.81,-53.99 -82.81,-87.84 -141.85,-87.84"
             id="path59"
             style="fill:#a8a29a;fill-opacity:1;fill-rule:nonzero;stroke:none" /><path
             d="m 1617.47,2158.92 c -65.52,0 -125.28,45.36 -141.84,107.28 -14.4,51.12 -14.4,108 0,159.12 39.6,144.72 243.36,144.72 280.8,0 7.92,-25.2 10.8,-51.12 10.8,-79.2 0,-5.76 0,-8.64 0,-14.4 h -226.8 c 0,-20.15 2.88,-36.72 8.65,-54 11.51,-28.08 36.71,-48.24 68.39,-48.24 33.84,0 61.92,17.28 79.2,48.24 l 62.65,-30.96 c -28.81,-53.99 -82.81,-87.84 -141.85,-87.84 z"
             id="path61"
             style="fill:none;stroke:#a8a29a;stroke-width:2.15;stroke-linecap:butt;stroke-linejoin:miter;stroke-miterlimit:4;stroke-dasharray:none;stroke-opacity:1" /><path
             d="m 806.031,2410.91 c -5.043,-22.32 -7.922,-42.48 -7.922,-64.8 0,-23.04 2.879,-42.48 7.922,-62.63 11.52,-33.85 40.321,-54.01 71.278,-54.01 33.839,0 61.921,20.16 70.562,54.01 8.641,20.15 11.52,42.47 11.52,62.63 0,22.32 -2.879,42.48 -11.52,64.8 -8.641,31.68 -36.723,54 -70.562,54 -30.957,0 -59.758,-22.32 -71.278,-54"
             id="path63"
             style="fill:#ffffff;fill-opacity:1;fill-rule:nonzero;stroke:none" /><path
             d="m 806.031,2410.91 c -5.043,-22.32 -7.922,-42.48 -7.922,-64.8 0,-23.04 2.879,-42.48 7.922,-62.63 11.52,-33.85 40.321,-54.01 71.278,-54.01 33.839,0 61.921,20.16 70.562,54.01 8.641,20.15 11.52,42.47 11.52,62.63 0,22.32 -2.879,42.48 -11.52,64.8 -8.641,31.68 -36.723,54 -70.562,54 -30.957,0 -59.758,-22.32 -71.278,-54 z"
             id="path65"
             style="fill:none;stroke:#ffffff;stroke-width:2.15;stroke-linecap:butt;stroke-linejoin:miter;stroke-miterlimit:4;stroke-dasharray:none;stroke-opacity:1" /><path
             d="m 1549.08,2413.79 c 0,-5.76 -2.89,-13.68 -5.77,-22.32 h 144.72 c 0,8.64 -2.88,16.56 -5.76,22.32 -8.64,31.68 -36.72,51.12 -64.8,51.12 -31.68,0 -56.88,-19.44 -68.39,-48.24 v -2.88"
             id="path67"
             style="fill:#ffffff;fill-opacity:1;fill-rule:nonzero;stroke:none" /><path
             d="m 1549.08,2413.79 c 0,-5.76 -2.89,-13.68 -5.77,-22.32 h 144.72 c 0,8.64 -2.88,16.56 -5.76,22.32 -8.64,31.68 -36.72,51.12 -64.8,51.12 -31.68,0 -56.88,-19.44 -68.39,-48.24 z"
             id="path69"
             style="fill:none;stroke:#ffffff;stroke-width:2.15;stroke-linecap:butt;stroke-linejoin:miter;stroke-miterlimit:4;stroke-dasharray:none;stroke-opacity:1" /><path
             d="m 1659.95,1035.71 c 0,352.08 -286.56,635.04 -637.92,635.04 -349.202,0 -635.042,-282.96 -635.042,-635.04 0,-351.351 285.84,-637.921 635.042,-637.921 351.36,0 637.92,286.57 637.92,637.921"
             id="path71"
             style="fill:#ffffff;fill-opacity:1;fill-rule:nonzero;stroke:none" /><path
             d="m 1659.95,1035.71 c 0,352.08 -286.56,635.04 -637.92,635.04 -349.202,0 -635.042,-282.96 -635.042,-635.04 0,-351.351 285.84,-637.921 635.042,-637.921 351.36,0 637.92,286.57 637.92,637.921 z"
             id="path73"
             style="fill:none;stroke:#a8a29a;stroke-width:2.15;stroke-linecap:butt;stroke-linejoin:miter;stroke-miterlimit:4;stroke-dasharray:none;stroke-opacity:1" /><path
             d="m 755.629,777.949 h -5.758 c -48.242,8.641 -87.84,48.25 -90.723,99.36 L 500.039,862.922 c 5.762,-59.774 33.84,-113.051 76.32,-153.363 48.243,-36.731 102.243,-56.168 159.121,-61.918 h 28.079 c 5.761,0 8.64,0 14.402,0 82.078,0 161.277,42.468 204.48,113.031 19.439,31.68 28.089,68.398 28.089,105.129 0,84.949 -51.12,159.109 -130.331,190.069 67.68,30.97 110.16,102.25 110.16,175.69 0,17.27 -2.879,33.85 -7.918,51.12 -8.64,30.95 -25.921,59.75 -48.23,82.08 -40.332,36.71 -87.852,59.75 -138.973,65.51 -17.277,2.88 -31.679,2.88 -48.238,2.88 -54,0 -105.121,-17.28 -150.48,-48.23 -48.25,-31.68 -79.2,-82.09 -84.961,-141.84 l 144.722,-14.41 c 7.918,45.36 45.36,79.21 90.719,79.21 8.641,0 19.441,0 30.961,-2.88 42.48,-10.8 68.398,-50.41 68.398,-92.89 0,-48.23 -34.558,-88.56 -82.8,-96.48 -10.797,-2.88 -25.2,-2.88 -36.719,-5.76 V 998.988 H 747 c 8.641,0 19.441,-2.879 28.078,-5.758 20.16,-5.75 36.723,-16.55 54,-28.07 11.524,-11.531 22.32,-25.93 30.961,-39.601 8.641,-14.411 11.52,-28.809 11.52,-42.481 0,-17.277 -5.758,-31.68 -11.52,-45.359 -5.758,-11.52 -13.68,-20.168 -22.32,-28.797 -5.758,-7.922 -11.52,-13.692 -20.16,-16.57 -11.52,-8.633 -25.2,-11.512 -36.731,-11.512 -8.637,-2.891 -17.277,-2.891 -25.199,-2.891"
             id="path75"
             style="fill:#a8a29a;fill-opacity:1;fill-rule:nonzero;stroke:none" /><path
             d="m 755.629,777.949 h -5.758 c -48.242,8.641 -87.84,48.25 -90.723,99.36 L 500.039,862.922 c 5.762,-59.774 33.84,-113.051 76.32,-153.363 48.243,-36.731 102.243,-56.168 159.121,-61.918 h 28.079 c 5.761,0 8.64,0 14.402,0 82.078,0 161.277,42.468 204.48,113.031 19.439,31.68 28.089,68.398 28.089,105.129 0,84.949 -51.12,159.109 -130.331,190.069 67.68,30.97 110.16,102.25 110.16,175.69 0,17.27 -2.879,33.85 -7.918,51.12 -8.64,30.95 -25.921,59.75 -48.23,82.08 -40.332,36.71 -87.852,59.75 -138.973,65.51 -17.277,2.88 -31.679,2.88 -48.238,2.88 -54,0 -105.121,-17.28 -150.48,-48.23 -48.25,-31.68 -79.2,-82.09 -84.961,-141.84 l 144.722,-14.41 c 7.918,45.36 45.36,79.21 90.719,79.21 8.641,0 19.441,0 30.961,-2.88 42.48,-10.8 68.398,-50.41 68.398,-92.89 0,-48.23 -34.558,-88.56 -82.8,-96.48 -10.797,-2.88 -25.2,-2.88 -36.719,-5.76 V 998.988 H 747 c 8.641,0 19.441,-2.879 28.078,-5.758 20.16,-5.75 36.723,-16.55 54,-28.07 11.524,-11.531 22.32,-25.93 30.961,-39.601 8.641,-14.411 11.52,-28.809 11.52,-42.481 0,-17.277 -5.758,-31.68 -11.52,-45.359 -5.758,-11.52 -13.68,-20.168 -22.32,-28.797 -5.758,-7.922 -11.52,-13.692 -20.16,-16.57 -11.52,-8.633 -25.2,-11.512 -36.731,-11.512 -8.637,-2.891 -17.277,-2.891 -25.199,-2.891 z"
             id="path77"
             style="fill:none;stroke:#a8a29a;stroke-width:2.15;stroke-linecap:butt;stroke-linejoin:miter;stroke-miterlimit:4;stroke-dasharray:none;stroke-opacity:1" /><path
             d="m 1307.87,644.762 c 34.56,0 65.52,8.629 93.6,25.199 31.68,17.277 59.76,39.598 82.8,68.391 16.56,25.199 30.96,48.238 42.48,76.32 7.93,17.277 13.68,36.726 16.56,56.879 11.52,51.129 17.28,102.238 17.28,153.359 0,33.85 -2.88,64.81 -8.64,98.64 -2.87,43.2 -11.52,82.8 -25.2,122.4 -11.52,28.08 -25.92,56.88 -45.36,82.08 -23.04,30.96 -51.11,56.89 -85.68,76.33 -25.2,14.4 -56.15,23.03 -87.84,25.91 -30.96,-2.88 -59.04,-11.51 -87.83,-25.91 -33.85,-16.57 -61.93,-45.37 -84.97,-76.33 -16.56,-25.2 -30.96,-54 -42.48,-82.08 -14.4,-39.6 -22.31,-79.2 -28.08,-119.51 -2.88,-33.85 -5.76,-67.68 -5.76,-101.53 0,-51.121 5.76,-105.109 14.4,-153.359 2.88,-20.153 10.8,-39.602 19.44,-56.879 11.52,-28.082 25.92,-54 42.48,-76.32 23.04,-28.793 48.24,-51.114 79.2,-68.391 28.8,-16.57 62.64,-25.199 93.6,-25.199"
             id="path79"
             style="fill:#a8a29a;fill-opacity:1;fill-rule:nonzero;stroke:none" /><path
             d="m 1307.87,644.762 c 34.56,0 65.52,8.629 93.6,25.199 31.68,17.277 59.76,39.598 82.8,68.391 16.56,25.199 30.96,48.238 42.48,76.32 7.93,17.277 13.68,36.726 16.56,56.879 11.52,51.129 17.28,102.238 17.28,153.359 0,33.85 -2.88,64.81 -8.64,98.64 -2.87,43.2 -11.52,82.8 -25.2,122.4 -11.52,28.08 -25.92,56.88 -45.36,82.08 -23.04,30.96 -51.11,56.89 -85.68,76.33 -25.2,14.4 -56.15,23.03 -87.84,25.91 -30.96,-2.88 -59.04,-11.51 -87.83,-25.91 -33.85,-16.57 -61.93,-45.37 -84.97,-76.33 -16.56,-25.2 -30.96,-54 -42.48,-82.08 -14.4,-39.6 -22.31,-79.2 -28.08,-119.51 -2.88,-33.85 -5.76,-67.68 -5.76,-101.53 0,-51.121 5.76,-105.109 14.4,-153.359 2.88,-20.153 10.8,-39.602 19.44,-56.879 11.52,-28.082 25.92,-54 42.48,-76.32 23.04,-28.793 48.24,-51.114 79.2,-68.391 28.8,-16.57 62.64,-25.199 93.6,-25.199 z"
             id="path81"
             style="fill:none;stroke:#a8a29a;stroke-width:2.15;stroke-linecap:butt;stroke-linejoin:miter;stroke-miterlimit:4;stroke-dasharray:none;stroke-opacity:1" /><path
             d="m 1353.23,1265.41 5.76,-5.78 5.76,-7.92 5.76,-8.63 2.88,-8.64 5.76,-11.52 2.88,-8.65 5.76,-10.78 2.88,-8.66 2.88,-11.51 2.16,-11.51 2.88,-7.93 2.88,-11.53 v -8.63 l 2.88,-11.53 2.88,-8.64 v -16.56 l 2.88,-8.64 v -28.08 l 2.88,-8.63 v -74.16 l -2.88,-5.05 v -28.801 l -2.88,-5.75 V 928.43 l -2.88,-2.871 v -14.411 l -2.88,-5.75 v -2.886 l -2.88,-5.762 v -7.922 l -2.88,-5.75 v -5.769 l -2.16,-2.879 v -5.758 l -2.88,-5.75 -2.88,-2.891 v -5.761 l -2.87,-2.872 v -5.046 l -2.89,-2.872 v -2.878 l -2.88,-5.774 -2.88,-2.879 v -2.879 l -2.88,-2.871 -2.88,-2.879 -2.88,-5.769 -2.88,-2.879 -2.88,-2.883 -2.88,-2.867 -2.88,-2.883 -2.88,-5.039 -2.88,-2.879 -2.16,-2.891 -2.88,-2.878 h -5.75 l -2.89,-2.883 -2.88,-2.879 h -2.88 l -2.88,-2.871 h -5.76 l -2.88,-2.879 h -22.32 l -2.87,2.879 h -5.77 l -2.88,2.871 h -2.88 l -2.87,2.879 -2.89,2.883 h -2.88 l -5.76,2.878 -2.87,2.891 -2.89,2.879 -2.88,5.039 -2.16,2.883 -2.88,2.867 -2.88,2.883 -2.88,2.879 -2.88,5.769 -2.88,2.879 -2.88,2.871 v 2.879 l -2.88,2.879 v 5.774 l -2.87,2.878 -2.89,2.872 v 5.046 l -2.88,2.872 v 5.761 l -2.88,2.891 v 5.75 l -2.88,5.758 v 2.879 l -2.87,5.769 v 5.75 l -2.89,2.883 v 5.039 l -2.88,5.762 v 8.636 l -2.16,5.762 v 11.52 l -2.88,2.879 v 22.32 l -2.88,2.883 v 36.718 l -2.88,2.879 v 54.001 l 2.88,5.76 v 42.48 l 2.88,8.64 v 8.64 l 2.88,7.92 v 8.64 l 2.16,11.53 v 8.63 l 2.88,11.53 2.89,7.93 2.87,11.51 2.88,11.51 2.88,8.66 5.77,10.78 2.87,8.65 5.76,11.52 5.76,8.64 2.88,8.63 5.76,7.92 5.04,5.78 5.76,5.74 5.76,5.76 5.77,5.77 5.75,2.88 5.76,2.87 5.76,2.89 h 5.76 l 5.04,2.88 5.76,-2.88 h 5.76 l 5.77,-2.89 5.75,-2.87 5.76,-2.88 5.76,-5.77 5.76,-5.76 5.04,-5.74"
             id="path83"
             style="fill:#ffffff;fill-opacity:1;fill-rule:nonzero;stroke:none" /><path
             d="m 1353.23,1265.41 5.76,-5.78 5.76,-7.92 5.76,-8.63 2.88,-8.64 5.76,-11.52 2.88,-8.65 5.76,-10.78 2.88,-8.66 2.88,-11.51 2.16,-11.51 2.88,-7.93 2.88,-11.53 v -8.63 l 2.88,-11.53 2.88,-8.64 v -16.56 l 2.88,-8.64 v -28.08 l 2.88,-8.63 v -74.16 l -2.88,-5.05 v -28.801 l -2.88,-5.75 V 928.43 l -2.88,-2.871 v -14.411 l -2.88,-5.75 v -2.886 l -2.88,-5.762 v -7.922 l -2.88,-5.75 v -5.769 l -2.16,-2.879 v -5.758 l -2.88,-5.75 -2.88,-2.891 v -5.761 l -2.87,-2.872 v -5.046 l -2.89,-2.872 v -2.878 l -2.88,-5.774 -2.88,-2.879 v -2.879 l -2.88,-2.871 -2.88,-2.879 -2.88,-5.769 -2.88,-2.879 -2.88,-2.883 -2.88,-2.867 -2.88,-2.883 -2.88,-5.039 -2.88,-2.879 -2.16,-2.891 -2.88,-2.878 h -5.75 l -2.89,-2.883 -2.88,-2.879 h -2.88 l -2.88,-2.871 h -5.76 l -2.88,-2.879 h -2.88 -2.88 -2.88 -2.88 -2.88 -2.16 -2.88 -2.88 l -2.87,2.879 h -5.77 l -2.88,2.871 h -2.88 l -2.87,2.879 -2.89,2.883 h -2.88 l -5.76,2.878 -2.87,2.891 -2.89,2.879 -2.88,5.039 -2.16,2.883 -2.88,2.867 -2.88,2.883 -2.88,2.879 -2.88,5.769 -2.88,2.879 -2.88,2.871 v 2.879 l -2.88,2.879 v 5.774 l -2.87,2.878 -2.89,2.872 v 5.046 l -2.88,2.872 v 5.761 l -2.88,2.891 v 5.75 l -2.88,5.758 v 2.879 l -2.87,5.769 v 5.75 l -2.89,2.883 v 5.039 l -2.88,5.762 v 8.636 l -2.16,5.762 v 11.52 l -2.88,2.879 v 22.32 l -2.88,2.883 v 36.718 l -2.88,2.879 v 54.001 l 2.88,5.76 v 42.48 l 2.88,8.64 v 8.64 l 2.88,7.92 v 8.64 l 2.16,11.53 v 8.63 l 2.88,11.53 2.89,7.93 2.87,11.51 2.88,11.51 2.88,8.66 5.77,10.78 2.87,8.65 5.76,11.52 5.76,8.64 2.88,8.63 5.76,7.92 5.04,5.78 5.76,5.74 5.76,5.76 5.77,5.77 5.75,2.88 5.76,2.87 5.76,2.89 h 5.76 l 5.04,2.88 5.76,-2.88 h 5.76 l 5.77,-2.89 5.75,-2.87 5.76,-2.88 5.76,-5.77 5.76,-5.76 z"
             id="path85"
             style="fill:none;stroke:#a8a29a;stroke-width:2.15;stroke-linecap:butt;stroke-linejoin:miter;stroke-miterlimit:4;stroke-dasharray:none;stroke-opacity:1" /><path
             d="M 1974.59,2382.84 298.43,69.4688 H 245.148 L 1974.59,2456.27 v -73.44"
             id="path87"
             style="fill:#000000;fill-opacity:1;fill-rule:nonzero;stroke:none" /><path
             d="M 1974.59,2382.84 298.43,69.4688 H 245.148 L 1974.59,2456.27 v -73.44 z"
             id="path89"
             style="fill:none;stroke:#000000;stroke-width:2.15;stroke-linecap:butt;stroke-linejoin:miter;stroke-miterlimit:4;stroke-dasharray:none;stroke-opacity:1" /><path
             d="m 114.84,69.4688 c -8.641,0 -14.41,2.1718 -23.0392,5.0429 L 1974.6,2672.28 v -71.29 L 140.051,69.4688 h -25.199"
             id="path91"
             style="fill:#000000;fill-opacity:1;fill-rule:nonzero;stroke:none" /><path
             d="m 114.84,69.4688 c -8.641,0 -14.41,2.1718 -23.0392,5.0429 L 1974.6,2672.28 v -71.29 L 140.051,69.4688 h -25.199 z"
             id="path93"
             style="fill:none;stroke:#000000;stroke-width:2.15;stroke-linecap:butt;stroke-linejoin:miter;stroke-miterlimit:4;stroke-dasharray:none;stroke-opacity:1" /><path
             d="M 1937.87,2768.04 69.4688,188.289 V 258.84 L 1886.75,2768.05 h 42.48 c 2.88,0 5.76,0 8.64,0"
             id="path95"
             style="fill:#000000;fill-opacity:1;fill-rule:nonzero;stroke:none" /><path
             d="M 1937.87,2768.04 69.4688,188.289 V 258.84 L 1886.75,2768.05 h 42.48 c 2.88,0 5.76,0 8.64,0 z"
             id="path97"
             style="fill:none;stroke:#000000;stroke-width:2.15;stroke-linecap:butt;stroke-linejoin:miter;stroke-miterlimit:4;stroke-dasharray:none;stroke-opacity:1" /><path
             d="M 1781.63,2768.04 69.4688,406.449 V 477.73 L 1727.63,2768.05 h 54"
             id="path99"
             style="fill:#000000;fill-opacity:1;fill-rule:nonzero;stroke:none" /><path
             d="M 1781.63,2768.04 69.4688,406.449 V 477.73 L 1727.63,2768.05 h 54 z"
             id="path101"
             style="fill:none;stroke:#000000;stroke-width:2.15;stroke-linecap:butt;stroke-linejoin:miter;stroke-miterlimit:4;stroke-dasharray:none;stroke-opacity:1" /></g></g></g></g></svg>
