<?xml version="1.0" encoding="UTF-8" standalone="no"?>
<!-- Created with Inkscape (http://www.inkscape.org/) -->

<svg
   version="1.0"
   width="100"
   height="100"
   id="svg2"
   xml:space="preserve"
   xmlns="http://www.w3.org/2000/svg"
   xmlns:svg="http://www.w3.org/2000/svg"><defs
     id="defs5"><clipPath
       id="clipPath19"><path
         d="M 0.496094,0 L 2272.8,0 L 2272.8,2272.31 L 0.496094,2272.31 L 0.496094,0 z"
         id="path21" /></clipPath></defs><g
     transform="matrix(0.4400819,0,0,-0.4400819,-0.02182311,100.00002)"
     id="g11"><g
       transform="scale(0.1)"
       id="g13"><g
         id="g15"><g
           clip-path="url(#clipPath19)"
           id="g17"><path
             d="m 2271.73,1135.07 c 0,624.96 -511.2,1136.16 -1136.16,1136.16 C 512.766,2271.23 1.56641,1760.03 1.56641,1135.07 1.56641,512.281 512.766,1.07031 1135.57,1.07031 c 624.96,0 1136.16,511.21069 1136.16,1133.99969"
             id="path23"
             style="fill:#e23828;fill-opacity:1;fill-rule:nonzero;stroke:none" /><path
             d="m 2271.73,1135.07 c 0,624.96 -511.2,1136.16 -1136.16,1136.16 C 512.766,2271.23 1.56641,1760.03 1.56641,1135.07 1.56641,512.281 512.766,1.07031 1135.57,1.07031 c 624.96,0 1136.16,511.21069 1136.16,1133.99969 z"
             id="path25"
             style="fill:none;stroke:#e23828;stroke-width:2.15;stroke-linecap:butt;stroke-linejoin:miter;stroke-miterlimit:4;stroke-dasharray:none;stroke-opacity:1" /><path
             d="m 1987.32,1135.07 c 0,468.72 -383.03,851.77 -851.75,851.77 -466.562,0 -849.605,-383.04 -849.605,-851.77 0,-466.55 383.043,-849.601 849.605,-849.601 468.72,0 851.75,383.051 851.75,849.601"
             id="path27"
             style="fill:#ffffff;fill-opacity:1;fill-rule:nonzero;stroke:none" /><path
             d="m 1987.32,1135.07 c 0,468.72 -383.03,851.77 -851.75,851.77 -466.562,0 -849.605,-383.04 -849.605,-851.77 0,-466.55 383.043,-849.601 849.605,-849.601 468.72,0 851.75,383.051 851.75,849.601 z"
             id="path29"
             style="fill:none;stroke:#e23828;stroke-width:2.15;stroke-linecap:butt;stroke-linejoin:miter;stroke-miterlimit:4;stroke-dasharray:none;stroke-opacity:1" /><path
             d="m 1166.53,1566.35 c 14.4,108 176.4,99.36 176.4,-10.79 v -2.88 c -2.88,-37.44 -20.16,-74.16 -46.08,-100.08 l -218.16,-226.79 v -90.73 h 366.49 v 96.49 h -216.01 l 141.84,147.6 c 30.95,30.96 54,71.28 65.52,110.88 5.76,19.44 8.65,42.49 8.65,62.64 0,105.12 -85.7,192.96 -193.7,192.96 -90.7,0 -169.91,-68.4 -187.19,-159.12 l 102.24,-20.16"
             id="path31"
             style="fill:#000000;fill-opacity:1;fill-rule:nonzero;stroke:none" /><path
             d="m 1166.53,1566.35 c 14.4,108 176.4,99.36 176.4,-10.79 v -2.88 c -2.88,-37.44 -20.16,-74.16 -46.08,-100.08 l -218.16,-226.79 v -90.73 h 366.49 v 96.49 h -216.01 l 141.84,147.6 c 30.95,30.96 54,71.28 65.52,110.88 5.76,19.44 8.65,42.49 8.65,62.64 0,105.12 -85.7,192.96 -193.7,192.96 -90.7,0 -169.91,-68.4 -187.19,-159.12 l 102.24,-20.16 z"
             id="path33"
             style="fill:none;stroke:#000000;stroke-width:2.15;stroke-linecap:butt;stroke-linejoin:miter;stroke-miterlimit:4;stroke-dasharray:none;stroke-opacity:1" /><path
             d="m 995.895,1731.23 h -99.368 l -71.281,-70.56 v -102.24 l 65.531,36.72 v -460.09 h 105.118 v 596.16"
             id="path35"
             style="fill:#000000;fill-opacity:1;fill-rule:nonzero;stroke:none" /><path
             d="m 995.895,1731.23 h -99.368 l -71.281,-70.56 v -102.24 l 65.531,36.72 v -460.09 h 105.118 v 596.16 z"
             id="path37"
             style="fill:none;stroke:#000000;stroke-width:2.15;stroke-linecap:butt;stroke-linejoin:miter;stroke-miterlimit:4;stroke-dasharray:none;stroke-opacity:1" /><path
             d="M 1664.05,608.762 V 802.43 c 0,54.011 -43.2,99.359 -100.09,99.359 -25.19,0 -51.11,-8.641 -70.55,-25.918 v 17.277 h -59.77 V 608.762 h 59.77 V 790.91 c 0,74.16 110.88,74.16 110.88,0 V 608.762 h 59.76"
             id="path39"
             style="fill:#000000;fill-opacity:1;fill-rule:nonzero;stroke:none" /><path
             d="M 1664.05,608.762 V 802.43 c 0,54.011 -43.2,99.359 -100.09,99.359 v 0 c -25.19,0 -51.11,-8.641 -70.55,-25.918 v 17.277 h -59.77 V 608.762 h 59.77 V 790.91 c 0,74.16 110.88,74.16 110.88,0 V 608.762 Z"
             id="path41"
             style="fill:none;stroke:#000000;stroke-width:2.15;stroke-linecap:butt;stroke-linejoin:miter;stroke-miterlimit:4;stroke-dasharray:none;stroke-opacity:1" /><path
             d="M 1342.93,608.762 V 802.43 c 0,54.011 -43.2,99.359 -97.2,99.359 h -2.88 c -25.21,0 -51.12,-8.641 -70.56,-25.918 v 17.277 h -59.76 V 608.762 h 59.76 V 790.91 c 0,74.16 110.88,74.16 110.88,0 V 608.762 h 59.76"
             id="path43"
             style="fill:#000000;fill-opacity:1;fill-rule:nonzero;stroke:none" /><path
             d="M 1342.93,608.762 V 802.43 c 0,54.011 -43.2,99.359 -97.2,99.359 h -2.88 c -25.21,0 -51.12,-8.641 -70.56,-25.918 v 17.277 h -59.76 V 608.762 h 59.76 V 790.91 c 0,74.16 110.88,74.16 110.88,0 V 608.762 Z"
             id="path45"
             style="fill:none;stroke:#000000;stroke-width:2.15;stroke-linecap:butt;stroke-linejoin:miter;stroke-miterlimit:4;stroke-dasharray:none;stroke-opacity:1" /><path
             d="m 794.285,808.191 c -5.758,-17.281 -5.758,-37.441 -5.758,-56.882 0,-20.161 0,-39.598 5.758,-56.879 14.403,-54 62.641,-93.59 116.641,-93.59 56.879,0 105.124,39.59 116.644,93.59 5.04,17.281 7.91,36.718 7.91,56.879 0,19.441 -2.87,39.601 -7.91,56.882 -11.52,54 -59.765,93.598 -116.644,93.598 -54,0 -102.238,-39.598 -116.641,-93.598"
             id="path47"
             style="fill:#000000;fill-opacity:1;fill-rule:nonzero;stroke:none" /><path
             d="m 794.285,808.191 c -5.758,-17.281 -5.758,-37.441 -5.758,-56.882 0,-20.161 0,-39.598 5.758,-56.879 14.403,-54 62.641,-93.59 116.641,-93.59 56.879,0 105.124,39.59 116.644,93.59 5.04,17.281 7.91,36.718 7.91,56.879 0,19.441 -2.87,39.601 -7.91,56.882 -11.52,54 -59.765,93.598 -116.644,93.598 -54,0 -102.238,-39.598 -116.641,-93.598 z"
             id="path49"
             style="fill:none;stroke:#000000;stroke-width:2.15;stroke-linecap:butt;stroke-linejoin:miter;stroke-miterlimit:4;stroke-dasharray:none;stroke-opacity:1" /><path
             d="m 854.047,802.43 c -5.762,-17.27 -5.762,-34.551 -5.762,-51.121 0,-17.278 0,-34.559 5.762,-51.11 8.641,-25.929 30.961,-42.48 56.879,-42.48 25.211,0 51.129,16.551 56.879,42.48 5.761,16.551 8.64,33.832 8.64,51.11 0,16.57 -2.879,33.851 -8.64,51.121 -5.758,25.211 -31.668,42.48 -56.879,42.48 -25.918,0 -48.238,-17.269 -56.879,-42.48"
             id="path51"
             style="fill:#ffffff;fill-opacity:1;fill-rule:nonzero;stroke:none" /><path
             d="m 854.047,802.43 c -5.762,-17.27 -5.762,-34.551 -5.762,-51.121 0,-17.278 0,-34.559 5.762,-51.11 8.641,-25.929 30.961,-42.48 56.879,-42.48 25.211,0 51.129,16.551 56.879,42.48 5.761,16.551 8.64,33.832 8.64,51.11 0,16.57 -2.879,33.851 -8.64,51.121 -5.758,25.211 -31.668,42.48 -56.879,42.48 -25.918,0 -48.238,-17.269 -56.879,-42.48 z"
             id="path53"
             style="fill:none;stroke:#000000;stroke-width:2.15;stroke-linecap:butt;stroke-linejoin:miter;stroke-miterlimit:4;stroke-dasharray:none;stroke-opacity:1" /><path
             d="m 663.246,893.148 h 71.281 V 836.27 H 663.246 V 680.031 c 0,-11.511 11.52,-22.312 25.922,-22.312 8.637,0 20.156,0 28.078,2.883 l 17.281,-51.84 c -14.402,-5.043 -30.961,-7.922 -45.359,-7.922 -48.242,0 -84.961,36.711 -84.961,84.961 V 836.27 h -40.32 v 56.878 h 40.32 v 62.653 l 59.039,51.109 V 893.148"
             id="path55"
             style="fill:#000000;fill-opacity:1;fill-rule:nonzero;stroke:none" /><path
             d="m 663.246,893.148 h 71.281 V 836.27 H 663.246 V 680.031 c 0,-11.511 11.52,-22.312 25.922,-22.312 v 0 c 8.637,0 20.156,0 28.078,2.883 l 17.281,-51.84 c -14.402,-5.043 -30.961,-7.922 -45.359,-7.922 -48.242,0 -84.961,36.711 -84.961,84.961 V 836.27 h -40.32 v 56.878 h 40.32 v 62.653 l 59.039,51.109 z"
             id="path57"
             style="fill:none;stroke:#000000;stroke-width:2.15;stroke-linecap:butt;stroke-linejoin:miter;stroke-miterlimit:4;stroke-dasharray:none;stroke-opacity:1" /></g></g></g></g></svg>
