<?xml version="1.0" encoding="UTF-8" standalone="no"?>
<!-- Created with Inkscape (http://www.inkscape.org/) -->

<svg
   version="1.0"
   width="100"
   height="133.29362"
   id="svg2"
   xml:space="preserve"
   xmlns="http://www.w3.org/2000/svg"
   xmlns:svg="http://www.w3.org/2000/svg"><defs
     id="defs5"><clipPath
       id="clipPath19"><path
         d="M 0,0 H 2976.37 V 3967.31 H 0 Z"
         id="path21" /></clipPath></defs><g
     transform="matrix(0.33597984,0,0,-0.33597984,0,133.29362)"
     id="g11"><g
       transform="scale(0.1)"
       id="g13"><g
         id="g15"><g
           clip-path="url(#clipPath19)"
           id="g17"><path
             d="M 1.76953,1.76172 H 2974.5995 V 3965.5417 H 1.76953 Z"
             id="path23"
             style="fill:#ffffff;fill-opacity:1;fill-rule:nonzero;stroke:none" /><path
             d="M 1.76953,1.76172 H 2974.5995 V 3965.5417 H 1.76953 Z"
             id="path25"
             style="fill:none;stroke:#000000;stroke-width:3.53909;stroke-linecap:round;stroke-linejoin:round;stroke-miterlimit:500;stroke-dasharray:none;stroke-opacity:1" /><path
             d="M 879.84,3039.85 C 766,3006.74 643.148,3032.26 551.93,3108 l 63.422,76.38 c 62.289,-51.72 145.25,-71.18 224.046,-52.56 34.274,8.1 59.411,37.34 62.293,72.44 2.879,35.09 -17.179,68.05 -49.66,81.62 -16.801,7.01 -34.121,12.71 -51.812,17.02 l -61.27,14.95 c -29.48,7.19 -57.59,19.14 -83.23,35.37 -51.239,32.46 -81.039,89.99 -77.981,150.57 3.063,60.58 38.5,114.82 92.75,141.94 13.301,6.66 27.16,12.15 41.41,16.43 79.133,23.74 164.321,16.38 238.211,-20.56 16.141,-8.07 31.422,-17.74 45.621,-28.88 l -65.332,-78.82 c -17.218,14.27 -37.07,25.05 -58.41,31.72 -45.886,14.34 -95.168,13.55 -140.578,-2.23 -27.051,-9.41 -45.949,-33.94 -48.18,-62.48 -2.21,-28.55 12.68,-55.7 37.942,-69.18 13.008,-6.94 26.816,-12.24 41.137,-15.77 l 63.132,-15.61 c 26.957,-6.66 53.25,-15.81 78.528,-27.33 67.781,-30.88 109.181,-100.68 103.811,-174.96 -5.38,-74.29 -56.401,-137.39 -127.921,-158.2"
             id="path35"
             style="fill:#a8a29a;fill-opacity:1;fill-rule:nonzero;stroke:none" /><path
             d="M 879.84,3039.85 C 766,3006.74 643.148,3032.26 551.93,3108 l 63.422,76.38 c 62.289,-51.72 145.25,-71.18 224.046,-52.56 34.274,8.1 59.411,37.34 62.293,72.44 2.879,35.09 -17.179,68.05 -49.66,81.62 -16.801,7.01 -34.121,12.71 -51.812,17.02 l -61.27,14.95 c -29.48,7.19 -57.59,19.14 -83.23,35.37 -51.239,32.46 -81.039,89.99 -77.981,150.57 3.063,60.58 38.5,114.82 92.75,141.94 13.301,6.66 27.16,12.15 41.41,16.43 79.133,23.74 164.321,16.38 238.211,-20.56 16.141,-8.07 31.422,-17.74 45.621,-28.88 l -65.332,-78.82 c -17.218,14.27 -37.07,25.05 -58.41,31.72 -45.886,14.34 -95.168,13.55 -140.578,-2.23 -27.051,-9.41 -45.949,-33.94 -48.18,-62.48 -2.21,-28.55 12.68,-55.7 37.942,-69.18 13.008,-6.94 26.816,-12.24 41.137,-15.77 l 63.132,-15.61 c 26.957,-6.66 53.25,-15.81 78.528,-27.33 67.781,-30.88 109.181,-100.68 103.811,-174.96 -5.38,-74.29 -56.401,-137.39 -127.921,-158.2 z"
             id="path37"
             style="fill:none;stroke:#a8a29a;stroke-width:3.53909;stroke-linecap:round;stroke-linejoin:round;stroke-miterlimit:500;stroke-dasharray:none;stroke-opacity:1" /><path
             d="m 1120.8,3353.49 c -14.48,-59.97 -14.48,-122.52 0,-182.49 20.46,-84.77 96.32,-144.5 183.54,-144.5 87.2,0 163.06,59.73 183.53,144.5 14.48,59.97 14.48,122.52 0,182.49 -20.47,84.77 -96.33,144.49 -183.53,144.49 -87.22,0 -163.08,-59.73 -183.54,-144.49"
             id="path39"
             style="fill:#a8a29a;fill-opacity:1;fill-rule:nonzero;stroke:none" /><path
             d="m 1120.8,3353.49 c -14.48,-59.97 -14.48,-122.52 0,-182.49 20.46,-84.77 96.32,-144.5 183.54,-144.5 87.2,0 163.06,59.73 183.53,144.5 14.48,59.97 14.48,122.52 0,182.49 -20.47,84.77 -96.33,144.49 -183.53,144.49 -87.22,0 -163.08,-59.73 -183.54,-144.49 z"
             id="path41"
             style="fill:none;stroke:#a8a29a;stroke-width:3.53909;stroke-linecap:round;stroke-linejoin:round;stroke-miterlimit:500;stroke-dasharray:none;stroke-opacity:1" /><path
             d="m 1214.96,3342.99 c -15.02,-52.78 -15.02,-108.71 0,-161.49 11.37,-39.94 47.85,-67.49 89.38,-67.49 41.52,0 78,27.55 89.36,67.49 15.02,52.78 15.02,108.71 0,161.49 -11.36,39.94 -47.84,67.48 -89.36,67.48 -41.53,0 -78.01,-27.55 -89.38,-67.48"
             id="path43"
             style="fill:#ffffff;fill-opacity:1;fill-rule:nonzero;stroke:none" /><path
             d="m 1214.96,3342.99 c -15.02,-52.78 -15.02,-108.71 0,-161.49 11.37,-39.94 47.85,-67.49 89.38,-67.49 41.52,0 78,27.55 89.36,67.49 15.02,52.78 15.02,108.71 0,161.49 -11.36,39.94 -47.84,67.48 -89.36,67.48 -41.53,0 -78.01,-27.55 -89.38,-67.48 z"
             id="path45"
             style="fill:none;stroke:#ffffff;stroke-width:2.8997;stroke-linecap:round;stroke-linejoin:round;stroke-miterlimit:500;stroke-dasharray:none;stroke-opacity:1" /><path
             d="m 1953.3,3039.01 v 302.71 c 0,41.45 -16.46,81.19 -45.77,110.49 -29.31,29.31 -69.05,45.77 -110.49,45.77 -41.15,0 -81,-14.5 -112.52,-40.96 v 28.45 h -93.76 V 3039 h 93.76 v 283.96 c 0,31.27 16.68,60.16 43.75,75.79 27.08,15.63 60.44,15.63 87.52,0 27.07,-15.63 43.75,-44.52 43.75,-75.79 V 3039 h 93.76"
             id="path47"
             style="fill:#a8a29a;fill-opacity:1;fill-rule:nonzero;stroke:none" /><path
             d="m 1953.3,3039.01 v 302.71 c 0,41.45 -16.46,81.19 -45.77,110.49 -29.31,29.31 -69.05,45.77 -110.49,45.77 -41.15,0 -81,-14.5 -112.52,-40.96 v 28.45 h -93.76 V 3039 h 93.76 v 283.96 c 0,31.27 16.68,60.16 43.75,75.79 27.08,15.63 60.44,15.63 87.52,0 27.07,-15.63 43.75,-44.52 43.75,-75.79 V 3039 h 93.76 z"
             id="path49"
             style="fill:none;stroke:#a8a29a;stroke-width:3.53909;stroke-linecap:round;stroke-linejoin:round;stroke-miterlimit:500;stroke-dasharray:none;stroke-opacity:1" /><path
             d="m 2234.25,3026.5 c -82.79,0 -155.33,55.39 -177.16,135.25 -17.97,65.79 -17.97,135.19 0,200.98 21.83,79.86 94.37,135.25 177.16,135.25 82.79,0 155.35,-55.39 177.17,-135.25 10.6,-38.81 15,-79.05 13.02,-119.24 h -286.46 c 1.52,-23.18 5.84,-46.11 12.87,-68.25 11.6,-36.32 45.27,-61.04 83.4,-61.22 42.32,0 80.94,24.12 99.51,62.15 l 78.63,-38.38 c -33.23,-68.09 -102.36,-111.28 -178.14,-111.29"
             id="path51"
             style="fill:#a8a29a;fill-opacity:1;fill-rule:nonzero;stroke:none" /><path
             d="m 2234.25,3026.5 c -82.79,0 -155.33,55.39 -177.16,135.25 -17.97,65.79 -17.97,135.19 0,200.98 21.83,79.86 94.37,135.25 177.16,135.25 82.79,0 155.35,-55.39 177.17,-135.25 10.6,-38.81 15,-79.05 13.02,-119.24 h -286.46 c 1.52,-23.18 5.84,-46.11 12.87,-68.25 11.6,-36.32 45.27,-61.04 83.4,-61.22 42.32,0 80.94,24.12 99.51,62.15 l 78.63,-38.38 c -33.23,-68.09 -102.36,-111.28 -178.14,-111.29 z"
             id="path53"
             style="fill:none;stroke:#a8a29a;stroke-width:3.53909;stroke-linecap:round;stroke-linejoin:round;stroke-miterlimit:500;stroke-dasharray:none;stroke-opacity:1" /><path
             d="m 2150.85,3349.24 c -3.2,-10.1 -5.85,-20.36 -7.93,-30.74 h 182.66 c -2.07,10.38 -4.71,20.64 -7.91,30.74 -11.55,36.34 -45.29,61.03 -83.42,61.03 -38.13,0 -71.86,-24.69 -83.4,-61.03"
             id="path55"
             style="fill:#ffffff;fill-opacity:1;fill-rule:nonzero;stroke:none" /><path
             d="m 2150.85,3349.24 c -3.2,-10.1 -5.85,-20.36 -7.93,-30.74 h 182.66 c -2.07,10.38 -4.71,20.64 -7.91,30.74 -11.55,36.34 -45.29,61.03 -83.42,61.03 -38.13,0 -71.86,-24.69 -83.4,-61.03 z"
             id="path57"
             style="fill:none;stroke:#ffffff;stroke-width:2.53687;stroke-linecap:round;stroke-linejoin:round;stroke-miterlimit:500;stroke-dasharray:none;stroke-opacity:1" /><path
             d="M 2513.82,363.449 H 462.551 c -49.25,0 -89.192,39.93 -89.192,89.192 V 2503.9 c 0,49.25 39.93,89.18 89.192,89.18 H 2513.82 c 23.65,0 46.33,-9.39 63.06,-26.12 16.72,-16.73 26.12,-39.41 26.12,-63.06 V 452.641 c 0,-23.653 -9.4,-46.34 -26.12,-63.063 -16.73,-16.719 -39.41,-26.129 -63.06,-26.129"
             id="path59"
             style="fill:#a8a29a;fill-opacity:1;fill-rule:nonzero;stroke:none" /><path
             d="M 2513.82,363.449 H 462.551 c -49.25,0 -89.192,39.93 -89.192,89.192 V 2503.9 c 0,49.25 39.93,89.18 89.192,89.18 H 2513.82 c 23.65,0 46.33,-9.39 63.06,-26.12 16.72,-16.73 26.12,-39.41 26.12,-63.06 V 452.641 c 0,-23.653 -9.4,-46.34 -26.12,-63.063 -16.73,-16.719 -39.41,-26.129 -63.06,-26.129 z"
             id="path61"
             style="fill:none;stroke:#a8a29a;stroke-width:3.53909;stroke-linecap:round;stroke-linejoin:round;stroke-miterlimit:500;stroke-dasharray:none;stroke-opacity:1" /><path
             d="m 1355.91,1272.93 h 356.58 c 261.91,18.59 462.05,241.25 452.69,503.65 -9.37,262.39 -224.86,470.23 -487.42,470.1 H 1080.81 V 625.359 h 275.1 v 647.571"
             id="path63"
             style="fill:#ffffff;fill-opacity:1;fill-rule:nonzero;stroke:none" /><path
             d="m 1355.91,1272.93 h 356.58 c 261.91,18.59 462.05,241.25 452.69,503.65 -9.37,262.39 -224.86,470.23 -487.42,470.1 H 1080.81 V 625.359 h 275.1 z"
             id="path65"
             style="fill:none;stroke:#ffffff;stroke-width:3.53909;stroke-linecap:round;stroke-linejoin:round;stroke-miterlimit:500;stroke-dasharray:none;stroke-opacity:1" /><path
             d="m 1357.05,1532.74 h 314.41 c 118.19,0.53 216.61,90.84 227.24,208.54 10.65,117.72 -69.97,224.22 -186.15,245.93 h -355.5 v -454.47"
             id="path67"
             style="fill:#a8a29a;fill-opacity:1;fill-rule:nonzero;stroke:none" /><path
             d="m 1357.05,1532.74 h 314.41 c 118.19,0.53 216.61,90.84 227.24,208.54 10.65,117.72 -69.97,224.22 -186.15,245.93 h -355.5 z"
             id="path69"
             style="fill:none;stroke:#a8a29a;stroke-width:3.53909;stroke-linecap:round;stroke-linejoin:round;stroke-miterlimit:500;stroke-dasharray:none;stroke-opacity:1" /><g
             id="path73"
             style="stroke-width:0;stroke-miterlimit:500;stroke-dasharray:none" /><g
             id="path77"
             style="stroke-width:0;stroke-miterlimit:500;stroke-dasharray:none" /><g
             id="path81"
             style="stroke-width:0;stroke-miterlimit:500;stroke-dasharray:none" /><g
             id="path85"
             style="stroke-width:0;stroke-miterlimit:500;stroke-dasharray:none" /><g
             id="path29"
             transform="matrix(29.763691,0,0,-29.763691,0,3967.31)"
             style="stroke-width:0;stroke-miterlimit:500;stroke-dasharray:none"><path
               id="path2844"
               style="color:#000000;fill:#000000;stroke-width:0;stroke-linecap:round;stroke-linejoin:round;stroke-miterlimit:500;stroke-dasharray:none"
               d="M 5.8867188 1.1660156 C 4.6345404 1.1660156 3.4322112 1.6615114 2.546875 2.546875 C 1.6615405 3.4318861 1.1660156 4.6329518 1.1660156 5.8847656 L 1.1660156 127.4082 C 1.1660156 130.01468 3.280299 132.12695 5.8867188 132.12695 L 94.115234 132.12695 C 95.36738 132.12695 96.567794 131.63142 97.453125 130.74609 C 98.338122 129.86104 98.833984 128.66039 98.833984 127.4082 L 98.833984 5.8847656 C 98.833984 3.2787069 96.721631 1.1660156 94.115234 1.1660156 L 5.8867188 1.1660156 z M 5.8847656 3.6132812 L 80.261719 3.6132812 L 3.6132812 109.18555 L 3.6132812 5.8847656 C 3.6132812 5.2823707 3.855254 4.7073116 4.28125 4.28125 C 4.7073794 3.8551862 5.2824008 3.6132812 5.8847656 3.6132812 z M 83.494141 3.6132812 L 89.517578 3.6132812 L 3.6132812 121.9375 L 3.6132812 113.63867 L 83.494141 3.6132812 z M 92.751953 3.6132812 L 94.113281 3.6132812 C 94.715681 3.6132812 95.292753 3.8552536 95.71875 4.28125 C 96.144809 4.7073091 96.386719 5.2823663 96.386719 5.8847656 L 96.386719 6.9042969 L 7.2480469 129.67969 L 5.8847656 129.67969 C 5.28228 129.67969 4.7068909 129.43957 4.28125 129.01367 C 3.8552997 128.58759 3.6132811 128.01094 3.6132812 127.4082 L 3.6132812 126.38867 L 92.751953 3.6132812 z M 96.386719 11.355469 L 96.386719 19.65625 L 16.505859 129.67969 L 10.482422 129.67969 L 96.386719 11.355469 z M 96.386719 24.109375 L 96.386719 127.4082 C 96.386719 128.66356 95.368659 129.67969 94.113281 129.67969 L 19.738281 129.67969 L 96.386719 24.109375 z " /></g></g></g></g></g></svg>
