<?xml version="1.0" encoding="UTF-8" standalone="no"?>
<!-- Created with Inkscape (http://www.inkscape.org/) -->

<svg
   version="1.0"
   width="100"
   height="100"
   id="svg2"
   xml:space="preserve"
   xmlns="http://www.w3.org/2000/svg"
   xmlns:svg="http://www.w3.org/2000/svg"><defs
     id="defs5"><clipPath
       id="clipPath19"><path
         d="M 0.496094,0.496094 L 5953.25,0.496094 L 5953.25,5953.25 L 0.496094,5953.25 L 0.496094,0.496094 z"
         id="path21" /></clipPath></defs><g
     transform="matrix(0.16799012,0,0,-0.16799013,-0.00871578,100.00833)"
     id="g11"><g
       transform="scale(0.1)"
       id="g13"><g
         id="g15"><g
           clip-path="url(#clipPath19)"
           id="g17"><path
             d="M 4.03516,4.02734 H 5949.7152 V 5949.7073 H 4.03516 Z"
             id="path23"
             style="fill:#0046ac;fill-opacity:1;fill-rule:nonzero;stroke:none" /><path
             d="M 4.03516,4.02734 H 5949.7152 V 5949.7073 H 4.03516 Z"
             id="path25"
             style="fill:none;stroke:#0046ac;stroke-width:7.07819;stroke-linecap:round;stroke-linejoin:round;stroke-miterlimit:500;stroke-dasharray:none;stroke-opacity:1" /><path
             d="m 5644.82,4.02734 c 80.86,0 158.41,32.12886 215.57,89.30856 57.21,57.1911 89.32,134.7191 89.32,215.6021 V 5644.8 c 0,80.86 -32.11,158.41 -89.32,215.61 -57.16,57.18 -134.71,89.3 -215.57,89.3 H 308.945 c -80.859,0 -158.418,-32.12 -215.5973,-89.3 C 36.1641,5803.21 4.04688,5725.66 4.04688,5644.8 V 308.938 C 4.04688,228.055 36.1758,150.527 93.3477,93.3359 150.527,36.1562 228.086,4.02734 308.945,4.02734 H 5644.82"
             id="path27"
             style="fill:#ffffff;fill-opacity:1;fill-rule:nonzero;stroke:none" /><path
             d="m 5644.82,4.02734 c 80.86,0 158.41,32.12886 215.57,89.30856 57.21,57.1911 89.32,134.7191 89.32,215.6021 V 5644.8 c 0,80.86 -32.11,158.41 -89.32,215.61 -57.16,57.18 -134.71,89.3 -215.57,89.3 H 308.945 c -80.859,0 -158.418,-32.12 -215.5973,-89.3 C 36.1641,5803.21 4.04688,5725.66 4.04688,5644.8 V 308.938 C 4.04688,228.055 36.1758,150.527 93.3477,93.3359 150.527,36.1562 228.086,4.02734 308.945,4.02734 Z"
             id="path29"
             style="fill:none;stroke:#ffffff;stroke-width:7.07819;stroke-linecap:round;stroke-linejoin:round;stroke-miterlimit:500;stroke-dasharray:none;stroke-opacity:1" /><path
             d="m 5644.82,156.477 c 40.43,0 79.2,16.07 107.79,44.66 28.59,28.578 44.65,67.371 44.65,107.801 V 5644.8 c 0,40.43 -16.06,79.21 -44.65,107.8 -28.59,28.59 -67.36,44.65 -107.79,44.65 H 308.945 c -40.429,0 -79.211,-16.06 -107.8,-44.65 -28.59,-28.59 -44.649,-67.37 -44.649,-107.8 V 308.938 c 0,-84.204 68.25,-152.461 152.449,-152.461 H 5644.82"
             id="path31"
             style="fill:#0046ac;fill-opacity:1;fill-rule:nonzero;stroke:none" /><path
             d="m 5644.82,156.477 c 40.43,0 79.2,16.07 107.79,44.66 28.59,28.578 44.65,67.371 44.65,107.801 V 5644.8 c 0,40.43 -16.06,79.21 -44.65,107.8 -28.59,28.59 -67.36,44.65 -107.79,44.65 H 308.945 c -40.429,0 -79.211,-16.06 -107.8,-44.65 -28.59,-28.59 -44.649,-67.37 -44.649,-107.8 V 308.938 c 0,-84.204 68.25,-152.461 152.449,-152.461 z"
             id="path33"
             style="fill:none;stroke:#0046ac;stroke-width:7.07819;stroke-linecap:round;stroke-linejoin:round;stroke-miterlimit:500;stroke-dasharray:none;stroke-opacity:1" /><path
             d="m 2805.28,5111.48 c 0,126.14 -102.27,228.41 -228.41,228.41 -126.16,0 -228.42,-102.27 -228.42,-228.41 0,-126.14 102.26,-228.41 228.42,-228.41 126.14,0 228.41,102.27 228.41,228.41"
             id="path35"
             style="fill:#ffffff;fill-opacity:1;fill-rule:nonzero;stroke:none" /><path
             d="m 2805.28,5111.48 c 0,126.14 -102.27,228.41 -228.41,228.41 -126.16,0 -228.42,-102.27 -228.42,-228.41 0,-126.14 102.26,-228.41 228.42,-228.41 126.14,0 228.41,102.27 228.41,228.41 z"
             id="path37"
             style="fill:none;stroke:#ffffff;stroke-width:7.07819;stroke-linecap:round;stroke-linejoin:round;stroke-miterlimit:500;stroke-dasharray:none;stroke-opacity:1" /><path
             d="m 3669.12,4419.88 c 0,101.13 -81.98,183.12 -183.12,183.12 -101.14,0 -183.14,-81.99 -183.14,-183.12 0,-101.15 82,-183.15 183.14,-183.15 101.14,0 183.12,82 183.12,183.15"
             id="path39"
             style="fill:#ffffff;fill-opacity:1;fill-rule:nonzero;stroke:none" /><path
             d="m 3669.12,4419.88 c 0,101.13 -81.98,183.12 -183.12,183.12 -101.14,0 -183.14,-81.99 -183.14,-183.12 0,-101.15 82,-183.15 183.14,-183.15 101.14,0 183.12,82 183.12,183.15 z"
             id="path41"
             style="fill:none;stroke:#ffffff;stroke-width:7.07819;stroke-linecap:round;stroke-linejoin:round;stroke-miterlimit:500;stroke-dasharray:none;stroke-opacity:1" /><path
             d="m 2095.73,3949.98 242.69,701.07 c 34.54,99.77 123.29,170.84 228.2,182.71 104.91,11.86 207.3,-37.56 263.25,-127.08 l 260.92,-417.48 v -348.33 c 0,-47.3 -38.35,-85.66 -85.65,-85.66 -47.32,0 -85.66,38.36 -85.66,85.66 v 256.95 l -57.1,91.38 v -840.76 l 178.74,-388.39 c 26.36,-57.29 1.3,-125.12 -56,-151.5 -57.3,-26.35 -125.11,-1.29 -151.5,56 l -233.92,508.29 v 293.17 l -279.28,-781.99 c -23.33,-65.34 -95.22,-99.38 -160.56,-76.06 -65.34,23.34 -99.4,95.22 -76.06,160.56 l 321.75,900.91 v 351.87 l -147.93,-427.36 c -9.58,-29.48 -34.33,-51.48 -64.73,-57.55 -30.41,-6.04 -61.7,4.79 -81.84,28.34 -20.16,23.55 -26,56.16 -15.32,85.25"
             id="path43"
             style="fill:#ffffff;fill-opacity:1;fill-rule:nonzero;stroke:none" /><path
             d="m 2095.73,3949.98 242.69,701.07 c 34.54,99.77 123.29,170.84 228.2,182.71 104.91,11.86 207.3,-37.56 263.25,-127.08 l 260.92,-417.48 v -348.33 c 0,-47.3 -38.35,-85.66 -85.65,-85.66 -47.32,0 -85.66,38.36 -85.66,85.66 v 256.95 l -57.1,91.38 v -840.76 l 178.74,-388.39 c 26.36,-57.29 1.3,-125.12 -56,-151.5 -57.3,-26.35 -125.11,-1.29 -151.5,56 l -233.92,508.29 v 293.17 l -279.28,-781.99 c -23.33,-65.34 -95.22,-99.38 -160.56,-76.06 -65.34,23.34 -99.4,95.22 -76.06,160.56 l 321.75,900.91 v 351.87 l -147.93,-427.36 c -9.58,-29.48 -34.33,-51.48 -64.73,-57.55 -30.41,-6.04 -61.7,4.79 -81.84,28.34 -20.16,23.55 -26,56.16 -15.32,85.25 z"
             id="path45"
             style="fill:none;stroke:#ffffff;stroke-width:7.07819;stroke-linecap:round;stroke-linejoin:round;stroke-miterlimit:500;stroke-dasharray:none;stroke-opacity:1" /><path
             d="m 3317.89,4064.55 c 25.11,72.5 89.63,124.15 165.86,132.77 76.23,8.64 150.66,-27.28 191.32,-92.36 l 188.21,-301.14 v -262.95 c 0,-36.05 -29.21,-65.25 -65.25,-65.25 -36.05,0 -65.24,29.2 -65.24,65.25 v 219.25 l -49.53,79.22 v -572.52 l 110.03,-239.05 c 19.12,-41.57 0.94,-90.77 -40.62,-109.91 -41.56,-19.13 -90.78,-0.93 -109.91,40.62 l -140.99,306.34 v 250.72 L 3308.8,2975.23 c -16.11,-45.13 -65.78,-68.66 -110.93,-52.54 -45.14,16.13 -68.67,65.79 -52.55,110.93 l 206.37,577.84 v 170.75 l -101.17,-292.28 c -6.95,-21.39 -24.91,-37.36 -46.97,-41.75 -22.05,-4.39 -44.76,3.46 -59.37,20.55 -14.63,17.09 -18.88,40.75 -11.11,61.84 l 184.82,533.98"
             id="path47"
             style="fill:#ffffff;fill-opacity:1;fill-rule:nonzero;stroke:none" /><path
             d="m 3317.89,4064.55 c 25.11,72.5 89.63,124.15 165.86,132.77 76.23,8.64 150.66,-27.28 191.32,-92.36 l 188.21,-301.14 v -262.95 c 0,-36.05 -29.21,-65.25 -65.25,-65.25 -36.05,0 -65.24,29.2 -65.24,65.25 v 219.25 l -49.53,79.22 v -572.52 l 110.03,-239.05 c 19.12,-41.57 0.94,-90.77 -40.62,-109.91 -41.56,-19.13 -90.78,-0.93 -109.91,40.62 l -140.99,306.34 v 250.72 L 3308.8,2975.23 c -16.11,-45.13 -65.78,-68.66 -110.93,-52.54 -45.14,16.13 -68.67,65.79 -52.55,110.93 l 206.37,577.84 v 170.75 l -101.17,-292.28 c -6.95,-21.39 -24.91,-37.36 -46.97,-41.75 -22.05,-4.39 -44.76,3.46 -59.37,20.55 -14.63,17.09 -18.88,40.75 -11.11,61.84 z"
             id="path49"
             style="fill:none;stroke:#ffffff;stroke-width:7.07819;stroke-linecap:round;stroke-linejoin:round;stroke-miterlimit:500;stroke-dasharray:none;stroke-opacity:1" /><path
             d="m 2425.6,2462.71 -211.65,-697.59 c -301.11,63.45 -599.58,-118.5 -681.11,-415.21 -81.54,-296.73 82.07,-605.633 373.33,-704.933 291.27,-99.301 609.5,45.339 726.19,330.078 116.69,284.745 -8.47,611.125 -285.65,744.805 l 40.93,136.64 566.65,-648.52 c -5.81,-60.29 30.24,-116.77 87.35,-136.91 57.12,-20.15 120.62,1.21 153.94,51.78 l 86.67,0.04 c 30.12,-243.183 209.35,-441.464 448.3,-495.874 238.93,-54.418 486.37,46.679 618.83,252.851 132.46,206.173 121.56,473.233 -27.26,667.933 -148.82,194.71 -403.64,275.31 -637.35,201.62 l -190.97,415.06 40.68,133.4 85.14,1.08 c 35.11,7 59.86,38.59 58.24,74.38 -1.63,35.78 -29.15,65 -64.74,68.78 l -294.98,0.52 c -37.02,-0.14 -68,-28.03 -72.02,-64.82 -4.02,-36.77 20.2,-70.7 56.27,-78.86 l 85.69,-1.08 -110.79,-363.03 -788.79,252.95 45.55,151.29 c 1.89,18.09 17.07,31.86 35.25,31.98 l 143.68,1.1 c 34.98,7.26 59.48,38.9 57.72,74.6 -1.76,35.68 -29.24,64.76 -64.76,68.55 h -213.98 c -31.32,-0.91 -58.32,-22.31 -66.36,-52.61"
             id="path51"
             style="fill:#ffffff;fill-opacity:1;fill-rule:nonzero;stroke:none" /><path
             d="m 2425.6,2462.71 -211.65,-697.59 c -301.11,63.45 -599.58,-118.5 -681.11,-415.21 -81.54,-296.73 82.07,-605.633 373.33,-704.933 291.27,-99.301 609.5,45.339 726.19,330.078 116.69,284.745 -8.47,611.125 -285.65,744.805 l 40.93,136.64 566.65,-648.52 c -5.81,-60.29 30.24,-116.77 87.35,-136.91 57.12,-20.15 120.62,1.21 153.94,51.78 l 86.67,0.04 c 30.12,-243.183 209.35,-441.464 448.3,-495.874 238.93,-54.418 486.37,46.679 618.83,252.851 132.46,206.173 121.56,473.233 -27.26,667.933 -148.82,194.71 -403.64,275.31 -637.35,201.62 l -190.97,415.06 40.68,133.4 85.14,1.08 c 35.11,7 59.86,38.59 58.24,74.38 -1.63,35.78 -29.15,65 -64.74,68.78 l -294.98,0.52 c -37.02,-0.14 -68,-28.03 -72.02,-64.82 -4.02,-36.77 20.2,-70.7 56.27,-78.86 l 85.69,-1.08 -110.79,-363.03 -788.79,252.95 45.55,151.29 c 1.89,18.09 17.07,31.86 35.25,31.98 l 143.68,1.1 c 34.98,7.26 59.48,38.9 57.72,74.6 -1.76,35.68 -29.24,64.76 -64.76,68.55 h -213.98 c -31.32,-0.91 -58.32,-22.31 -66.36,-52.61 z"
             id="path53"
             style="fill:none;stroke:#ffffff;stroke-width:7.07819;stroke-linecap:round;stroke-linejoin:round;stroke-miterlimit:500;stroke-dasharray:none;stroke-opacity:1" /><path
             d="m 2243.12,1383.84 c -18.96,-64.63 -42.23,-127.91 -69.66,-189.41 -7.93,-17.22 -18.14,-33.26 -30.36,-47.72 -23.76,-24.09 -61.4,-27.61 -89.21,-8.36 -27.82,19.26 -37.77,55.72 -23.59,86.44 27.9,54.39 51.29,110.97 69.96,169.17 l 75.29,245.18 c -231.52,42.73 -456.97,-99.78 -517.68,-327.25 -60.71,-227.47 63.72,-463.374 285.75,-541.702 222.02,-78.321 466.93,27.277 562.39,242.492 95.47,215.21 9.35,467.64 -197.73,579.64 l -65.16,-208.48"
             id="path55"
             style="fill:#0046ac;fill-opacity:1;fill-rule:nonzero;stroke:none" /><path
             d="m 2243.12,1383.84 c -18.96,-64.63 -42.23,-127.91 -69.66,-189.41 -7.93,-17.22 -18.14,-33.26 -30.36,-47.72 -23.76,-24.09 -61.4,-27.61 -89.21,-8.36 -27.82,19.26 -37.77,55.72 -23.59,86.44 27.9,54.39 51.29,110.97 69.96,169.17 l 75.29,245.18 c -231.52,42.73 -456.97,-99.78 -517.68,-327.25 -60.71,-227.47 63.72,-463.374 285.75,-541.702 222.02,-78.321 466.93,27.277 562.39,242.492 95.47,215.21 9.35,467.64 -197.73,579.64 z"
             id="path57"
             style="fill:none;stroke:#0046ac;stroke-width:7.07819;stroke-linecap:round;stroke-linejoin:round;stroke-miterlimit:500;stroke-dasharray:none;stroke-opacity:1" /><path
             d="M 3234.46,1794.42 3090.93,1327.8 c -15.99,-0.03 -31.88,-2.39 -47.18,-7.04 l -606.77,696.24 9.23,30.37 788.25,-252.95"
             id="path59"
             style="fill:#0046ac;fill-opacity:1;fill-rule:nonzero;stroke:none" /><path
             d="M 3234.46,1794.42 3090.93,1327.8 c -15.99,-0.03 -31.88,-2.39 -47.18,-7.04 l -606.77,696.24 9.23,30.37 z"
             id="path61"
             style="fill:none;stroke:#0046ac;stroke-width:7.07819;stroke-linecap:round;stroke-linejoin:round;stroke-miterlimit:500;stroke-dasharray:none;stroke-opacity:1" /><path
             d="m 3556.91,1691.34 c -151.18,-92.14 -252.2,-248.09 -274.45,-423.72 h -63.01 l 212.55,696.25 124.91,-272.53"
             id="path63"
             style="fill:#0046ac;fill-opacity:1;fill-rule:nonzero;stroke:none" /><path
             d="m 3556.91,1691.34 c -151.18,-92.14 -252.2,-248.09 -274.45,-423.72 h -63.01 L 3432,1963.87 Z"
             id="path65"
             style="fill:none;stroke:#0046ac;stroke-width:4.68706;stroke-linecap:round;stroke-linejoin:round;stroke-miterlimit:500;stroke-dasharray:none;stroke-opacity:1" /><path
             d="m 3612.25,1571.36 c -105.5,-69.13 -177.18,-179.29 -197.61,-303.74 h 337.29 l -139.68,303.74"
             id="path67"
             style="fill:#0046ac;fill-opacity:1;fill-rule:nonzero;stroke:none" /><path
             d="m 3612.25,1571.36 c -105.5,-69.13 -177.18,-179.29 -197.61,-303.74 h 337.29 z"
             id="path69"
             style="fill:none;stroke:#0046ac;stroke-width:4.68435;stroke-linecap:round;stroke-linejoin:round;stroke-miterlimit:500;stroke-dasharray:none;stroke-opacity:1" /><path
             d="m 3925.98,1223.71 c 10.2,-22.28 8.23,-48.23 -5.2,-68.73 -13.43,-20.47 -36.46,-32.62 -60.96,-32.13 -148.32,2.92 -296.7,2.69 -445.03,-0.68 30.09,-183.963 170.42,-330.365 352.96,-368.205 182.52,-37.82 369.48,40.742 470.21,197.59 100.72,156.865 94.38,359.555 -15.98,509.805 -110.34,150.24 -301.86,216.94 -481.66,167.76 l 185.66,-405.41"
             id="path71"
             style="fill:#0046ac;fill-opacity:1;fill-rule:nonzero;stroke:none" /><path
             d="m 3925.98,1223.71 c 10.2,-22.28 8.23,-48.23 -5.2,-68.73 -13.43,-20.47 -36.46,-32.62 -60.96,-32.13 -148.32,2.92 -296.7,2.69 -445.03,-0.68 30.09,-183.963 170.42,-330.365 352.96,-368.205 182.52,-37.82 369.48,40.742 470.21,197.59 100.72,156.865 94.38,359.555 -15.98,509.805 -110.34,150.24 -301.86,216.94 -481.66,167.76 z"
             id="path73"
             style="fill:none;stroke:#0046ac;stroke-width:7.07819;stroke-linecap:round;stroke-linejoin:round;stroke-miterlimit:500;stroke-dasharray:none;stroke-opacity:1" /></g></g></g></g></svg>
