<?xml version="1.0" encoding="UTF-8" standalone="no"?>
<!-- Created with Inkscape (http://www.inkscape.org/) -->

<svg
   version="1.0"
   width="100"
   height="100"
   id="svg2"
   xml:space="preserve"
   xmlns="http://www.w3.org/2000/svg"
   xmlns:svg="http://www.w3.org/2000/svg"><defs
     id="defs5"><clipPath
       id="clipPath19"><path
         d="M 0.496094,0.496094 L 5953.25,0.496094 L 5953.25,5953.25 L 0.496094,5953.25 L 0.496094,0.496094 z"
         id="path21" /></clipPath></defs><g
     transform="matrix(0.16798947,0,0,-0.16798947,-0.00833386,100.00832)"
     id="g11"><g
       transform="scale(0.1)"
       id="g13"><g
         id="g15"><g
           clip-path="url(#clipPath19)"
           id="g17"><path
             d="M 4.03516,4.02734 H 5949.7152 V 5949.7073 H 4.03516 Z"
             id="path23"
             style="fill:#0046ac;fill-opacity:1;fill-rule:nonzero;stroke:none" /><path
             d="M 4.03516,4.02734 H 5949.7152 V 5949.7073 H 4.03516 Z"
             id="path25"
             style="fill:none;stroke:#0046ac;stroke-width:7.07819;stroke-linecap:round;stroke-linejoin:round;stroke-miterlimit:500;stroke-dasharray:none;stroke-opacity:1" /><path
             d="m 5644.82,4.02734 c 80.86,0 158.41,32.12886 215.57,89.30856 57.21,57.1911 89.32,134.7191 89.32,215.6021 V 5644.8 c 0,80.86 -32.11,158.41 -89.32,215.61 -57.16,57.18 -134.71,89.3 -215.57,89.3 H 308.945 c -80.859,0 -158.418,-32.12 -215.5973,-89.3 C 36.1641,5803.21 4.04688,5725.66 4.04688,5644.8 V 308.938 C 4.04688,228.055 36.1758,150.527 93.3477,93.3359 150.527,36.1562 228.086,4.02734 308.945,4.02734 H 5644.82"
             id="path27"
             style="fill:#ffffff;fill-opacity:1;fill-rule:nonzero;stroke:none" /><path
             d="m 5644.82,4.02734 c 80.86,0 158.41,32.12886 215.57,89.30856 57.21,57.1911 89.32,134.7191 89.32,215.6021 V 5644.8 c 0,80.86 -32.11,158.41 -89.32,215.61 -57.16,57.18 -134.71,89.3 -215.57,89.3 H 308.945 c -80.859,0 -158.418,-32.12 -215.5973,-89.3 C 36.1641,5803.21 4.04688,5725.66 4.04688,5644.8 V 308.938 C 4.04688,228.055 36.1758,150.527 93.3477,93.3359 150.527,36.1562 228.086,4.02734 308.945,4.02734 Z"
             id="path29"
             style="fill:none;stroke:#ffffff;stroke-width:7.07819;stroke-linecap:round;stroke-linejoin:round;stroke-miterlimit:500;stroke-dasharray:none;stroke-opacity:1" /><path
             d="m 5644.82,156.477 c 40.43,0 79.2,16.07 107.79,44.66 28.59,28.578 44.65,67.371 44.65,107.801 V 5644.8 c 0,40.43 -16.06,79.21 -44.65,107.8 -28.59,28.59 -67.36,44.65 -107.79,44.65 H 308.945 c -40.429,0 -79.211,-16.06 -107.8,-44.65 -28.59,-28.59 -44.649,-67.37 -44.649,-107.8 V 308.938 c 0,-84.204 68.25,-152.461 152.449,-152.461 H 5644.82"
             id="path31"
             style="fill:#0046ac;fill-opacity:1;fill-rule:nonzero;stroke:none" /><path
             d="m 5644.82,156.477 c 40.43,0 79.2,16.07 107.79,44.66 28.59,28.578 44.65,67.371 44.65,107.801 V 5644.8 c 0,40.43 -16.06,79.21 -44.65,107.8 -28.59,28.59 -67.36,44.65 -107.79,44.65 H 308.945 c -40.429,0 -79.211,-16.06 -107.8,-44.65 -28.59,-28.59 -44.649,-67.37 -44.649,-107.8 V 308.938 c 0,-84.204 68.25,-152.461 152.449,-152.461 z"
             id="path33"
             style="fill:none;stroke:#0046ac;stroke-width:7.07819;stroke-linecap:round;stroke-linejoin:round;stroke-miterlimit:500;stroke-dasharray:none;stroke-opacity:1" /><path
             d="M 2144.95,4168.3 1825.55,3115.54 C 1371.14,3211.32 920.727,2936.75 797.688,2488.95 674.645,2041.16 921.527,1574.98 1361.07,1425.14 c 439.55,-149.85 919.79,68.43 1095.89,498.14 176.11,429.7 -12.78,922.22 -431.07,1123.95 l 61.78,206.22 855.12,-978.68 c -8.74,-90.98 45.63,-176.22 131.83,-206.63 86.18,-30.41 182,1.84 232.31,78.16 l 130.78,0.08 c 45.45,-367.01 315.93,-666.22 676.52,-748.34 360.59,-82.13 733.98,70.44 933.88,381.58 199.89,311.13 183.44,714.16 -41.13,1007.98 -224.57,293.81 -609.14,415.47 -961.84,304.26 l -288.16,626.37 61.37,201.31 128.47,1.62 c 53.02,10.57 90.37,58.25 87.91,112.25 -2.45,53.98 -43.98,98.09 -97.72,103.8 l -445.15,0.82 c -55.83,-0.24 -102.59,-42.34 -108.65,-97.84 -6.09,-55.49 30.46,-106.71 84.91,-119.03 l 129.29,-1.62 -167.18,-547.85 -1190.36,381.74 68.74,228.3 c 2.85,27.29 25.75,48.07 53.18,48.27 l 216.85,1.64 c 52.79,10.97 89.75,58.72 87.09,112.57 -2.66,53.84 -44.11,97.75 -97.73,103.47 h -322.91 c -47.27,-1.38 -88.02,-33.68 -100.14,-79.38"
             id="path35"
             style="fill:#ffffff;fill-opacity:1;fill-rule:nonzero;stroke:none" /><path
             d="M 2144.95,4168.3 1825.55,3115.54 C 1371.14,3211.32 920.727,2936.75 797.688,2488.95 674.645,2041.16 921.527,1574.98 1361.07,1425.14 c 439.55,-149.85 919.79,68.43 1095.89,498.14 176.11,429.7 -12.78,922.22 -431.07,1123.95 l 61.78,206.22 855.12,-978.68 c -8.74,-90.98 45.63,-176.22 131.83,-206.63 86.18,-30.41 182,1.84 232.31,78.16 l 130.78,0.08 c 45.45,-367.01 315.93,-666.22 676.52,-748.34 360.59,-82.13 733.98,70.44 933.88,381.58 199.89,311.13 183.44,714.16 -41.13,1007.98 -224.57,293.81 -609.14,415.47 -961.84,304.26 l -288.16,626.37 61.37,201.31 128.47,1.62 c 53.02,10.57 90.37,58.25 87.91,112.25 -2.45,53.98 -43.98,98.09 -97.72,103.8 l -445.15,0.82 c -55.83,-0.24 -102.59,-42.34 -108.65,-97.84 -6.09,-55.49 30.46,-106.71 84.91,-119.03 l 129.29,-1.62 -167.18,-547.85 -1190.36,381.74 68.74,228.3 c 2.85,27.29 25.75,48.07 53.18,48.27 l 216.85,1.64 c 52.79,10.97 89.75,58.72 87.09,112.57 -2.66,53.84 -44.11,97.75 -97.73,103.47 h -322.91 c -47.27,-1.38 -88.02,-33.68 -100.14,-79.38 z"
             id="path37"
             style="fill:none;stroke:#ffffff;stroke-width:7.07819;stroke-linecap:round;stroke-linejoin:round;stroke-miterlimit:500;stroke-dasharray:none;stroke-opacity:1" /><path
             d="m 1869.55,2540.14 c -28.6,-97.52 -63.71,-193.02 -105.1,-285.84 -11.97,-25.94 -27.38,-50.16 -45.83,-72 -35.85,-36.34 -92.66,-41.68 -134.62,-12.6 -41.98,29.06 -56.99,84.08 -35.58,130.44 42.08,82.07 77.38,167.47 105.54,255.31 l 113.63,370.01 c -349.39,64.47 -689.61,-150.6 -781.235,-493.89 -91.621,-343.27 96.185,-699.27 431.215,-817.47 335.05,-118.19 704.66,41.16 848.72,365.95 144.05,324.75 14.1,705.71 -298.41,874.73 l -98.33,-314.64"
             id="path39"
             style="fill:#0046ac;fill-opacity:1;fill-rule:nonzero;stroke:none" /><path
             d="m 1869.55,2540.14 c -28.6,-97.52 -63.71,-193.02 -105.1,-285.84 -11.97,-25.94 -27.38,-50.16 -45.83,-72 -35.85,-36.34 -92.66,-41.68 -134.62,-12.6 -41.98,29.06 -56.99,84.08 -35.58,130.44 42.08,82.07 77.38,167.47 105.54,255.31 l 113.63,370.01 c -349.39,64.47 -689.61,-150.6 -781.235,-493.89 -91.621,-343.27 96.185,-699.27 431.215,-817.47 335.05,-118.19 704.66,41.16 848.72,365.95 144.05,324.75 14.1,705.71 -298.41,874.73 z"
             id="path41"
             style="fill:none;stroke:#0046ac;stroke-width:7.07819;stroke-linecap:round;stroke-linejoin:round;stroke-miterlimit:500;stroke-dasharray:none;stroke-opacity:1" /><path
             d="M 3365.59,3159.75 3149,2455.61 c -24.12,-0.06 -48.11,-3.65 -71.2,-10.63 l -915.66,1050.68 13.9,45.82 1189.55,-381.73"
             id="path43"
             style="fill:#0046ac;fill-opacity:1;fill-rule:nonzero;stroke:none" /><path
             d="M 3365.59,3159.75 3149,2455.61 c -24.12,-0.06 -48.11,-3.65 -71.2,-10.63 l -915.66,1050.68 13.9,45.82 z"
             id="path45"
             style="fill:none;stroke:#0046ac;stroke-width:7.07819;stroke-linecap:round;stroke-linejoin:round;stroke-miterlimit:500;stroke-dasharray:none;stroke-opacity:1" /><path
             d="m 3852.2,3004.21 c -228.15,-139.07 -380.58,-374.39 -414.17,-639.45 l -95.11,0.02 320.77,1050.68 188.51,-411.25"
             id="path47"
             style="fill:#0046ac;fill-opacity:1;fill-rule:nonzero;stroke:none" /><path
             d="m 3852.2,3004.21 c -228.15,-139.07 -380.58,-374.39 -414.17,-639.45 l -95.11,0.02 320.77,1050.68 z"
             id="path49"
             style="fill:none;stroke:#0046ac;stroke-width:7.07323;stroke-linecap:round;stroke-linejoin:round;stroke-miterlimit:500;stroke-dasharray:none;stroke-opacity:1" /><path
             d="m 3935.7,2823.12 c -159.18,-104.27 -267.35,-270.55 -298.18,-458.34 h 508.98 l -210.8,458.34"
             id="path51"
             style="fill:#0046ac;fill-opacity:1;fill-rule:nonzero;stroke:none" /><path
             d="M 3935.7,2823.12 C 3776.52,2718.85 3668.35,2552.57 3637.52,2364.78 H 4146.5 Z"
             id="path53"
             style="fill:none;stroke:#0046ac;stroke-width:7.06915;stroke-linecap:round;stroke-linejoin:round;stroke-miterlimit:500;stroke-dasharray:none;stroke-opacity:1" /><path
             d="m 4409.16,2298.5 c 15.39,-33.61 12.43,-72.79 -7.86,-103.7 -20.25,-30.92 -55,-49.23 -91.96,-48.5 -223.86,4.41 -447.79,4.07 -671.61,-1.02 45.39,-277.62 257.18,-498.55 532.64,-555.64 275.45,-57.09 557.61,61.47 709.59,298.16 152.02,236.72 142.43,542.62 -24.09,769.34 -166.52,226.73 -455.54,327.39 -726.87,253.16 l 280.16,-611.8"
             id="path55"
             style="fill:#0046ac;fill-opacity:1;fill-rule:nonzero;stroke:none" /><path
             d="m 4409.16,2298.5 c 15.39,-33.61 12.43,-72.79 -7.86,-103.7 -20.25,-30.92 -55,-49.23 -91.96,-48.5 -223.86,4.41 -447.79,4.07 -671.61,-1.02 45.39,-277.62 257.18,-498.55 532.64,-555.64 275.45,-57.09 557.61,61.47 709.59,298.16 152.02,236.72 142.43,542.62 -24.09,769.34 -166.52,226.73 -455.54,327.39 -726.87,253.16 z"
             id="path57"
             style="fill:none;stroke:#0046ac;stroke-width:7.07819;stroke-linecap:round;stroke-linejoin:round;stroke-miterlimit:500;stroke-dasharray:none;stroke-opacity:1" /></g></g></g></g></svg>
