<?xml version="1.0" encoding="UTF-8" standalone="no"?>
<!-- Created with Inkscape (http://www.inkscape.org/) -->

<svg
   version="1.0"
   width="100"
   height="100"
   id="svg2"
   xml:space="preserve"
   xmlns="http://www.w3.org/2000/svg"
   xmlns:svg="http://www.w3.org/2000/svg"><defs
     id="defs5"><clipPath
       id="clipPath19"><path
         d="M 0.496094,0.496094 L 5953.25,0.496094 L 5953.25,5953.25 L 0.496094,5953.25 L 0.496094,0.496094 z"
         id="path21" /></clipPath></defs><g
     transform="matrix(0.16799029,0,0,-0.1679903,-0.0088183,100.00833)"
     id="g11"><g
       transform="scale(0.1)"
       id="g13"><g
         id="g15"><g
           clip-path="url(#clipPath19)"
           id="g17"><path
             d="M 4.03516,4.02734 H 5949.7152 V 5949.7073 H 4.03516 Z"
             id="path23"
             style="fill:#0046ac;fill-opacity:1;fill-rule:nonzero;stroke:none" /><path
             d="M 4.03516,4.02734 H 5949.7152 V 5949.7073 H 4.03516 Z"
             id="path25"
             style="fill:none;stroke:#0046ac;stroke-width:7.07819;stroke-linecap:round;stroke-linejoin:round;stroke-miterlimit:500;stroke-dasharray:none;stroke-opacity:1" /><path
             d="m 5644.82,4.02734 c 80.86,0 158.41,32.12886 215.57,89.30856 57.21,57.1911 89.32,134.7191 89.32,215.6021 V 5644.8 c 0,80.86 -32.11,158.41 -89.32,215.61 -57.16,57.18 -134.71,89.3 -215.57,89.3 H 308.945 c -80.859,0 -158.418,-32.12 -215.5973,-89.3 C 36.1641,5803.21 4.04688,5725.66 4.04688,5644.8 V 308.938 C 4.04688,228.055 36.1758,150.527 93.3477,93.3359 150.527,36.1562 228.086,4.02734 308.945,4.02734 H 5644.82"
             id="path27"
             style="fill:#ffffff;fill-opacity:1;fill-rule:nonzero;stroke:none" /><path
             d="m 5644.82,4.02734 c 80.86,0 158.41,32.12886 215.57,89.30856 57.21,57.1911 89.32,134.7191 89.32,215.6021 V 5644.8 c 0,80.86 -32.11,158.41 -89.32,215.61 -57.16,57.18 -134.71,89.3 -215.57,89.3 H 308.945 c -80.859,0 -158.418,-32.12 -215.5973,-89.3 C 36.1641,5803.21 4.04688,5725.66 4.04688,5644.8 V 308.938 C 4.04688,228.055 36.1758,150.527 93.3477,93.3359 150.527,36.1562 228.086,4.02734 308.945,4.02734 Z"
             id="path29"
             style="fill:none;stroke:#ffffff;stroke-width:7.07819;stroke-linecap:round;stroke-linejoin:round;stroke-miterlimit:500;stroke-dasharray:none;stroke-opacity:1" /><path
             d="m 5644.82,156.477 c 40.43,0 79.2,16.07 107.79,44.66 28.59,28.578 44.65,67.371 44.65,107.801 V 5644.8 c 0,40.43 -16.06,79.21 -44.65,107.8 -28.59,28.59 -67.36,44.65 -107.79,44.65 H 308.945 c -40.429,0 -79.211,-16.06 -107.8,-44.65 -28.59,-28.59 -44.649,-67.37 -44.649,-107.8 V 308.938 c 0,-84.204 68.25,-152.461 152.449,-152.461 H 5644.82"
             id="path31"
             style="fill:#0046ac;fill-opacity:1;fill-rule:nonzero;stroke:none" /><path
             d="m 5644.82,156.477 c 40.43,0 79.2,16.07 107.79,44.66 28.59,28.578 44.65,67.371 44.65,107.801 V 5644.8 c 0,40.43 -16.06,79.21 -44.65,107.8 -28.59,28.59 -67.36,44.65 -107.79,44.65 H 308.945 c -40.429,0 -79.211,-16.06 -107.8,-44.65 -28.59,-28.59 -44.649,-67.37 -44.649,-107.8 V 308.938 c 0,-84.204 68.25,-152.461 152.449,-152.461 z"
             id="path33"
             style="fill:none;stroke:#0046ac;stroke-width:7.07819;stroke-linecap:round;stroke-linejoin:round;stroke-miterlimit:500;stroke-dasharray:none;stroke-opacity:1" /><path
             d="m 2661.07,4773.45 c 0,228.64 -185.34,414 -413.98,414 -228.65,0 -414,-185.35 -414,-414 0,-228.65 185.35,-414 414,-414 228.64,0 413.98,185.35 413.98,414"
             id="path35"
             style="fill:#ffffff;fill-opacity:1;fill-rule:nonzero;stroke:none" /><path
             d="m 2661.07,4773.45 c 0,228.64 -185.34,414 -413.98,414 -228.65,0 -414,-185.35 -414,-414 0,-228.65 185.35,-414 414,-414 228.64,0 413.98,185.35 413.98,414 z"
             id="path37"
             style="fill:none;stroke:#ffffff;stroke-width:7.07819;stroke-linecap:round;stroke-linejoin:round;stroke-miterlimit:500;stroke-dasharray:none;stroke-opacity:1" /><path
             d="m 1375.05,2668.21 439.86,1270.72 c 62.59,180.83 223.47,309.62 413.61,331.14 190.12,21.52 375.73,-68.07 477.14,-230.34 l 472.93,-756.68 v -631.34 c 0,-85.75 -69.52,-155.25 -155.27,-155.25 -85.73,0 -155.25,69.5 -155.25,155.25 v 465.74 l -103.5,165.6 V 1759.16 l 323.98,-703.93 c 47.81,-103.863 2.36,-226.792 -101.5,-274.593 -103.84,-47.789 -226.77,-2.352 -274.57,101.508 l -424,921.245 v 531.39 L 1782.29,917.406 C 1739.98,798.984 1609.7,737.258 1491.27,779.555 c -118.43,42.3 -180.15,172.601 -137.85,291.015 l 583.17,1632.89 v 637.77 l -268.13,-774.59 c -17.36,-53.43 -62.23,-93.3 -117.34,-104.28 -55.08,-10.99 -111.82,8.65 -148.33,51.35 -36.52,42.68 -47.12,101.77 -27.74,154.5"
             id="path39"
             style="fill:#ffffff;fill-opacity:1;fill-rule:nonzero;stroke:none" /><path
             d="m 1375.05,2668.21 439.86,1270.72 c 62.59,180.83 223.47,309.62 413.61,331.14 190.12,21.52 375.73,-68.07 477.14,-230.34 l 472.93,-756.68 v -631.34 c 0,-85.75 -69.52,-155.25 -155.27,-155.25 -85.73,0 -155.25,69.5 -155.25,155.25 v 465.74 l -103.5,165.6 V 1759.16 l 323.98,-703.93 c 47.81,-103.863 2.36,-226.792 -101.5,-274.593 -103.84,-47.789 -226.77,-2.352 -274.57,101.508 l -424,921.245 v 531.39 L 1782.29,917.406 C 1739.98,798.984 1609.7,737.258 1491.27,779.555 c -118.43,42.3 -180.15,172.601 -137.85,291.015 l 583.17,1632.89 v 637.77 l -268.13,-774.59 c -17.36,-53.43 -62.23,-93.3 -117.34,-104.28 -55.08,-10.99 -111.82,8.65 -148.33,51.35 -36.52,42.68 -47.12,101.77 -27.74,154.5 z"
             id="path41"
             style="fill:none;stroke:#ffffff;stroke-width:7.07819;stroke-linecap:round;stroke-linejoin:round;stroke-miterlimit:500;stroke-dasharray:none;stroke-opacity:1" /><path
             d="m 4226.8,3519.89 c 0,183.32 -148.6,331.93 -331.92,331.93 -183.31,0 -331.92,-148.61 -331.92,-331.93 0,-183.3 148.61,-331.91 331.92,-331.91 183.32,0 331.92,148.61 331.92,331.91"
             id="path43"
             style="fill:#ffffff;fill-opacity:1;fill-rule:nonzero;stroke:none" /><path
             d="m 4226.8,3519.89 c 0,183.32 -148.6,331.93 -331.92,331.93 -183.31,0 -331.92,-148.61 -331.92,-331.93 0,-183.3 148.61,-331.91 331.92,-331.91 183.32,0 331.92,148.61 331.92,331.91 z"
             id="path45"
             style="fill:none;stroke:#ffffff;stroke-width:7.07819;stroke-linecap:round;stroke-linejoin:round;stroke-miterlimit:500;stroke-dasharray:none;stroke-opacity:1" /><path
             d="m 3590.23,2875.89 c 45.48,131.41 162.39,225.02 300.59,240.66 138.18,15.63 273.05,-49.48 346.75,-167.41 l 341.14,-545.82 V 1926.7 c 0,-65.32 -52.95,-118.25 -118.26,-118.25 -65.33,0 -118.26,52.93 -118.26,118.25 v 397.39 l -89.75,143.59 V 1430.02 l 199.42,-433.293 c 34.68,-75.36 1.71,-164.532 -73.65,-199.211 -75.33,-34.68 -164.52,-1.711 -199.18,73.629 L 3923.48,1426.37 V 1880.8 L 3573.73,901.496 c -29.22,-81.82 -119.25,-124.461 -201.07,-95.238 -81.84,29.219 -124.47,119.238 -95.27,201.062 l 374.07,1047.36 v 309.46 l -183.39,-529.77 c -12.59,-38.77 -45.14,-67.69 -85.11,-75.66 -39.98,-7.96 -81.14,6.27 -107.62,37.25 -26.49,30.98 -34.2,73.84 -20.13,112.09 l 335.02,967.84"
             id="path47"
             style="fill:#ffffff;fill-opacity:1;fill-rule:nonzero;stroke:none" /><path
             d="m 3590.23,2875.89 c 45.48,131.41 162.39,225.02 300.59,240.66 138.18,15.63 273.05,-49.48 346.75,-167.41 l 341.14,-545.82 V 1926.7 c 0,-65.32 -52.95,-118.25 -118.26,-118.25 -65.33,0 -118.26,52.93 -118.26,118.25 v 397.39 l -89.75,143.59 V 1430.02 l 199.42,-433.293 c 34.68,-75.36 1.71,-164.532 -73.65,-199.211 -75.33,-34.68 -164.52,-1.711 -199.18,73.629 L 3923.48,1426.37 V 1880.8 L 3573.73,901.496 c -29.22,-81.82 -119.25,-124.461 -201.07,-95.238 -81.84,29.219 -124.47,119.238 -95.27,201.062 l 374.07,1047.36 v 309.46 l -183.39,-529.77 c -12.59,-38.77 -45.14,-67.69 -85.11,-75.66 -39.98,-7.96 -81.14,6.27 -107.62,37.25 -26.49,30.98 -34.2,73.84 -20.13,112.09 z"
             id="path49"
             style="fill:none;stroke:#ffffff;stroke-width:7.07819;stroke-linecap:round;stroke-linejoin:round;stroke-miterlimit:500;stroke-dasharray:none;stroke-opacity:1" /></g></g></g></g></svg>
