<?xml version="1.0" encoding="UTF-8" standalone="no"?>
<!-- Created with Inkscape (http://www.inkscape.org/) -->

<svg
   width="100"
   height="45"
   version="1.1"
   id="svg5"
   xml:space="preserve"
   xmlns="http://www.w3.org/2000/svg"
   xmlns:svg="http://www.w3.org/2000/svg">
  <defs
   id="defs2" />
  <g
   id="layer1"
   transform="matrix(3.7795276,0,0,3.7795276,-126.51291,-516.611)">
    <rect
   style="fill:#ffffff;stroke-width:0.349431;stroke-linecap:square"
   id="rect858"
   width="25.4"
   height="10.847917"
   x="34.002373"
   y="137.21582" />
    <path
   id="path7364"
   d="m 44.349677,141.29102 v 0.94616 0.881 0.34685 h -0.3261 v -0.0198 c -0.08533,0.0402 -0.180306,0.0628 -0.280671,0.0628 -0.292283,0 -0.562937,-0.21575 -0.631881,-0.50954 -0.02194,-0.0935 -0.0316,-0.20127 -0.0316,-0.3079 0,-0.11057 0.01047,-0.2183 0.0316,-0.31202 0.06973,-0.30927 0.339598,-0.50942 0.631881,-0.50942 0.09958,0 0.194853,0.0203 0.280671,0.0576 v -0.63571 z m -0.606771,0.88617 c -0.138214,0 -0.269865,0.092 -0.308085,0.23298 -0.02512,0.0927 -0.03154,0.18566 -0.03154,0.28043 0,0.0908 0.0071,0.18755 0.03154,0.27642 0.03882,0.14087 0.169871,0.23299 0.308085,0.23299 0.126841,0 0.226699,-0.0622 0.280671,-0.1574 v -0.70844 c -0.05387,-0.0951 -0.154001,-0.15698 -0.280671,-0.15698 z"
   style="display:inline;fill:#000000;fill-opacity:1;fill-rule:nonzero;stroke:none;stroke-width:0.00548476" />
    <path
   style="display:inline;fill:#000000;fill-opacity:1;fill-rule:nonzero;stroke:none;stroke-width:0.00343899"
   d="m 46.998161,145.16922 c -0.210833,-0.004 -0.420842,0.0309 -0.619233,0.10398 l 0.108542,0.29419 c 0.179171,-0.0661 0.370094,-0.0941 0.560716,-0.0824 0.129993,0.008 0.231169,0.11607 0.231274,0.24637 v 0.0807 h -0.463728 c -0.231065,0 -0.432556,0.1572 -0.488821,0.38135 -0.05626,0.22415 0.04723,0.45787 0.250994,0.56695 0.114862,0.0615 0.242573,0.0951 0.372809,0.098 0.116408,0.003 0.230872,-0.0299 0.328746,-0.093 v 0.0483 h 0.336 v -1.07275 c 0,-0.29795 -0.22979,-0.54539 -0.526919,-0.56743 -0.03012,-0.002 -0.06026,-0.004 -0.09038,-0.004 z m -0.141268,0.91166 h 0.422567 v 0.36319 c -0.149941,0.11424 -0.351903,0.13291 -0.520309,0.0481 -0.08989,-0.0453 -0.136929,-0.14633 -0.113649,-0.24427 0.02321,-0.0979 0.110732,-0.16706 0.211391,-0.16706 z"
   id="path67-30" />
    <path
   style="display:inline;fill:#000000;fill-opacity:1;fill-rule:nonzero;stroke:none;stroke-width:0.00343899"
   d="m 40.412356,141.82538 c -0.296681,0 -0.556703,0.19849 -0.634872,0.48469 -0.06441,0.23574 -0.06441,0.48449 0,0.72019 0.07817,0.28623 0.338191,0.48475 0.634872,0.48475 0.271474,0 0.519326,-0.15483 0.63842,-0.39882 l -0.281836,-0.13756 c -0.06651,0.13632 -0.204925,0.22273 -0.356584,0.22273 -0.136667,-8.2e-4 -0.257292,-0.0892 -0.298873,-0.2194 -0.0252,-0.0794 -0.04067,-0.16145 -0.0461,-0.24455 h 1.026543 c 0.007,-0.14402 -0.0086,-0.28823 -0.04665,-0.42734 -0.07824,-0.2862 -0.338208,-0.48469 -0.634924,-0.48469 z m 0,0.31429 c 0.136667,0 0.257554,0.0885 0.298927,0.21875 0.01145,0.0362 0.02096,0.0729 0.02842,0.11021 h -0.654649 c 0.0074,-0.0373 0.01694,-0.074 0.02843,-0.11021 0.04137,-0.13023 0.162206,-0.21875 0.298872,-0.21875 z"
   id="path75-8-2" />
    <path
   id="path12126-7-6"
   style="color:#000000;clip-rule:nonzero;display:inline;overflow:visible;visibility:visible;isolation:auto;mix-blend-mode:normal;color-interpolation:sRGB;color-interpolation-filters:linearRGB;solid-color:#000000;solid-opacity:1;vector-effect:none;fill:#000000;fill-opacity:1;fill-rule:nonzero;stroke:none;stroke-width:0.050793;stroke-linecap:butt;stroke-linejoin:round;stroke-miterlimit:4;stroke-dasharray:none;stroke-dashoffset:0;stroke-opacity:1;marker:none;color-rendering:auto;image-rendering:auto;shape-rendering:auto;text-rendering:auto;enable-background:accumulate"
   d="m 39.318606,141.43691 a 0.16512643,0.16808592 0 0 1 -0.165127,0.16809 0.16512643,0.16808592 0 0 1 -0.165126,-0.16809 0.16512643,0.16808592 0 0 1 0.165126,-0.16808 0.16512643,0.16808592 0 0 1 0.165127,0.16808 z m -0.330252,0.4273 h 0.330252 v 1.60082 h -0.330252 z" />
    <path
   id="rect993"
   style="fill:#000000;stroke-width:1.33333;stroke-linecap:square"
   d="M 0,0 V 45 H 100 V 0 Z M 2,2 H 98 V 43 H 2 Z"
   transform="matrix(0.26458333,0,0,0.26458333,33.473206,136.68666)" />
    <path
   d="m 40.905752,140.10578 -0.559546,-0.93639 -0.227358,0.28419 v 0.6522 h -0.36957 v -2.174 h 0.36957 v 0.93018 l 0.744146,-0.93018 h 0.4733 l -0.743638,0.92956 0.743638,1.24444 h -0.430542"
   id="path31"
   style="display:inline;fill:#000000;fill-opacity:1;fill-rule:nonzero;stroke:none;stroke-width:0.000823372" />
    <path
   style="display:inline;fill:#000000;fill-opacity:1;fill-rule:evenodd;stroke:none;stroke-width:0.00289732"
   d="m 41.800229,137.92962 c -0.08971,0 -0.162433,0.0727 -0.162433,0.16243 0,0.0897 0.07272,0.16243 0.162433,0.16243 0.08971,0 0.16243,-0.0727 0.16243,-0.16243 0,-0.0897 -0.07272,-0.16243 -0.16243,-0.16243 z m -0.160077,0.57534 -2.8e-5,1.81106 c -2.5e-5,0.0223 -0.0222,0.0698 -0.08107,0.0927 -0.05888,0.0229 -0.144854,0.0123 -0.203098,-0.0115 l -0.0988,0.27543 c 0.09274,0.0355 0.21323,0.0584 0.329033,0.0406 0.234039,-0.036 0.371082,-0.24376 0.372235,-0.43405 l 4.65e-4,-1.77424 z"
   id="path29-3" />
    <path
   style="color:#000000;clip-rule:nonzero;display:inline;overflow:visible;visibility:visible;isolation:auto;mix-blend-mode:normal;color-interpolation:sRGB;color-interpolation-filters:linearRGB;solid-color:#000000;solid-opacity:1;vector-effect:none;fill:#000000;fill-opacity:0.997076;fill-rule:nonzero;stroke:none;stroke-width:0.00322108;stroke-linecap:butt;stroke-linejoin:round;stroke-miterlimit:4;stroke-dasharray:none;stroke-dashoffset:0;stroke-opacity:1;marker:none;color-rendering:auto;image-rendering:auto;shape-rendering:auto;text-rendering:auto;enable-background:accumulate"
   d="m 43.066151,138.46248 c -0.321649,0 -0.600318,0.20514 -0.671808,0.50895 -0.02638,0.1121 -0.03258,0.22397 -0.03258,0.33796 0,0.10994 0.01631,0.2198 0.03258,0.31747 0.02279,0.0843 0.06071,0.16222 0.109882,0.23121 l -0.174489,0.24918 h 0.332278 l 0.04209,-0.06 c 0.105396,0.0662 0.229039,0.10499 0.362046,0.10499 0.301351,0 0.580406,-0.22239 0.651486,-0.52528 0.02261,-0.0964 0.03258,-0.20753 0.03258,-0.31748 0,-0.11399 -0.01079,-0.22505 -0.03258,-0.32169 -0.02007,-0.0891 -0.05664,-0.16885 -0.104885,-0.23827 l 0.170301,-0.24323 h -0.332277 l -0.03822,0.0545 c -0.103214,-0.063 -0.222735,-0.0982 -0.346413,-0.0982 z m 0,0.31758 c 0.05727,0 0.113336,0.0155 0.162608,0.0433 l -0.501014,0.71547 c -0.02106,-0.0762 -0.0321,-0.15411 -0.0321,-0.22942 0,-0.0976 0.01629,-0.19145 0.04885,-0.28911 0.03252,-0.1425 0.158784,-0.24022 0.321645,-0.24022 z m 0.327654,0.28205 c 0.01753,0.0817 0.02252,0.16383 0.02252,0.24728 0,0.0936 -0.01629,0.1913 -0.03253,0.28495 -0.04886,0.1425 -0.175142,0.24021 -0.317646,0.24021 -0.06786,0 -0.129168,-0.0171 -0.180179,-0.0472 z"
   id="rect7414" />
    <path
   style="display:inline;fill:#000000;fill-opacity:1;fill-rule:nonzero;stroke:none;stroke-width:0.00839012"
   id="path43-7"
   d="m 45.099949,138.50495 -0.120818,0.31412 c -0.04833,-0.0242 -0.09666,-0.0484 -0.169144,-0.0484 -0.163103,0 -0.332246,0.16312 -0.332246,0.33227 v 1.00284 h -0.332253 v -1.60082 h 0.332253 v 0.0966 c 0.193224,-0.14496 0.404736,-0.16906 0.622208,-0.0966" />
    <path
   id="path12126"
   style="color:#000000;clip-rule:nonzero;display:inline;overflow:visible;visibility:visible;isolation:auto;mix-blend-mode:normal;color-interpolation:sRGB;color-interpolation-filters:linearRGB;solid-color:#000000;solid-opacity:1;vector-effect:none;fill:#000000;fill-opacity:1;fill-rule:nonzero;stroke:none;stroke-width:0.050793;stroke-linecap:butt;stroke-linejoin:round;stroke-miterlimit:4;stroke-dasharray:none;stroke-dashoffset:0;stroke-opacity:1;marker:none;color-rendering:auto;image-rendering:auto;shape-rendering:auto;text-rendering:auto;enable-background:accumulate"
   d="m 45.580778,138.07766 a 0.16512643,0.16808592 0 0 1 -0.165127,0.16809 0.16512643,0.16808592 0 0 1 -0.165126,-0.16809 0.16512643,0.16808592 0 0 1 0.165126,-0.16808 0.16512643,0.16808592 0 0 1 0.165127,0.16808 z m -0.330252,0.4273 h 0.330252 v 1.60082 h -0.330252 z" />
    <path
   id="path12126-7"
   style="color:#000000;clip-rule:nonzero;display:inline;overflow:visible;visibility:visible;isolation:auto;mix-blend-mode:normal;color-interpolation:sRGB;color-interpolation-filters:linearRGB;solid-color:#000000;solid-opacity:1;vector-effect:none;fill:#000000;fill-opacity:1;fill-rule:nonzero;stroke:none;stroke-width:0.050793;stroke-linecap:butt;stroke-linejoin:round;stroke-miterlimit:4;stroke-dasharray:none;stroke-dashoffset:0;stroke-opacity:1;marker:none;color-rendering:auto;image-rendering:auto;shape-rendering:auto;text-rendering:auto;enable-background:accumulate"
   d="m 52.21059,138.07766 a 0.16512643,0.16808592 0 0 1 -0.165127,0.16809 0.16512643,0.16808592 0 0 1 -0.165126,-0.16809 0.16512643,0.16808592 0 0 1 0.165126,-0.16808 0.16512643,0.16808592 0 0 1 0.165127,0.16808 z m -0.330252,0.4273 h 0.330252 v 1.60082 h -0.330252 z" />
    <path
   id="path12126-7-5"
   style="color:#000000;clip-rule:nonzero;display:inline;overflow:visible;visibility:visible;isolation:auto;mix-blend-mode:normal;color-interpolation:sRGB;color-interpolation-filters:linearRGB;solid-color:#000000;solid-opacity:1;vector-effect:none;fill:#000000;fill-opacity:1;fill-rule:nonzero;stroke:none;stroke-width:0.050793;stroke-linecap:butt;stroke-linejoin:round;stroke-miterlimit:4;stroke-dasharray:none;stroke-dashoffset:0;stroke-opacity:1;marker:none;color-rendering:auto;image-rendering:auto;shape-rendering:auto;text-rendering:auto;enable-background:accumulate"
   d="m 44.251901,144.78554 a 0.16512643,0.16808592 0 0 1 -0.165127,0.16809 0.16512643,0.16808592 0 0 1 -0.165126,-0.16809 0.16512643,0.16808592 0 0 1 0.165126,-0.16808 0.16512643,0.16808592 0 0 1 0.165127,0.16808 z m -0.330252,0.4273 h 0.330252 v 1.60082 h -0.330252 z" />
    <path
   d="m 47.349735,140.10578 v -1.07531 c 0,-0.31165 -0.238285,-0.57447 -0.549939,-0.57447 -0.146622,0 -0.287176,0.049 -0.409374,0.14672 v -0.0978 h -0.336076 v 1.60082 h 0.336076 v -1.02645 c 0,-0.16506 0.146656,-0.31172 0.311618,-0.31172 0.171089,0 0.311711,0.14666 0.311711,0.31172 v 1.02645 h 0.336087"
   id="path21326"
   style="display:inline;fill:#000000;fill-opacity:1;fill-rule:nonzero;stroke:none;stroke-width:0.00848656" />
    <path
   d="m 42.780271,143.46507 v -1.07531 c 0,-0.31165 -0.238285,-0.57447 -0.549939,-0.57447 -0.146622,0 -0.287176,0.049 -0.409374,0.14672 v -0.0978 h -0.336076 v 1.60082 h 0.336076 v -1.02645 c 0,-0.16506 0.146656,-0.31172 0.311618,-0.31172 0.171089,0 0.311711,0.14666 0.311711,0.31172 v 1.02645 h 0.336087"
   id="path21326-6"
   style="display:inline;fill:#000000;fill-opacity:1;fill-rule:nonzero;stroke:none;stroke-width:0.00848656" />
    <path
   d="m 54.576311,143.46511 v -1.07531 c 0,-0.31165 -0.238285,-0.57447 -0.549939,-0.57447 -0.146622,0 -0.287176,0.049 -0.409374,0.14672 v -0.0978 h -0.336076 v 1.60082 h 0.336076 v -1.02645 c 0,-0.16506 0.146656,-0.31172 0.311618,-0.31172 0.171089,0 0.311711,0.14666 0.311711,0.31172 v 1.02645 h 0.336087"
   id="path21326-6-0"
   style="display:inline;fill:#000000;fill-opacity:1;fill-rule:nonzero;stroke:none;stroke-width:0.00848656" />
    <path
   style="display:inline;fill:#000000;fill-opacity:1;fill-rule:nonzero;stroke:none;stroke-width:0.00822567"
   d="m 48.375475,138.45762 c -0.301965,0 -0.580429,0.20732 -0.6515,0.53904 -0.02361,0.0888 -0.02365,0.1835 -0.02365,0.27826 0,0.0948 3.1e-5,0.20727 0.02365,0.30203 0.07107,0.30213 0.354464,0.53962 0.656429,0.53962 0.02369,0 -2.31e-4,-3.7e-4 -2.31e-4,-3.7e-4 0.118448,0 0.226286,-0.0476 0.321047,-0.11854 v 0.11825 c 0,0.15992 -0.136083,0.30216 -0.325686,0.30216 -0.159906,0 -0.349432,-0.0474 -0.515262,-0.11849 l -0.112588,0.27838 c 0.183597,0.0947 0.420563,0.14215 0.62785,0.14215 0.349424,0 0.651498,-0.27842 0.651498,-0.62785 v -1.5873 H 48.70122 v 0.0476 c -0.09476,-0.0475 -0.183589,-0.0949 -0.302037,-0.0949 z m 0,0.30204 c 0.165828,0 0.325683,0.14215 0.325683,0.32581 v 0.39677 c 0,0.16582 -0.159855,0.30794 -0.325683,0.30794 -0.142141,0 -0.278428,-0.0947 -0.302036,-0.23675 -0.04746,-0.18369 -0.04746,-0.37324 0,-0.55677 0.02361,-0.14211 0.159895,-0.237 0.302036,-0.237 z"
   id="path47-3" />
    <path
   style="display:inline;fill:#000000;fill-opacity:1;fill-rule:nonzero;stroke:none;stroke-width:0.00816772"
   id="path51-5"
   d="m 51.176113,138.50496 h 0.370486 v 0.29981 h -0.370486 v 0.86458 c 0,0.0705 0.04713,0.14114 0.117529,0.14114 0.07066,0 0.117701,-0.0236 0.158864,-0.0236 l 0.09409,0.27632 c -0.07065,0.0235 -0.158779,0.0437 -0.252957,0.0437 -0.252785,0 -0.435006,-0.20241 -0.435006,-0.45536 v -0.84687 h -0.235314 v -0.29976 h 0.235314 v -0.32345 l 0.317477,-0.3 v 0.62345" />
    <path
   style="display:inline;fill:#000000;fill-opacity:1;fill-rule:nonzero;stroke:none;stroke-width:0.00816772"
   id="path51-5-7"
   d="m 48.511699,145.21288 h 0.370486 v 0.29981 h -0.370486 v 0.86458 c 0,0.0705 0.04713,0.14114 0.117529,0.14114 0.07066,0 0.117701,-0.0236 0.158864,-0.0236 l 0.09409,0.27632 c -0.07065,0.0235 -0.158779,0.0437 -0.252957,0.0437 -0.252785,0 -0.435006,-0.20241 -0.435006,-0.45536 v -0.84687 h -0.235314 v -0.29976 h 0.235314 v -0.32345 l 0.317477,-0.3 v 0.62345" />
    <path
   style="display:inline;fill:#000000;fill-opacity:1;fill-rule:nonzero;stroke:none;stroke-width:0.00816772"
   id="path51-5-7-5"
   d="m 43.206258,145.21284 h 0.370486 v 0.29981 h -0.370486 v 0.86458 c 0,0.0705 0.04713,0.14114 0.117529,0.14114 0.07066,0 0.117701,-0.0236 0.158864,-0.0236 l 0.09409,0.27632 c -0.07065,0.0235 -0.158779,0.0437 -0.252957,0.0437 -0.252785,0 -0.435006,-0.20241 -0.435006,-0.45536 v -0.84687 h -0.235314 v -0.29976 h 0.235314 v -0.32345 l 0.317477,-0.3 v 0.62345" />
    <path
   style="display:inline;fill:#000000;fill-opacity:1;fill-rule:nonzero;stroke:none;stroke-width:0.00816772"
   id="path51-5-3"
   d="m 49.722299,145.21292 h 0.370486 v 0.29981 h -0.370486 v 0.86458 c 0,0.0705 0.04713,0.14114 0.117529,0.14114 0.07066,0 0.117701,-0.0236 0.158864,-0.0236 l 0.09409,0.27632 c -0.07065,0.0235 -0.158779,0.0437 -0.252957,0.0437 -0.252785,0 -0.435006,-0.20241 -0.435006,-0.45536 v -0.84687 h -0.235314 v -0.29976 h 0.235314 v -0.32345 l 0.317477,-0.3 v 0.62345" />
    <path
   d="m 52.743597,140.10578 h 0.326101 v -2.174 h -0.326101 v 2.174"
   style="display:inline;fill:#000000;fill-opacity:1;fill-rule:nonzero;stroke:none;stroke-width:0.00496468"
   id="path6518-3" />
    <path
   d="m 44.801474,146.81366 h 0.326101 v -2.174 h -0.326101 v 2.174"
   style="display:inline;fill:#000000;fill-opacity:1;fill-rule:nonzero;stroke:none;stroke-width:0.00496468"
   id="path6518-3-9" />
    <path
   d="m 45.618683,146.81366 h 0.326101 v -2.174 h -0.326101 v 2.174"
   style="display:inline;fill:#000000;fill-opacity:1;fill-rule:nonzero;stroke:none;stroke-width:0.00496468"
   id="path6518-3-5" />
    <path
   style="display:inline;fill:#000000;fill-opacity:1;fill-rule:nonzero;stroke:none;stroke-width:0.00343899"
   d="m 37.948424,141.82538 c -0.296681,0 -0.556703,0.19849 -0.634872,0.48469 -0.06441,0.23574 -0.06441,0.48449 0,0.72019 0.07817,0.28623 0.338191,0.48475 0.634872,0.48475 0.271474,0 0.519326,-0.15483 0.63842,-0.39882 l -0.281836,-0.13756 c -0.06651,0.13632 -0.204925,0.22273 -0.356584,0.22273 -0.136667,-8.2e-4 -0.257292,-0.0892 -0.298873,-0.2194 -0.0252,-0.0794 -0.04067,-0.16145 -0.0461,-0.24455 h 1.026543 c 0.007,-0.14402 -0.0086,-0.28823 -0.04665,-0.42734 -0.07824,-0.2862 -0.338208,-0.48469 -0.634924,-0.48469 z m 0,0.31429 c 0.136667,0 0.257554,0.0885 0.298927,0.21875 0.01145,0.0362 0.02096,0.0729 0.02842,0.11021 h -0.654649 c 0.0074,-0.0373 0.01694,-0.074 0.02843,-0.11021 0.04137,-0.13023 0.162206,-0.21875 0.298872,-0.21875 z"
   id="path75-8" />
    <path
   style="display:inline;fill:#000000;fill-opacity:1;fill-rule:nonzero;stroke:none;stroke-width:0.00343899"
   d="m 52.169778,141.82538 c -0.296681,0 -0.556703,0.19849 -0.634872,0.48469 -0.06441,0.23574 -0.06441,0.48449 0,0.72019 0.07817,0.28623 0.338191,0.48475 0.634872,0.48475 0.271474,0 0.519326,-0.15483 0.63842,-0.39882 l -0.281836,-0.13756 c -0.06651,0.13632 -0.204925,0.22273 -0.356584,0.22273 -0.136667,-8.2e-4 -0.257292,-0.0892 -0.298873,-0.2194 -0.0252,-0.0794 -0.04067,-0.16145 -0.0461,-0.24455 h 1.026543 c 0.007,-0.14402 -0.0086,-0.28823 -0.04665,-0.42734 -0.07824,-0.2862 -0.338208,-0.48469 -0.634924,-0.48469 z m 0,0.31429 c 0.136667,0 0.257554,0.0885 0.298927,0.21875 0.01145,0.0362 0.02096,0.0729 0.02842,0.11021 h -0.654649 c 0.0074,-0.0373 0.01694,-0.074 0.02843,-0.11021 0.04137,-0.13023 0.162206,-0.21875 0.298872,-0.21875 z"
   id="path75-8-5" />
    <path
   style="display:inline;fill:#000000;fill-opacity:1;fill-rule:nonzero;stroke:none;stroke-width:0.00343899"
   d="m 55.609361,141.82538 c -0.296681,0 -0.556703,0.19849 -0.634872,0.48469 -0.06441,0.23574 -0.06441,0.48449 0,0.72019 0.07817,0.28623 0.338191,0.48475 0.634872,0.48475 0.271474,0 0.519326,-0.15483 0.63842,-0.39882 l -0.281836,-0.13756 c -0.06651,0.13632 -0.204925,0.22273 -0.356584,0.22273 -0.136667,-8.2e-4 -0.257292,-0.0892 -0.298873,-0.2194 -0.0252,-0.0794 -0.04067,-0.16145 -0.0461,-0.24455 h 1.026543 c 0.007,-0.14402 -0.0086,-0.28823 -0.04665,-0.42734 -0.07824,-0.2862 -0.338208,-0.48469 -0.634924,-0.48469 z m 0,0.31429 c 0.136667,0 0.257554,0.0885 0.298927,0.21875 0.01145,0.0362 0.02096,0.0729 0.02842,0.11021 h -0.654649 c 0.0074,-0.0373 0.01694,-0.074 0.02843,-0.11021 0.04137,-0.13023 0.162206,-0.21875 0.298872,-0.21875 z"
   id="path75-8-0" />
    <path
   style="display:inline;fill:#000000;fill-opacity:1;fill-rule:nonzero;stroke:none;stroke-width:0.00565478"
   d="m 45.522215,141.82212 c -0.321643,0 -0.600281,0.20513 -0.67177,0.50893 -0.02638,0.11209 -0.0326,0.22396 -0.0326,0.33796 0,0.10993 0.01633,0.21981 0.0326,0.31746 0.08145,0.30135 0.350127,0.52528 0.67177,0.52528 0.301343,0 0.580367,-0.22239 0.651446,-0.52528 0.02262,-0.0964 0.0326,-0.20753 0.0326,-0.31746 0,-0.114 -0.01082,-0.22507 -0.0326,-0.3217 -0.07189,-0.31886 -0.350103,-0.52519 -0.651446,-0.52519 z m 0,0.31755 c 0.1425,0 0.278235,0.0948 0.317641,0.24024 0.02589,0.0956 0.03251,0.19139 0.03251,0.2891 0,0.0936 -0.01629,0.1913 -0.03251,0.28495 -0.04886,0.1425 -0.175141,0.24024 -0.317641,0.24024 -0.162857,0 -0.289101,-0.0977 -0.321618,-0.24024 -0.03258,-0.0936 -0.04886,-0.1913 -0.04886,-0.28495 0,-0.0977 0.01629,-0.19144 0.04886,-0.2891 0.03252,-0.1425 0.158761,-0.24024 0.321618,-0.24024 z"
   id="path71" />
    <path
   style="display:inline;fill:#000000;fill-opacity:1;fill-rule:nonzero;stroke:none;stroke-width:0.00848608"
   id="path39"
   d="m 48.266222,142.38967 v 1.07534 h 0.32977 v -1.1486 c 0,-0.26271 -0.213765,-0.50108 -0.500934,-0.50108 -0.165056,0 -0.335963,0.0734 -0.452223,0.21384 -0.09776,-0.14045 -0.238204,-0.21384 -0.409283,-0.21384 -0.14053,0 -0.26273,0.049 -0.360405,0.14058 v -0.0916 h -0.330023 v 1.60072 h 0.330023 v -1.07534 c 0,-0.33597 0.531484,-0.33597 0.531484,0 v 1.07534 h 0.329937 v -1.07534 c 0,-0.33597 0.531654,-0.33597 0.531654,0" />
    <path
   style="display:inline;fill:#000000;fill-opacity:1;fill-rule:nonzero;stroke:none;stroke-width:0.00848608"
   id="path39-1"
   d="m 50.732501,142.38965 v 1.07534 h 0.32977 v -1.1486 c 0,-0.26271 -0.213765,-0.50108 -0.500934,-0.50108 -0.165056,0 -0.335963,0.0734 -0.452223,0.21384 -0.09776,-0.14045 -0.238204,-0.21384 -0.409283,-0.21384 -0.14053,0 -0.26273,0.049 -0.360405,0.14058 v -0.0916 h -0.330023 v 1.60072 h 0.330023 v -1.07534 c 0,-0.33597 0.531484,-0.33597 0.531484,0 v 1.07534 h 0.329937 v -1.07534 c 0,-0.33597 0.531654,-0.33597 0.531654,0" />
  </g>
</svg>
