<?xml version="1.0" encoding="UTF-8" standalone="no"?>
<!-- Created with Inkscape (http://www.inkscape.org/) -->

<svg
   version="1.0"
   width="100.00006"
   height="51.999935"
   id="svg2"
   xml:space="preserve"
   xmlns="http://www.w3.org/2000/svg"
   xmlns:svg="http://www.w3.org/2000/svg"><defs
     id="defs5"><clipPath
       id="clipPath19"><path
         d="M 0.496094,0.496094 H 5953.25 V 3099.32 H 0.496094 Z"
         id="path21" /></clipPath></defs><g
     transform="matrix(0.16798958,0,0,-0.16780539,-0.00833386,52.00826)"
     id="g11"><g
       transform="scale(0.1)"
       id="g13"><g
         id="g15"><g
           clip-path="url(#clipPath19)"
           id="g17"><path
             d="M 4.03516,4.03516 H 5949.7152 V 3095.7852 H 4.03516 Z"
             id="path23"
             style="fill:#000000;fill-opacity:1;fill-rule:nonzero;stroke:none" /><path
             d="M 4.03516,4.03516 H 5949.7152 V 3095.7852 H 4.03516 Z"
             id="path25"
             style="fill:none;stroke:#000000;stroke-width:7.07819;stroke-linecap:round;stroke-linejoin:round;stroke-miterlimit:500;stroke-dasharray:none;stroke-opacity:1" /><path
             d="m 122.945,122.945 h 5707.85 v 2853.93 H 122.945 Z"
             id="path27"
             style="fill:#ffffff;fill-opacity:1;fill-rule:nonzero;stroke:none" /><path
             d="m 122.945,122.945 h 5707.85 v 2853.93 H 122.945 Z"
             id="path29"
             style="fill:none;stroke:#000000;stroke-width:7.07819;stroke-linecap:round;stroke-linejoin:round;stroke-miterlimit:500;stroke-dasharray:none;stroke-opacity:1" /><path
             d="m 2417.28,2463.01 -216.34,-713.06 c -307.78,64.87 -612.87,-121.1 -696.21,-424.42 -83.32,-303.3 83.89,-619.053 381.61,-720.553 297.71,-101.493 623,46.359 742.28,337.41 119.29,291.053 -8.66,624.653 -291.98,761.303 l 41.84,139.67 579.2,-662.9 c -5.92,-61.61 30.92,-119.34 89.3,-139.94 58.37,-20.59 123.29,1.23 157.34,52.93 l 88.59,0.06 c 30.78,-248.592 214,-451.252 458.23,-506.893 244.23,-55.621 497.14,47.731 632.54,258.469 135.39,210.734 124.25,483.714 -27.86,682.734 -152.11,199 -412.59,281.41 -651.48,206.09 l -195.18,424.27 41.57,136.34 87.02,1.1 c 35.89,7.16 61.2,39.45 59.54,76.02 -1.67,36.57 -29.79,66.46 -66.19,70.32 l -301.53,0.55 c -37.79,-0.16 -69.46,-28.67 -73.59,-66.26 -4.1,-37.59 20.64,-72.29 57.53,-80.61 l 87.58,-1.11 -113.25,-371.07 -806.27,258.56 46.57,154.64 c 1.93,18.48 17.43,32.55 36.02,32.7 l 146.88,1.1 c 35.75,7.43 60.78,39.77 58.99,76.25 -1.8,36.48 -29.89,66.2 -66.21,70.09 h -218.71 c -32.02,-0.93 -59.61,-22.8 -67.83,-53.77"
             id="path31"
             style="fill:#000000;fill-opacity:1;fill-rule:nonzero;stroke:none" /><path
             d="m 2417.28,2463.01 -216.34,-713.06 c -307.78,64.87 -612.87,-121.1 -696.21,-424.42 -83.32,-303.3 83.89,-619.053 381.61,-720.553 297.71,-101.493 623,46.359 742.28,337.41 119.29,291.053 -8.66,624.653 -291.98,761.303 l 41.84,139.67 579.2,-662.9 c -5.92,-61.61 30.92,-119.34 89.3,-139.94 58.37,-20.59 123.29,1.23 157.34,52.93 l 88.59,0.06 c 30.78,-248.592 214,-451.252 458.23,-506.893 244.23,-55.621 497.14,47.731 632.54,258.469 135.39,210.734 124.25,483.714 -27.86,682.734 -152.11,199 -412.59,281.41 -651.48,206.09 l -195.18,424.27 41.57,136.34 87.02,1.1 c 35.89,7.16 61.2,39.45 59.54,76.02 -1.67,36.57 -29.79,66.46 -66.19,70.32 l -301.53,0.55 c -37.79,-0.16 -69.46,-28.67 -73.59,-66.26 -4.1,-37.59 20.64,-72.29 57.53,-80.61 l 87.58,-1.11 -113.25,-371.07 -806.27,258.56 46.57,154.64 c 1.93,18.48 17.43,32.55 36.02,32.7 l 146.88,1.1 c 35.75,7.43 60.78,39.77 58.99,76.25 -1.8,36.48 -29.89,66.2 -66.21,70.09 h -218.71 c -32.02,-0.93 -59.61,-22.8 -67.83,-53.77 z"
             id="path33"
             style="fill:none;stroke:#000000;stroke-width:7.07819;stroke-linecap:round;stroke-linejoin:round;stroke-miterlimit:500;stroke-dasharray:none;stroke-opacity:1" /><path
             d="m 2230.75,1360.21 c -19.37,-66.07 -43.16,-130.73 -71.2,-193.59 -8.1,-17.59 -18.54,-34 -31.04,-48.78 -24.28,-24.63 -62.75,-28.23 -91.19,-8.54 -28.43,19.68 -38.59,56.95 -24.09,88.34 28.5,55.61 52.41,113.43 71.5,172.93 l 76.96,250.63 c -236.65,43.67 -467.1,-102.01 -529.15,-334.52 -62.06,-232.52 65.14,-473.645 292.08,-553.703 226.93,-80.071 477.27,27.871 574.86,247.847 97.57,219.996 9.55,478.016 -202.12,592.496 l -66.61,-213.11"
             id="path35"
             style="fill:#ffffff;fill-opacity:1;fill-rule:nonzero;stroke:none" /><path
             d="m 2230.75,1360.21 c -19.37,-66.07 -43.16,-130.73 -71.2,-193.59 -8.1,-17.59 -18.54,-34 -31.04,-48.78 -24.28,-24.63 -62.75,-28.23 -91.19,-8.54 -28.43,19.68 -38.59,56.95 -24.09,88.34 28.5,55.61 52.41,113.43 71.5,172.93 l 76.96,250.63 c -236.65,43.67 -467.1,-102.01 -529.15,-334.52 -62.06,-232.52 65.14,-473.645 292.08,-553.703 226.93,-80.071 477.27,27.871 574.86,247.847 97.57,219.996 9.55,478.016 -202.12,592.496 z"
             id="path37"
             style="fill:none;stroke:#000000;stroke-width:7.07819;stroke-linecap:round;stroke-linejoin:round;stroke-miterlimit:500;stroke-dasharray:none;stroke-opacity:1" /><path
             d="m 3244.05,1779.89 -146.7,-476.94 c -16.34,-0.04 -32.58,-2.47 -48.23,-7.19 l -620.2,711.66 9.42,31.04 805.71,-258.57"
             id="path39"
             style="fill:#ffffff;fill-opacity:1;fill-rule:nonzero;stroke:none" /><path
             d="m 3244.05,1779.89 -146.7,-476.94 c -16.34,-0.04 -32.58,-2.47 -48.23,-7.19 l -620.2,711.66 9.42,31.04 z"
             id="path41"
             style="fill:none;stroke:#000000;stroke-width:7.07819;stroke-linecap:round;stroke-linejoin:round;stroke-miterlimit:500;stroke-dasharray:none;stroke-opacity:1" /><path
             d="m 3573.64,1674.54 c -154.52,-94.18 -257.76,-253.59 -280.52,-433.11 l -64.41,0.01 217.27,711.66 127.66,-278.56"
             id="path43"
             style="fill:#ffffff;fill-opacity:1;fill-rule:nonzero;stroke:none" /><path
             d="m 3573.64,1674.54 c -154.52,-94.18 -257.76,-253.59 -280.52,-433.11 l -64.41,0.01 217.27,711.66 z"
             id="path45"
             style="fill:none;stroke:#000000;stroke-width:4.79092;stroke-linecap:round;stroke-linejoin:round;stroke-miterlimit:500;stroke-dasharray:none;stroke-opacity:1" /><path
             d="m 3630.21,1551.89 c -107.82,-70.66 -181.09,-183.25 -201.98,-310.45 h 344.75 l -142.77,310.45"
             id="path47"
             style="fill:#ffffff;fill-opacity:1;fill-rule:nonzero;stroke:none" /><path
             d="m 3630.21,1551.89 c -107.82,-70.66 -181.09,-183.25 -201.98,-310.45 h 344.75 z"
             id="path49"
             style="fill:none;stroke:#000000;stroke-width:4.78815;stroke-linecap:round;stroke-linejoin:round;stroke-miterlimit:500;stroke-dasharray:none;stroke-opacity:1" /><path
             d="m 3950.89,1196.54 c 10.43,-22.77 8.43,-49.31 -5.3,-70.24 -13.73,-20.93 -37.27,-33.34 -62.3,-32.85 -151.63,2.98 -303.29,2.75 -454.91,-0.69 30.74,-188.045 174.21,-337.694 360.78,-376.354 186.57,-38.672 377.69,41.641 480.64,201.961 102.96,160.333 96.47,367.523 -16.34,521.093 -112.77,153.57 -308.55,221.75 -492.34,171.48 l 189.77,-414.4"
             id="path51"
             style="fill:#ffffff;fill-opacity:1;fill-rule:nonzero;stroke:none" /><path
             d="m 3950.89,1196.54 c 10.43,-22.77 8.43,-49.31 -5.3,-70.24 -13.73,-20.93 -37.27,-33.34 -62.3,-32.85 -151.63,2.98 -303.29,2.75 -454.91,-0.69 30.74,-188.045 174.21,-337.694 360.78,-376.354 186.57,-38.672 377.69,41.641 480.64,201.961 102.96,160.333 96.47,367.523 -16.34,521.093 -112.77,153.57 -308.55,221.75 -492.34,171.48 z"
             id="path53"
             style="fill:none;stroke:#000000;stroke-width:7.07819;stroke-linecap:round;stroke-linejoin:round;stroke-miterlimit:500;stroke-dasharray:none;stroke-opacity:1" /></g></g></g></g></svg>
