<?xml version="1.0" encoding="UTF-8" standalone="no"?>
<!-- Created with Inkscape (http://www.inkscape.org/) -->

<svg
   version="1.0"
   width="100"
   height="50.077881"
   id="svg2"
   xml:space="preserve"
   xmlns="http://www.w3.org/2000/svg"
   xmlns:svg="http://www.w3.org/2000/svg"><defs
     id="defs5"><clipPath
       id="clipPath19"><path
         d="M 0,0 H 3210 V 1607.5 H 0 Z"
         id="path21" /></clipPath></defs><g
     transform="matrix(0.31152648,0,0,-0.31152648,0,50.077882)"
     id="g11"><g
       transform="scale(0.1)"
       id="g13"><g
         id="g15"><g
           clip-path="url(#clipPath19)"
           id="g17"><path
             d="M 3155,1550 H 55 V 57.5 H 3155 V 1550"
             id="path23"
             style="fill:none;stroke:#fbfcfc;stroke-width:1;stroke-linecap:square;stroke-linejoin:miter;stroke-miterlimit:10;stroke-dasharray:none;stroke-opacity:1" /><path
             d="m 55,1550 v 0"
             id="path25"
             style="fill:none;stroke:#fbfcfc;stroke-width:1;stroke-linecap:square;stroke-linejoin:miter;stroke-miterlimit:10;stroke-dasharray:none;stroke-opacity:1" /><path
             d="m 0,1607.5 v 0"
             id="path27"
             style="fill:none;stroke:#000000;stroke-width:1;stroke-linecap:square;stroke-linejoin:miter;stroke-miterlimit:10;stroke-dasharray:none;stroke-opacity:1" /><path
             d="M 55,1550 H 3155 55"
             id="path29"
             style="fill:#000000;fill-opacity:1;fill-rule:evenodd;stroke:none" /><path
             d="M 55,57.5 H 3155 55"
             id="path31"
             style="fill:#000000;fill-opacity:1;fill-rule:evenodd;stroke:none" /><path
             d="M 3155,57.5 H 55 V 1550 H 3155 Z M 0,1607.5 V 0 H 3210 V 1607.5 H 0"
             id="path33"
             style="fill:#000000;fill-opacity:1;fill-rule:evenodd;stroke:none" /><path
             d="M 0,0 H 3210 0"
             id="path35"
             style="fill:#000000;fill-opacity:1;fill-rule:evenodd;stroke:none" /><path
             d="M 55,1550 H 3155 55"
             id="path37"
             style="fill:#fbfcfc;fill-opacity:1;fill-rule:evenodd;stroke:none" /><path
             d="M 55,57.5 H 3155 V 1550 H 55 Z"
             id="path39"
             style="fill:#ffffff;fill-opacity:1;fill-rule:evenodd;stroke:none" /><path
             d="M 55,57.5 H 3155 55"
             id="path41"
             style="fill:#fbfcfc;fill-opacity:1;fill-rule:evenodd;stroke:none" /><path
             d="m 757.5,1222.5 -95,-95 v -135 l 85,47.5 V 437.5 H 885 v 785 H 757.5"
             id="path43"
             style="fill:#000000;fill-opacity:1;fill-rule:evenodd;stroke:none" /><path
             d="m 1520,790 -2.5,-25 -2.5,-27.5 -10,-47.5 -15,-45 -7.5,-20 -10,-20 -5,-5 -12.5,-20 -17.5,-15 -20,-10 -22.5,-5 -25,-2.5 h -2.5 l -25,2.5 -20,7.5 -20,10 -17.5,17.5 -12.5,20 -15,30 -7.5,20 -15,47.5 -5,22.5 -2.5,25 -5,25 v 90 l 2.5,27.5 2.5,25 10,47.5 15,45 20,40 2.5,2.5 12.5,20 17.5,17.5 20,12.5 20,5 25,2.5 h 7.5 l 25,-2.5 20,-7.5 20,-12.5 15,-15 15,-22.5 12.5,-25 15,-42.5 5,-25 7.5,-22.5 2.5,-25 2.5,-27.5 2.5,-25 z m 135,95 -5,50 -10,50 -5,22.5 -15,45 -7.5,20 -10,20 -12.5,20 -2.5,5 -30,40 -15,17.5 -17.5,15 -20,12.5 -17.5,10 -22.5,10 -45,12.5 -22.5,2.5 h -55 l -25,-5 -22.5,-5 -22.5,-7.5 -40,-20 -17.5,-12.5 -17.5,-17.5 -15,-17.5 -30,-40 v -2.5 l -10,-17.5 -10,-20 -10,-22.5 -7.5,-20 -7.5,-22.5 -5,-25 -10,-47.5 -2.5,-25 -2.5,-27.5 -2.5,-25 V 800 l 2.5,-27.5 5,-50 10,-50 5,-22.5 7.5,-22.5 10,-22.5 7.5,-20 20,-40 17.5,-25 30,-35 17.5,-15 20,-15 17.5,-10 22.5,-10 22.5,-7.5 22.5,-5 22.5,-2.5 25,-2.5 h 7.5 l 25,2.5 25,5 22.5,5 22.5,7.5 40,20 35,30 15,17.5 15,20 12.5,20 12.5,17.5 10,22.5 15,40 7.5,25 10,45 2.5,25 5,25 2.5,27.5 V 800 l 2.5,30 -2.5,55"
             id="path45"
             style="fill:#000000;fill-opacity:1;fill-rule:evenodd;stroke:none" /><path
             d="m 2552.5,572.5 -2.5,22.5 -7.5,22.5 -7.5,22.5 -15,20 -15,15 -20,15 -22.5,10 -22.5,5 -22.5,2.5 -25,-2.5 -22.5,-5 -22.5,-10 -17.5,-15 -17.5,-15 -12.5,-20 -12.5,-22.5 -5,-22.5 -2.5,-22.5 2.5,-25 5,-22.5 12.5,-22.5 12.5,-17.5 17.5,-17.5 17.5,-15 22.5,-10 22.5,-5 25,-2.5 22.5,2.5 22.5,5 22.5,10 20,15 15,17.5 15,17.5 7.5,22.5 7.5,22.5 2.5,25"
             id="path47"
             style="fill:#000000;fill-opacity:1;fill-rule:nonzero;stroke:none" /><path
             d="m 2552.5,572.5 -2.5,22.5 -7.5,22.5 -7.5,22.5 -15,20 -15,15 -20,15 -22.5,10 -22.5,5 -22.5,2.5 -25,-2.5 -22.5,-5 -22.5,-10 -17.5,-15 -17.5,-15 -12.5,-20 -12.5,-22.5 -5,-22.5 -2.5,-22.5 2.5,-25 5,-22.5 12.5,-22.5 12.5,-17.5 17.5,-17.5 17.5,-15 22.5,-10 22.5,-5 25,-2.5 22.5,2.5 22.5,5 22.5,10 20,15 15,17.5 15,17.5 7.5,22.5 7.5,22.5 2.5,25"
             id="path49"
             style="fill:none;stroke:#000000;stroke-width:1;stroke-linecap:square;stroke-linejoin:miter;stroke-miterlimit:10;stroke-dasharray:none;stroke-opacity:1" /><path
             d="m 2180,1092.5 -2.5,25 -5,22.5 -12.5,22.5 -12.5,17.5 -17.5,17.5 -17.5,12.5 -22.5,12.5 -22.5,5 -25,2.5 -22.5,-2.5 -22.5,-5 -22.5,-12.5 -20,-12.5 -15,-17.5 -15,-17.5 -10,-22.5 -5,-22.5 -2.5,-25 2.5,-22.5 5,-25 10,-20 15,-20 15,-17.5 20,-12.5 22.5,-10 22.5,-5 22.5,-2.5 25,2.5 22.5,5 22.5,10 17.5,12.5 17.5,17.5 12.5,20 12.5,20 5,25 2.5,22.5"
             id="path51"
             style="fill:#000000;fill-opacity:1;fill-rule:nonzero;stroke:none" /><path
             d="m 2180,1092.5 -2.5,25 -5,22.5 -12.5,22.5 -12.5,17.5 -17.5,17.5 -17.5,12.5 -22.5,12.5 -22.5,5 -25,2.5 -22.5,-2.5 -22.5,-5 -22.5,-12.5 -20,-12.5 -15,-17.5 -15,-17.5 -10,-22.5 -5,-22.5 -2.5,-25 2.5,-22.5 5,-25 10,-20 15,-20 15,-17.5 20,-12.5 22.5,-10 22.5,-5 22.5,-2.5 25,2.5 22.5,5 22.5,10 17.5,12.5 17.5,17.5 12.5,20 12.5,20 5,25 2.5,22.5"
             id="path53"
             style="fill:none;stroke:#000000;stroke-width:1;stroke-linecap:square;stroke-linejoin:miter;stroke-miterlimit:10;stroke-dasharray:none;stroke-opacity:1" /><path
             d="m 2112.5,1092.5 -2.5,17.5 -7.5,17.5 -10,12.5 -15,12.5 -15,7.5 -20,2.5 -15,-2.5 -17.5,-7.5 -15,-12.5 -10,-12.5 -7.5,-17.5 -2.5,-17.5 2.5,-17.5 7.5,-15 10,-15 15,-10 17.5,-7.5 15,-2.5 20,2.5 15,7.5 15,10 10,15 7.5,15 2.5,17.5"
             id="path55"
             style="fill:#ffffff;fill-opacity:1;fill-rule:nonzero;stroke:none" /><path
             d="m 2112.5,1092.5 -2.5,17.5 -7.5,17.5 -10,12.5 -15,12.5 -15,7.5 -20,2.5 -15,-2.5 -17.5,-7.5 -15,-12.5 -10,-12.5 -7.5,-17.5 -2.5,-17.5 2.5,-17.5 7.5,-15 10,-15 15,-10 17.5,-7.5 15,-2.5 20,2.5 15,7.5 15,10 10,15 7.5,15 2.5,17.5"
             id="path57"
             style="fill:none;stroke:#000000;stroke-width:1;stroke-linecap:square;stroke-linejoin:miter;stroke-miterlimit:10;stroke-dasharray:none;stroke-opacity:1" /><path
             d="m 2445,1230 -7.5,-7.5 -5,-12.5 -10,-12.5 -10,-17.5 -15,-17.5 -2.5,-2.5 -2.5,-7.5 -7.5,-12.5 -10,-12.5 -7.5,-10 -5,-7.5 -10,-17.5 -12.5,-17.5 -5,-5 -5,-10 -10,-15 -7.5,-10 -5,-7.5 -2.5,-2.5 -12.5,-20 -10,-17.5 -10,-12.5 -7.5,-10 -2.5,-5 -2.5,-2.5 -167.5,-250 -2.5,-2.5 -2.5,-5 -7.5,-10 -20,-30 -15,-20 v -2.5 l -5,-7.5 -7.5,-10 v -2.5 l -10,-12.5 -7.5,-10 -5,-5 -10,-17.5 -12.5,-17.5 -5,-7.5 -7.5,-10 -15,-25 -5,-7.5 -2.5,-2.5 -12.5,-17.5 -10,-17.5 -10,-15 -7.5,-10 -2.5,-5 -2.5,-2.5 H 2015 l 7.5,7.5 5,10 10,15 10,17.5 15,17.5 v 2.5 l 5,7.5 7.5,12.5 10,12.5 7.5,10 2.5,7.5 25,35 2.5,5 7.5,10 10,12.5 v 2.5 l 7.5,10 5,7.5 v 2.5 l 15,20 20,30 7.5,10 2.5,5 2.5,2.5 167.5,250 7.5,7.5 5,10 10,12.5 10,17.5 15,20 2.5,2.5 2.5,7.5 7.5,10 10,15 7.5,10 5,5 10,17.5 12.5,17.5 5,7.5 5,10 10,12.5 7.5,12.5 5,7.5 2.5,2.5 12.5,17.5 10,17.5 10,12.5 7.5,12.5 2.5,5 2.5,2.5 H 2445"
             id="path59"
             style="fill:#000000;fill-opacity:1;fill-rule:evenodd;stroke:none" /><path
             d="m 2485,572.5 -2.5,17.5 -7.5,15 -10,15 -15,10 -15,7.5 -17.5,2.5 -20,-2.5 -15,-7.5 -15,-10 -10,-15 -7.5,-15 -2.5,-17.5 2.5,-17.5 7.5,-17.5 10,-12.5 15,-12.5 15,-7.5 20,-2.5 17.5,2.5 15,7.5 15,12.5 10,12.5 7.5,17.5 2.5,17.5"
             id="path61"
             style="fill:#ffffff;fill-opacity:1;fill-rule:nonzero;stroke:none" /><path
             d="m 2485,572.5 -2.5,17.5 -7.5,15 -10,15 -15,10 -15,7.5 -17.5,2.5 -20,-2.5 -15,-7.5 -15,-10 -10,-15 -7.5,-15 -2.5,-17.5 2.5,-17.5 7.5,-17.5 10,-12.5 15,-12.5 15,-7.5 20,-2.5 17.5,2.5 15,7.5 15,12.5 10,12.5 7.5,17.5 2.5,17.5"
             id="path63"
             style="fill:none;stroke:#000000;stroke-width:1;stroke-linecap:square;stroke-linejoin:miter;stroke-miterlimit:10;stroke-dasharray:none;stroke-opacity:1" /></g></g></g></g></svg>
