<?xml version="1.0" encoding="UTF-8" standalone="no"?>
<!-- Created with Inkscape (http://www.inkscape.org/) -->

<svg
   version="1.0"
   width="100"
   height="43.310837"
   id="svg2"
   xml:space="preserve"
   xmlns="http://www.w3.org/2000/svg"
   xmlns:svg="http://www.w3.org/2000/svg"><defs
     id="defs5"><clipPath
       id="clipPath19"><path
         d="M 0,0 H 6297.5 V 2727.5 H 0 Z"
         id="path21" /></clipPath></defs><g
     transform="matrix(0.15879317,0,0,-0.15879317,0,43.310837)"
     id="g11"><g
       transform="scale(0.1)"
       id="g13"><g
         id="g15"><g
           clip-path="url(#clipPath19)"
           id="g17"><path
             d="M 6171.5501,125.93974 H 125.95 V 2601.55 h 6045.6001 z"
             id="path1146"
             style="fill:#ffffff" /><path
             d="M 6171.5501,125.93974 H 125.95 V 2601.55 H 6171.5501 Z M 0,2727.5 V 0 H 6297.5 V 2727.5 H 0"
             id="path25"
             style="fill:#000000;fill-opacity:1;fill-rule:evenodd;stroke:none" /><path
             d="M 617.5,2065 V 1950 H 755 v -92.5 l -2.5,-20 -5,-17.5 -7.5,-17.5 -12.5,-17.5 -12.5,-15 -7.5,-7.5 -15,-12.5 -35,-15 -40,-5 h -15 l -20,5 -17.5,5 -20,7.5 -17.5,12.5 -12.5,10 -27.5,27.5 -7.5,17.5 -10,17.5 v 2.5 l -5,17.5 -7.5,17.5 -7.5,40 -2.5,20 v 20 l -2.5,20 v 45 l 2.5,20 v 20 l 7.5,40 2.5,20 7.5,17.5 5,20 7.5,15 7.5,17.5 12.5,15 15,15 15,12.5 12.5,7.5 20,10 17.5,7.5 40,5 20,-2.5 22.5,-2.5 17.5,-5 15,-10 17.5,-10 12.5,-10 15,-17.5 12.5,-15 102.5,67.5 -12.5,15 -15,17.5 -27.5,27.5 -15,10 -15,12.5 -17.5,10 -15,5 -17.5,7.5 -20,7.5 -37.5,7.5 h -20 l -20,2.5 h -17.5 l -20,-2.5 -17.5,-2.5 -40,-10 -17.5,-7.5 -20,-7.5 -15,-10 -17.5,-12.5 h -2.5 l -25,-20 -12.5,-12.5 -22.5,-27.5 -10,-12.5 -10,-17.5 -10,-15 -12.5,-32.5 -7.5,-17.5 -15,-60 -7.5,-67.5 v -22.5 l -2.5,-25 v -2.5 l 2.5,-20 v -20 l 10,-80 10,-40 7.5,-20 5,-20 7.5,-17.5 20,-35 25,-30 27.5,-27.5 35,-25 17.5,-10 35,-15 40,-10 17.5,-5 22.5,-2.5 h 27.5 l 20,2.5 17.5,2.5 20,2.5 20,7.5 17.5,5 17.5,7.5 35,20 15,12.5 15,15 5,2.5 25,30 10,17.5 10,15 15,37.5 5,17.5 7.5,60 V 2065 h -265"
             id="path27"
             style="fill:#000000;fill-opacity:1;fill-rule:evenodd;stroke:none" /><path
             d="M 1070,2147.5 V 1545 l -2.5,-17.5 -10,-15 -15,-7.5 -17.5,-2.5 -17.5,2.5 -20,2.5 -15,2.5 -35,-97.5 40,-10 20,-2.5 h 50 l 17.5,5 20,5 17.5,7.5 30,25 2.5,2.5 25,30 7.5,17.5 5,17.5 5,20 2.5,20 v 597.5 h -110"
             id="path29"
             style="fill:#000000;fill-opacity:1;fill-rule:evenodd;stroke:none" /><path
             d="m 1125,2372.5 -20,-2.5 -17.5,-10 -7.5,-7.5 -10,-15 -7.5,-17.5 v -10 l 2.5,-22.5 10,-15 5,-7.5 17.5,-12.5 17.5,-5 10,-2.5 20,5 17.5,7.5 7.5,7.5 10,15 5,20 2.5,10 -2.5,20 -10,17.5 -5,5 -15,12.5 -20,7.5 h -10"
             id="path31"
             style="fill:#000000;fill-opacity:1;fill-rule:evenodd;stroke:none" /><path
             d="m 1437.5,1955 2.5,22.5 7.5,20 10,17.5 10,15 10,12.5 30,15 17.5,5 h 22.5 l 20,-2.5 20,-7.5 17.5,-10 17.5,-17.5 10,-15 10,-20 5,-17.5 2.5,-17.5 z m 327.5,-32.5 -5,40 -10,45 h -2.5 l -5,20 -7.5,20 -10,17.5 -10,15 -12.5,17.5 -12.5,12.5 -15,12.5 -17.5,12.5 -17.5,10 -17.5,7.5 -17.5,5 -42.5,7.5 H 1520 l -20,-2.5 -20,-5 -17.5,-5 -35,-17.5 -17.5,-12.5 -15,-15 -15,-12.5 -10,-15 -12.5,-17.5 -7.5,-17.5 -7.5,-20 -7.5,-17.5 -5,-17.5 -5,-20 -5,-40 v -77.5 l 2.5,-20 7.5,-40 5,-20 v -2.5 l 7.5,-20 15,-35 12.5,-17.5 25,-27.5 15,-12.5 2.5,-2.5 17.5,-10 15,-10 20,-7.5 17.5,-7.5 60,-7.5 h 10 l 20,2.5 17.5,2.5 20,5 20,7.5 17.5,7.5 17.5,10 7.5,5 15,12.5 17.5,12.5 25,30 10,15 10,20 -92.5,45 -5,-10 -10,-17.5 -12.5,-12.5 -15,-12.5 -15,-7.5 -17.5,-7.5 -40,-5 h -5 l -20,2.5 -17.5,7.5 -17.5,10 -15,15 -10,12.5 -10,15 -7.5,20 -2.5,20 -5,22.5 -2.5,27.5 h 335 l 2.5,22.5 v 15 l -2.5,17.5"
             id="path33"
             style="fill:#000000;fill-opacity:1;fill-rule:evenodd;stroke:none" /><path
             d="m 1910,1627.5 h 110 v 735 h -110 z"
             id="path35"
             style="fill:#000000;fill-opacity:1;fill-rule:nonzero;stroke:none" /><path
             d="m 2495,1820 -2.5,-20 -5,-17.5 -7.5,-17.5 -15,-17.5 h -2.5 l -15,-12.5 -17.5,-10 -17.5,-7.5 h -45 l -17.5,5 -17.5,10 -10,5 -15,15 -12.5,15 -10,17.5 -2.5,12.5 -2.5,20 -5,20 -2.5,20 v 20 l -2.5,12.5 2.5,17.5 v 20 l 5,20 2.5,20 2.5,15 7.5,17.5 10,17.5 12.5,15 10,10 15,10 20,7.5 17.5,2.5 12.5,2.5 20,-2.5 20,-5 17.5,-10 15,-10 2.5,-5 15,-15 10,-17.5 5,-17.5 2.5,-20 z m 0,542.5 V 2130 l -17.5,12.5 -17.5,10 -17.5,7.5 -17.5,5 h -55 l -20,-2.5 -17.5,-5 -20,-5 -17.5,-7.5 -35,-20 -10,-10 -15,-12.5 -15,-15 -10,-15 -12.5,-17.5 -17.5,-35 -5,-17.5 -5,-15 -2.5,-17.5 -7.5,-60 v -42.5 l 7.5,-60 2.5,-17.5 5,-20 7.5,-20 7.5,-17.5 10,-15 12.5,-17.5 12.5,-15 15,-12.5 10,-10 17.5,-12.5 15,-10 20,-10 17.5,-5 20,-5 17.5,-5 20,-2.5 h 20 l 20,2.5 17.5,2.5 20,7.5 17.5,7.5 17.5,12.5 5,2.5 v -20 h 110 v 735 h -110"
             id="path37"
             style="fill:#000000;fill-opacity:1;fill-rule:evenodd;stroke:none" /><path
             d="m 2870,1955 5,22.5 5,20 10,17.5 10,15 10,12.5 30,15 17.5,5 h 22.5 l 20,-2.5 20,-7.5 17.5,-10 17.5,-17.5 12.5,-15 7.5,-20 5,-17.5 2.5,-17.5 z m 327.5,-32.5 -2.5,20 -7.5,42.5 -5,22.5 -15,40 -10,17.5 -10,15 -12.5,17.5 -12.5,12.5 -15,12.5 -17.5,12.5 -17.5,10 -17.5,7.5 -17.5,5 -20,5 -20,2.5 h -45 l -20,-2.5 -20,-5 -17.5,-5 -17.5,-10 -17.5,-7.5 -15,-12.5 h -2.5 l -27.5,-27.5 -12.5,-15 -12.5,-17.5 -7.5,-17.5 -7.5,-20 -7.5,-17.5 -5,-17.5 -10,-80 v -37.5 l 10,-80 5,-20 v -2.5 l 7.5,-20 7.5,-17.5 20,-35 12.5,-12.5 12.5,-15 17.5,-12.5 v -2.5 l 35,-20 35,-15 60,-7.5 h 10 l 40,5 17.5,5 20,7.5 17.5,7.5 17.5,10 7.5,5 17.5,12.5 15,12.5 37.5,45 10,20 -95,45 -2.5,-10 -12.5,-17.5 -12.5,-12.5 -15,-12.5 -15,-7.5 -17.5,-7.5 -17.5,-2.5 -22.5,-2.5 h -5 l -20,2.5 -17.5,7.5 -17.5,10 -15,15 -10,12.5 -10,15 -10,40 -5,22.5 -2.5,27.5 h 335 l 2.5,22.5 v 15 l -2.5,17.5"
             id="path39"
             style="fill:#000000;fill-opacity:1;fill-rule:evenodd;stroke:none" /><path
             d="m 3637.5,2155 -20,7.5 -17.5,2.5 h -37.5 l -20,-2.5 -20,-5 -17.5,-5 -17.5,-10 -17.5,-7.5 -17.5,-12.5 V 2150 H 3345 v -522.5 h 107.5 V 1960 l 5,22.5 5,17.5 10,17.5 12.5,15 22.5,15 35,15 h 32.5 l 20,-2.5 17.5,-7.5 40,97.5 -15,5"
             id="path41"
             style="fill:#000000;fill-opacity:1;fill-rule:evenodd;stroke:none" /><path
             d="m 4190,1627.5 h 110 v 525 h -110 z"
             id="path43"
             style="fill:#000000;fill-opacity:1;fill-rule:nonzero;stroke:none" /><path
             d="m 4247.5,2375 -20,-2.5 -17.5,-7.5 -10,-7.5 -10,-15 -5,-20 -2.5,-10 5,-20 7.5,-17.5 5,-5 17.5,-12.5 17.5,-5 h 12.5 l 17.5,2.5 17.5,7.5 7.5,7.5 12.5,15 5,20 v 7.5 l -2.5,20 -10,17.5 -5,7.5 -15,12.5 -20,5 h -7.5"
             id="path45"
             style="fill:#000000;fill-opacity:1;fill-rule:evenodd;stroke:none" /><path
             d="m 4925,2152.5 h -155 l -182.5,-185 v 395 h -110 v -735 h 110 V 1810 l 37.5,40 165,-222.5 h 135 l -220,302.5 220,222.5"
             id="path47"
             style="fill:#000000;fill-opacity:1;fill-rule:evenodd;stroke:none" /><path
             d="m 5472.5,2152.5 h -155 l -182.5,-185 v 395 h -110 v -735 h 110 V 1810 l 37.5,40 165,-222.5 h 135 L 5250,1930 l 222.5,222.5"
             id="path49"
             style="fill:#000000;fill-opacity:1;fill-rule:evenodd;stroke:none" /><path
             d="m 5650,1977.5 7.5,20 10,17.5 7.5,15 12.5,12.5 12.5,7.5 17.5,7.5 15,5 h 25 l 20,-2.5 17.5,-7.5 20,-10 17.5,-17.5 12.5,-15 5,-20 10,-35 h -215 z m 325,-110 2.5,22.5 -2.5,15 v 17.5 l -5,40 -10,45 -15,40 -10,17.5 -10,15 -12.5,17.5 -12.5,12.5 -17.5,12.5 -15,12.5 -17.5,10 -17.5,7.5 -17.5,5 -22.5,5 -17.5,2.5 h -45 l -20,-2.5 -40,-10 -17.5,-10 -15,-7.5 -17.5,-12.5 -15,-15 -15,-12.5 -10,-15 -12.5,-17.5 -10,-17.5 -7.5,-20 -10,-35 -2.5,-20 -5,-20 -2.5,-20 v -20 l -2.5,-20 2.5,-17.5 v -20 l 5,-40 10,-40 v -2.5 l 5,-20 30,-52.5 12.5,-12.5 12.5,-15 15,-12.5 2.5,-2.5 17.5,-10 15,-10 17.5,-7.5 20,-7.5 60,-7.5 h 7.5 l 22.5,2.5 17.5,2.5 20,5 20,7.5 17.5,7.5 17.5,10 7.5,5 17.5,12.5 12.5,12.5 27.5,30 10,15 10,20 -92.5,45 -5,-10 -10,-17.5 -12.5,-12.5 -15,-12.5 -15,-7.5 -17.5,-7.5 -40,-5 h -5 l -20,2.5 -17.5,7.5 -17.5,10 -17.5,15 -7.5,12.5 -10,15 -7.5,20 -5,20 -5,22.5 v 27.5 h 335"
             id="path51"
             style="fill:#000000;fill-opacity:1;fill-rule:evenodd;stroke:none" /><path
             d="m 2530.775,465 -15,-5 -40,-5 -15,2.5 -15,10 -10,12.5 -5,20 v 287.5 h 127.5 v 105 h -127.5 v 210 l -110,-97.5 V 892.5 h -72.5 v -105 h 72.5 V 505 l 5,-40 7.5,-17.5 7.5,-20 25,-30 h 2.5 l 15,-15 15,-10 20,-7.5 17.5,-7.5 17.5,-2.5 22.5,-2.5 h 5 l 22.5,2.5 20,2.5 17.5,2.5 20,5 -30,100"
             id="path65"
             style="fill:#000000;fill-opacity:1;fill-rule:evenodd;stroke:none" /><path
             d="m 2970.775,485 -15,-10 -20,-10 -17.5,-5 -40,-5 -40,5 -17.5,5 -17.5,10 -17.5,12.5 -10,12.5 -7.5,17.5 -2.5,20 2.5,15 7.5,20 10,15 15,10 15,7.5 22.5,2.5 h 137.5 l 2.5,-120 z m 110,275 -2.5,20 -7.5,17.5 -10,17.5 -12.5,15 -12.5,17.5 -30,25 -17.5,10 -15,10 -20,7.5 -37.5,7.5 h -77.5 l -60,-7.5 -20,-5 -37.5,-10 -20,-5 -20,-7.5 37.5,-95 15,5 60,15 60,7.5 h 47.5 l 20,-5 17.5,-7.5 15,-12.5 2.5,-2.5 10,-17.5 7.5,-17.5 2.5,-20 v -25 h -152.5 l -12.5,-2.5 -20,-2.5 -17.5,-2.5 -20,-7.5 -15,-10 -17.5,-10 -22.5,-22.5 -10,-15 -12.5,-17.5 -7.5,-17.5 -5,-17.5 -5,-40 v -10 l 2.5,-20 2.5,-17.5 7.5,-20 7.5,-15 20,-30 30,-25 20,-10 7.5,-5 20,-10 35,-10 22.5,-2.5 17.5,-2.5 22.5,-2.5 h 7.5 l 20,2.5 20,5 17.5,7.5 20,5 17.5,12.5 v -17.5 h 110 V 740 l -5,20"
             id="path67"
             style="fill:#000000;fill-opacity:1;fill-rule:evenodd;stroke:none" /><path
             d="m 3503.275,637.5 157.5,255 h -130 l -90,-150 -92.5,150 h -130 l 157.5,-255 -170,-270 h 130 l 105,167.5 102.5,-167.5 h 130 l -170,270"
             id="path69"
             style="fill:#000000;fill-opacity:1;fill-rule:evenodd;stroke:none" /><path
             d="m 3803.275,367.5 h 110 v 525 h -110 z"
             id="path71"
             style="fill:#000000;fill-opacity:1;fill-rule:nonzero;stroke:none" /><path
             d="m 3858.275,1117.5 -20,-5 -15,-7.5 -7.5,-7.5 -12.5,-15 -5,-20 -2.5,-10 2.5,-20 10,-17.5 7.5,-5 15,-12.5 20,-5 h 7.5 l 20,2.5 17.5,7.5 7.5,7.5 12.5,15 5,20 v 7.5 l -2.5,20 -10,17.5 -5,7.5 -15,12.5 -20,5 -10,2.5"
             id="path73"
             style="fill:#000000;fill-opacity:1;fill-rule:evenodd;stroke:none" /></g></g></g></g></svg>
