<?xml version="1.0" encoding="UTF-8" standalone="no"?>
<!-- Created with Inkscape (http://www.inkscape.org/) -->

<svg
   version="1.0"
   width="100"
   height="76.420235"
   id="svg2"
   xml:space="preserve"
   xmlns="http://www.w3.org/2000/svg"
   xmlns:svg="http://www.w3.org/2000/svg"><defs
     id="defs5"><clipPath
       id="clipPath19"><path
         d="M 0,0 H 3212.5 V 2455 H 0 Z"
         id="path21" /></clipPath></defs><g
     transform="matrix(0.31128405,0,0,-0.31128405,0,76.420234)"
     id="g11"><g
       transform="scale(0.1)"
       id="g13"><g
         id="g15"><g
           clip-path="url(#clipPath19)"
           id="g17"><path
             d="M 3155,55 H 55 V 2400 H 3155 Z M 0,2455 V 0 H 3212.5 V 2455 H 0"
             id="path23"
             style="fill:#000000;fill-opacity:1;fill-rule:evenodd;stroke:none" /><path
             d="M 55,55 H 3155 V 2400 H 55 Z"
             id="path25"
             style="fill:#ffffff;fill-opacity:1;fill-rule:evenodd;stroke:none" /><path
             d="M 515,500 V 830 H 447.5 V 435 h 245 v 65 H 515"
             id="path27"
             style="fill:#000000;fill-opacity:1;fill-rule:evenodd;stroke:none" /><path
             d="m 825,482.5 -10,2.5 -12.5,5 -10,5 -5,5 -5,7.5 -10,20 -2.5,10 -5,25 v 20 l 2.5,12.5 v 12.5 l 2.5,10 5,15 5,10 5,7.5 7.5,7.5 5,2.5 10,7.5 12.5,2.5 h 15 l 20,-5 10,-7.5 12.5,-10 5,-10 2.5,-10 2.5,-7.5 2.5,-10 2.5,-12.5 v -50 l -2.5,-10 -5,-12.5 v -2.5 l -5,-12.5 -5,-7.5 -10,-7.5 -5,-2.5 -7.5,-5 -12.5,-2.5 -10,-2.5 z m 125,127.5 -7.5,37.5 -15,30 -25,25 -20,10 -7.5,5 -12.5,2.5 -10,5 h -35 l -22.5,-5 -10,-2.5 -20,-10 -7.5,-7.5 H 755 l -10,-7.5 -12.5,-17.5 -5,-10 -7.5,-10 -7.5,-20 v -2.5 l -2.5,-10 v -10 L 707.5,600 V 552.5 L 710,540 v -10 l 2.5,-10 2.5,-2.5 2.5,-12.5 5,-7.5 5,-12.5 5,-7.5 15,-17.5 7.5,-7.5 h 2.5 L 775,440 l 10,-5 10,-2.5 12.5,-2.5 10,-2.5 h 25 l 10,2.5 22.5,7.5 10,2.5 10,5 10,7.5 15,17.5 7.5,7.5 5,10 7.5,10 2.5,10 7.5,37.5 2.5,20 v 25 l -2.5,20"
             id="path29"
             style="fill:#000000;fill-opacity:1;fill-rule:evenodd;stroke:none" /><path
             d="m 1315,717.5 -47.5,-187.5 -45,187.5 H 1160 L 1115,530 1070,717.5 h -62.5 l 70,-282.5 h 75 l 40,157.5 L 1230,435 h 75 l 70,282.5 h -60"
             id="path31"
             style="fill:#000000;fill-opacity:1;fill-rule:evenodd;stroke:none" /><path
             d="m 1837.5,515 -7.5,-10 -15,-15 -20,-10 h -17.5 l -12.5,2.5 -10,5 -7.5,5 -12.5,12.5 -5,10 -5,15 -2.5,10 v 12.5 l -2.5,10 V 590 l 2.5,12.5 V 615 l 2.5,10 12.5,25 10,5 5,5 7.5,5 12.5,2.5 h 22.5 l 10,-2.5 10,-5 7.5,-7.5 V 650 l 7.5,-7.5 7.5,-10 2.5,-10 V 525 Z m 2.5,200 v -10 l -10,7.5 -10,5 -10,2.5 -12.5,2.5 -10,2.5 h -2.5 l -5,-2.5 h -10 l -22.5,-5 -10,-2.5 -20,-10 -10,-7.5 -12.5,-12.5 -5,-7.5 -7.5,-7.5 -15,-30 -2.5,-12.5 -2.5,-7.5 v -22.5 l -2.5,-10 V 565 l 2.5,-10 v -25 l 2.5,-10 v -2.5 l 5,-12.5 10,-20 5,-7.5 7.5,-10 15,-15 5,-2.5 17.5,-12.5 10,-2.5 12.5,-5 20,-5 h 15 l 25,5 7.5,2.5 10,5 10,7.5 v -32.5 l -2.5,-10 -5,-10 -7.5,-10 -10,-5 -7.5,-5 -12.5,-5 h -27.5 L 1755,370 h -10 l -10,2.5 -12.5,5 -20,5 -10,5 -25,-50 7.5,-2.5 20,-10 12.5,-2.5 20,-5 12.5,-2.5 22.5,-2.5 h 25 l 22.5,2.5 20,5 20,10 17.5,15 v 2.5 l 7.5,7.5 7.5,10 5,10 5,7.5 2.5,12.5 5,20 v 300 h -60"
             id="path33"
             style="fill:#000000;fill-opacity:1;fill-rule:evenodd;stroke:none" /><path
             d="m 2042.5,612.5 2.5,7.5 2.5,12.5 10,17.5 7.5,7.5 15,10 10,2.5 h 22.5 l 20,-10 17.5,-17.5 2.5,-10 2.5,-12.5 2.5,-7.5 z m 177.5,-7.5 -2.5,10 -5,25 -5,10 -2.5,10 -10,20 -22.5,22.5 -7.5,5 -20,10 -10,2.5 -12.5,5 H 2080 l -12.5,-2.5 -10,-5 -10,-2.5 -20,-12.5 -12.5,-12.5 -7.5,-10 -7.5,-7.5 -5,-10 -2.5,-12.5 -5,-10 v -7.5 l -2.5,-12.5 -5,-20 v -40 l 2.5,-12.5 V 535 l 2.5,-10 2.5,-12.5 5,-7.5 2.5,-10 10,-20 15,-17.5 10,-7.5 7.5,-5 10,-5 7.5,-5 12.5,-2.5 20,-5 h 25 l 12.5,2.5 20,7.5 12.5,2.5 10,5 v 2.5 l 10,7.5 17.5,15 7.5,7.5 10,20 -50,25 V 520 l -15,-20 -5,-5 -20,-10 -10,-2.5 H 2100 l -12.5,2.5 -10,2.5 -10,5 v 2.5 l -7.5,5 -10,15 -2.5,10 -5,12.5 -2.5,12.5 -2.5,15 H 2220 l 2.5,12.5 v 5 L 2220,605"
             id="path35"
             style="fill:#000000;fill-opacity:1;fill-rule:evenodd;stroke:none" /><path
             d="m 2445,500 -7.5,-5 -12.5,-5 -10,-5 -10,-2.5 h -20 l -12.5,2.5 -10,2.5 -10,5 -7.5,5 -7.5,7.5 -2.5,10 -2.5,12.5 v 7.5 l 5,10 7.5,10 5,5 10,2.5 12.5,2.5 h 72.5 l 2.5,-65 z m 57.5,145 v 10 l -5,10 -5,12.5 -5,7.5 -22.5,22.5 -30,15 -10,2.5 h -12.5 l -12.5,2.5 h -25 l -22.5,-2.5 -10,-2.5 -22.5,-5 -32.5,-10 20,-52.5 15,7.5 22.5,5 12.5,2.5 22.5,2.5 h 25 l 10,-2.5 10,-5 10,-7.5 7.5,-10 2.5,-10 v -25 h -95 l -12.5,-2.5 -10,-5 -7.5,-5 -10,-5 -12.5,-10 -5,-10 -7.5,-10 -5,-7.5 -2.5,-10 -2.5,-12.5 v -22.5 l 2.5,-12.5 2.5,-10 5,-10 10,-15 7.5,-7.5 20,-12.5 2.5,-2.5 10,-2.5 10,-5 10,-2.5 25,-5 h 25 l 10,2.5 10,5 12.5,5 7.5,5 v -10 h 60 v 200 l -2.5,10"
             id="path37"
             style="fill:#000000;fill-opacity:1;fill-rule:evenodd;stroke:none" /><path
             d="m 2755,720 -12.5,2.5 -10,2.5 H 2705 l -12.5,-2.5 -10,-5 -10,-2.5 -20,-12.5 v 15 H 2595 V 435 h 57.5 v 180 l 2.5,10 2.5,10 7.5,10 7.5,7.5 v 2.5 l 10,7.5 10,5 10,2.5 h 15 l 12.5,-2.5 10,-2.5 20,52.5 -5,2.5"
             id="path39"
             style="fill:#000000;fill-opacity:1;fill-rule:evenodd;stroke:none" /><path
             d="m 1485,1740 -12.5,-20 -15,-17.5 v -2.5 l -20,-15 -20,-10 -22.5,-7.5 -25,-2.5 h -2.5 l -25,2.5 -22.5,7.5 -20,10 -20,15 v 2.5 l -15,20 -12.5,20 -5,22.5 -2.5,25 v 45 l 2.5,25 7.5,22.5 10,20 15,20 h 2.5 l 20,17.5 20,10 22.5,5 25,2.5 25,-2.5 25,-7.5 20,-10 35,-35 10,-22.5 7.5,-22.5 2.5,-25 V 1790 l -5,-27.5 z m 155,0 -2.5,50 -2.5,25 -2.5,22.5 -5,25 -5,22.5 v 2.5 l -2.5,2.5 -7.5,22.5 -7.5,25 -10,20 -30,40 -17.5,17.5 -17.5,15 h -2.5 l -20,15 -20,12.5 -22.5,10 -22.5,7.5 -22.5,5 -25,5 h -37.5 l -25,-2.5 -25,-5 -22.5,-5 -22.5,-10 -20,-7.5 -20,-15 -20,-12.5 -27.5,-27.5 -15,-20 -12.5,-17.5 -12.5,-22.5 -10,-20 -5,-22.5 -7.5,-22.5 -2.5,-25 v -62.5 l 2.5,-27.5 2.5,-22.5 7.5,-22.5 17.5,-45 12.5,-17.5 15,-20 17.5,-17.5 10,-7.5 17.5,-17.5 40,-25 22.5,-10 45,-10 25,-5 h 35 l 22.5,2.5 22.5,5 25,10 20,10 20,15 -2.5,-2.5 -5,-22.5 -7.5,-22.5 -10,-22.5 -10,-25 -10,-22.5 -12.5,-22.5 -15,-15 -17.5,-15 -20,-10 -22.5,-5 -25,-2.5 -25,2.5 -22.5,7.5 -20,12.5 -20,15 -82.5,-105 10,-7.5 20,-12.5 22.5,-12.5 22.5,-10 22.5,-7.5 22.5,-5 22.5,-2.5 25,-2.5 h 10 l 25,2.5 25,5 22.5,5 22.5,7.5 22.5,12.5 22.5,10 7.5,7.5 20,15 17.5,15 15,17.5 15,20 12.5,20 10,25 2.5,2.5 10,25 10,22.5 7.5,22.5 7.5,25 5,22.5 7.5,25 5,22.5 2.5,25 2.5,22.5 2.5,25 v 25 l 2.5,25 -2.5,20"
             id="path41"
             style="fill:#000000;fill-opacity:1;fill-rule:evenodd;stroke:none" /><path
             d="m 2308.75,1420 -2.5,22.5 -7.5,22.5 -7.5,22.5 -15,20 -15,15 -20,15 -22.5,10 -22.5,5 -22.5,2.5 -25,-2.5 -22.5,-5 -22.5,-10 -17.5,-15 -17.5,-15 -12.5,-20 -12.5,-22.5 -5,-22.5 -2.5,-22.5 2.5,-25 5,-22.5 12.5,-22.5 12.5,-17.5 17.5,-17.5 17.5,-15 22.5,-10 22.5,-5 25,-2.5 22.5,2.5 22.5,5 22.5,10 20,15 15,17.5 15,17.5 7.5,22.5 7.5,22.5 2.5,25"
             id="path43"
             style="fill:#000000;fill-opacity:1;fill-rule:nonzero;stroke:none" /><path
             d="m 2308.75,1420 -2.5,22.5 -7.5,22.5 -7.5,22.5 -15,20 -15,15 -20,15 -22.5,10 -22.5,5 -22.5,2.5 -25,-2.5 -22.5,-5 -22.5,-10 -17.5,-15 -17.5,-15 -12.5,-20 -12.5,-22.5 -5,-22.5 -2.5,-22.5 2.5,-25 5,-22.5 12.5,-22.5 12.5,-17.5 17.5,-17.5 17.5,-15 22.5,-10 22.5,-5 25,-2.5 22.5,2.5 22.5,5 22.5,10 20,15 15,17.5 15,17.5 7.5,22.5 7.5,22.5 2.5,25"
             id="path45"
             style="fill:none;stroke:#000000;stroke-width:1;stroke-linecap:square;stroke-linejoin:miter;stroke-miterlimit:10;stroke-dasharray:none;stroke-opacity:1" /><path
             d="m 1936.25,1940 -2.5,25 -5,22.5 -12.5,22.5 -12.5,17.5 -17.5,17.5 -17.5,12.5 -22.5,12.5 -22.5,5 -25,2.5 -22.5,-2.5 -22.5,-5 -22.5,-12.5 -20,-12.5 -15,-17.5 -15,-17.5 -10,-22.5 -5,-22.5 -2.5,-25 2.5,-22.5 5,-25 10,-20 15,-20 15,-17.5 20,-12.5 22.5,-10 22.5,-5 22.5,-2.5 25,2.5 22.5,5 22.5,10 17.5,12.5 17.5,17.5 12.5,20 12.5,20 5,25 2.5,22.5"
             id="path47"
             style="fill:#000000;fill-opacity:1;fill-rule:nonzero;stroke:none" /><path
             d="m 1936.25,1940 -2.5,25 -5,22.5 -12.5,22.5 -12.5,17.5 -17.5,17.5 -17.5,12.5 -22.5,12.5 -22.5,5 -25,2.5 -22.5,-2.5 -22.5,-5 -22.5,-12.5 -20,-12.5 -15,-17.5 -15,-17.5 -10,-22.5 -5,-22.5 -2.5,-25 2.5,-22.5 5,-25 10,-20 15,-20 15,-17.5 20,-12.5 22.5,-10 22.5,-5 22.5,-2.5 25,2.5 22.5,5 22.5,10 17.5,12.5 17.5,17.5 12.5,20 12.5,20 5,25 2.5,22.5"
             id="path49"
             style="fill:none;stroke:#000000;stroke-width:1;stroke-linecap:square;stroke-linejoin:miter;stroke-miterlimit:10;stroke-dasharray:none;stroke-opacity:1" /><path
             d="m 1868.75,1940 -2.5,17.5 -7.5,17.5 -10,12.5 -15,12.5 -15,7.5 -20,2.5 -15,-2.5 -17.5,-7.5 -15,-12.5 -10,-12.5 -7.5,-17.5 -2.5,-17.5 2.5,-17.5 7.5,-15 10,-15 15,-10 17.5,-7.5 15,-2.5 20,2.5 15,7.5 15,10 10,15 7.5,15 2.5,17.5"
             id="path51"
             style="fill:#ffffff;fill-opacity:1;fill-rule:nonzero;stroke:none" /><path
             d="m 1868.75,1940 -2.5,17.5 -7.5,17.5 -10,12.5 -15,12.5 -15,7.5 -20,2.5 -15,-2.5 -17.5,-7.5 -15,-12.5 -10,-12.5 -7.5,-17.5 -2.5,-17.5 2.5,-17.5 7.5,-15 10,-15 15,-10 17.5,-7.5 15,-2.5 20,2.5 15,7.5 15,10 10,15 7.5,15 2.5,17.5"
             id="path53"
             style="fill:none;stroke:#000000;stroke-width:1;stroke-linecap:square;stroke-linejoin:miter;stroke-miterlimit:10;stroke-dasharray:none;stroke-opacity:1" /><path
             d="m 2201.25,2077.5 -7.5,-7.5 -5,-12.5 -10,-12.5 -10,-17.5 -15,-17.5 -2.5,-2.5 -2.5,-7.5 -7.5,-12.5 -10,-12.5 -7.5,-10 -5,-7.5 -10,-17.5 -12.5,-17.5 -5,-5 -5,-10 -10,-15 -7.5,-10 -5,-7.5 -2.5,-2.5 -12.5,-20 -10,-17.5 -10,-12.5 -7.5,-10 -2.5,-5 -2.5,-2.5 -167.5,-249.99 -2.5,-2.5 -2.5,-5 -7.5,-10 -20,-30 -15,-20 v -2.5 l -5,-7.5 -7.5,-10 v -2.5 l -10,-12.5 -7.5,-10 -5,-5 -10,-17.5 -12.5,-17.5 -5,-7.5 -7.5,-10 -15,-25 -5,-7.5 -2.5,-2.5 -12.5,-17.5 -10,-17.5 -10,-15 -7.5,-10 -2.5,-5 -2.5,-2.5 h 107.5 l 7.5,7.5 5,10 10,15 10,17.5 15,17.5 v 2.5 l 5,7.5 7.5,12.5 10,12.5 7.5,10 2.5,7.5 25,35 2.5,5 7.5,10 10,12.5 v 2.5 l 7.5,10 5,7.5 v 2.5 l 15,20 20,30 7.5,10 2.5,5 2.5,2.5 167.5,249.99 7.5,7.5 5,10 10,12.5 10,17.5 15,20 2.5,2.5 2.5,7.5 7.5,10 10,15 7.5,10 5,5 10,17.5 12.5,17.5 5,7.5 5,10 10,12.5 7.5,12.5 5,7.5 2.5,2.5 12.5,17.5 10,17.5 10,12.5 7.5,12.5 2.5,5 2.5,2.5 h -107.5"
             id="path55"
             style="fill:#000000;fill-opacity:1;fill-rule:evenodd;stroke:none" /><path
             d="m 2241.25,1420 -2.5,17.5 -7.5,15 -10,15 -15,10 -15,7.5 -17.5,2.5 -20,-2.5 -15,-7.5 -15,-10 -10,-15 -7.5,-15 -2.5,-17.5 2.5,-17.5 7.5,-17.5 10,-12.5 15,-12.5 15,-7.5 20,-2.5 17.5,2.5 15,7.5 15,12.5 10,12.5 7.5,17.5 2.5,17.5"
             id="path57"
             style="fill:#ffffff;fill-opacity:1;fill-rule:nonzero;stroke:none" /><path
             d="m 2241.25,1420 -2.5,17.5 -7.5,15 -10,15 -15,10 -15,7.5 -17.5,2.5 -20,-2.5 -15,-7.5 -15,-10 -10,-15 -7.5,-15 -2.5,-17.5 2.5,-17.5 7.5,-17.5 10,-12.5 15,-12.5 15,-7.5 20,-2.5 17.5,2.5 15,7.5 15,12.5 10,12.5 7.5,17.5 2.5,17.5"
             id="path59"
             style="fill:none;stroke:#000000;stroke-width:1;stroke-linecap:square;stroke-linejoin:miter;stroke-miterlimit:10;stroke-dasharray:none;stroke-opacity:1" /></g></g></g></g></svg>
