<?xml version="1.0" encoding="UTF-8" standalone="no"?>
<!-- Created with Inkscape (http://www.inkscape.org/) -->

<svg
   version="1.0"
   width="100"
   height="52.05698"
   id="svg2"
   xml:space="preserve"
   xmlns="http://www.w3.org/2000/svg"
   xmlns:svg="http://www.w3.org/2000/svg"><defs
     id="defs5"><clipPath
       id="clipPath19"><path
         d="M 0.496094,0.496094 H 5953.25 V 3099.32 H 0.496094 Z"
         id="path21" /></clipPath></defs><g
     transform="matrix(0.16818934,0,0,-0.16818934,-0.06786709,52.067807)"
     id="g11"><g
       transform="scale(0.1)"
       id="g13"><g
         clip-path="url(#clipPath19)"
         id="g17"><path
           d="M 4.03516,4.03516 H 5949.7152 V 3095.7852 H 4.03516 Z"
           id="path23"
           style="fill:#000000;fill-opacity:1;fill-rule:nonzero;stroke:none" /><path
           d="m 122.945,122.945 h 5707.85 v 2853.93 H 122.945 Z"
           id="path27"
           style="fill:#ffffff;fill-opacity:1;fill-rule:nonzero;stroke:none" /></g></g></g><g
     id="g1060"
     transform="matrix(0.01298692,0,0,-0.01298692,11.288144,37.322978)"><path
       id="path31"
       style="fill:#000000;fill-opacity:1;fill-rule:nonzero;stroke:none;stroke-width:0.0129715"
       d="m 43.570312,4.6914062 c -0.415347,0.012064 -0.774233,0.2955386 -0.880859,0.6972657 l -2.806641,9.2500001 c -3.992365,-0.841461 -7.948252,1.571347 -9.029296,5.505859 -1.080785,3.934253 1.087346,8.029097 4.949218,9.345703 3.861743,1.316516 8.081667,-0.601588 9.628907,-4.376953 1.547369,-3.775391 -0.112027,-8.102446 -3.78711,-9.875 l 0.542969,-1.810547 7.511719,8.597657 c -0.07679,0.799173 0.400927,1.549193 1.158203,1.816406 0.757146,0.267083 1.599335,-0.01687 2.041016,-0.6875 h 1.15039 c 0.399263,3.224609 2.775331,5.852472 5.94336,6.574219 3.168027,0.721487 6.448738,-0.617977 8.205078,-3.351563 1.75621,-2.733534 1.611765,-6.275836 -0.361328,-8.857422 -1.973095,-2.581326 -5.352413,-3.650841 -8.451172,-2.673828 L 56.853516,9.34375 57.392578,7.5742188 58.521484,7.5605469 C 58.987031,7.467671 59.314501,7.0485861 59.292969,6.5742188 59.271306,6.0998513 58.907709,5.7121793 58.435547,5.6621094 l -3.912109,-0.00781 c -0.490194,0.00208 -0.901506,0.3717767 -0.955079,0.859375 -0.05318,0.4875983 0.267576,0.9389522 0.746094,1.046875 l 1.136719,0.013672 -1.46875,4.8144536 -10.458984,-3.3554693 0.603515,-2.0058593 c 0.02504,-0.2397133 0.22761,-0.4218825 0.46875,-0.4238282 L 46.5,6.5898438 c 0.463731,-0.096378 0.788844,-0.5170345 0.765625,-0.9902344 -0.02335,-0.4732 -0.38825,-0.857744 -0.859375,-0.9082032 z M 42.962891,10.896484 53.414062,14.25 51.511719,20.4375 c -0.211954,5.19e-4 -0.421996,0.03057 -0.625,0.0918 l -8.044922,-9.230469 z m 13.070312,1.107422 1.65625,3.613282 c -2.004355,1.221654 -3.343441,3.288545 -3.638672,5.617187 h -0.835937 z m -17.800781,4.205078 c 0.377128,-0.0034 0.758865,0.0288 1.142578,0.09961 l -0.998047,3.251953 c -0.247626,0.771804 -0.558047,1.520843 -0.927734,2.242187 -0.188087,0.407175 -0.05628,0.891206 0.3125,1.146485 0.368909,0.255408 0.866693,0.208159 1.18164,-0.111328 0.162144,-0.191719 0.299228,-0.404644 0.404297,-0.632813 0.363721,-0.815388 0.670617,-1.654692 0.921875,-2.511719 l 0.865235,-2.763671 c 2.745675,1.484976 3.886722,4.83187 2.621093,7.685546 -1.265887,2.853417 -4.513411,4.253484 -7.457031,3.214844 -2.94375,-1.038471 -4.594073,-4.16551 -3.789062,-7.18164 0.704271,-2.639002 3.082761,-4.41589 5.722656,-4.439454 z m 23.238281,0.02539 c 1.949295,-0.07385 3.848589,0.813115 5.037109,2.431641 1.463315,1.992031 1.548436,4.680007 0.212891,6.759765 -1.335415,2.07959 -3.816237,3.120774 -6.236328,2.619141 -2.420091,-0.501478 -4.280944,-2.441635 -4.679687,-4.88086 1.966737,-0.04462 3.935476,-0.04842 5.902343,-0.0098 0.324677,0.0064 0.628542,-0.154288 0.806641,-0.425781 0.178098,-0.271494 0.205605,-0.616749 0.07031,-0.91211 l -2.46289,-5.375 c 0.447005,-0.122264 0.899772,-0.189988 1.349609,-0.207031 z m -3.046875,0.972656 1.851563,4.027344 h -4.472657 c 0.270975,-1.649974 1.222508,-3.110778 2.621094,-4.027344 z"
       transform="matrix(77.092146,0,0,-77.092146,-873.77649,2878.467)" /></g><path
     style="display:inline;fill:#000000;fill-opacity:1;fill-rule:nonzero;stroke:none;stroke-width:0.0433514"
     id="path59-9"
     d="m 22.931319,37.98576 v 5.575574 c 0,1.591994 1.217209,2.934541 2.809203,2.934541 0.74899,0 1.466966,-0.25014 2.091182,-0.749503 v 0.499363 h 1.716757 V 37.98576 h -1.716757 v 5.325999 c 0,0.843142 -0.749151,1.592299 -1.591818,1.592299 -0.873956,0 -1.592276,-0.749157 -1.592276,-1.592299 V 37.98576 h -1.716823" /><path
     style="display:inline;fill:#000000;fill-opacity:1;fill-rule:nonzero;stroke:none;stroke-width:0.0429516"
     id="path51-5"
     d="m 74.987272,37.98576 h 1.926122 v 1.59477 h -1.926122 v 4.598906 c 0,0.374896 0.245012,0.750791 0.611022,0.750791 0.367327,0 0.611915,-0.125257 0.82592,-0.125257 l 0.48918,1.469857 c -0.367307,0.125089 -0.825479,0.232564 -1.3151,0.232564 -1.3142,0 -2.261552,-1.076666 -2.261552,-2.422143 V 39.58053 H 72.11337 v -1.59477 h 1.223372 v -1.720495 l 1.65053,-1.595764 v 3.316259" /><path
     style="display:inline;fill:#000000;fill-opacity:1;fill-rule:nonzero;stroke:none;stroke-width:0.0429516"
     id="path51-5-2"
     d="m 68.691118,37.98576 h 1.926122 v 1.59477 h -1.926122 v 4.598906 c 0,0.374896 0.245012,0.750791 0.611023,0.750791 0.367325,0 0.611915,-0.125257 0.825918,-0.125257 l 0.489181,1.469857 c -0.367308,0.125089 -0.825478,0.232564 -1.315099,0.232564 -1.314201,0 -2.261553,-1.076666 -2.261553,-2.422143 V 39.58053 h -1.223372 v -1.59477 h 1.223372 v -1.720495 l 1.65053,-1.595764 v 3.316259" /><path
     style="display:inline;fill:#000000;fill-opacity:1;fill-rule:nonzero;stroke:none;stroke-width:0.0429516"
     id="path51-5-4"
     d="m 53.118956,37.98576 h 1.926122 v 1.59477 h -1.926122 v 4.598906 c 0,0.374896 0.245012,0.750791 0.611022,0.750791 0.367325,0 0.611914,-0.125257 0.825919,-0.125257 l 0.489181,1.469857 c -0.367308,0.125089 -0.82548,0.232564 -1.3151,0.232564 -1.314201,0 -2.261553,-1.076666 -2.261553,-2.422143 V 39.58053 h -1.223372 v -1.59477 h 1.223372 v -1.720495 l 1.650531,-1.595764 v 3.316259" /><path
     style="display:inline;fill:#000000;fill-opacity:1;fill-rule:nonzero;stroke:none;stroke-width:0.0173211"
     d="m 60.467207,37.963278 c -1.061893,-0.02181 -2.11964,0.155406 -3.118872,0.52369 l 0.54669,1.481763 c 0.902428,-0.332733 1.864043,-0.473954 2.824143,-0.414892 0.654735,0.04172 1.164323,0.584601 1.164852,1.240897 v 0.406505 h -2.335645 c -1.163799,0 -2.178648,0.791755 -2.462034,1.920742 -0.283374,1.128987 0.237894,2.306122 1.264174,2.855543 0.578523,0.30953 1.221763,0.478837 1.877721,0.493387 0.586309,0.01266 1.162822,-0.150466 1.655784,-0.468484 v 0.243306 h 1.692325 v -5.403101 c 0,-1.500692 -1.15738,-2.746948 -2.653922,-2.857982 -0.151709,-0.01126 -0.303522,-0.01827 -0.455216,-0.02137 z m -0.711518,4.59171 h 2.128331 v 1.829268 c -0.755203,0.575407 -1.77242,0.669461 -2.620628,0.242498 -0.452772,-0.227943 -0.689666,-0.73703 -0.572411,-1.230337 0.116923,-0.493309 0.557724,-0.841429 1.064708,-0.841429 z"
     id="path67-30" /><path
     d="m 38.928212,46.245735 v -5.546794 c 0,-1.607608 -1.229154,-2.963318 -2.836768,-2.963318 -0.756328,0 -1.481347,0.252591 -2.111685,0.756852 v -0.504261 h -1.733593 v 8.257521 h 1.733593 v -5.294771 c 0,-0.851411 0.756499,-1.607916 1.607423,-1.607916 0.882533,0 1.607911,0.756505 1.607911,1.607916 v 5.294771 h 1.733649"
     id="path21326"
     style="display:inline;fill:#000000;fill-opacity:1;fill-rule:nonzero;stroke:none;stroke-width:0.0437766" /><path
     d="m 48.176253,46.245735 v -5.546794 c 0,-1.607608 -1.229153,-2.963318 -2.836768,-2.963318 -0.756327,0 -1.481346,0.252591 -2.111685,0.756852 v -0.504261 h -1.733592 v 8.257521 H 43.2278 v -5.294771 c 0,-0.851411 0.7565,-1.607916 1.607423,-1.607916 0.882534,0 1.607912,0.756505 1.607912,1.607916 v 5.294771 h 1.733647"
     id="path21326-0"
     style="display:inline;fill:#000000;fill-opacity:1;fill-rule:nonzero;stroke:none;stroke-width:0.0437766" /></svg>
