<?xml version="1.0" encoding="UTF-8" standalone="no"?>
<!-- Created with Inkscape (http://www.inkscape.org/) -->

<svg
   version="1.0"
   width="100"
   height="20"
   id="svg2"
   xml:space="preserve"
   xmlns="http://www.w3.org/2000/svg"
   xmlns:svg="http://www.w3.org/2000/svg"><defs
     id="defs5"><clipPath
       id="clipPath19"><path
         d="M 0,0 H 6822.5 V 1365 H 0 Z"
         id="path21" /></clipPath></defs><g
     transform="matrix(0.14657384,0,0,-0.14657384,0,20.007329)"
     id="g11"><g
       transform="scale(0.1)"
       id="g13"><g
         id="g15"
         transform="matrix(1,0,0,0.99963368,0,0.50003193)"><g
           clip-path="url(#clipPath19)"
           id="g17"><path
             d="M 0,0 H 6822.5 V 1365 H 0 Z"
             id="path23"
             style="fill:#000000;fill-opacity:1;fill-rule:evenodd;stroke:none" /><path
             d="m 136.45,136.5 h 6549.5998 v 1092 H 136.45 Z"
             id="path25"
             style="fill:#ffffff;fill-opacity:1;fill-rule:evenodd;stroke:none;stroke-width:0.919241" /><path
             d="m 2155,1050 -87.5,-87.5 V 835 l 80,45 V 315 H 2275 v 735 h -120"
             id="path27"
             style="fill:#000000;fill-opacity:1;fill-rule:evenodd;stroke:none" /><path
             d="m 2870,647.5 -5,-50 -10,-45 -5,-20 -15,-40 -12.5,-25 -12.5,-17.5 -17.5,-12.5 -17.5,-10 -20,-7.5 -22.5,-2.5 h -2.5 l -25,2.5 -20,7.5 -17.5,10 -15,17.5 -12.5,17.5 -5,7.5 -17.5,40 -5,20 -7.5,22.5 -5,22.5 -2.5,25 -5,22.5 v 85 l 2.5,22.5 2.5,25 15,67.5 7.5,20 10,20 10,17.5 v 2.5 l 12.5,20 17.5,15 17.5,10 20,7.5 25,2.5 h 2.5 l 25,-2.5 20,-7.5 17.5,-12.5 15,-15 12.5,-20 2.5,-5 10,-17.5 15,-40 10,-45 2.5,-22.5 2.5,-25 2.5,-27.5 z m 127.5,60 v 25 l -2.5,25 -7.5,47.5 -10,45 -20,62.5 -20,35 -2.5,5 -12.5,20 -30,35 -15,12.5 -20,12.5 -17.5,10 -40,15 -22.5,5 -45,5 h -2.5 l -25,-2.5 -22.5,-2.5 -22.5,-5 -20,-7.5 -20,-10 -17.5,-10 -17.5,-12.5 -30,-30 -15,-20 -12.5,-20 -20,-35 -15,-40 -7.5,-22.5 -15,-67.5 -2.5,-22.5 -2.5,-25 v -27.5 l -2.5,-25 v -25 l 5,-50 7.5,-47.5 10,-45 22.5,-60 10,-20 10,-17.5 V 415 l 15,-20 12.5,-17.5 15,-17.5 17.5,-12.5 17.5,-15 17.5,-10 40,-15 22.5,-5 22.5,-2.5 h 52.5 l 22.5,2.5 22.5,7.5 40,15 17.5,10 17.5,12.5 15,15 17.5,15 25,40 7.5,17.5 20,35 7.5,22.5 10,42.5 10,45 5,50 v 25 l 2.5,27.5 -2.5,25"
             id="path29"
             style="fill:#000000;fill-opacity:1;fill-rule:evenodd;stroke:none" /><path
             d="m 3597.5,647.5 -5,-50 -10,-45 -5,-20 -15,-40 -12.5,-25 -12.5,-17.5 -17.5,-12.5 -17.5,-10 -20,-7.5 -25,-2.5 h -2.5 l -22.5,2.5 -20,7.5 -20,10 -15,17.5 -12.5,17.5 -2.5,7.5 -10,20 -15,40 -10,45 -5,25 -2.5,22.5 v 25 l -2.5,25 v 7.5 l 2.5,27.5 2.5,22.5 2.5,25 7.5,45 7.5,22.5 7.5,20 17.5,37.5 v 2.5 l 15,20 15,15 20,10 20,7.5 22.5,2.5 h 5 l 22.5,-2.5 22.5,-7.5 17.5,-12.5 15,-15 12.5,-20 2.5,-5 10,-17.5 7.5,-20 5,-20 7.5,-22.5 5,-22.5 2.5,-22.5 2.5,-25 2.5,-27.5 z m 125,85 v 25 l -2.5,25 -15,67.5 -7.5,20 -5,20 -10,22.5 -7.5,17.5 -12.5,17.5 v 5 l -15,20 -12.5,17.5 -15,17.5 -35,25 -17.5,10 -40,15 -22.5,5 -22.5,2.5 -25,2.5 h -2.5 l -45,-5 -22.5,-5 -20,-7.5 -20,-10 -17.5,-10 -17.5,-12.5 -32.5,-30 -12.5,-20 -15,-20 -10,-17.5 -15,-37.5 -10,-20 -20,-90 -2.5,-22.5 -2.5,-25 -2.5,-27.5 v -50 l 5,-50 2.5,-22.5 5,-25 10,-45 5,-20 7.5,-20 10,-20 7.5,-20 10,-17.5 2.5,-2.5 12.5,-20 30,-35 17.5,-12.5 17.5,-15 17.5,-10 40,-15 22.5,-5 22.5,-2.5 h 52.5 l 22.5,2.5 20,7.5 22.5,7.5 20,7.5 17.5,10 15,12.5 17.5,15 15,15 15,20 10,20 20,35 7.5,17.5 7.5,22.5 7.5,20 10,45 2.5,22.5 5,25 v 25 l 2.5,25 v 52.5 l -2.5,25"
             id="path31"
             style="fill:#000000;fill-opacity:1;fill-rule:evenodd;stroke:none" /><path
             d="m 4742.5,727.5 -5,17.5 -7.5,20 -10,15 -12.5,17.5 -7.5,7.5 -17.5,15 -15,10 -17.5,10 -17.5,7.5 -20,5 -20,2.5 h -10 l -22.5,-2.5 -20,-2.5 -17.5,-5 -20,-5 -15,-10 -17.5,-10 -30,-25 -7.5,-10 -12.5,15 -15,15 -15,12.5 -15,10 -20,7.5 -17.5,5 -17.5,2.5 -22.5,2.5 -20,-2.5 -17.5,-2.5 -20,-7.5 -17.5,-7.5 -17.5,-10 -15,-12.5 -7.5,-5 v 30 h -110 V 315 h 110 v 350 l 2.5,20 5,20 15,22.5 17.5,10 15,10 22.5,2.5 h 7.5 l 22.5,-2.5 17.5,-5 22.5,-15 12.5,-17.5 7.5,-15 2.5,-20 V 315 H 4465 v 350 l 2.5,20 5,20 10,15 7.5,7.5 15,10 17.5,10 20,2.5 h 10 l 20,-2.5 20,-5 15,-10 5,-5 12.5,-17.5 7.5,-15 5,-20 V 315 h 110 v 372.5 l -5,40"
             id="path33"
             style="fill:#000000;fill-opacity:1;fill-rule:evenodd;stroke:none" /></g></g></g></g></svg>
